G04 #@! TF.GenerationSoftware,KiCad,Pcbnew,(6.0.4)*
G04 #@! TF.CreationDate,2022-06-28T09:07:53+02:00*
G04 #@! TF.ProjectId,LevelShifter,4c657665-6c53-4686-9966-7465722e6b69,rev?*
G04 #@! TF.SameCoordinates,Original*
G04 #@! TF.FileFunction,Copper,L2,Bot*
G04 #@! TF.FilePolarity,Positive*
%FSLAX46Y46*%
G04 Gerber Fmt 4.6, Leading zero omitted, Abs format (unit mm)*
G04 Created by KiCad (PCBNEW (6.0.4)) date 2022-06-28 09:07:53*
%MOMM*%
%LPD*%
G01*
G04 APERTURE LIST*
G04 Aperture macros list*
%AMRoundRect*
0 Rectangle with rounded corners*
0 $1 Rounding radius*
0 $2 $3 $4 $5 $6 $7 $8 $9 X,Y pos of 4 corners*
0 Add a 4 corners polygon primitive as box body*
4,1,4,$2,$3,$4,$5,$6,$7,$8,$9,$2,$3,0*
0 Add four circle primitives for the rounded corners*
1,1,$1+$1,$2,$3*
1,1,$1+$1,$4,$5*
1,1,$1+$1,$6,$7*
1,1,$1+$1,$8,$9*
0 Add four rect primitives between the rounded corners*
20,1,$1+$1,$2,$3,$4,$5,0*
20,1,$1+$1,$4,$5,$6,$7,0*
20,1,$1+$1,$6,$7,$8,$9,0*
20,1,$1+$1,$8,$9,$2,$3,0*%
G04 Aperture macros list end*
G04 #@! TA.AperFunction,ComponentPad*
%ADD10R,1.700000X1.700000*%
G04 #@! TD*
G04 #@! TA.AperFunction,ComponentPad*
%ADD11O,1.700000X1.700000*%
G04 #@! TD*
G04 #@! TA.AperFunction,SMDPad,CuDef*
%ADD12RoundRect,0.225000X-0.250000X0.225000X-0.250000X-0.225000X0.250000X-0.225000X0.250000X0.225000X0*%
G04 #@! TD*
G04 #@! TA.AperFunction,SMDPad,CuDef*
%ADD13RoundRect,0.225000X0.250000X-0.225000X0.250000X0.225000X-0.250000X0.225000X-0.250000X-0.225000X0*%
G04 #@! TD*
G04 #@! TA.AperFunction,SMDPad,CuDef*
%ADD14R,1.404099X0.354800*%
G04 #@! TD*
G04 #@! TA.AperFunction,SMDPad,CuDef*
%ADD15RoundRect,0.225000X0.225000X0.250000X-0.225000X0.250000X-0.225000X-0.250000X0.225000X-0.250000X0*%
G04 #@! TD*
G04 #@! TA.AperFunction,SMDPad,CuDef*
%ADD16RoundRect,0.225000X-0.225000X-0.250000X0.225000X-0.250000X0.225000X0.250000X-0.225000X0.250000X0*%
G04 #@! TD*
G04 #@! TA.AperFunction,ViaPad*
%ADD17C,0.800000*%
G04 #@! TD*
G04 #@! TA.AperFunction,Conductor*
%ADD18C,0.250000*%
G04 #@! TD*
G04 APERTURE END LIST*
D10*
X170000000Y-80000000D03*
D11*
X172540000Y-80000000D03*
X170000000Y-82540000D03*
X172540000Y-82540000D03*
X170000000Y-85080000D03*
X172540000Y-85080000D03*
X170000000Y-87620000D03*
X172540000Y-87620000D03*
X170000000Y-90160000D03*
X172540000Y-90160000D03*
X170000000Y-92700000D03*
X172540000Y-92700000D03*
X170000000Y-95240000D03*
X172540000Y-95240000D03*
X170000000Y-97780000D03*
X172540000Y-97780000D03*
X170000000Y-100320000D03*
X172540000Y-100320000D03*
X170000000Y-102860000D03*
X172540000Y-102860000D03*
X170000000Y-105400000D03*
X172540000Y-105400000D03*
X170000000Y-107940000D03*
X172540000Y-107940000D03*
X170000000Y-110480000D03*
X172540000Y-110480000D03*
X170000000Y-113020000D03*
X172540000Y-113020000D03*
X170000000Y-115560000D03*
X172540000Y-115560000D03*
D10*
X150000000Y-80000000D03*
D11*
X147460000Y-80000000D03*
X150000000Y-82540000D03*
X147460000Y-82540000D03*
X150000000Y-85080000D03*
X147460000Y-85080000D03*
X150000000Y-87620000D03*
X147460000Y-87620000D03*
X150000000Y-90160000D03*
X147460000Y-90160000D03*
X150000000Y-92700000D03*
X147460000Y-92700000D03*
X150000000Y-95240000D03*
X147460000Y-95240000D03*
X150000000Y-97780000D03*
X147460000Y-97780000D03*
X150000000Y-100320000D03*
X147460000Y-100320000D03*
X150000000Y-102860000D03*
X147460000Y-102860000D03*
X150000000Y-105400000D03*
X147460000Y-105400000D03*
X150000000Y-107940000D03*
X147460000Y-107940000D03*
X150000000Y-110480000D03*
X147460000Y-110480000D03*
X150000000Y-113020000D03*
X147460000Y-113020000D03*
X150000000Y-115560000D03*
X147460000Y-115560000D03*
D12*
X155900000Y-108025000D03*
X155900000Y-109575000D03*
D13*
X160300000Y-109475000D03*
X160300000Y-107925000D03*
D14*
X162949948Y-91550042D03*
X162949948Y-92200028D03*
X162949948Y-92850014D03*
X162949948Y-93500000D03*
X162949948Y-94149986D03*
X162949948Y-94799972D03*
X162949948Y-95449958D03*
X157050052Y-95449958D03*
X157050052Y-94799972D03*
X157050052Y-94149986D03*
X157050052Y-93500000D03*
X157050052Y-92850014D03*
X157050052Y-92200028D03*
X157050052Y-91550042D03*
D15*
X160875000Y-87900000D03*
X159325000Y-87900000D03*
D14*
X162949948Y-102050042D03*
X162949948Y-102700028D03*
X162949948Y-103350014D03*
X162949948Y-104000000D03*
X162949948Y-104649986D03*
X162949948Y-105299972D03*
X162949948Y-105949958D03*
X157050052Y-105949958D03*
X157050052Y-105299972D03*
X157050052Y-104649986D03*
X157050052Y-104000000D03*
X157050052Y-103350014D03*
X157050052Y-102700028D03*
X157050052Y-102050042D03*
D15*
X160675000Y-98000000D03*
X159125000Y-98000000D03*
D14*
X162949948Y-81550042D03*
X162949948Y-82200028D03*
X162949948Y-82850014D03*
X162949948Y-83500000D03*
X162949948Y-84149986D03*
X162949948Y-84799972D03*
X162949948Y-85449958D03*
X157050052Y-85449958D03*
X157050052Y-84799972D03*
X157050052Y-84149986D03*
X157050052Y-83500000D03*
X157050052Y-82850014D03*
X157050052Y-82200028D03*
X157050052Y-81550042D03*
D16*
X158125000Y-99800000D03*
X159675000Y-99800000D03*
X158325000Y-89500000D03*
X159875000Y-89500000D03*
D17*
X160600000Y-96600000D03*
X160600000Y-86700000D03*
X161800000Y-108800000D03*
X157050052Y-107149948D03*
X161400000Y-106000000D03*
X159300000Y-85400000D03*
X159300000Y-95300000D03*
X159300000Y-106000000D03*
X161400000Y-85400000D03*
X161400000Y-95400000D03*
D18*
X160700000Y-110500000D02*
X160900000Y-110500000D01*
X160600000Y-87625000D02*
X160875000Y-87900000D01*
X162400000Y-86700000D02*
X160600000Y-86700000D01*
X155500000Y-110500000D02*
X155400000Y-110500000D01*
X155900000Y-110100000D02*
X155900000Y-110500000D01*
X160600000Y-86700000D02*
X160600000Y-87625000D01*
X160400000Y-110500000D02*
X160900000Y-110500000D01*
X162500000Y-96600000D02*
X160600000Y-96600000D01*
X156500000Y-110500000D02*
X159900000Y-110500000D01*
X160300000Y-110100000D02*
X160300000Y-110400000D01*
X160800000Y-99100000D02*
X160800000Y-98125000D01*
X162949948Y-95449958D02*
X162949948Y-96150052D01*
X160300000Y-110400000D02*
X160400000Y-110500000D01*
X155900000Y-110100000D02*
X156300000Y-110500000D01*
X155900000Y-110500000D02*
X156500000Y-110500000D01*
X160875000Y-88500000D02*
X159875000Y-89500000D01*
X155400000Y-110500000D02*
X155900000Y-110500000D01*
X160900000Y-110500000D02*
X169980000Y-110500000D01*
X160300000Y-109475000D02*
X160300000Y-110100000D01*
X160300000Y-110100000D02*
X160700000Y-110500000D01*
X162949948Y-96150052D02*
X162500000Y-96600000D01*
X150000000Y-110480000D02*
X150020000Y-110500000D01*
X162949948Y-85449958D02*
X162949948Y-86150052D01*
X159675000Y-99800000D02*
X160100000Y-99800000D01*
X160675000Y-98000000D02*
X160675000Y-96675000D01*
X147460000Y-110480000D02*
X150000000Y-110480000D01*
X159900000Y-110500000D02*
X160400000Y-110500000D01*
X160800000Y-98125000D02*
X160675000Y-98000000D01*
X160675000Y-96675000D02*
X160600000Y-96600000D01*
X161800000Y-108800000D02*
X162949948Y-107650052D01*
X160300000Y-110100000D02*
X159900000Y-110500000D01*
X155900000Y-110100000D02*
X155500000Y-110500000D01*
X160100000Y-99800000D02*
X160800000Y-99100000D01*
X155900000Y-109575000D02*
X155900000Y-110100000D01*
X162949948Y-86150052D02*
X162400000Y-86700000D01*
X162949948Y-107650052D02*
X162949948Y-105949958D01*
X160875000Y-87900000D02*
X160875000Y-88500000D01*
X169980000Y-110500000D02*
X170000000Y-110480000D01*
X156300000Y-110500000D02*
X156500000Y-110500000D01*
X150020000Y-110500000D02*
X155400000Y-110500000D01*
X158100000Y-91800000D02*
X158100000Y-95200000D01*
X150020000Y-113000000D02*
X150000000Y-113020000D01*
X157050052Y-102050042D02*
X157849958Y-102050042D01*
X172540000Y-113020000D02*
X170000000Y-113020000D01*
X158100000Y-91500000D02*
X158100000Y-91800000D01*
X157050052Y-95449958D02*
X157849958Y-95449958D01*
X158100000Y-95700000D02*
X158100000Y-95800000D01*
X156775052Y-107149948D02*
X155900000Y-108025000D01*
X158050042Y-102050042D02*
X158100000Y-102100000D01*
X157849958Y-91550042D02*
X158049958Y-91550042D01*
X170000000Y-113020000D02*
X169980000Y-113000000D01*
X158100000Y-91300000D02*
X158100000Y-91500000D01*
X158100000Y-101800000D02*
X158100000Y-102100000D01*
X157050052Y-107149948D02*
X156775052Y-107149948D01*
X158100000Y-85400000D02*
X158100000Y-85700000D01*
X158100000Y-102100000D02*
X158100000Y-102300000D01*
X158050042Y-85449958D02*
X158100000Y-85400000D01*
X158100000Y-95400000D02*
X158100000Y-95800000D01*
X158100000Y-81647941D02*
X158100000Y-85200000D01*
X158002101Y-81550042D02*
X158100000Y-81647941D01*
X158100000Y-102300000D02*
X158100000Y-105800000D01*
X169980000Y-113000000D02*
X150020000Y-113000000D01*
X158050042Y-95449958D02*
X158100000Y-95400000D01*
X157849958Y-95449958D02*
X158050042Y-95449958D01*
X157950042Y-105949958D02*
X157050052Y-105949958D01*
X157850042Y-85449958D02*
X157850042Y-85450042D01*
X157850042Y-91550042D02*
X157850042Y-91549958D01*
X157849958Y-95449958D02*
X157850042Y-95449958D01*
X157850042Y-85450042D02*
X158100000Y-85700000D01*
X157050052Y-85449958D02*
X158050042Y-85449958D01*
X157050052Y-81550042D02*
X158002101Y-81550042D01*
X157850042Y-91550042D02*
X158100000Y-91800000D01*
X157850042Y-102050042D02*
X158100000Y-102300000D01*
X157850042Y-91549958D02*
X158100000Y-91300000D01*
X158049958Y-91550042D02*
X158100000Y-91500000D01*
X158100000Y-85700000D02*
X158100000Y-91300000D01*
X157849958Y-91550042D02*
X157850042Y-91550042D01*
X157850042Y-85449958D02*
X158100000Y-85200000D01*
X157050052Y-105949958D02*
X157050052Y-107149948D01*
X157050052Y-91550042D02*
X157849958Y-91550042D01*
X157849958Y-102050042D02*
X157850042Y-102050042D01*
X158100000Y-105800000D02*
X157950042Y-105949958D01*
X157849958Y-102050042D02*
X158050042Y-102050042D01*
X157849958Y-95449958D02*
X158100000Y-95700000D01*
X157849958Y-102050042D02*
X158100000Y-101800000D01*
X158100000Y-85200000D02*
X158100000Y-85400000D01*
X158100000Y-95800000D02*
X158100000Y-101800000D01*
X158100000Y-95200000D02*
X158100000Y-95400000D01*
X157850042Y-95449958D02*
X158100000Y-95200000D01*
X161849958Y-91550042D02*
X161400000Y-92000000D01*
X150040000Y-115600000D02*
X150000000Y-115560000D01*
X159325000Y-87900000D02*
X159325000Y-85425000D01*
X162949948Y-91550042D02*
X161849958Y-91550042D01*
X161400000Y-102400000D02*
X161400000Y-106000000D01*
X159300000Y-107400000D02*
X159300000Y-106000000D01*
X159400000Y-95400000D02*
X161400000Y-95400000D01*
X161400000Y-82147941D02*
X161400000Y-85400000D01*
X170000000Y-115560000D02*
X169960000Y-115600000D01*
X159825000Y-107925000D02*
X159300000Y-107400000D01*
X159300000Y-95300000D02*
X159400000Y-95400000D01*
X172540000Y-115560000D02*
X170000000Y-115560000D01*
X161997899Y-81550042D02*
X161400000Y-82147941D01*
X159300000Y-97825000D02*
X159125000Y-98000000D01*
X160300000Y-107925000D02*
X159825000Y-107925000D01*
X150000000Y-115560000D02*
X147460000Y-115560000D01*
X161400000Y-106000000D02*
X159300000Y-106000000D01*
X161749958Y-102050042D02*
X161400000Y-102400000D01*
X162949948Y-81550042D02*
X161997899Y-81550042D01*
X161400000Y-92000000D02*
X161400000Y-95400000D01*
X159300000Y-95300000D02*
X159300000Y-97825000D01*
X159325000Y-85425000D02*
X159300000Y-85400000D01*
X162949948Y-102050042D02*
X161749958Y-102050042D01*
X169960000Y-115600000D02*
X150040000Y-115600000D01*
X159300000Y-85400000D02*
X161400000Y-85400000D01*
X169625489Y-81174511D02*
X168599972Y-82200028D01*
X166625028Y-81925028D02*
X166625028Y-81489674D01*
X165800028Y-82200028D02*
X164576722Y-82200028D01*
X166075028Y-81489674D02*
X166075028Y-81925028D01*
X164576722Y-82200028D02*
X162949948Y-82200028D01*
X171365489Y-81174511D02*
X169625489Y-81174511D01*
X172540000Y-80000000D02*
X171365489Y-81174511D01*
X168599972Y-82200028D02*
X166900028Y-82200028D01*
X165800028Y-82200028D02*
G75*
G03*
X166075028Y-81925028I-28J275028D01*
G01*
X166624972Y-81925028D02*
G75*
G03*
X166900028Y-82200028I275028J28D01*
G01*
X166350028Y-81214672D02*
G75*
G02*
X166625028Y-81489674I-28J-275028D01*
G01*
X166074974Y-81489674D02*
G75*
G02*
X166350028Y-81214674I275026J-26D01*
G01*
X162949948Y-82850014D02*
X166550014Y-82850014D01*
X168649004Y-82850014D02*
X169513501Y-83714511D01*
X171365489Y-83714511D02*
X172540000Y-82540000D01*
X167300014Y-83597321D02*
X167300014Y-83100014D01*
X166800014Y-83100014D02*
X166800014Y-83597321D01*
X167550014Y-82850014D02*
X168649004Y-82850014D01*
X169513501Y-83714511D02*
X171365489Y-83714511D01*
X167550014Y-82850014D02*
G75*
G03*
X167300014Y-83100014I-14J-249986D01*
G01*
X166799986Y-83100014D02*
G75*
G03*
X166550014Y-82850014I-249986J14D01*
G01*
X167300021Y-83597321D02*
G75*
G02*
X167050014Y-83847321I-250021J21D01*
G01*
X167050014Y-83847286D02*
G75*
G02*
X166800014Y-83597321I-14J249986D01*
G01*
X167533027Y-85139766D02*
X167498527Y-85174263D01*
X167074265Y-84749999D02*
X167074264Y-84750000D01*
X165400000Y-83500000D02*
X166650000Y-84750000D01*
X167074264Y-84750000D02*
X167108763Y-84715502D01*
X167533026Y-85139767D02*
X167533027Y-85139766D01*
X162949948Y-83500000D02*
X165400000Y-83500000D01*
X171365489Y-86254511D02*
X172540000Y-85080000D01*
X167498528Y-85598528D02*
X168154511Y-86254511D01*
X168154511Y-86254511D02*
X171365489Y-86254511D01*
X167498527Y-85598527D02*
X167498528Y-85598528D01*
X167498522Y-85598532D02*
G75*
G02*
X167498527Y-85174263I212178J212132D01*
G01*
X167074232Y-84749967D02*
G75*
G02*
X166650000Y-84750000I-212132J212067D01*
G01*
X167533026Y-84715503D02*
G75*
G03*
X167108764Y-84715503I-212131J-212131D01*
G01*
X167532992Y-85139733D02*
G75*
G03*
X167533027Y-84715502I-212092J212133D01*
G01*
X171360000Y-88800000D02*
X172540000Y-87620000D01*
X162949948Y-84149986D02*
X164868976Y-84149986D01*
X169518990Y-88800000D02*
X171360000Y-88800000D01*
X164868976Y-84149986D02*
X169518990Y-88800000D01*
X164978740Y-92200028D02*
X162949948Y-92200028D01*
X172540000Y-90160000D02*
X171365489Y-91334511D01*
X168838962Y-92200028D02*
X167099972Y-92200028D01*
X171365489Y-91334511D02*
X169704479Y-91334511D01*
X166849972Y-91950028D02*
X166849972Y-91452910D01*
X166349972Y-91452910D02*
X166349972Y-91950028D01*
X166099972Y-92200028D02*
X164978740Y-92200028D01*
X169704479Y-91334511D02*
X168838962Y-92200028D01*
X166350010Y-91452910D02*
G75*
G02*
X166599972Y-91202910I249990J10D01*
G01*
X166599972Y-91202928D02*
G75*
G02*
X166849972Y-91452910I28J-249972D01*
G01*
X166099972Y-92199972D02*
G75*
G03*
X166349972Y-91950028I28J249972D01*
G01*
X166849972Y-91950028D02*
G75*
G03*
X167099972Y-92200028I250028J28D01*
G01*
X168489004Y-92850014D02*
X169513501Y-93874511D01*
X171365489Y-93874511D02*
X172540000Y-92700000D01*
X169513501Y-93874511D02*
X171365489Y-93874511D01*
X166874986Y-93560602D02*
X166874986Y-93125014D01*
X162949948Y-92850014D02*
X166049986Y-92850014D01*
X166324986Y-93125014D02*
X166324986Y-93560602D01*
X167149986Y-92850014D02*
X168489004Y-92850014D01*
X166599986Y-93835614D02*
G75*
G02*
X166324986Y-93560602I14J275014D01*
G01*
X166875002Y-93560602D02*
G75*
G02*
X166599986Y-93835602I-275002J2D01*
G01*
X166324986Y-93125014D02*
G75*
G03*
X166049986Y-92850014I-274986J14D01*
G01*
X167149986Y-92849986D02*
G75*
G03*
X166874986Y-93125014I14J-275014D01*
G01*
X168180224Y-95919776D02*
X168200000Y-95919776D01*
X168780224Y-96500000D02*
X168800000Y-96500000D01*
X171280000Y-96500000D02*
X172540000Y-95240000D01*
X164600000Y-93500000D02*
X167600000Y-96500000D01*
X168800000Y-96500000D02*
X171280000Y-96500000D01*
X162949948Y-93500000D02*
X164600000Y-93500000D01*
X167890100Y-96209888D02*
G75*
G02*
X167600000Y-96500000I-290100J-12D01*
G01*
X168490124Y-96209888D02*
G75*
G03*
X168200000Y-95919776I-290124J-12D01*
G01*
X168180224Y-95919812D02*
G75*
G03*
X167890112Y-96209888I-24J-290088D01*
G01*
X168780224Y-96499988D02*
G75*
G02*
X168490112Y-96209888I-24J290088D01*
G01*
X168706522Y-98954511D02*
X171365489Y-98954511D01*
X171365489Y-98954511D02*
X172540000Y-97780000D01*
X162949948Y-94149986D02*
X163901997Y-94149986D01*
X163901997Y-94149986D02*
X168706522Y-98954511D01*
X172540000Y-100320000D02*
X171260000Y-101600000D01*
X163817354Y-102700028D02*
X162949948Y-102700028D01*
X166499972Y-102400028D02*
X166499972Y-102030405D01*
X168498962Y-102700028D02*
X166799972Y-102700028D01*
X165899972Y-102030405D02*
X165899972Y-102400028D01*
X169598990Y-101600000D02*
X168498962Y-102700028D01*
X165599972Y-102700028D02*
X163817354Y-102700028D01*
X171260000Y-101600000D02*
X169598990Y-101600000D01*
X166499972Y-102400028D02*
G75*
G03*
X166799972Y-102700028I300028J28D01*
G01*
X165900005Y-102030405D02*
G75*
G02*
X166199972Y-101730405I299995J5D01*
G01*
X166199972Y-101730428D02*
G75*
G02*
X166499972Y-102030405I28J-299972D01*
G01*
X165599972Y-102699972D02*
G75*
G03*
X165899972Y-102400028I28J299972D01*
G01*
X169400000Y-104100000D02*
X171300000Y-104100000D01*
X167124986Y-104110970D02*
X167124986Y-103575014D01*
X166674986Y-103575014D02*
X166674986Y-104110970D01*
X167349986Y-103350014D02*
X168650014Y-103350014D01*
X162949948Y-103350014D02*
X166449986Y-103350014D01*
X171300000Y-104100000D02*
X172540000Y-102860000D01*
X168650014Y-103350014D02*
X169400000Y-104100000D01*
X167349986Y-103349986D02*
G75*
G03*
X167124986Y-103575014I14J-225014D01*
G01*
X166899986Y-104336014D02*
G75*
G02*
X166674986Y-104110970I14J225014D01*
G01*
X167124970Y-104110970D02*
G75*
G02*
X166899986Y-104335970I-224970J-30D01*
G01*
X166674986Y-103575014D02*
G75*
G03*
X166449986Y-103350014I-224986J14D01*
G01*
X169758287Y-106574511D02*
X171365489Y-106574511D01*
X171365489Y-106574511D02*
X172540000Y-105400000D01*
X167174511Y-106274511D02*
X167174511Y-106188443D01*
X168074511Y-106574511D02*
X169758287Y-106574511D01*
X164300000Y-104000000D02*
X166874511Y-106574511D01*
X167774511Y-106188443D02*
X167774511Y-106274511D01*
X162949948Y-104000000D02*
X164300000Y-104000000D01*
X167174511Y-106274511D02*
G75*
G02*
X166874511Y-106574511I-300011J11D01*
G01*
X167774457Y-106188443D02*
G75*
G03*
X167474511Y-105888443I-299957J43D01*
G01*
X167474511Y-105888411D02*
G75*
G03*
X167174511Y-106188443I-11J-299989D01*
G01*
X168074511Y-106574489D02*
G75*
G02*
X167774511Y-106274511I-11J299989D01*
G01*
X162949948Y-104649986D02*
X163901997Y-104649986D01*
X163901997Y-104649986D02*
X168452011Y-109200000D01*
X168452011Y-109200000D02*
X171280000Y-109200000D01*
X171280000Y-109200000D02*
X172540000Y-107940000D01*
X151645143Y-81300000D02*
X148760000Y-81300000D01*
X152600000Y-80600000D02*
X152600000Y-81000000D01*
X152300000Y-81300000D02*
X151645143Y-81300000D01*
X157050052Y-82200028D02*
X155900028Y-82200028D01*
X148760000Y-81300000D02*
X147460000Y-80000000D01*
X155000000Y-81300000D02*
X153500000Y-81300000D01*
X155900028Y-82200028D02*
X155000000Y-81300000D01*
X153200000Y-81000000D02*
X153200000Y-80600000D01*
X153200000Y-81000000D02*
G75*
G03*
X153500000Y-81300000I300000J0D01*
G01*
X152600000Y-80600000D02*
G75*
G02*
X152900000Y-80300000I300000J0D01*
G01*
X152300000Y-81300000D02*
G75*
G03*
X152600000Y-81000000I0J300000D01*
G01*
X152900000Y-80300000D02*
G75*
G02*
X153200000Y-80600000I0J-300000D01*
G01*
X153500000Y-83800000D02*
X153550000Y-83800000D01*
X154964282Y-83800000D02*
X155914268Y-82850014D01*
X155914268Y-82850014D02*
X157050052Y-82850014D01*
X153200000Y-83100000D02*
X153200000Y-83500000D01*
X147460000Y-82540000D02*
X148720000Y-83800000D01*
X153550000Y-83800000D02*
X154964282Y-83800000D01*
X148720000Y-83800000D02*
X152300000Y-83800000D01*
X152600000Y-83500000D02*
X152600000Y-83100000D01*
X153200000Y-83100000D02*
G75*
G03*
X152900000Y-82800000I-300000J0D01*
G01*
X152600000Y-83500000D02*
G75*
G02*
X152300000Y-83800000I-300000J0D01*
G01*
X153500000Y-83800000D02*
G75*
G02*
X153200000Y-83500000I0J300000D01*
G01*
X152900000Y-82800000D02*
G75*
G03*
X152600000Y-83100000I0J-300000D01*
G01*
X151894254Y-86105746D02*
X151894254Y-86105745D01*
X152788508Y-86400000D02*
X152800000Y-86400000D01*
X152494254Y-86105745D02*
X152494254Y-86105746D01*
X152800000Y-86400000D02*
X153000000Y-86400000D01*
X155900000Y-83500000D02*
X157050052Y-83500000D01*
X147460000Y-85080000D02*
X148780000Y-86400000D01*
X153000000Y-86400000D02*
X155900000Y-83500000D01*
X148780000Y-86400000D02*
X151600000Y-86400000D01*
X152188508Y-85811491D02*
X152200000Y-85811491D01*
X152494209Y-86105745D02*
G75*
G03*
X152200000Y-85811491I-294209J45D01*
G01*
X152788508Y-86399946D02*
G75*
G02*
X152494254Y-86105746I-8J294246D01*
G01*
X152188508Y-85811454D02*
G75*
G03*
X151894254Y-86105745I-8J-294246D01*
G01*
X151894300Y-86105746D02*
G75*
G02*
X151600000Y-86400000I-294300J46D01*
G01*
X148740000Y-88900000D02*
X147460000Y-87620000D01*
X151200000Y-88900000D02*
X148740000Y-88900000D01*
X155950014Y-84149986D02*
X151200000Y-88900000D01*
X157050052Y-84149986D02*
X155950014Y-84149986D01*
X148700000Y-91400000D02*
X152500000Y-91400000D01*
X147460000Y-90160000D02*
X148700000Y-91400000D01*
X155200000Y-91400000D02*
X156000028Y-92200028D01*
X153700000Y-91400000D02*
X155129299Y-91400000D01*
X155129299Y-91400000D02*
X155200000Y-91400000D01*
X152800000Y-91100000D02*
X152800000Y-90700000D01*
X153400000Y-90700000D02*
X153400000Y-91100000D01*
X156000028Y-92200028D02*
X157050052Y-92200028D01*
X152800000Y-91100000D02*
G75*
G02*
X152500000Y-91400000I-300000J0D01*
G01*
X153400000Y-90700000D02*
G75*
G03*
X153100000Y-90400000I-300000J0D01*
G01*
X153700000Y-91400000D02*
G75*
G02*
X153400000Y-91100000I0J300000D01*
G01*
X153100000Y-90400000D02*
G75*
G03*
X152800000Y-90700000I0J-300000D01*
G01*
X148760000Y-94000000D02*
X152600000Y-94000000D01*
X147460000Y-92700000D02*
X148760000Y-94000000D01*
X153800000Y-94000000D02*
X154900000Y-94000000D01*
X152900000Y-93700000D02*
X152900000Y-93344909D01*
X156049986Y-92850014D02*
X157050052Y-92850014D01*
X153500000Y-93344909D02*
X153500000Y-93700000D01*
X154900000Y-94000000D02*
X156049986Y-92850014D01*
X153499991Y-93344909D02*
G75*
G03*
X153200000Y-93044909I-299991J9D01*
G01*
X152900000Y-93700000D02*
G75*
G02*
X152600000Y-94000000I-300000J0D01*
G01*
X153800000Y-94000000D02*
G75*
G02*
X153500000Y-93700000I0J300000D01*
G01*
X153200000Y-93044900D02*
G75*
G03*
X152900000Y-93344909I0J-300000D01*
G01*
X152835489Y-96414511D02*
X153183492Y-96414511D01*
X147460000Y-95240000D02*
X148634511Y-96414511D01*
X151885489Y-96114511D02*
X151885489Y-96098894D01*
X156098003Y-93500000D02*
X157050052Y-93500000D01*
X152785489Y-96414511D02*
X152835489Y-96414511D01*
X148634511Y-96414511D02*
X151585489Y-96414511D01*
X152485489Y-96098894D02*
X152485489Y-96114511D01*
X153183492Y-96414511D02*
X156098003Y-93500000D01*
X152785489Y-96414511D02*
G75*
G02*
X152485489Y-96114511I11J300011D01*
G01*
X152185489Y-95798889D02*
G75*
G03*
X151885489Y-96098894I11J-300011D01*
G01*
X151885511Y-96114511D02*
G75*
G02*
X151585489Y-96414511I-300011J11D01*
G01*
X152485506Y-96098894D02*
G75*
G03*
X152185489Y-95798894I-300006J-6D01*
G01*
X156098003Y-94149986D02*
X151293478Y-98954511D01*
X157050052Y-94149986D02*
X156098003Y-94149986D01*
X148634511Y-98954511D02*
X147460000Y-97780000D01*
X151293478Y-98954511D02*
X148634511Y-98954511D01*
X155900028Y-102700028D02*
X157050052Y-102700028D01*
X153750000Y-101600000D02*
X154800000Y-101600000D01*
X153700000Y-101600000D02*
X153750000Y-101600000D01*
X153400000Y-100930421D02*
X153400000Y-101300000D01*
X147460000Y-100320000D02*
X148740000Y-101600000D01*
X148740000Y-101600000D02*
X152500000Y-101600000D01*
X152800000Y-101300000D02*
X152800000Y-100930421D01*
X154800000Y-101600000D02*
X155900028Y-102700028D01*
X153700000Y-101600000D02*
G75*
G02*
X153400000Y-101300000I0J300000D01*
G01*
X153399979Y-100930421D02*
G75*
G03*
X153100000Y-100630421I-299979J21D01*
G01*
X153100000Y-100630400D02*
G75*
G03*
X152800000Y-100930421I0J-300000D01*
G01*
X152800000Y-101300000D02*
G75*
G02*
X152500000Y-101600000I-300000J0D01*
G01*
X155949986Y-103350014D02*
X157050052Y-103350014D01*
X155200000Y-104100000D02*
X155949986Y-103350014D01*
X147460000Y-102860000D02*
X148700000Y-104100000D01*
X148700000Y-104100000D02*
X152300000Y-104100000D01*
X152600000Y-103800000D02*
X152600000Y-103350000D01*
X153500000Y-104100000D02*
X155200000Y-104100000D01*
X153200000Y-103350000D02*
X153200000Y-103800000D01*
X152600000Y-103800000D02*
G75*
G02*
X152300000Y-104100000I-300000J0D01*
G01*
X152900000Y-103050000D02*
G75*
G03*
X152600000Y-103350000I0J-300000D01*
G01*
X153200000Y-103350000D02*
G75*
G03*
X152900000Y-103050000I-300000J0D01*
G01*
X153500000Y-104100000D02*
G75*
G02*
X153200000Y-103800000I0J300000D01*
G01*
X153300000Y-106700000D02*
X156000000Y-104000000D01*
X156000000Y-104000000D02*
X157050052Y-104000000D01*
X151800000Y-106400000D02*
X151800000Y-106365928D01*
X152400000Y-106365928D02*
X152400000Y-106400000D01*
X152750000Y-106700000D02*
X153300000Y-106700000D01*
X147460000Y-105400000D02*
X148760000Y-106700000D01*
X148760000Y-106700000D02*
X151500000Y-106700000D01*
X152700000Y-106700000D02*
X152750000Y-106700000D01*
X152700000Y-106700000D02*
G75*
G02*
X152400000Y-106400000I0J300000D01*
G01*
X151800000Y-106400000D02*
G75*
G02*
X151500000Y-106700000I-300000J0D01*
G01*
X152399972Y-106365928D02*
G75*
G03*
X152100000Y-106065928I-299972J28D01*
G01*
X152100000Y-106065900D02*
G75*
G03*
X151800000Y-106365928I0J-300000D01*
G01*
X147460000Y-108160000D02*
X147460000Y-107940000D01*
X157050052Y-104649986D02*
X156171567Y-104649986D01*
X151621553Y-109200000D02*
X148500000Y-109200000D01*
X156171567Y-104649986D02*
X151621553Y-109200000D01*
X148500000Y-109200000D02*
X147460000Y-108160000D01*
G04 #@! TA.AperFunction,Conductor*
G36*
X164368509Y-106012856D02*
G01*
X164375092Y-106018985D01*
X167948354Y-109592247D01*
X167955898Y-109600537D01*
X167960011Y-109607018D01*
X167965788Y-109612443D01*
X168009678Y-109653658D01*
X168012520Y-109656413D01*
X168032242Y-109676135D01*
X168035366Y-109678558D01*
X168035370Y-109678562D01*
X168035435Y-109678612D01*
X168044456Y-109686317D01*
X168076690Y-109716586D01*
X168083638Y-109720405D01*
X168083640Y-109720407D01*
X168094443Y-109726346D01*
X168110970Y-109737202D01*
X168120709Y-109744757D01*
X168120711Y-109744758D01*
X168126971Y-109749614D01*
X168167551Y-109767174D01*
X168178199Y-109772391D01*
X168202987Y-109786018D01*
X168216951Y-109793695D01*
X168224627Y-109795666D01*
X168224630Y-109795667D01*
X168236573Y-109798733D01*
X168255278Y-109805137D01*
X168273866Y-109813181D01*
X168281689Y-109814420D01*
X168281699Y-109814423D01*
X168317535Y-109820099D01*
X168329155Y-109822505D01*
X168360962Y-109830671D01*
X168371981Y-109833500D01*
X168392235Y-109833500D01*
X168411945Y-109835051D01*
X168431954Y-109838220D01*
X168439846Y-109837474D01*
X168458591Y-109835702D01*
X168475973Y-109834059D01*
X168487830Y-109833500D01*
X168605741Y-109833500D01*
X168673862Y-109853502D01*
X168720355Y-109907158D01*
X168730459Y-109977432D01*
X168723992Y-110003005D01*
X168719776Y-110014464D01*
X168664389Y-110214183D01*
X168665912Y-110222607D01*
X168678292Y-110226000D01*
X172668000Y-110226000D01*
X172736121Y-110246002D01*
X172782614Y-110299658D01*
X172794000Y-110352000D01*
X172794000Y-110608000D01*
X172773998Y-110676121D01*
X172720342Y-110722614D01*
X172668000Y-110734000D01*
X168683225Y-110734000D01*
X168669694Y-110737973D01*
X168668257Y-110747966D01*
X168698565Y-110882446D01*
X168701645Y-110892275D01*
X168781770Y-111089603D01*
X168786413Y-111098794D01*
X168897694Y-111280388D01*
X168903777Y-111288699D01*
X169043213Y-111449667D01*
X169050580Y-111456883D01*
X169214434Y-111592916D01*
X169222881Y-111598831D01*
X169291969Y-111639203D01*
X169340693Y-111690842D01*
X169353764Y-111760625D01*
X169327033Y-111826396D01*
X169286584Y-111859752D01*
X169273607Y-111866507D01*
X169269474Y-111869610D01*
X169269471Y-111869612D01*
X169117227Y-111983920D01*
X169094965Y-112000635D01*
X168940629Y-112162138D01*
X168937720Y-112166403D01*
X168937714Y-112166411D01*
X168838738Y-112311504D01*
X168783827Y-112356507D01*
X168734650Y-112366500D01*
X151263867Y-112366500D01*
X151195746Y-112346498D01*
X151158075Y-112308940D01*
X151082822Y-112192617D01*
X151082820Y-112192614D01*
X151080014Y-112188277D01*
X150929670Y-112023051D01*
X150925619Y-112019852D01*
X150925615Y-112019848D01*
X150758414Y-111887800D01*
X150758410Y-111887798D01*
X150754359Y-111884598D01*
X150712569Y-111861529D01*
X150662598Y-111811097D01*
X150647826Y-111741654D01*
X150672942Y-111675248D01*
X150700294Y-111648641D01*
X150875328Y-111523792D01*
X150883200Y-111517139D01*
X151034052Y-111366812D01*
X151040730Y-111358965D01*
X151165003Y-111186020D01*
X151170313Y-111177183D01*
X151264670Y-110986267D01*
X151268469Y-110976672D01*
X151330377Y-110772910D01*
X151332555Y-110762837D01*
X151333986Y-110751962D01*
X151331775Y-110737778D01*
X151318617Y-110734000D01*
X147332000Y-110734000D01*
X147263879Y-110713998D01*
X147217386Y-110660342D01*
X147206000Y-110608000D01*
X147206000Y-110352000D01*
X147226002Y-110283879D01*
X147279658Y-110237386D01*
X147332000Y-110226000D01*
X151318344Y-110226000D01*
X151331875Y-110222027D01*
X151333180Y-110212947D01*
X151291214Y-110045875D01*
X151287892Y-110036118D01*
X151276424Y-110009743D01*
X151267603Y-109939296D01*
X151298269Y-109875264D01*
X151346597Y-109845438D01*
X154917000Y-109845438D01*
X154917337Y-109851953D01*
X154926894Y-109944057D01*
X154929788Y-109957456D01*
X154979381Y-110106107D01*
X154985555Y-110119286D01*
X155067788Y-110252173D01*
X155076824Y-110263574D01*
X155187429Y-110373986D01*
X155198840Y-110382998D01*
X155331880Y-110465004D01*
X155345061Y-110471151D01*
X155493814Y-110520491D01*
X155507190Y-110523358D01*
X155598097Y-110532672D01*
X155604513Y-110533000D01*
X155627885Y-110533000D01*
X155643124Y-110528525D01*
X155644329Y-110527135D01*
X155646000Y-110519452D01*
X155646000Y-110514885D01*
X156154000Y-110514885D01*
X156158475Y-110530124D01*
X156159865Y-110531329D01*
X156167548Y-110533000D01*
X156195438Y-110533000D01*
X156201953Y-110532663D01*
X156294057Y-110523106D01*
X156307456Y-110520212D01*
X156456107Y-110470619D01*
X156469286Y-110464445D01*
X156602173Y-110382212D01*
X156613574Y-110373176D01*
X156723986Y-110262571D01*
X156732998Y-110251160D01*
X156815004Y-110118120D01*
X156821151Y-110104939D01*
X156870491Y-109956186D01*
X156873358Y-109942810D01*
X156882672Y-109851903D01*
X156882929Y-109846874D01*
X156878525Y-109831876D01*
X156877135Y-109830671D01*
X156869452Y-109829000D01*
X156172115Y-109829000D01*
X156156876Y-109833475D01*
X156155671Y-109834865D01*
X156154000Y-109842548D01*
X156154000Y-110514885D01*
X155646000Y-110514885D01*
X155646000Y-109847115D01*
X155641525Y-109831876D01*
X155640135Y-109830671D01*
X155632452Y-109829000D01*
X154935115Y-109829000D01*
X154919876Y-109833475D01*
X154918671Y-109834865D01*
X154917000Y-109842548D01*
X154917000Y-109845438D01*
X151346597Y-109845438D01*
X151358686Y-109837977D01*
X151391973Y-109833500D01*
X151542786Y-109833500D01*
X151553969Y-109834027D01*
X151561462Y-109835702D01*
X151569388Y-109835453D01*
X151569389Y-109835453D01*
X151629539Y-109833562D01*
X151633498Y-109833500D01*
X151661409Y-109833500D01*
X151665344Y-109833003D01*
X151665409Y-109832995D01*
X151677246Y-109832062D01*
X151709504Y-109831048D01*
X151713523Y-109830922D01*
X151721442Y-109830673D01*
X151740896Y-109825021D01*
X151760253Y-109821013D01*
X151772483Y-109819468D01*
X151772484Y-109819468D01*
X151780350Y-109818474D01*
X151787721Y-109815555D01*
X151787723Y-109815555D01*
X151821465Y-109802196D01*
X151832695Y-109798351D01*
X151867536Y-109788229D01*
X151867537Y-109788229D01*
X151875146Y-109786018D01*
X151881965Y-109781985D01*
X151881970Y-109781983D01*
X151892581Y-109775707D01*
X151910329Y-109767012D01*
X151929170Y-109759552D01*
X151948597Y-109745438D01*
X159317000Y-109745438D01*
X159317337Y-109751953D01*
X159326894Y-109844057D01*
X159329788Y-109857456D01*
X159379381Y-110006107D01*
X159385555Y-110019286D01*
X159467788Y-110152173D01*
X159476824Y-110163574D01*
X159587429Y-110273986D01*
X159598840Y-110282998D01*
X159731880Y-110365004D01*
X159745061Y-110371151D01*
X159893814Y-110420491D01*
X159907190Y-110423358D01*
X159998097Y-110432672D01*
X160004513Y-110433000D01*
X160027885Y-110433000D01*
X160043124Y-110428525D01*
X160044329Y-110427135D01*
X160046000Y-110419452D01*
X160046000Y-110414885D01*
X160554000Y-110414885D01*
X160558475Y-110430124D01*
X160559865Y-110431329D01*
X160567548Y-110433000D01*
X160595438Y-110433000D01*
X160601953Y-110432663D01*
X160694057Y-110423106D01*
X160707456Y-110420212D01*
X160856107Y-110370619D01*
X160869286Y-110364445D01*
X161002173Y-110282212D01*
X161013574Y-110273176D01*
X161123986Y-110162571D01*
X161132998Y-110151160D01*
X161215004Y-110018120D01*
X161221151Y-110004939D01*
X161270491Y-109856186D01*
X161273358Y-109842810D01*
X161282672Y-109751903D01*
X161282929Y-109746874D01*
X161278525Y-109731876D01*
X161277135Y-109730671D01*
X161269452Y-109729000D01*
X160572115Y-109729000D01*
X160556876Y-109733475D01*
X160555671Y-109734865D01*
X160554000Y-109742548D01*
X160554000Y-110414885D01*
X160046000Y-110414885D01*
X160046000Y-109747115D01*
X160041525Y-109731876D01*
X160040135Y-109730671D01*
X160032452Y-109729000D01*
X159335115Y-109729000D01*
X159319876Y-109733475D01*
X159318671Y-109734865D01*
X159317000Y-109742548D01*
X159317000Y-109745438D01*
X151948597Y-109745438D01*
X151964940Y-109733564D01*
X151974860Y-109727048D01*
X152006088Y-109708580D01*
X152006091Y-109708578D01*
X152012915Y-109704542D01*
X152027236Y-109690221D01*
X152042270Y-109677380D01*
X152043984Y-109676135D01*
X152058660Y-109665472D01*
X152086851Y-109631395D01*
X152094841Y-109622616D01*
X155624750Y-106092707D01*
X155687062Y-106058681D01*
X155757877Y-106063746D01*
X155814713Y-106106293D01*
X155839503Y-106174557D01*
X155839503Y-106175492D01*
X155846258Y-106237674D01*
X155897388Y-106374063D01*
X155984742Y-106490619D01*
X156101298Y-106577973D01*
X156109707Y-106581125D01*
X156109710Y-106581127D01*
X156151081Y-106596636D01*
X156207846Y-106639276D01*
X156232547Y-106705838D01*
X156218783Y-106765428D01*
X156221512Y-106766643D01*
X156218828Y-106772671D01*
X156215525Y-106778392D01*
X156211390Y-106791118D01*
X156207940Y-106801736D01*
X156177202Y-106851893D01*
X155999500Y-107029595D01*
X155937188Y-107063621D01*
X155910405Y-107066500D01*
X155601268Y-107066500D01*
X155598022Y-107066837D01*
X155598018Y-107066837D01*
X155563917Y-107070375D01*
X155498981Y-107077113D01*
X155481713Y-107082874D01*
X155343676Y-107128927D01*
X155343674Y-107128928D01*
X155336732Y-107131244D01*
X155330508Y-107135096D01*
X155330507Y-107135096D01*
X155222608Y-107201866D01*
X155191287Y-107221248D01*
X155070448Y-107342298D01*
X155066608Y-107348528D01*
X155066607Y-107348529D01*
X154992160Y-107469305D01*
X154980698Y-107487899D01*
X154926851Y-107650243D01*
X154926151Y-107657080D01*
X154926150Y-107657082D01*
X154922593Y-107691800D01*
X154916500Y-107751268D01*
X154916500Y-108298732D01*
X154916837Y-108301978D01*
X154916837Y-108301982D01*
X154917982Y-108313013D01*
X154927113Y-108401019D01*
X154929295Y-108407559D01*
X154978537Y-108555153D01*
X154981244Y-108563268D01*
X154985096Y-108569492D01*
X154985096Y-108569493D01*
X155041765Y-108661069D01*
X155071248Y-108708713D01*
X155076430Y-108713886D01*
X155080977Y-108719623D01*
X155079170Y-108721055D01*
X155107902Y-108773575D01*
X155102892Y-108844395D01*
X155079501Y-108880853D01*
X155080552Y-108881683D01*
X155067002Y-108898840D01*
X154984996Y-109031880D01*
X154978849Y-109045061D01*
X154929509Y-109193814D01*
X154926642Y-109207190D01*
X154917328Y-109298097D01*
X154917071Y-109303126D01*
X154921475Y-109318124D01*
X154922865Y-109319329D01*
X154930548Y-109321000D01*
X156864885Y-109321000D01*
X156880124Y-109316525D01*
X156881329Y-109315135D01*
X156883000Y-109307452D01*
X156883000Y-109304562D01*
X156882663Y-109298047D01*
X156873106Y-109205943D01*
X156870212Y-109192544D01*
X156820619Y-109043893D01*
X156814445Y-109030714D01*
X156732212Y-108897827D01*
X156718629Y-108880689D01*
X156720559Y-108879159D01*
X156692097Y-108827120D01*
X156697113Y-108756301D01*
X156720799Y-108719383D01*
X156719843Y-108718628D01*
X156724381Y-108712882D01*
X156729552Y-108707702D01*
X156795034Y-108601471D01*
X156815462Y-108568331D01*
X156815463Y-108568329D01*
X156819302Y-108562101D01*
X156873149Y-108399757D01*
X156883500Y-108298732D01*
X156883500Y-108184448D01*
X156903502Y-108116327D01*
X156957158Y-108069834D01*
X157009500Y-108058448D01*
X157145539Y-108058448D01*
X157151991Y-108057076D01*
X157151996Y-108057076D01*
X157238940Y-108038595D01*
X157332340Y-108018742D01*
X157359634Y-108006590D01*
X157500774Y-107943751D01*
X157500776Y-107943750D01*
X157506804Y-107941066D01*
X157661305Y-107828814D01*
X157789092Y-107686892D01*
X157874651Y-107538700D01*
X157881275Y-107527227D01*
X157881276Y-107527226D01*
X157884579Y-107521504D01*
X157943594Y-107339876D01*
X157944832Y-107328103D01*
X157962866Y-107156513D01*
X157963556Y-107149948D01*
X157952517Y-107044914D01*
X157944284Y-106966583D01*
X157944284Y-106966581D01*
X157943594Y-106960020D01*
X157884579Y-106778392D01*
X157881275Y-106772669D01*
X157878591Y-106766641D01*
X157881191Y-106765483D01*
X157867393Y-106708639D01*
X157890605Y-106641544D01*
X157949021Y-106596637D01*
X157966909Y-106589931D01*
X158007177Y-106581975D01*
X158034154Y-106581127D01*
X158042012Y-106580880D01*
X158049931Y-106580631D01*
X158069385Y-106574979D01*
X158088742Y-106570971D01*
X158100972Y-106569426D01*
X158100973Y-106569426D01*
X158108839Y-106568432D01*
X158116210Y-106565513D01*
X158116212Y-106565513D01*
X158149954Y-106552154D01*
X158161184Y-106548309D01*
X158196025Y-106538187D01*
X158196026Y-106538187D01*
X158203635Y-106535976D01*
X158210454Y-106531943D01*
X158210459Y-106531941D01*
X158221070Y-106525665D01*
X158238818Y-106516970D01*
X158257659Y-106509510D01*
X158293429Y-106483521D01*
X158303347Y-106477007D01*
X158334580Y-106458536D01*
X158334582Y-106458535D01*
X158341404Y-106454500D01*
X158346084Y-106449820D01*
X158411627Y-106424085D01*
X158481250Y-106437984D01*
X158531889Y-106486592D01*
X158551534Y-106520617D01*
X158560960Y-106536944D01*
X158634137Y-106618215D01*
X158664853Y-106682221D01*
X158666500Y-106702524D01*
X158666500Y-107321233D01*
X158665973Y-107332416D01*
X158664298Y-107339909D01*
X158664547Y-107347835D01*
X158664547Y-107347836D01*
X158666438Y-107407986D01*
X158666500Y-107411945D01*
X158666500Y-107439856D01*
X158666997Y-107443790D01*
X158666997Y-107443791D01*
X158667005Y-107443856D01*
X158667938Y-107455693D01*
X158669327Y-107499889D01*
X158673781Y-107515219D01*
X158674978Y-107519339D01*
X158678987Y-107538700D01*
X158681526Y-107558797D01*
X158684445Y-107566168D01*
X158684445Y-107566170D01*
X158697804Y-107599912D01*
X158701649Y-107611142D01*
X158711771Y-107645983D01*
X158713982Y-107653593D01*
X158718015Y-107660412D01*
X158718017Y-107660417D01*
X158724293Y-107671028D01*
X158732988Y-107688776D01*
X158740448Y-107707617D01*
X158745110Y-107714033D01*
X158745110Y-107714034D01*
X158766436Y-107743387D01*
X158772952Y-107753307D01*
X158795458Y-107791362D01*
X158809779Y-107805683D01*
X158822619Y-107820716D01*
X158834528Y-107837107D01*
X158866413Y-107863484D01*
X158868593Y-107865288D01*
X158877374Y-107873278D01*
X159317108Y-108313013D01*
X159347535Y-108362231D01*
X159381244Y-108463268D01*
X159471248Y-108608713D01*
X159476430Y-108613886D01*
X159480977Y-108619623D01*
X159479170Y-108621055D01*
X159507902Y-108673575D01*
X159502892Y-108744395D01*
X159479501Y-108780853D01*
X159480552Y-108781683D01*
X159467002Y-108798840D01*
X159384996Y-108931880D01*
X159378849Y-108945061D01*
X159329509Y-109093814D01*
X159326642Y-109107190D01*
X159317328Y-109198097D01*
X159317071Y-109203126D01*
X159321475Y-109218124D01*
X159322865Y-109219329D01*
X159330548Y-109221000D01*
X161264885Y-109221000D01*
X161280124Y-109216525D01*
X161281329Y-109215135D01*
X161283000Y-109207452D01*
X161283000Y-109204562D01*
X161282663Y-109198047D01*
X161273106Y-109105943D01*
X161270212Y-109092544D01*
X161220619Y-108943893D01*
X161214445Y-108930714D01*
X161132212Y-108797827D01*
X161118629Y-108780689D01*
X161120559Y-108779159D01*
X161092097Y-108727120D01*
X161097113Y-108656301D01*
X161120799Y-108619383D01*
X161119843Y-108618628D01*
X161124381Y-108612882D01*
X161129552Y-108607702D01*
X161133393Y-108601471D01*
X161215462Y-108468331D01*
X161215463Y-108468329D01*
X161219302Y-108462101D01*
X161273149Y-108299757D01*
X161283500Y-108198732D01*
X161283500Y-107651268D01*
X161282717Y-107643716D01*
X161273598Y-107555837D01*
X161272887Y-107548981D01*
X161256582Y-107500110D01*
X161221073Y-107393676D01*
X161221072Y-107393674D01*
X161218756Y-107386732D01*
X161194687Y-107347836D01*
X161132606Y-107247515D01*
X161128752Y-107241287D01*
X161096333Y-107208924D01*
X161040043Y-107152733D01*
X161007702Y-107120448D01*
X160955641Y-107088357D01*
X160868331Y-107034538D01*
X160868329Y-107034537D01*
X160862101Y-107030698D01*
X160699757Y-106976851D01*
X160692920Y-106976151D01*
X160692918Y-106976150D01*
X160651599Y-106971917D01*
X160598732Y-106966500D01*
X160059500Y-106966500D01*
X159991379Y-106946498D01*
X159944886Y-106892842D01*
X159933500Y-106840500D01*
X159933500Y-106759500D01*
X159953502Y-106691379D01*
X160007158Y-106644886D01*
X160059500Y-106633500D01*
X160691800Y-106633500D01*
X160759921Y-106653502D01*
X160779147Y-106669843D01*
X160779420Y-106669540D01*
X160784332Y-106673963D01*
X160788747Y-106678866D01*
X160794086Y-106682745D01*
X160936902Y-106786507D01*
X160943248Y-106791118D01*
X160949276Y-106793802D01*
X160949278Y-106793803D01*
X161107661Y-106864319D01*
X161117712Y-106868794D01*
X161211113Y-106888647D01*
X161298056Y-106907128D01*
X161298061Y-106907128D01*
X161304513Y-106908500D01*
X161495487Y-106908500D01*
X161501939Y-106907128D01*
X161501944Y-106907128D01*
X161588887Y-106888647D01*
X161682288Y-106868794D01*
X161692339Y-106864319D01*
X161850722Y-106793803D01*
X161850724Y-106793802D01*
X161856752Y-106791118D01*
X161863099Y-106786507D01*
X162005914Y-106682745D01*
X162011253Y-106678866D01*
X162021537Y-106667444D01*
X162081982Y-106630204D01*
X162137619Y-106629284D01*
X162137692Y-106628610D01*
X162143067Y-106629194D01*
X162144327Y-106629173D01*
X162145548Y-106629463D01*
X162196413Y-106634989D01*
X162203227Y-106635358D01*
X162754433Y-106635358D01*
X162769672Y-106630883D01*
X162770877Y-106629493D01*
X162772548Y-106621810D01*
X162772548Y-106111872D01*
X162792550Y-106043751D01*
X162846206Y-105997258D01*
X162898548Y-105985872D01*
X163001348Y-105985872D01*
X163069469Y-106005874D01*
X163115962Y-106059530D01*
X163127348Y-106111872D01*
X163127348Y-106617242D01*
X163131823Y-106632481D01*
X163133213Y-106633686D01*
X163140896Y-106635357D01*
X163696666Y-106635357D01*
X163703487Y-106634987D01*
X163754349Y-106629463D01*
X163769601Y-106625837D01*
X163890051Y-106580682D01*
X163905646Y-106572144D01*
X164007721Y-106495643D01*
X164020282Y-106483082D01*
X164096783Y-106381007D01*
X164105321Y-106365412D01*
X164150475Y-106244964D01*
X164154102Y-106229709D01*
X164159628Y-106178844D01*
X164159997Y-106172030D01*
X164159997Y-106108080D01*
X164179999Y-106039959D01*
X164233655Y-105993466D01*
X164303929Y-105983362D01*
X164368509Y-106012856D01*
G37*
G04 #@! TD.AperFunction*
G04 #@! TA.AperFunction,Conductor*
G36*
X164368509Y-95512856D02*
G01*
X164375092Y-95518985D01*
X168202865Y-99346758D01*
X168210409Y-99355048D01*
X168214522Y-99361529D01*
X168261819Y-99405943D01*
X168264189Y-99408169D01*
X168267031Y-99410924D01*
X168286752Y-99430645D01*
X168289947Y-99433123D01*
X168298969Y-99440829D01*
X168331201Y-99471097D01*
X168338150Y-99474917D01*
X168348954Y-99480857D01*
X168365478Y-99491710D01*
X168381481Y-99504124D01*
X168422065Y-99521687D01*
X168432695Y-99526894D01*
X168471462Y-99548206D01*
X168479139Y-99550177D01*
X168479144Y-99550179D01*
X168491080Y-99553243D01*
X168509788Y-99559648D01*
X168528377Y-99567692D01*
X168536202Y-99568931D01*
X168536204Y-99568932D01*
X168572041Y-99574608D01*
X168583662Y-99577015D01*
X168615481Y-99585184D01*
X168626492Y-99588011D01*
X168644576Y-99588011D01*
X168712697Y-99608013D01*
X168759190Y-99661669D01*
X168769294Y-99731943D01*
X168758864Y-99767061D01*
X168720688Y-99849305D01*
X168660989Y-100064570D01*
X168637251Y-100286695D01*
X168637548Y-100291848D01*
X168637548Y-100291851D01*
X168647641Y-100466896D01*
X168650110Y-100509715D01*
X168651247Y-100514761D01*
X168651248Y-100514767D01*
X168673390Y-100613015D01*
X168699222Y-100727639D01*
X168783266Y-100934616D01*
X168824110Y-101001267D01*
X168890136Y-101109012D01*
X168899987Y-101125088D01*
X168952234Y-101185403D01*
X168981716Y-101249986D01*
X168971602Y-101320258D01*
X168946091Y-101356995D01*
X168273461Y-102029624D01*
X168211149Y-102063649D01*
X168184366Y-102066528D01*
X167255656Y-102066528D01*
X167187535Y-102046526D01*
X167141042Y-101992870D01*
X167130135Y-101951508D01*
X167123282Y-101873165D01*
X167122803Y-101867689D01*
X167118025Y-101849858D01*
X167081948Y-101715216D01*
X167081946Y-101715211D01*
X167080525Y-101709907D01*
X167040095Y-101623209D01*
X167013813Y-101566848D01*
X167013811Y-101566845D01*
X167011489Y-101561865D01*
X166917793Y-101428060D01*
X166909102Y-101419369D01*
X166819739Y-101330013D01*
X166802285Y-101312560D01*
X166797782Y-101309407D01*
X166797778Y-101309404D01*
X166695992Y-101238142D01*
X166668473Y-101218875D01*
X166601294Y-101187554D01*
X166525408Y-101152173D01*
X166525406Y-101152172D01*
X166520425Y-101149850D01*
X166515118Y-101148428D01*
X166515114Y-101148427D01*
X166433885Y-101126669D01*
X166362640Y-101107585D01*
X166294598Y-101101638D01*
X166255703Y-101098238D01*
X166248934Y-101097462D01*
X166217357Y-101092971D01*
X166217350Y-101092970D01*
X166213276Y-101092391D01*
X166209156Y-101092348D01*
X166209154Y-101092348D01*
X166206094Y-101092316D01*
X166199912Y-101092252D01*
X166169548Y-101095929D01*
X166165421Y-101096360D01*
X166037203Y-101107589D01*
X165947420Y-101131654D01*
X165884751Y-101148451D01*
X165884749Y-101148452D01*
X165879439Y-101149875D01*
X165874460Y-101152197D01*
X165874455Y-101152199D01*
X165736401Y-101216587D01*
X165731414Y-101218913D01*
X165703956Y-101238142D01*
X165602136Y-101309446D01*
X165602131Y-101309450D01*
X165597626Y-101312605D01*
X165593732Y-101316500D01*
X165593729Y-101316502D01*
X165553241Y-101356995D01*
X165482139Y-101428105D01*
X165478985Y-101432610D01*
X165478984Y-101432611D01*
X165443683Y-101483032D01*
X165388462Y-101561904D01*
X165386141Y-101566882D01*
X165386138Y-101566887D01*
X165354685Y-101634345D01*
X165319440Y-101709936D01*
X165277171Y-101867704D01*
X165276692Y-101873180D01*
X165276691Y-101873186D01*
X165272635Y-101919566D01*
X165269155Y-101939924D01*
X165266472Y-101950375D01*
X165266472Y-101956893D01*
X165238342Y-102021395D01*
X165179283Y-102060797D01*
X165141716Y-102066528D01*
X164286497Y-102066528D01*
X164218376Y-102046526D01*
X164171883Y-101992870D01*
X164160497Y-101940528D01*
X164160497Y-101824508D01*
X164153742Y-101762326D01*
X164102612Y-101625937D01*
X164015258Y-101509381D01*
X163898702Y-101422027D01*
X163762313Y-101370897D01*
X163700131Y-101364142D01*
X162199765Y-101364142D01*
X162196368Y-101364511D01*
X162145433Y-101370044D01*
X162145431Y-101370044D01*
X162137583Y-101370897D01*
X162130190Y-101373669D01*
X162130188Y-101373669D01*
X162037213Y-101408524D01*
X161992984Y-101416542D01*
X161828721Y-101416542D01*
X161817537Y-101416015D01*
X161810049Y-101414341D01*
X161802126Y-101414590D01*
X161741991Y-101416480D01*
X161738033Y-101416542D01*
X161710102Y-101416542D01*
X161706187Y-101417037D01*
X161706183Y-101417037D01*
X161706125Y-101417045D01*
X161706096Y-101417048D01*
X161694254Y-101417981D01*
X161650068Y-101419369D01*
X161640919Y-101422027D01*
X161630616Y-101425020D01*
X161611264Y-101429028D01*
X161604193Y-101429922D01*
X161591161Y-101431568D01*
X161583792Y-101434485D01*
X161583790Y-101434486D01*
X161550055Y-101447842D01*
X161538827Y-101451687D01*
X161496365Y-101464024D01*
X161489543Y-101468058D01*
X161489537Y-101468061D01*
X161478926Y-101474336D01*
X161461176Y-101483032D01*
X161449714Y-101487570D01*
X161449709Y-101487573D01*
X161442341Y-101490490D01*
X161435926Y-101495151D01*
X161406583Y-101516469D01*
X161396665Y-101522985D01*
X161382920Y-101531114D01*
X161358595Y-101545500D01*
X161344271Y-101559824D01*
X161329239Y-101572663D01*
X161312851Y-101584570D01*
X161297309Y-101603357D01*
X161284670Y-101618635D01*
X161276680Y-101627415D01*
X161007747Y-101896348D01*
X160999461Y-101903888D01*
X160992982Y-101908000D01*
X160987557Y-101913777D01*
X160946357Y-101957651D01*
X160943602Y-101960493D01*
X160923865Y-101980230D01*
X160921385Y-101983427D01*
X160913682Y-101992447D01*
X160883414Y-102024679D01*
X160879595Y-102031625D01*
X160879593Y-102031628D01*
X160873652Y-102042434D01*
X160862801Y-102058953D01*
X160850386Y-102074959D01*
X160847241Y-102082228D01*
X160847238Y-102082232D01*
X160832826Y-102115537D01*
X160827609Y-102126187D01*
X160806305Y-102164940D01*
X160804334Y-102172615D01*
X160804334Y-102172616D01*
X160801267Y-102184562D01*
X160794863Y-102203266D01*
X160786819Y-102221855D01*
X160785580Y-102229678D01*
X160785577Y-102229688D01*
X160779901Y-102265524D01*
X160777495Y-102277144D01*
X160768472Y-102312289D01*
X160766500Y-102319970D01*
X160766500Y-102340224D01*
X160764949Y-102359934D01*
X160761780Y-102379943D01*
X160762526Y-102387835D01*
X160765941Y-102423961D01*
X160766500Y-102435819D01*
X160766500Y-105240500D01*
X160746498Y-105308621D01*
X160692842Y-105355114D01*
X160640500Y-105366500D01*
X160008200Y-105366500D01*
X159940079Y-105346498D01*
X159920853Y-105330157D01*
X159920580Y-105330460D01*
X159915668Y-105326037D01*
X159911253Y-105321134D01*
X159834128Y-105265099D01*
X159762094Y-105212763D01*
X159762093Y-105212762D01*
X159756752Y-105208882D01*
X159750724Y-105206198D01*
X159750722Y-105206197D01*
X159588319Y-105133891D01*
X159588318Y-105133891D01*
X159582288Y-105131206D01*
X159488888Y-105111353D01*
X159401944Y-105092872D01*
X159401939Y-105092872D01*
X159395487Y-105091500D01*
X159204513Y-105091500D01*
X159198061Y-105092872D01*
X159198056Y-105092872D01*
X159111112Y-105111353D01*
X159017712Y-105131206D01*
X159011682Y-105133891D01*
X159011681Y-105133891D01*
X158987696Y-105144570D01*
X158910748Y-105178829D01*
X158840382Y-105188263D01*
X158776085Y-105158157D01*
X158738271Y-105098068D01*
X158733500Y-105063722D01*
X158733500Y-102378767D01*
X158734027Y-102367584D01*
X158735702Y-102360091D01*
X158735078Y-102340224D01*
X158733562Y-102292014D01*
X158733500Y-102288055D01*
X158733500Y-102178767D01*
X158734027Y-102167584D01*
X158735702Y-102160091D01*
X158734302Y-102115537D01*
X158733562Y-102092014D01*
X158733500Y-102088055D01*
X158733500Y-101859776D01*
X158735051Y-101840065D01*
X158736980Y-101827886D01*
X158738220Y-101820057D01*
X158734059Y-101776038D01*
X158733500Y-101764181D01*
X158733500Y-100745499D01*
X158753502Y-100677378D01*
X158793195Y-100638356D01*
X158802488Y-100632605D01*
X158802493Y-100632601D01*
X158808713Y-100628752D01*
X158813882Y-100623574D01*
X158819620Y-100619026D01*
X158821051Y-100620832D01*
X158873575Y-100592098D01*
X158944395Y-100597108D01*
X158980853Y-100620499D01*
X158981683Y-100619448D01*
X158998840Y-100632998D01*
X159131880Y-100715004D01*
X159145061Y-100721151D01*
X159293814Y-100770491D01*
X159307190Y-100773358D01*
X159398097Y-100782672D01*
X159403126Y-100782929D01*
X159418124Y-100778525D01*
X159419329Y-100777135D01*
X159421000Y-100769452D01*
X159421000Y-100764885D01*
X159929000Y-100764885D01*
X159933475Y-100780124D01*
X159934865Y-100781329D01*
X159942548Y-100783000D01*
X159945438Y-100783000D01*
X159951953Y-100782663D01*
X160044057Y-100773106D01*
X160057456Y-100770212D01*
X160206107Y-100720619D01*
X160219286Y-100714445D01*
X160352173Y-100632212D01*
X160363574Y-100623176D01*
X160473986Y-100512571D01*
X160482998Y-100501160D01*
X160565004Y-100368120D01*
X160571151Y-100354939D01*
X160620491Y-100206186D01*
X160623358Y-100192810D01*
X160632672Y-100101903D01*
X160633000Y-100095487D01*
X160633000Y-100072115D01*
X160628525Y-100056876D01*
X160627135Y-100055671D01*
X160619452Y-100054000D01*
X159947115Y-100054000D01*
X159931876Y-100058475D01*
X159930671Y-100059865D01*
X159929000Y-100067548D01*
X159929000Y-100764885D01*
X159421000Y-100764885D01*
X159421000Y-99672000D01*
X159441002Y-99603879D01*
X159494658Y-99557386D01*
X159547000Y-99546000D01*
X160614885Y-99546000D01*
X160630124Y-99541525D01*
X160631329Y-99540135D01*
X160633000Y-99532452D01*
X160633000Y-99504562D01*
X160632663Y-99498047D01*
X160623106Y-99405943D01*
X160620212Y-99392544D01*
X160570619Y-99243893D01*
X160564445Y-99230714D01*
X160482212Y-99097827D01*
X160473176Y-99086427D01*
X160457983Y-99071260D01*
X160423903Y-99008978D01*
X160421000Y-98982086D01*
X160421000Y-98964885D01*
X160929000Y-98964885D01*
X160933475Y-98980124D01*
X160934865Y-98981329D01*
X160942548Y-98983000D01*
X160945438Y-98983000D01*
X160951953Y-98982663D01*
X161044057Y-98973106D01*
X161057456Y-98970212D01*
X161206107Y-98920619D01*
X161219286Y-98914445D01*
X161352173Y-98832212D01*
X161363574Y-98823176D01*
X161473986Y-98712571D01*
X161482998Y-98701160D01*
X161565004Y-98568120D01*
X161571151Y-98554939D01*
X161620491Y-98406186D01*
X161623358Y-98392810D01*
X161632672Y-98301903D01*
X161633000Y-98295487D01*
X161633000Y-98272115D01*
X161628525Y-98256876D01*
X161627135Y-98255671D01*
X161619452Y-98254000D01*
X160947115Y-98254000D01*
X160931876Y-98258475D01*
X160930671Y-98259865D01*
X160929000Y-98267548D01*
X160929000Y-98964885D01*
X160421000Y-98964885D01*
X160421000Y-97727885D01*
X160929000Y-97727885D01*
X160933475Y-97743124D01*
X160934865Y-97744329D01*
X160942548Y-97746000D01*
X161614885Y-97746000D01*
X161630124Y-97741525D01*
X161631329Y-97740135D01*
X161633000Y-97732452D01*
X161633000Y-97704562D01*
X161632663Y-97698047D01*
X161623106Y-97605943D01*
X161620212Y-97592544D01*
X161570619Y-97443893D01*
X161564445Y-97430714D01*
X161482212Y-97297827D01*
X161473176Y-97286426D01*
X161362571Y-97176014D01*
X161351160Y-97167002D01*
X161218120Y-97084996D01*
X161204939Y-97078849D01*
X161056186Y-97029509D01*
X161042810Y-97026642D01*
X160951903Y-97017328D01*
X160946874Y-97017071D01*
X160931876Y-97021475D01*
X160930671Y-97022865D01*
X160929000Y-97030548D01*
X160929000Y-97727885D01*
X160421000Y-97727885D01*
X160421000Y-97035115D01*
X160416525Y-97019876D01*
X160415135Y-97018671D01*
X160407452Y-97017000D01*
X160404562Y-97017000D01*
X160398047Y-97017337D01*
X160305943Y-97026894D01*
X160292544Y-97029788D01*
X160143893Y-97079381D01*
X160130719Y-97085552D01*
X160125804Y-97088594D01*
X160057352Y-97107432D01*
X159989582Y-97086271D01*
X159944011Y-97031831D01*
X159933500Y-96981450D01*
X159933500Y-96159500D01*
X159953502Y-96091379D01*
X160007158Y-96044886D01*
X160059500Y-96033500D01*
X160691800Y-96033500D01*
X160759921Y-96053502D01*
X160779147Y-96069843D01*
X160779420Y-96069540D01*
X160784332Y-96073963D01*
X160788747Y-96078866D01*
X160794086Y-96082745D01*
X160866682Y-96135489D01*
X160943248Y-96191118D01*
X160949276Y-96193802D01*
X160949278Y-96193803D01*
X161010791Y-96221190D01*
X161117712Y-96268794D01*
X161211113Y-96288647D01*
X161298056Y-96307128D01*
X161298061Y-96307128D01*
X161304513Y-96308500D01*
X161495487Y-96308500D01*
X161501939Y-96307128D01*
X161501944Y-96307128D01*
X161588888Y-96288647D01*
X161682288Y-96268794D01*
X161789209Y-96221190D01*
X161850722Y-96193803D01*
X161850724Y-96193802D01*
X161856752Y-96191118D01*
X161862094Y-96187237D01*
X161954295Y-96120249D01*
X162021163Y-96096390D01*
X162072585Y-96104203D01*
X162130290Y-96125836D01*
X162145548Y-96129463D01*
X162196413Y-96134989D01*
X162203227Y-96135358D01*
X162754433Y-96135358D01*
X162769672Y-96130883D01*
X162770877Y-96129493D01*
X162772548Y-96121810D01*
X162772548Y-95611872D01*
X162792550Y-95543751D01*
X162846206Y-95497258D01*
X162898548Y-95485872D01*
X163001348Y-95485872D01*
X163069469Y-95505874D01*
X163115962Y-95559530D01*
X163127348Y-95611872D01*
X163127348Y-96117242D01*
X163131823Y-96132481D01*
X163133213Y-96133686D01*
X163140896Y-96135357D01*
X163696666Y-96135357D01*
X163703487Y-96134987D01*
X163754349Y-96129463D01*
X163769601Y-96125837D01*
X163890051Y-96080682D01*
X163905646Y-96072144D01*
X164007721Y-95995643D01*
X164020282Y-95983082D01*
X164096783Y-95881007D01*
X164105321Y-95865412D01*
X164150475Y-95744964D01*
X164154102Y-95729709D01*
X164159628Y-95678844D01*
X164159997Y-95672030D01*
X164159997Y-95608080D01*
X164179999Y-95539959D01*
X164233655Y-95493466D01*
X164303929Y-95483362D01*
X164368509Y-95512856D01*
G37*
G04 #@! TD.AperFunction*
G04 #@! TA.AperFunction,Conductor*
G36*
X164622503Y-84803488D02*
G01*
X164643477Y-84820391D01*
X168943736Y-89120651D01*
X168977761Y-89182961D01*
X168972696Y-89253776D01*
X168947321Y-89294262D01*
X168947460Y-89294375D01*
X168946532Y-89295521D01*
X168945733Y-89296796D01*
X168944205Y-89298394D01*
X168944195Y-89298407D01*
X168940629Y-89302138D01*
X168814743Y-89486680D01*
X168720688Y-89689305D01*
X168660989Y-89904570D01*
X168637251Y-90126695D01*
X168637548Y-90131848D01*
X168637548Y-90131851D01*
X168649146Y-90332998D01*
X168650110Y-90349715D01*
X168651247Y-90354761D01*
X168651248Y-90354767D01*
X168665669Y-90418756D01*
X168699222Y-90567639D01*
X168728808Y-90640500D01*
X168779341Y-90764949D01*
X168783266Y-90774616D01*
X168818937Y-90832826D01*
X168888509Y-90946357D01*
X168899987Y-90965088D01*
X168903367Y-90968990D01*
X168952232Y-91025401D01*
X168981715Y-91089987D01*
X168971600Y-91160259D01*
X168946090Y-91196994D01*
X168613461Y-91529623D01*
X168551149Y-91563649D01*
X168524366Y-91566528D01*
X167613363Y-91566528D01*
X167545242Y-91546526D01*
X167498749Y-91492870D01*
X167488882Y-91452842D01*
X167488125Y-91452934D01*
X167486264Y-91437549D01*
X167485958Y-91434764D01*
X167471299Y-91285881D01*
X167471299Y-91285880D01*
X167470693Y-91279727D01*
X167420172Y-91113176D01*
X167413326Y-91100367D01*
X167341042Y-90965137D01*
X167341041Y-90965136D01*
X167338126Y-90959682D01*
X167227709Y-90825145D01*
X167093165Y-90714738D01*
X166939665Y-90632704D01*
X166933733Y-90630905D01*
X166779037Y-90583992D01*
X166779033Y-90583991D01*
X166773110Y-90582195D01*
X166704792Y-90575473D01*
X166651853Y-90570264D01*
X166646453Y-90569615D01*
X166617351Y-90565477D01*
X166617350Y-90565477D01*
X166613265Y-90564896D01*
X166609140Y-90564853D01*
X166609139Y-90564853D01*
X166606583Y-90564827D01*
X166599901Y-90564757D01*
X166584426Y-90566631D01*
X166581786Y-90566921D01*
X166473577Y-90577590D01*
X166432870Y-90581604D01*
X166432868Y-90581604D01*
X166426716Y-90582211D01*
X166327581Y-90612294D01*
X166266108Y-90630948D01*
X166266107Y-90630949D01*
X166260190Y-90632744D01*
X166106721Y-90714792D01*
X165972208Y-90825203D01*
X165968284Y-90829985D01*
X165968283Y-90829986D01*
X165869780Y-90950030D01*
X165861817Y-90959734D01*
X165858902Y-90965189D01*
X165858899Y-90965193D01*
X165818139Y-91041462D01*
X165779792Y-91113215D01*
X165777999Y-91119128D01*
X165777997Y-91119132D01*
X165765524Y-91160259D01*
X165729285Y-91279748D01*
X165728679Y-91285906D01*
X165728678Y-91285910D01*
X165723331Y-91340231D01*
X165719978Y-91359224D01*
X165718975Y-91363131D01*
X165716472Y-91372880D01*
X165716472Y-91398933D01*
X165715215Y-91416683D01*
X165713438Y-91429174D01*
X165711958Y-91439572D01*
X165711915Y-91443695D01*
X165711602Y-91447815D01*
X165710151Y-91447705D01*
X165691212Y-91509768D01*
X165637067Y-91555690D01*
X165585941Y-91566528D01*
X164286497Y-91566528D01*
X164218376Y-91546526D01*
X164171883Y-91492870D01*
X164160497Y-91440528D01*
X164160497Y-91324508D01*
X164153742Y-91262326D01*
X164102612Y-91125937D01*
X164015258Y-91009381D01*
X163898702Y-90922027D01*
X163762313Y-90870897D01*
X163700131Y-90864142D01*
X162199765Y-90864142D01*
X162196368Y-90864511D01*
X162145433Y-90870044D01*
X162145431Y-90870044D01*
X162137583Y-90870897D01*
X162130190Y-90873669D01*
X162130188Y-90873669D01*
X162037213Y-90908524D01*
X161992984Y-90916542D01*
X161928726Y-90916542D01*
X161917543Y-90916015D01*
X161910050Y-90914340D01*
X161902124Y-90914589D01*
X161902123Y-90914589D01*
X161841960Y-90916480D01*
X161838002Y-90916542D01*
X161810102Y-90916542D01*
X161806112Y-90917046D01*
X161794278Y-90917978D01*
X161750069Y-90919368D01*
X161742455Y-90921580D01*
X161742450Y-90921581D01*
X161730617Y-90925019D01*
X161711254Y-90929030D01*
X161691161Y-90931568D01*
X161683794Y-90934485D01*
X161683789Y-90934486D01*
X161650050Y-90947844D01*
X161638823Y-90951688D01*
X161596365Y-90964024D01*
X161589539Y-90968061D01*
X161578930Y-90974335D01*
X161561182Y-90983030D01*
X161542341Y-90990490D01*
X161535925Y-90995152D01*
X161535924Y-90995152D01*
X161506571Y-91016478D01*
X161496651Y-91022994D01*
X161465423Y-91041462D01*
X161465420Y-91041464D01*
X161458596Y-91045500D01*
X161444275Y-91059821D01*
X161429242Y-91072661D01*
X161412851Y-91084570D01*
X161399783Y-91100367D01*
X161384670Y-91118635D01*
X161376680Y-91127416D01*
X161007741Y-91496354D01*
X160999463Y-91503887D01*
X160992982Y-91508000D01*
X160987555Y-91513779D01*
X160987553Y-91513781D01*
X160946373Y-91557635D01*
X160943617Y-91560479D01*
X160923865Y-91580230D01*
X160921385Y-91583427D01*
X160913682Y-91592447D01*
X160883414Y-91624679D01*
X160879595Y-91631625D01*
X160879593Y-91631628D01*
X160873652Y-91642434D01*
X160862801Y-91658953D01*
X160850386Y-91674959D01*
X160847241Y-91682228D01*
X160847238Y-91682232D01*
X160832826Y-91715537D01*
X160827609Y-91726187D01*
X160806305Y-91764940D01*
X160804334Y-91772615D01*
X160804334Y-91772616D01*
X160801267Y-91784562D01*
X160794863Y-91803266D01*
X160786819Y-91821855D01*
X160785580Y-91829678D01*
X160785577Y-91829688D01*
X160779901Y-91865524D01*
X160777495Y-91877144D01*
X160769479Y-91908366D01*
X160766500Y-91919970D01*
X160766500Y-91940224D01*
X160764949Y-91959934D01*
X160761780Y-91979943D01*
X160762526Y-91987835D01*
X160765941Y-92023961D01*
X160766500Y-92035819D01*
X160766500Y-94640500D01*
X160746498Y-94708621D01*
X160692842Y-94755114D01*
X160640500Y-94766500D01*
X160098239Y-94766500D01*
X160030118Y-94746498D01*
X160004603Y-94724810D01*
X159990027Y-94708621D01*
X159925584Y-94637050D01*
X159915675Y-94626045D01*
X159915674Y-94626044D01*
X159911253Y-94621134D01*
X159800214Y-94540459D01*
X159762094Y-94512763D01*
X159762093Y-94512762D01*
X159756752Y-94508882D01*
X159750724Y-94506198D01*
X159750722Y-94506197D01*
X159588319Y-94433891D01*
X159588318Y-94433891D01*
X159582288Y-94431206D01*
X159462848Y-94405818D01*
X159401944Y-94392872D01*
X159401939Y-94392872D01*
X159395487Y-94391500D01*
X159204513Y-94391500D01*
X159198061Y-94392872D01*
X159198056Y-94392872D01*
X159137152Y-94405818D01*
X159017712Y-94431206D01*
X158910748Y-94478829D01*
X158840382Y-94488263D01*
X158776085Y-94458157D01*
X158738271Y-94398068D01*
X158733500Y-94363722D01*
X158733500Y-91878767D01*
X158734027Y-91867584D01*
X158735702Y-91860091D01*
X158733562Y-91792014D01*
X158733500Y-91788055D01*
X158733500Y-91559776D01*
X158735051Y-91540065D01*
X158736980Y-91527886D01*
X158738220Y-91520057D01*
X158734059Y-91476038D01*
X158733500Y-91464181D01*
X158733500Y-91359776D01*
X158735051Y-91340065D01*
X158736980Y-91327886D01*
X158738220Y-91320057D01*
X158734059Y-91276038D01*
X158733500Y-91264181D01*
X158733500Y-90552841D01*
X158753502Y-90484720D01*
X158807158Y-90438227D01*
X158819623Y-90433318D01*
X158856315Y-90421076D01*
X158856317Y-90421075D01*
X158863268Y-90418756D01*
X159008713Y-90328752D01*
X159013886Y-90323570D01*
X159019623Y-90319023D01*
X159021055Y-90320830D01*
X159073575Y-90292098D01*
X159144395Y-90297108D01*
X159180853Y-90320499D01*
X159181683Y-90319448D01*
X159198840Y-90332998D01*
X159331880Y-90415004D01*
X159345061Y-90421151D01*
X159493814Y-90470491D01*
X159507190Y-90473358D01*
X159598097Y-90482672D01*
X159603126Y-90482929D01*
X159618124Y-90478525D01*
X159619329Y-90477135D01*
X159621000Y-90469452D01*
X159621000Y-90464885D01*
X160129000Y-90464885D01*
X160133475Y-90480124D01*
X160134865Y-90481329D01*
X160142548Y-90483000D01*
X160145438Y-90483000D01*
X160151953Y-90482663D01*
X160244057Y-90473106D01*
X160257456Y-90470212D01*
X160406107Y-90420619D01*
X160419286Y-90414445D01*
X160552173Y-90332212D01*
X160563574Y-90323176D01*
X160673986Y-90212571D01*
X160682998Y-90201160D01*
X160765004Y-90068120D01*
X160771151Y-90054939D01*
X160820491Y-89906186D01*
X160823358Y-89892810D01*
X160832672Y-89801903D01*
X160833000Y-89795487D01*
X160833000Y-89772115D01*
X160828525Y-89756876D01*
X160827135Y-89755671D01*
X160819452Y-89754000D01*
X160147115Y-89754000D01*
X160131876Y-89758475D01*
X160130671Y-89759865D01*
X160129000Y-89767548D01*
X160129000Y-90464885D01*
X159621000Y-90464885D01*
X159621000Y-89372000D01*
X159641002Y-89303879D01*
X159694658Y-89257386D01*
X159747000Y-89246000D01*
X160814885Y-89246000D01*
X160830124Y-89241525D01*
X160831329Y-89240135D01*
X160833000Y-89232452D01*
X160833000Y-89204562D01*
X160832663Y-89198047D01*
X160823106Y-89105943D01*
X160820212Y-89092544D01*
X160770616Y-88943884D01*
X160767213Y-88936618D01*
X160754206Y-88924953D01*
X160731838Y-88919887D01*
X160732122Y-88918632D01*
X160678879Y-88902998D01*
X160645854Y-88864885D01*
X161129000Y-88864885D01*
X161133475Y-88880124D01*
X161134865Y-88881329D01*
X161142548Y-88883000D01*
X161145438Y-88883000D01*
X161151953Y-88882663D01*
X161244057Y-88873106D01*
X161257456Y-88870212D01*
X161406107Y-88820619D01*
X161419286Y-88814445D01*
X161552173Y-88732212D01*
X161563574Y-88723176D01*
X161673986Y-88612571D01*
X161682998Y-88601160D01*
X161765004Y-88468120D01*
X161771151Y-88454939D01*
X161820491Y-88306186D01*
X161823358Y-88292810D01*
X161832672Y-88201903D01*
X161833000Y-88195487D01*
X161833000Y-88172115D01*
X161828525Y-88156876D01*
X161827135Y-88155671D01*
X161819452Y-88154000D01*
X161147115Y-88154000D01*
X161131876Y-88158475D01*
X161130671Y-88159865D01*
X161129000Y-88167548D01*
X161129000Y-88864885D01*
X160645854Y-88864885D01*
X160632386Y-88849342D01*
X160621000Y-88797000D01*
X160621000Y-87627885D01*
X161129000Y-87627885D01*
X161133475Y-87643124D01*
X161134865Y-87644329D01*
X161142548Y-87646000D01*
X161814885Y-87646000D01*
X161830124Y-87641525D01*
X161831329Y-87640135D01*
X161833000Y-87632452D01*
X161833000Y-87604562D01*
X161832663Y-87598047D01*
X161823106Y-87505943D01*
X161820212Y-87492544D01*
X161770619Y-87343893D01*
X161764445Y-87330714D01*
X161682212Y-87197827D01*
X161673176Y-87186426D01*
X161562571Y-87076014D01*
X161551160Y-87067002D01*
X161418120Y-86984996D01*
X161404939Y-86978849D01*
X161256186Y-86929509D01*
X161242810Y-86926642D01*
X161151903Y-86917328D01*
X161146874Y-86917071D01*
X161131876Y-86921475D01*
X161130671Y-86922865D01*
X161129000Y-86930548D01*
X161129000Y-87627885D01*
X160621000Y-87627885D01*
X160621000Y-86935115D01*
X160616525Y-86919876D01*
X160615135Y-86918671D01*
X160607452Y-86917000D01*
X160604562Y-86917000D01*
X160598047Y-86917337D01*
X160505943Y-86926894D01*
X160492544Y-86929788D01*
X160343893Y-86979381D01*
X160330714Y-86985555D01*
X160197827Y-87067788D01*
X160180689Y-87081371D01*
X160179159Y-87079441D01*
X160127120Y-87107903D01*
X160056301Y-87102887D01*
X160019382Y-87079201D01*
X160018627Y-87080156D01*
X160012881Y-87075618D01*
X160007702Y-87070448D01*
X160005330Y-87068986D01*
X159965345Y-87012588D01*
X159958500Y-86971624D01*
X159958500Y-86159500D01*
X159978502Y-86091379D01*
X160032158Y-86044886D01*
X160084500Y-86033500D01*
X160691800Y-86033500D01*
X160759921Y-86053502D01*
X160779147Y-86069843D01*
X160779420Y-86069540D01*
X160784332Y-86073963D01*
X160788747Y-86078866D01*
X160794086Y-86082745D01*
X160897850Y-86158134D01*
X160943248Y-86191118D01*
X160949276Y-86193802D01*
X160949278Y-86193803D01*
X161073049Y-86248909D01*
X161117712Y-86268794D01*
X161211113Y-86288647D01*
X161298056Y-86307128D01*
X161298061Y-86307128D01*
X161304513Y-86308500D01*
X161495487Y-86308500D01*
X161501939Y-86307128D01*
X161501944Y-86307128D01*
X161588888Y-86288647D01*
X161682288Y-86268794D01*
X161726951Y-86248909D01*
X161850722Y-86193803D01*
X161850724Y-86193802D01*
X161856752Y-86191118D01*
X161864399Y-86185562D01*
X161954295Y-86120249D01*
X162021163Y-86096390D01*
X162072585Y-86104203D01*
X162130290Y-86125836D01*
X162145548Y-86129463D01*
X162196413Y-86134989D01*
X162203227Y-86135358D01*
X162754433Y-86135358D01*
X162769672Y-86130883D01*
X162770877Y-86129493D01*
X162772548Y-86121810D01*
X162772548Y-85611872D01*
X162792550Y-85543751D01*
X162846206Y-85497258D01*
X162898548Y-85485872D01*
X163004717Y-85485872D01*
X163072838Y-85505874D01*
X163119331Y-85559530D01*
X163129435Y-85629804D01*
X163127837Y-85638657D01*
X163127348Y-85640905D01*
X163127348Y-86117242D01*
X163131823Y-86132481D01*
X163133213Y-86133686D01*
X163140896Y-86135357D01*
X163696666Y-86135357D01*
X163703487Y-86134987D01*
X163754349Y-86129463D01*
X163769601Y-86125837D01*
X163890051Y-86080682D01*
X163905646Y-86072144D01*
X164007721Y-85995643D01*
X164020282Y-85983082D01*
X164096783Y-85881007D01*
X164105321Y-85865412D01*
X164150475Y-85744964D01*
X164154102Y-85729709D01*
X164159628Y-85678844D01*
X164159997Y-85672030D01*
X164159997Y-85645473D01*
X164155522Y-85630234D01*
X164154132Y-85629029D01*
X164146449Y-85627358D01*
X164010900Y-85627358D01*
X163942779Y-85607356D01*
X163896286Y-85553700D01*
X163886182Y-85483426D01*
X163915676Y-85418846D01*
X163935335Y-85400532D01*
X163978650Y-85368069D01*
X164015258Y-85340633D01*
X164028477Y-85322995D01*
X164085335Y-85280479D01*
X164129304Y-85272558D01*
X164141881Y-85272558D01*
X164157120Y-85268083D01*
X164158325Y-85266693D01*
X164159996Y-85259010D01*
X164159996Y-85227889D01*
X164159626Y-85221068D01*
X164154102Y-85170208D01*
X164150535Y-85155205D01*
X164150535Y-85096908D01*
X164150968Y-85095089D01*
X164153742Y-85087688D01*
X164160497Y-85025506D01*
X164160497Y-84909486D01*
X164180499Y-84841365D01*
X164234155Y-84794872D01*
X164286497Y-84783486D01*
X164554382Y-84783486D01*
X164622503Y-84803488D01*
G37*
G04 #@! TD.AperFunction*
M02*
