G04 #@! TF.GenerationSoftware,KiCad,Pcbnew,(6.0.4)*
G04 #@! TF.CreationDate,2022-06-28T09:07:53+02:00*
G04 #@! TF.ProjectId,LevelShifter,4c657665-6c53-4686-9966-7465722e6b69,rev?*
G04 #@! TF.SameCoordinates,Original*
G04 #@! TF.FileFunction,Copper,L1,Top*
G04 #@! TF.FilePolarity,Positive*
%FSLAX46Y46*%
G04 Gerber Fmt 4.6, Leading zero omitted, Abs format (unit mm)*
G04 Created by KiCad (PCBNEW (6.0.4)) date 2022-06-28 09:07:53*
%MOMM*%
%LPD*%
G01*
G04 APERTURE LIST*
G04 Aperture macros list*
%AMRoundRect*
0 Rectangle with rounded corners*
0 $1 Rounding radius*
0 $2 $3 $4 $5 $6 $7 $8 $9 X,Y pos of 4 corners*
0 Add a 4 corners polygon primitive as box body*
4,1,4,$2,$3,$4,$5,$6,$7,$8,$9,$2,$3,0*
0 Add four circle primitives for the rounded corners*
1,1,$1+$1,$2,$3*
1,1,$1+$1,$4,$5*
1,1,$1+$1,$6,$7*
1,1,$1+$1,$8,$9*
0 Add four rect primitives between the rounded corners*
20,1,$1+$1,$2,$3,$4,$5,0*
20,1,$1+$1,$4,$5,$6,$7,0*
20,1,$1+$1,$6,$7,$8,$9,0*
20,1,$1+$1,$8,$9,$2,$3,0*%
G04 Aperture macros list end*
G04 #@! TA.AperFunction,SMDPad,CuDef*
%ADD10RoundRect,0.225000X0.225000X0.250000X-0.225000X0.250000X-0.225000X-0.250000X0.225000X-0.250000X0*%
G04 #@! TD*
G04 #@! TA.AperFunction,SMDPad,CuDef*
%ADD11R,1.404099X0.354800*%
G04 #@! TD*
G04 #@! TA.AperFunction,ComponentPad*
%ADD12R,1.700000X1.700000*%
G04 #@! TD*
G04 #@! TA.AperFunction,ComponentPad*
%ADD13O,1.700000X1.700000*%
G04 #@! TD*
G04 #@! TA.AperFunction,SMDPad,CuDef*
%ADD14RoundRect,0.225000X-0.225000X-0.250000X0.225000X-0.250000X0.225000X0.250000X-0.225000X0.250000X0*%
G04 #@! TD*
G04 #@! TA.AperFunction,ViaPad*
%ADD15C,0.800000*%
G04 #@! TD*
G04 #@! TA.AperFunction,Conductor*
%ADD16C,0.250000*%
G04 #@! TD*
G04 APERTURE END LIST*
D10*
X160575000Y-87800000D03*
X159025000Y-87800000D03*
D11*
X162949948Y-85449958D03*
X162949948Y-84799972D03*
X162949948Y-84149986D03*
X162949948Y-83500000D03*
X162949948Y-82850014D03*
X162949948Y-82200028D03*
X162949948Y-81550042D03*
X157050052Y-81550042D03*
X157050052Y-82200028D03*
X157050052Y-82850014D03*
X157050052Y-83500000D03*
X157050052Y-84149986D03*
X157050052Y-84799972D03*
X157050052Y-85449958D03*
D12*
X170000000Y-80000000D03*
D13*
X172540000Y-80000000D03*
X170000000Y-82540000D03*
X172540000Y-82540000D03*
X170000000Y-85080000D03*
X172540000Y-85080000D03*
X170000000Y-87620000D03*
X172540000Y-87620000D03*
X170000000Y-90160000D03*
X172540000Y-90160000D03*
X170000000Y-92700000D03*
X172540000Y-92700000D03*
X170000000Y-95240000D03*
X172540000Y-95240000D03*
X170000000Y-97780000D03*
X172540000Y-97780000D03*
X170000000Y-100320000D03*
X172540000Y-100320000D03*
X170000000Y-102860000D03*
X172540000Y-102860000D03*
X170000000Y-105400000D03*
X172540000Y-105400000D03*
X170000000Y-107940000D03*
X172540000Y-107940000D03*
X170000000Y-110480000D03*
X172540000Y-110480000D03*
X170000000Y-113020000D03*
X172540000Y-113020000D03*
X170000000Y-115560000D03*
X172540000Y-115560000D03*
D10*
X160775000Y-107700000D03*
X159225000Y-107700000D03*
X160675000Y-97800000D03*
X159125000Y-97800000D03*
D12*
X150000000Y-80000000D03*
D13*
X147460000Y-80000000D03*
X150000000Y-82540000D03*
X147460000Y-82540000D03*
X150000000Y-85080000D03*
X147460000Y-85080000D03*
X150000000Y-87620000D03*
X147460000Y-87620000D03*
X150000000Y-90160000D03*
X147460000Y-90160000D03*
X150000000Y-92700000D03*
X147460000Y-92700000D03*
X150000000Y-95240000D03*
X147460000Y-95240000D03*
X150000000Y-97780000D03*
X147460000Y-97780000D03*
X150000000Y-100320000D03*
X147460000Y-100320000D03*
X150000000Y-102860000D03*
X147460000Y-102860000D03*
X150000000Y-105400000D03*
X147460000Y-105400000D03*
X150000000Y-107940000D03*
X147460000Y-107940000D03*
X150000000Y-110480000D03*
X147460000Y-110480000D03*
X150000000Y-113020000D03*
X147460000Y-113020000D03*
X150000000Y-115560000D03*
X147460000Y-115560000D03*
D11*
X162949948Y-105949958D03*
X162949948Y-105299972D03*
X162949948Y-104649986D03*
X162949948Y-104000000D03*
X162949948Y-103350014D03*
X162949948Y-102700028D03*
X162949948Y-102050042D03*
X157050052Y-102050042D03*
X157050052Y-102700028D03*
X157050052Y-103350014D03*
X157050052Y-104000000D03*
X157050052Y-104649986D03*
X157050052Y-105299972D03*
X157050052Y-105949958D03*
D14*
X158525000Y-89300000D03*
X160075000Y-89300000D03*
X158525000Y-99300000D03*
X160075000Y-99300000D03*
X158525000Y-109300000D03*
X160075000Y-109300000D03*
D11*
X162949948Y-95449958D03*
X162949948Y-94799972D03*
X162949948Y-94149986D03*
X162949948Y-93500000D03*
X162949948Y-92850014D03*
X162949948Y-92200028D03*
X162949948Y-91550042D03*
X157050052Y-91550042D03*
X157050052Y-92200028D03*
X157050052Y-92850014D03*
X157050052Y-93500000D03*
X157050052Y-94149986D03*
X157050052Y-94799972D03*
X157050052Y-95449958D03*
D15*
X160600000Y-96600000D03*
X160600000Y-86700000D03*
X161800000Y-108800000D03*
X157050052Y-107149948D03*
X161400000Y-106000000D03*
X159300000Y-85400000D03*
X159300000Y-95300000D03*
X159300000Y-106000000D03*
X161400000Y-85400000D03*
X161400000Y-95400000D03*
D16*
X165211690Y-80951030D02*
X165403555Y-81142895D01*
X166302525Y-81688309D02*
X166302526Y-81688308D01*
X165580332Y-81319668D02*
X165948972Y-81688308D01*
X162949948Y-82850014D02*
X164049986Y-82850014D01*
X164049986Y-82850014D02*
X165050000Y-81850000D01*
X165050001Y-81496446D02*
X164858137Y-81304582D01*
X165050000Y-81496448D02*
X165050001Y-81496446D01*
X165403555Y-81142895D02*
X165580331Y-81319671D01*
X166464219Y-80435784D02*
X166900000Y-80000000D01*
X165580331Y-81319671D02*
X165580332Y-81319668D01*
X166302526Y-81334754D02*
X165933885Y-80966113D01*
X165933885Y-80966113D02*
X165565246Y-80597474D01*
X166900000Y-80000000D02*
X170000000Y-80000000D01*
X166464218Y-80435784D02*
X166464219Y-80435784D01*
X164858138Y-80951029D02*
X164858136Y-80951030D01*
X165565245Y-80243921D02*
X165565246Y-80243920D01*
X165918800Y-80243920D02*
X166110665Y-80435785D01*
X165211690Y-80951030D02*
G75*
G03*
X164858136Y-80951030I-176777J-176778D01*
G01*
X166302476Y-81688260D02*
G75*
G02*
X165948973Y-81688307I-176776J176760D01*
G01*
X164858132Y-80951023D02*
G75*
G03*
X164858137Y-81304582I176768J-176777D01*
G01*
X165565248Y-80243924D02*
G75*
G03*
X165565246Y-80597474I176752J-176776D01*
G01*
X165918800Y-80243920D02*
G75*
G03*
X165565246Y-80243920I-176777J-176778D01*
G01*
X166464177Y-80435743D02*
G75*
G02*
X166110665Y-80435785I-176777J176743D01*
G01*
X165050023Y-81496425D02*
G75*
G02*
X165049999Y-81849999I-176823J-176775D01*
G01*
X166302556Y-81334724D02*
G75*
G02*
X166302525Y-81688307I-176856J-176776D01*
G01*
X167600000Y-83500000D02*
X167600000Y-82964591D01*
X167092704Y-83685409D02*
X167507296Y-83685409D01*
X168200000Y-82964591D02*
X168200000Y-83200000D01*
X165800000Y-82964591D02*
X165800000Y-83200000D01*
X166400000Y-83592705D02*
X166400000Y-83500000D01*
X162949948Y-83500000D02*
X164900000Y-83500000D01*
X166400000Y-83500000D02*
X166400000Y-82964591D01*
X167000000Y-82964591D02*
X167000000Y-83500000D01*
X168500000Y-83500000D02*
X169040000Y-83500000D01*
X165892704Y-83685409D02*
X166307296Y-83685409D01*
X165800000Y-83200000D02*
X165800000Y-83592705D01*
X167000000Y-83500000D02*
X167000000Y-83592705D01*
X167600000Y-83592705D02*
X167600000Y-83500000D01*
X165200000Y-83200000D02*
X165200000Y-82964591D01*
X169040000Y-83500000D02*
X170000000Y-82540000D01*
X166700000Y-82664600D02*
G75*
G03*
X166400000Y-82964591I0J-300000D01*
G01*
X167000009Y-82964591D02*
G75*
G03*
X166700000Y-82664591I-300009J-9D01*
G01*
X165800009Y-82964591D02*
G75*
G03*
X165500000Y-82664591I-300009J-9D01*
G01*
X168200009Y-82964591D02*
G75*
G03*
X167900000Y-82664591I-300009J-9D01*
G01*
X167600009Y-83592705D02*
G75*
G02*
X167507296Y-83685409I-92709J5D01*
G01*
X165500000Y-82664600D02*
G75*
G03*
X165200000Y-82964591I0J-300000D01*
G01*
X166400009Y-83592705D02*
G75*
G02*
X166307296Y-83685409I-92709J5D01*
G01*
X167092704Y-83685400D02*
G75*
G02*
X167000000Y-83592705I-4J92700D01*
G01*
X165892704Y-83685400D02*
G75*
G02*
X165800000Y-83592705I-4J92700D01*
G01*
X167900000Y-82664600D02*
G75*
G03*
X167600000Y-82964591I0J-300000D01*
G01*
X168500000Y-83500000D02*
G75*
G02*
X168200000Y-83200000I0J300000D01*
G01*
X165200000Y-83200000D02*
G75*
G02*
X164900000Y-83500000I-300000J0D01*
G01*
X168074986Y-84871816D02*
X168074986Y-84424986D01*
X165324986Y-84424986D02*
X165324986Y-84871816D01*
X166424986Y-84424986D02*
X166424986Y-84871816D01*
X165874986Y-84871816D02*
X165874986Y-84424986D01*
X162949948Y-84149986D02*
X165049986Y-84149986D01*
X168349986Y-84149986D02*
X169069986Y-84149986D01*
X166974986Y-84871816D02*
X166974986Y-84424986D01*
X167524986Y-84424986D02*
X167524986Y-84871816D01*
X169069986Y-84149986D02*
X170000000Y-85080000D01*
X166425014Y-84424986D02*
G75*
G03*
X166149986Y-84149986I-275014J-14D01*
G01*
X168075016Y-84871816D02*
G75*
G02*
X167799986Y-85146816I-275016J16D01*
G01*
X166975016Y-84871816D02*
G75*
G02*
X166699986Y-85146816I-275016J16D01*
G01*
X167799986Y-85146814D02*
G75*
G02*
X167524986Y-84871816I14J275014D01*
G01*
X168349986Y-84149986D02*
G75*
G03*
X168074986Y-84424986I14J-275014D01*
G01*
X165325014Y-84424986D02*
G75*
G03*
X165049986Y-84149986I-275014J-14D01*
G01*
X166699986Y-85146814D02*
G75*
G02*
X166424986Y-84871816I14J275014D01*
G01*
X167525014Y-84424986D02*
G75*
G03*
X167249986Y-84149986I-275014J-14D01*
G01*
X166149986Y-84149986D02*
G75*
G03*
X165874986Y-84424986I14J-275014D01*
G01*
X165599986Y-85146814D02*
G75*
G02*
X165324986Y-84871816I14J275014D01*
G01*
X167249986Y-84149986D02*
G75*
G03*
X166974986Y-84424986I14J-275014D01*
G01*
X165875016Y-84871816D02*
G75*
G02*
X165599986Y-85146816I-275016J16D01*
G01*
X166920000Y-87620000D02*
X170000000Y-87620000D01*
X166618448Y-87318448D02*
X166920000Y-87620000D01*
X165071387Y-86919602D02*
X165071386Y-86919603D01*
X165071386Y-86919603D02*
X166219601Y-85771384D01*
X164850000Y-86080330D02*
X164541056Y-86389273D01*
X166440988Y-87140988D02*
X166618448Y-87318448D01*
X166749933Y-86301716D02*
X166440988Y-86610658D01*
X166749932Y-86301717D02*
X166749933Y-86301716D01*
X162949948Y-84799972D02*
X164099972Y-84799972D01*
X164099972Y-84799972D02*
X164850000Y-85550000D01*
X164849999Y-86080331D02*
X164850000Y-86080330D01*
X165071365Y-86919580D02*
G75*
G02*
X164541057Y-86919602I-265165J265180D01*
G01*
X164850034Y-86080366D02*
G75*
G03*
X164850000Y-85550000I-265234J265166D01*
G01*
X166441012Y-87140964D02*
G75*
G02*
X166440989Y-86610659I265188J265164D01*
G01*
X166749980Y-86301765D02*
G75*
G03*
X166749932Y-85771387I-265180J265165D01*
G01*
X164541094Y-86919565D02*
G75*
G02*
X164541056Y-86389273I265106J265165D01*
G01*
X166749967Y-85771352D02*
G75*
G03*
X166219601Y-85771384I-265167J-265248D01*
G01*
X166096969Y-91575644D02*
X165374356Y-90853030D01*
X164675000Y-91850736D02*
X164525825Y-91701561D01*
X166790000Y-90160000D02*
X170000000Y-90160000D01*
X164099986Y-92850014D02*
X164675000Y-92275000D01*
X162949948Y-92850014D02*
X164099986Y-92850014D01*
X164950091Y-91277296D02*
X165672705Y-91999909D01*
X164950091Y-91277297D02*
X164950091Y-91277296D01*
X166372062Y-90577941D02*
X166790000Y-90160000D01*
X165798622Y-90428765D02*
X165947798Y-90577941D01*
X165798622Y-90428766D02*
X165798622Y-90428765D01*
X166096969Y-91575643D02*
X166096969Y-91575644D01*
X164525797Y-91277269D02*
G75*
G03*
X164525826Y-91701560I212203J-212131D01*
G01*
X166372061Y-90577940D02*
G75*
G02*
X165947799Y-90577940I-212131J212131D01*
G01*
X166096968Y-91999908D02*
G75*
G02*
X165672706Y-91999908I-212131J212131D01*
G01*
X165374358Y-90428768D02*
G75*
G03*
X165374356Y-90853030I212142J-212132D01*
G01*
X164674968Y-91850768D02*
G75*
G02*
X164675000Y-92275000I-212068J-212132D01*
G01*
X166096944Y-91575668D02*
G75*
G02*
X166096968Y-91999908I-212144J-212132D01*
G01*
X165798621Y-90428767D02*
G75*
G03*
X165374357Y-90428767I-212132J-212130D01*
G01*
X164950090Y-91277298D02*
G75*
G03*
X164525826Y-91277298I-212132J-212130D01*
G01*
X166925000Y-93598142D02*
X166925000Y-93500000D01*
X166573142Y-93696284D02*
X166826858Y-93696284D01*
X167897600Y-93500000D02*
X169200000Y-93500000D01*
X166925000Y-93500000D02*
X166925000Y-92928716D01*
X165125000Y-93275000D02*
X165125000Y-92928716D01*
X166475000Y-92928716D02*
X166475000Y-93500000D01*
X165673142Y-93696284D02*
X165926858Y-93696284D01*
X166025000Y-93598142D02*
X166025000Y-93500000D01*
X165575000Y-93275000D02*
X165575000Y-93598142D01*
X165575000Y-92928716D02*
X165575000Y-93275000D01*
X169200000Y-93500000D02*
X170000000Y-92700000D01*
X166025000Y-93500000D02*
X166025000Y-92928716D01*
X167375000Y-92928716D02*
X167375000Y-93275000D01*
X167600000Y-93500000D02*
X167897600Y-93500000D01*
X166475000Y-93500000D02*
X166475000Y-93598142D01*
X162949948Y-93500000D02*
X164900000Y-93500000D01*
X166025084Y-93598142D02*
G75*
G02*
X165926858Y-93696284I-98184J42D01*
G01*
X165125000Y-93275000D02*
G75*
G02*
X164900000Y-93500000I-225000J0D01*
G01*
X167150000Y-92703700D02*
G75*
G03*
X166925000Y-92928716I0J-225000D01*
G01*
X166573142Y-93696200D02*
G75*
G02*
X166475000Y-93598142I-42J98100D01*
G01*
X165673142Y-93696200D02*
G75*
G02*
X165575000Y-93598142I-42J98100D01*
G01*
X167600000Y-93500000D02*
G75*
G02*
X167375000Y-93275000I0J225000D01*
G01*
X166925084Y-93598142D02*
G75*
G02*
X166826858Y-93696284I-98184J42D01*
G01*
X165574984Y-92928716D02*
G75*
G03*
X165350000Y-92703716I-224984J16D01*
G01*
X167374984Y-92928716D02*
G75*
G03*
X167150000Y-92703716I-224984J16D01*
G01*
X165350000Y-92703700D02*
G75*
G03*
X165125000Y-92928716I0J-225000D01*
G01*
X166250000Y-92703700D02*
G75*
G03*
X166025000Y-92928716I0J-225000D01*
G01*
X166474984Y-92928716D02*
G75*
G03*
X166250000Y-92703716I-224984J16D01*
G01*
X167849986Y-94149986D02*
X167899986Y-94149986D01*
X168909986Y-94149986D02*
X170000000Y-95240000D01*
X167099986Y-94399986D02*
X167099986Y-94864308D01*
X167599986Y-94864308D02*
X167599986Y-94399986D01*
X162949948Y-94149986D02*
X164849986Y-94149986D01*
X165099986Y-94399986D02*
X165099986Y-94864308D01*
X166099986Y-94399986D02*
X166099986Y-94864308D01*
X165599986Y-94864308D02*
X165599986Y-94399986D01*
X166599986Y-94864308D02*
X166599986Y-94399986D01*
X167899986Y-94149986D02*
X168909986Y-94149986D01*
X166349986Y-95114314D02*
G75*
G02*
X166099986Y-94864308I14J250014D01*
G01*
X165349986Y-95114314D02*
G75*
G02*
X165099986Y-94864308I14J250014D01*
G01*
X167600008Y-94864308D02*
G75*
G02*
X167349986Y-95114308I-250008J8D01*
G01*
X165600008Y-94864308D02*
G75*
G02*
X165349986Y-95114308I-250008J8D01*
G01*
X167349986Y-95114314D02*
G75*
G02*
X167099986Y-94864308I14J250014D01*
G01*
X165100014Y-94399986D02*
G75*
G03*
X164849986Y-94149986I-250014J-14D01*
G01*
X167100014Y-94399986D02*
G75*
G03*
X166849986Y-94149986I-250014J-14D01*
G01*
X166849986Y-94149986D02*
G75*
G03*
X166599986Y-94399986I14J-250014D01*
G01*
X165849986Y-94149986D02*
G75*
G03*
X165599986Y-94399986I14J-250014D01*
G01*
X167849986Y-94149986D02*
G75*
G03*
X167599986Y-94399986I14J-250014D01*
G01*
X166600008Y-94864308D02*
G75*
G02*
X166349986Y-95114308I-250008J8D01*
G01*
X166100014Y-94399986D02*
G75*
G03*
X165849986Y-94149986I-250014J-14D01*
G01*
X164099972Y-94799972D02*
X164700000Y-95400000D01*
X164699999Y-95824265D02*
X164700000Y-95824264D01*
X164977448Y-96395343D02*
X165659986Y-95712801D01*
X166084251Y-96137068D02*
X166084252Y-96137067D01*
X164700000Y-95824264D02*
X164553184Y-95971079D01*
X162949948Y-94799972D02*
X164099972Y-94799972D01*
X166084252Y-96137067D02*
X165548525Y-96672790D01*
X166628783Y-97328783D02*
X167080000Y-97780000D01*
X167080000Y-97780000D02*
X170000000Y-97780000D01*
X165825974Y-97243869D02*
X165972789Y-97097053D01*
X164977449Y-96395342D02*
X164977448Y-96395343D01*
X166397053Y-97097053D02*
X166628783Y-97328783D01*
X165548525Y-96672790D02*
X165401710Y-96819605D01*
X165825975Y-97243868D02*
X165825974Y-97243869D01*
X165825933Y-97243826D02*
G75*
G02*
X165401710Y-97243869I-212133J212126D01*
G01*
X165401747Y-97243832D02*
G75*
G02*
X165401710Y-96819605I212053J212132D01*
G01*
X166084216Y-96137033D02*
G75*
G03*
X166084252Y-95712803I-212116J212133D01*
G01*
X166397052Y-97097054D02*
G75*
G03*
X165972790Y-97097054I-212131J-212131D01*
G01*
X164699967Y-95824232D02*
G75*
G03*
X164700000Y-95400000I-212067J212132D01*
G01*
X164553196Y-96395331D02*
G75*
G02*
X164553185Y-95971080I212104J212131D01*
G01*
X166084233Y-95712822D02*
G75*
G03*
X165659987Y-95712802I-212133J-212078D01*
G01*
X164977433Y-96395326D02*
G75*
G02*
X164553184Y-96395343I-212133J212126D01*
G01*
X165100000Y-101975736D02*
X164967422Y-101843158D01*
X165391688Y-101418893D02*
X166081108Y-102108312D01*
X166797062Y-100702941D02*
X167066335Y-100433665D01*
X165391688Y-101418894D02*
X165391688Y-101418893D01*
X166240219Y-100570363D02*
X166240219Y-100570362D01*
X167180000Y-100320000D02*
X170000000Y-100320000D01*
X162949948Y-103350014D02*
X164149986Y-103350014D01*
X166505372Y-101684047D02*
X165815953Y-100994627D01*
X167066335Y-100433665D02*
X167180000Y-100320000D01*
X166240219Y-100570362D02*
X166372798Y-100702941D01*
X164149986Y-103350014D02*
X165100000Y-102400000D01*
X166505372Y-101684046D02*
X166505372Y-101684047D01*
X166240218Y-100570364D02*
G75*
G03*
X165815954Y-100570364I-212132J-212130D01*
G01*
X165815958Y-100570368D02*
G75*
G03*
X165815953Y-100994627I212142J-212132D01*
G01*
X164967397Y-101418869D02*
G75*
G03*
X164967423Y-101843157I212203J-212131D01*
G01*
X165099968Y-101975768D02*
G75*
G02*
X165100000Y-102400000I-212068J-212132D01*
G01*
X166505371Y-102108311D02*
G75*
G02*
X166081109Y-102108311I-212131J212131D01*
G01*
X165391687Y-101418895D02*
G75*
G03*
X164967423Y-101418895I-212132J-212130D01*
G01*
X166797061Y-100702940D02*
G75*
G02*
X166372799Y-100702940I-212131J212131D01*
G01*
X166505351Y-101684067D02*
G75*
G02*
X166505372Y-102108312I-212151J-212133D01*
G01*
X166000000Y-104093977D02*
X166000000Y-104000000D01*
X167200000Y-104093977D02*
X167200000Y-104000000D01*
X162949948Y-104000000D02*
X164500000Y-104000000D01*
X167800000Y-103462047D02*
X167800000Y-103700000D01*
X166693976Y-104187953D02*
X167106024Y-104187953D01*
X168860000Y-104000000D02*
X170000000Y-102860000D01*
X166000000Y-104000000D02*
X166000000Y-103462047D01*
X168100000Y-104000000D02*
X168647941Y-104000000D01*
X165400000Y-103700000D02*
X165400000Y-104093977D01*
X168647941Y-104000000D02*
X168860000Y-104000000D01*
X165400000Y-103512047D02*
X165400000Y-103700000D01*
X164800000Y-103700000D02*
X164800000Y-103512047D01*
X165493976Y-104187953D02*
X165906024Y-104187953D01*
X166600000Y-103462047D02*
X166600000Y-104000000D01*
X167200000Y-104000000D02*
X167200000Y-103462047D01*
X166600000Y-104000000D02*
X166600000Y-104093977D01*
X167500000Y-103162000D02*
G75*
G03*
X167200000Y-103462047I0J-300000D01*
G01*
X165399953Y-103512047D02*
G75*
G03*
X165100000Y-103212047I-299953J47D01*
G01*
X164800000Y-103700000D02*
G75*
G02*
X164500000Y-104000000I-300000J0D01*
G01*
X168100000Y-104000000D02*
G75*
G02*
X167800000Y-103700000I0J300000D01*
G01*
X165999953Y-104093977D02*
G75*
G02*
X165906024Y-104187953I-93953J-23D01*
G01*
X167799953Y-103462047D02*
G75*
G03*
X167500000Y-103162047I-299953J47D01*
G01*
X166693976Y-104188000D02*
G75*
G02*
X166600000Y-104093977I24J94000D01*
G01*
X166300000Y-103162000D02*
G75*
G03*
X166000000Y-103462047I0J-300000D01*
G01*
X167199953Y-104093977D02*
G75*
G02*
X167106024Y-104187953I-93953J-23D01*
G01*
X165493976Y-104188000D02*
G75*
G02*
X165400000Y-104093977I24J94000D01*
G01*
X166599953Y-103462047D02*
G75*
G03*
X166300000Y-103162047I-299953J47D01*
G01*
X165100000Y-103212000D02*
G75*
G03*
X164800000Y-103512047I0J-300000D01*
G01*
X164619785Y-104580215D02*
X164619785Y-104580214D01*
X165625014Y-105339529D02*
X165625014Y-104899986D01*
X165119785Y-104580214D02*
X165119785Y-104580215D01*
X165119785Y-104649986D02*
X165125014Y-104649986D01*
X166125014Y-104899986D02*
X166125014Y-105339529D01*
X168945732Y-104649986D02*
X169249986Y-104649986D01*
X169249986Y-104649986D02*
X170000000Y-105400000D01*
X167125014Y-104899986D02*
X167125014Y-105339529D01*
X162949948Y-104649986D02*
X164550014Y-104649986D01*
X166625014Y-105339529D02*
X166625014Y-104899986D01*
X167625014Y-105339529D02*
X167625014Y-104899986D01*
X165125014Y-104649986D02*
X165125014Y-105339529D01*
X164689556Y-104510443D02*
X165050014Y-104510443D01*
X167875014Y-104649986D02*
X168945732Y-104649986D01*
X165119785Y-104580215D02*
X165119785Y-104649986D01*
X167125014Y-104899986D02*
G75*
G03*
X166875014Y-104649986I-250014J-14D01*
G01*
X166375014Y-105589486D02*
G75*
G02*
X166125014Y-105339529I-14J249986D01*
G01*
X167625029Y-105339529D02*
G75*
G02*
X167375014Y-105589529I-250029J29D01*
G01*
X165119757Y-104580214D02*
G75*
G03*
X165050014Y-104510443I-69757J14D01*
G01*
X165625029Y-105339529D02*
G75*
G02*
X165375014Y-105589529I-250029J29D01*
G01*
X164619786Y-104580215D02*
G75*
G02*
X164550014Y-104649986I-69786J15D01*
G01*
X167875014Y-104650014D02*
G75*
G03*
X167625014Y-104899986I-14J-249986D01*
G01*
X165375014Y-105589486D02*
G75*
G02*
X165125014Y-105339529I-14J249986D01*
G01*
X166625029Y-105339529D02*
G75*
G02*
X166375014Y-105589529I-250029J29D01*
G01*
X167375014Y-105589486D02*
G75*
G02*
X167125014Y-105339529I-14J249986D01*
G01*
X164689556Y-104510385D02*
G75*
G03*
X164619785Y-104580214I44J-69815D01*
G01*
X166125014Y-104899986D02*
G75*
G03*
X165875014Y-104649986I-250014J-14D01*
G01*
X166875014Y-104650014D02*
G75*
G03*
X166625014Y-104899986I-14J-249986D01*
G01*
X165875014Y-104650014D02*
G75*
G03*
X165625014Y-104899986I-14J-249986D01*
G01*
X165449999Y-106874265D02*
X165450000Y-106874264D01*
X165450000Y-106874264D02*
X165167157Y-107157106D01*
X165591421Y-107581370D02*
X166581368Y-106591419D01*
X164299972Y-105299972D02*
X165450000Y-106450000D01*
X166722790Y-107722790D02*
X166940000Y-107940000D01*
X167005633Y-107015686D02*
X167005634Y-107015685D01*
X166940000Y-107940000D02*
X170000000Y-107940000D01*
X162949948Y-105299972D02*
X164299972Y-105299972D01*
X167005634Y-107015685D02*
X166722790Y-107298526D01*
X165591422Y-107581369D02*
X165591421Y-107581370D01*
X165449967Y-106874232D02*
G75*
G03*
X165450000Y-106450000I-212067J212132D01*
G01*
X167005634Y-106591421D02*
G75*
G03*
X166581368Y-106591419I-212134J-212179D01*
G01*
X166722748Y-107722832D02*
G75*
G02*
X166722790Y-107298526I212152J212132D01*
G01*
X165167196Y-107581331D02*
G75*
G02*
X165167158Y-107157107I212104J212131D01*
G01*
X165591433Y-107581380D02*
G75*
G02*
X165167157Y-107581370I-212133J212180D01*
G01*
X167005680Y-107015733D02*
G75*
G03*
X167005634Y-106591421I-212180J212133D01*
G01*
X160600000Y-102100000D02*
X160600000Y-96600000D01*
X160600000Y-96600000D02*
X160600000Y-91600000D01*
X160600000Y-91600000D02*
X160600000Y-86700000D01*
X170000000Y-110480000D02*
X163480000Y-110480000D01*
X160649958Y-91550042D02*
X160600000Y-91600000D01*
X162949948Y-91550042D02*
X160649958Y-91550042D01*
X160075000Y-109300000D02*
X160075000Y-108400000D01*
X160600000Y-86700000D02*
X160600000Y-82700000D01*
X160600000Y-82700000D02*
X161749958Y-81550042D01*
X160600000Y-107600000D02*
X160600000Y-102100000D01*
X161749958Y-81550042D02*
X162949948Y-81550042D01*
X163480000Y-110480000D02*
X160600000Y-107600000D01*
X162949948Y-102050042D02*
X160649958Y-102050042D01*
X160649958Y-102050042D02*
X160600000Y-102100000D01*
X160075000Y-108400000D02*
X160775000Y-107700000D01*
X158076612Y-85223388D02*
X158076612Y-81876612D01*
X158076612Y-105875447D02*
X158076612Y-102276612D01*
X157050052Y-102050042D02*
X157850042Y-102050042D01*
X157849958Y-85449958D02*
X157850042Y-85449958D01*
X158076612Y-101823388D02*
X158076612Y-95676612D01*
X158003266Y-91550042D02*
X158076612Y-91623388D01*
X157850042Y-102049958D02*
X158076612Y-101823388D01*
X158076612Y-95223388D02*
X158076612Y-95123388D01*
X157050052Y-107149948D02*
X157050052Y-105949958D01*
X158076612Y-91876612D02*
X158076612Y-91623388D01*
X157850042Y-95449958D02*
X158076612Y-95223388D01*
X158003266Y-95449958D02*
X158076612Y-95376612D01*
X157849958Y-85449958D02*
X158023388Y-85623388D01*
X157850042Y-102049958D02*
X157850042Y-102050042D01*
X158076612Y-95123388D02*
X158076612Y-91876612D01*
X158076612Y-95376612D02*
X158076612Y-95123388D01*
X147460000Y-113020000D02*
X150000000Y-113020000D01*
X157849958Y-85449958D02*
X158049958Y-85449958D01*
X158076612Y-91323388D02*
X158076612Y-85623388D01*
X157050052Y-105949958D02*
X158002101Y-105949958D01*
X157850042Y-95449958D02*
X157850042Y-95450042D01*
X158525000Y-108524948D02*
X157150000Y-107149948D01*
X157150000Y-107149948D02*
X157050052Y-107149948D01*
X157050052Y-91550042D02*
X157850042Y-91550042D01*
X156850052Y-107149948D02*
X157050052Y-107149948D01*
X157850042Y-95449958D02*
X158003266Y-95449958D01*
X157050052Y-95449958D02*
X157850042Y-95449958D01*
X150980000Y-113020000D02*
X156850052Y-107149948D01*
X158525000Y-109300000D02*
X158525000Y-108524948D01*
X158076612Y-85476612D02*
X158076612Y-85223388D01*
X158076612Y-101976612D02*
X158076612Y-101823388D01*
X157050052Y-85449958D02*
X157849958Y-85449958D01*
X158076612Y-91776612D02*
X158076612Y-91876612D01*
X157850042Y-85449958D02*
X158076612Y-85223388D01*
X158076612Y-91623388D02*
X158076612Y-91323388D01*
X157850042Y-102050042D02*
X158003182Y-102050042D01*
X157850042Y-91550042D02*
X158003266Y-91550042D01*
X157850042Y-102050042D02*
X158076612Y-102276612D01*
X157850042Y-95450042D02*
X158076612Y-95676612D01*
X158076612Y-102276612D02*
X158076612Y-101976612D01*
X158003182Y-102050042D02*
X158076612Y-101976612D01*
X158002101Y-105949958D02*
X158076612Y-105875447D01*
X157850042Y-91550042D02*
X158076612Y-91776612D01*
X158049958Y-85449958D02*
X158076612Y-85476612D01*
X157750042Y-81550042D02*
X157050052Y-81550042D01*
X158023388Y-85623388D02*
X158076612Y-85623388D01*
X158076612Y-85623388D02*
X158076612Y-85476612D01*
X158076612Y-95676612D02*
X158076612Y-95376612D01*
X157850042Y-91549958D02*
X158076612Y-91323388D01*
X157850042Y-91550042D02*
X157850042Y-91549958D01*
X158076612Y-81876612D02*
X157750042Y-81550042D01*
X150000000Y-113020000D02*
X150980000Y-113020000D01*
X159300000Y-85400000D02*
X159300000Y-95300000D01*
X161449958Y-85449958D02*
X161400000Y-85400000D01*
X162949948Y-85449958D02*
X161449958Y-85449958D01*
X159300000Y-95300000D02*
X159300000Y-106000000D01*
X159300000Y-106000000D02*
X159300000Y-110100000D01*
X159300000Y-110100000D02*
X164760000Y-115560000D01*
X162949948Y-105949958D02*
X161450042Y-105949958D01*
X161450042Y-105949958D02*
X161400000Y-106000000D01*
X164760000Y-115560000D02*
X170000000Y-115560000D01*
X162949948Y-95449958D02*
X161449958Y-95449958D01*
X161449958Y-95449958D02*
X161400000Y-95400000D01*
X153748527Y-80424263D02*
X153182899Y-80989890D01*
X154738418Y-81131427D02*
X154597053Y-81272789D01*
X153607163Y-81414154D02*
X153960658Y-81060658D01*
X154597053Y-81697053D02*
X155750014Y-82850014D01*
X150000000Y-80000000D02*
X152900000Y-80000000D01*
X154738417Y-81131428D02*
X154738418Y-81131427D01*
X153889892Y-80282901D02*
X153748527Y-80424263D01*
X153324264Y-80000000D02*
X153465628Y-79858637D01*
X153960658Y-81060658D02*
X154314152Y-80707161D01*
X153324265Y-79999999D02*
X153324264Y-80000000D01*
X155750014Y-82850014D02*
X157050052Y-82850014D01*
X153607164Y-81414153D02*
X153607163Y-81414154D01*
X153889891Y-80282902D02*
X153889892Y-80282901D01*
X153889922Y-80282933D02*
G75*
G03*
X153889892Y-79858637I-212122J212133D01*
G01*
X153889891Y-79858638D02*
G75*
G03*
X153465629Y-79858638I-212131J-212131D01*
G01*
X154738434Y-80707147D02*
G75*
G03*
X154314152Y-80707161I-212134J-212153D01*
G01*
X153182921Y-81414132D02*
G75*
G02*
X153182899Y-80989890I212079J212132D01*
G01*
X154738422Y-81131433D02*
G75*
G03*
X154738418Y-80707163I-212122J212133D01*
G01*
X153607133Y-81414122D02*
G75*
G02*
X153182899Y-81414154I-212133J212122D01*
G01*
X154597075Y-81697031D02*
G75*
G02*
X154597054Y-81272790I212125J212131D01*
G01*
X153324232Y-79999967D02*
G75*
G02*
X152900000Y-80000000I-212132J212067D01*
G01*
X153000000Y-83500000D02*
X153000000Y-82924591D01*
X155512107Y-83500000D02*
X157050052Y-83500000D01*
X154200000Y-83562705D02*
X154200000Y-83500000D01*
X154800000Y-82924591D02*
X154800000Y-83200000D01*
X150960000Y-83500000D02*
X151500000Y-83500000D01*
X152400000Y-82924591D02*
X152400000Y-83200000D01*
X152400000Y-83200000D02*
X152400000Y-83562705D01*
X151800000Y-83200000D02*
X151800000Y-82924591D01*
X150000000Y-82540000D02*
X150960000Y-83500000D01*
X155100000Y-83500000D02*
X155512107Y-83500000D01*
X153600000Y-82924591D02*
X153600000Y-83500000D01*
X154200000Y-83500000D02*
X154200000Y-82924591D01*
X153600000Y-83500000D02*
X153600000Y-83562705D01*
X153662704Y-83625409D02*
X154137296Y-83625409D01*
X152462704Y-83625409D02*
X152937296Y-83625409D01*
X153000000Y-83562705D02*
X153000000Y-83500000D01*
X154500000Y-82624600D02*
G75*
G03*
X154200000Y-82924591I0J-300000D01*
G01*
X155100000Y-83500000D02*
G75*
G02*
X154800000Y-83200000I0J300000D01*
G01*
X152100000Y-82624600D02*
G75*
G03*
X151800000Y-82924591I0J-300000D01*
G01*
X152400009Y-82924591D02*
G75*
G03*
X152100000Y-82624591I-300009J-9D01*
G01*
X154200009Y-83562705D02*
G75*
G02*
X154137296Y-83625409I-62709J5D01*
G01*
X153000009Y-83562705D02*
G75*
G02*
X152937296Y-83625409I-62709J5D01*
G01*
X153662704Y-83625400D02*
G75*
G02*
X153600000Y-83562705I-4J62700D01*
G01*
X153600009Y-82924591D02*
G75*
G03*
X153300000Y-82624591I-300009J-9D01*
G01*
X153300000Y-82624600D02*
G75*
G03*
X153000000Y-82924591I0J-300000D01*
G01*
X151800000Y-83200000D02*
G75*
G02*
X151500000Y-83500000I-300000J0D01*
G01*
X152462704Y-83625400D02*
G75*
G02*
X152400000Y-83562705I-4J62700D01*
G01*
X154800009Y-82924591D02*
G75*
G03*
X154500000Y-82624591I-300009J-9D01*
G01*
X154525014Y-84878938D02*
X154525014Y-84374986D01*
X153625014Y-84878938D02*
X153625014Y-84374986D01*
X154750014Y-84149986D02*
X154800014Y-84149986D01*
X154075014Y-84374986D02*
X154075014Y-84878938D01*
X152275014Y-84374986D02*
X152275014Y-84878938D01*
X150930014Y-84149986D02*
X152050014Y-84149986D01*
X152725014Y-84878938D02*
X152725014Y-84374986D01*
X150000000Y-85080000D02*
X150930014Y-84149986D01*
X153175014Y-84374986D02*
X153175014Y-84878938D01*
X154800014Y-84149986D02*
X157050052Y-84149986D01*
X154525038Y-84878938D02*
G75*
G02*
X154300014Y-85103938I-225038J38D01*
G01*
X153175014Y-84374986D02*
G75*
G03*
X152950014Y-84149986I-225014J-14D01*
G01*
X154750014Y-84150014D02*
G75*
G03*
X154525014Y-84374986I-14J-224986D01*
G01*
X154300014Y-85103886D02*
G75*
G02*
X154075014Y-84878938I-14J224986D01*
G01*
X152725038Y-84878938D02*
G75*
G02*
X152500014Y-85103938I-225038J38D01*
G01*
X153400014Y-85103886D02*
G75*
G02*
X153175014Y-84878938I-14J224986D01*
G01*
X152500014Y-85103886D02*
G75*
G02*
X152275014Y-84878938I-14J224986D01*
G01*
X152950014Y-84150014D02*
G75*
G03*
X152725014Y-84374986I-14J-224986D01*
G01*
X153625038Y-84878938D02*
G75*
G02*
X153400014Y-85103938I-225038J38D01*
G01*
X153850014Y-84150014D02*
G75*
G03*
X153625014Y-84374986I-14J-224986D01*
G01*
X152275014Y-84374986D02*
G75*
G03*
X152050014Y-84149986I-225014J-14D01*
G01*
X154075014Y-84374986D02*
G75*
G03*
X153850014Y-84149986I-225014J-14D01*
G01*
X152880000Y-87620000D02*
X150000000Y-87620000D01*
X154060572Y-86439430D02*
X154060569Y-86439431D01*
X155700028Y-84799972D02*
X154750000Y-85750000D01*
X154060569Y-86439431D02*
X153473857Y-85852719D01*
X154750000Y-86209620D02*
X155106902Y-86566522D01*
X157050052Y-84799972D02*
X155700028Y-84799972D01*
X153014238Y-85852720D02*
X153014238Y-85852719D01*
X153181483Y-87318517D02*
X152880000Y-87620000D01*
X153371139Y-87128859D02*
X153371139Y-87128858D01*
X153014238Y-86312337D02*
X153014238Y-86312338D01*
X154647283Y-87026142D02*
X154647283Y-87026141D01*
X153371139Y-87128858D02*
X153181483Y-87318517D01*
X154647283Y-87026141D02*
X154060572Y-86439430D01*
X153014238Y-86312338D02*
X153371139Y-86669239D01*
X155106902Y-87026142D02*
X155106901Y-87026142D01*
X153014267Y-86312308D02*
G75*
G02*
X153014239Y-85852720I229733J229808D01*
G01*
X154647283Y-87026142D02*
G75*
G03*
X155106901Y-87026142I229809J229812D01*
G01*
X153014190Y-85852672D02*
G75*
G02*
X153473857Y-85852719I229810J-229828D01*
G01*
X154750010Y-86209610D02*
G75*
G02*
X154750000Y-85750000I229790J229810D01*
G01*
X155106870Y-87026110D02*
G75*
G03*
X155106902Y-86566522I-229770J229810D01*
G01*
X153371090Y-87128810D02*
G75*
G03*
X153371139Y-86669239I-229790J229810D01*
G01*
X155197053Y-92197053D02*
X155850014Y-92850014D01*
X154560658Y-91560658D02*
X154921962Y-91199351D01*
X150000000Y-90160000D02*
X153160000Y-90160000D01*
X153924264Y-90500000D02*
X154073438Y-90350827D01*
X154199353Y-91921964D02*
X154560658Y-91560658D01*
X154348527Y-90924263D02*
X153775089Y-91497700D01*
X155346227Y-91623618D02*
X155346228Y-91623617D01*
X154199354Y-91921963D02*
X154199353Y-91921964D01*
X153924265Y-90499999D02*
X153924264Y-90500000D01*
X155346228Y-91623617D02*
X155197053Y-91772789D01*
X155850014Y-92850014D02*
X157050052Y-92850014D01*
X153160000Y-90160000D02*
X153500000Y-90500000D01*
X154497702Y-90775091D02*
X154348527Y-90924263D01*
X154497701Y-90775092D02*
X154497702Y-90775091D01*
X155346241Y-91623632D02*
G75*
G03*
X155346227Y-91199354I-212141J212132D01*
G01*
X155197075Y-92197031D02*
G75*
G02*
X155197054Y-91772790I212125J212131D01*
G01*
X154199332Y-91921941D02*
G75*
G02*
X153775090Y-91921963I-212132J212141D01*
G01*
X153924232Y-90499967D02*
G75*
G02*
X153500000Y-90500000I-212132J212067D01*
G01*
X153775121Y-91921932D02*
G75*
G02*
X153775089Y-91497700I212079J212132D01*
G01*
X154497701Y-90350828D02*
G75*
G03*
X154073439Y-90350828I-212131J-212131D01*
G01*
X155346234Y-91199347D02*
G75*
G03*
X154921962Y-91199351I-212134J-212153D01*
G01*
X154497741Y-90775132D02*
G75*
G03*
X154497701Y-90350828I-212141J212132D01*
G01*
X154300000Y-93596018D02*
X154300000Y-93500000D01*
X150000000Y-92700000D02*
X150800000Y-93500000D01*
X154900000Y-92957964D02*
X154900000Y-93200000D01*
X155200000Y-93500000D02*
X156099863Y-93500000D01*
X153796018Y-93692036D02*
X154203982Y-93692036D01*
X152500000Y-92957964D02*
X152500000Y-93200000D01*
X156099863Y-93500000D02*
X157050052Y-93500000D01*
X153700000Y-92957964D02*
X153700000Y-93500000D01*
X153100000Y-93596018D02*
X153100000Y-93500000D01*
X153700000Y-93500000D02*
X153700000Y-93596018D01*
X152596018Y-93692036D02*
X153003982Y-93692036D01*
X153100000Y-93500000D02*
X153100000Y-92957964D01*
X150800000Y-93500000D02*
X151600000Y-93500000D01*
X151900000Y-93200000D02*
X151900000Y-92957964D01*
X154300000Y-93500000D02*
X154300000Y-92957964D01*
X152500000Y-93200000D02*
X152500000Y-93596018D01*
X154900036Y-92957964D02*
G75*
G03*
X154600000Y-92657964I-300036J-36D01*
G01*
X153700036Y-92957964D02*
G75*
G03*
X153400000Y-92657964I-300036J-36D01*
G01*
X152500036Y-92957964D02*
G75*
G03*
X152200000Y-92657964I-300036J-36D01*
G01*
X153400000Y-92658000D02*
G75*
G03*
X153100000Y-92957964I0J-300000D01*
G01*
X153100036Y-93596018D02*
G75*
G02*
X153003982Y-93692036I-96036J18D01*
G01*
X151900000Y-93200000D02*
G75*
G02*
X151600000Y-93500000I-300000J0D01*
G01*
X152596018Y-93692000D02*
G75*
G02*
X152500000Y-93596018I-18J96000D01*
G01*
X154600000Y-92658000D02*
G75*
G03*
X154300000Y-92957964I0J-300000D01*
G01*
X155200000Y-93500000D02*
G75*
G02*
X154900000Y-93200000I0J300000D01*
G01*
X152200000Y-92658000D02*
G75*
G03*
X151900000Y-92957964I0J-300000D01*
G01*
X154300036Y-93596018D02*
G75*
G02*
X154203982Y-93692036I-96036J18D01*
G01*
X153796018Y-93692000D02*
G75*
G02*
X153700000Y-93596018I-18J96000D01*
G01*
X154849986Y-94149986D02*
X154899986Y-94149986D01*
X150000000Y-95240000D02*
X151090014Y-94149986D01*
X152374986Y-94374986D02*
X152374986Y-94867848D01*
X153724986Y-94867848D02*
X153724986Y-94374986D01*
X153274986Y-94374986D02*
X153274986Y-94867848D01*
X154624986Y-94867848D02*
X154624986Y-94374986D01*
X154899986Y-94149986D02*
X157050052Y-94149986D01*
X154174986Y-94374986D02*
X154174986Y-94867848D01*
X152824986Y-94867848D02*
X152824986Y-94374986D01*
X151090014Y-94149986D02*
X152149986Y-94149986D01*
X152375014Y-94374986D02*
G75*
G03*
X152149986Y-94149986I-225014J-14D01*
G01*
X153949986Y-94149986D02*
G75*
G03*
X153724986Y-94374986I14J-225014D01*
G01*
X153499986Y-95092814D02*
G75*
G02*
X153274986Y-94867848I14J225014D01*
G01*
X152599986Y-95092814D02*
G75*
G02*
X152374986Y-94867848I14J225014D01*
G01*
X154399986Y-95092814D02*
G75*
G02*
X154174986Y-94867848I14J225014D01*
G01*
X154849986Y-94149986D02*
G75*
G03*
X154624986Y-94374986I14J-225014D01*
G01*
X153725048Y-94867848D02*
G75*
G02*
X153499986Y-95092848I-225048J48D01*
G01*
X153275014Y-94374986D02*
G75*
G03*
X153049986Y-94149986I-225014J-14D01*
G01*
X154175014Y-94374986D02*
G75*
G03*
X153949986Y-94149986I-225014J-14D01*
G01*
X153049986Y-94149986D02*
G75*
G03*
X152824986Y-94374986I14J-225014D01*
G01*
X154625048Y-94867848D02*
G75*
G02*
X154399986Y-95092848I-225048J48D01*
G01*
X152825048Y-94867848D02*
G75*
G02*
X152599986Y-95092848I-225048J48D01*
G01*
X153670820Y-97129180D02*
X153020000Y-97780000D01*
X157050052Y-94799972D02*
X156000028Y-94799972D01*
X155000000Y-96224266D02*
X154999999Y-96224266D01*
X156000028Y-94799972D02*
X155000000Y-95800000D01*
X153358075Y-96279399D02*
X153727205Y-96648529D01*
X154575736Y-96648531D02*
X153782339Y-95855135D01*
X154944866Y-97017661D02*
X154575736Y-96648531D01*
X154999999Y-96224266D02*
X155369130Y-96593397D01*
X153727205Y-97072793D02*
X153670820Y-97129180D01*
X153020000Y-97780000D02*
X150000000Y-97780000D01*
X153358042Y-96279432D02*
G75*
G02*
X153358075Y-95855135I212158J212132D01*
G01*
X155000033Y-96224232D02*
G75*
G02*
X155000000Y-95800000I212067J212132D01*
G01*
X154944867Y-97017660D02*
G75*
G03*
X155369129Y-97017660I212131J212131D01*
G01*
X153358076Y-95855136D02*
G75*
G02*
X153782338Y-95855136I212131J-212131D01*
G01*
X153727244Y-97072832D02*
G75*
G03*
X153727205Y-96648529I-212144J212132D01*
G01*
X155369101Y-97017632D02*
G75*
G03*
X155369130Y-96593397I-212101J212132D01*
G01*
X150000000Y-100320000D02*
X152920000Y-100320000D01*
X154749630Y-101460215D02*
X154749631Y-101460214D01*
X153635951Y-101725366D02*
X153635950Y-101725367D01*
X153635950Y-101725367D02*
X153980658Y-101380658D01*
X155950014Y-103350014D02*
X157050052Y-103350014D01*
X154749631Y-101460214D02*
X154617053Y-101592789D01*
X154617053Y-102017053D02*
X155950014Y-103350014D01*
X153901105Y-100611688D02*
X153768527Y-100744263D01*
X153901104Y-100611689D02*
X153901105Y-100611688D01*
X153344264Y-100320000D02*
X153476841Y-100187424D01*
X153768527Y-100744263D02*
X153211686Y-101301103D01*
X153980658Y-101380658D02*
X154325365Y-101035948D01*
X153344265Y-100319999D02*
X153344264Y-100320000D01*
X154617075Y-102017031D02*
G75*
G02*
X154617054Y-101592790I212125J212131D01*
G01*
X153901147Y-100611732D02*
G75*
G03*
X153901104Y-100187425I-212147J212132D01*
G01*
X153901104Y-100187425D02*
G75*
G03*
X153476842Y-100187425I-212131J-212131D01*
G01*
X153211721Y-101725332D02*
G75*
G02*
X153211686Y-101301103I212079J212132D01*
G01*
X154749647Y-101460232D02*
G75*
G03*
X154749630Y-101035951I-212147J212132D01*
G01*
X153344232Y-100319967D02*
G75*
G02*
X152920000Y-100320000I-212132J212067D01*
G01*
X154749634Y-101035947D02*
G75*
G03*
X154325365Y-101035948I-212134J-212153D01*
G01*
X153635932Y-101725347D02*
G75*
G02*
X153211687Y-101725366I-212132J212147D01*
G01*
X154050000Y-103750000D02*
X154050000Y-104095392D01*
X153550000Y-104095392D02*
X153550000Y-104000000D01*
X151140000Y-104000000D02*
X150000000Y-102860000D01*
X152550000Y-104095392D02*
X152550000Y-104000000D01*
X157050052Y-104000000D02*
X154800000Y-104000000D01*
X153550000Y-104000000D02*
X153550000Y-103459216D01*
X152050000Y-103459216D02*
X152050000Y-103750000D01*
X153050000Y-104000000D02*
X153050000Y-104095392D01*
X151342650Y-104000000D02*
X151140000Y-104000000D01*
X151800000Y-104000000D02*
X151342650Y-104000000D01*
X153050000Y-103459216D02*
X153050000Y-104000000D01*
X154050000Y-103459216D02*
X154050000Y-103750000D01*
X153954608Y-104190784D02*
X153645392Y-104190784D01*
X152550000Y-104000000D02*
X152550000Y-103459216D01*
X154550000Y-103750000D02*
X154550000Y-103459216D01*
X152954608Y-104190784D02*
X152645392Y-104190784D01*
X153550016Y-104095392D02*
G75*
G03*
X153645392Y-104190784I95384J-8D01*
G01*
X151800000Y-104000000D02*
G75*
G03*
X152050000Y-103750000I0J250000D01*
G01*
X152954608Y-104190800D02*
G75*
G03*
X153050000Y-104095392I-8J95400D01*
G01*
X152300000Y-103209200D02*
G75*
G02*
X152550000Y-103459216I0J-250000D01*
G01*
X152050016Y-103459216D02*
G75*
G02*
X152300000Y-103209216I249984J16D01*
G01*
X152550016Y-104095392D02*
G75*
G03*
X152645392Y-104190784I95384J-8D01*
G01*
X153954608Y-104190800D02*
G75*
G03*
X154050000Y-104095392I-8J95400D01*
G01*
X153300000Y-103209200D02*
G75*
G02*
X153550000Y-103459216I0J-250000D01*
G01*
X153050016Y-103459216D02*
G75*
G02*
X153300000Y-103209216I249984J16D01*
G01*
X154300000Y-103209200D02*
G75*
G02*
X154550000Y-103459216I0J-250000D01*
G01*
X154550000Y-103750000D02*
G75*
G03*
X154800000Y-104000000I250000J0D01*
G01*
X154050016Y-103459216D02*
G75*
G02*
X154300000Y-103209216I249984J16D01*
G01*
X154337639Y-104587611D02*
X154337639Y-104649986D01*
X152075014Y-105349737D02*
X152075014Y-104874986D01*
X154337639Y-104649986D02*
X154325014Y-104649986D01*
X153425014Y-104874986D02*
X153425014Y-105349737D01*
X152525014Y-104874986D02*
X152525014Y-105349737D01*
X151850014Y-104649986D02*
X151800014Y-104649986D01*
X154725264Y-104525235D02*
X154400014Y-104525235D01*
X153875014Y-105349737D02*
X153875014Y-104874986D01*
X154337639Y-104587610D02*
X154337639Y-104587611D01*
X157050052Y-104649986D02*
X154850014Y-104649986D01*
X150750014Y-104649986D02*
X150000000Y-105400000D01*
X154787639Y-104587611D02*
X154787639Y-104587610D01*
X152975014Y-105349737D02*
X152975014Y-104874986D01*
X154325014Y-104649986D02*
X154325014Y-105349737D01*
X151800014Y-104649986D02*
X150750014Y-104649986D01*
X153874963Y-105349737D02*
G75*
G03*
X154100014Y-105574737I225037J37D01*
G01*
X154787614Y-104587611D02*
G75*
G03*
X154850014Y-104649986I62386J11D01*
G01*
X152974963Y-105349737D02*
G75*
G03*
X153200014Y-105574737I225037J37D01*
G01*
X153424986Y-104874986D02*
G75*
G02*
X153650014Y-104649986I225014J-14D01*
G01*
X151850014Y-104649986D02*
G75*
G02*
X152075014Y-104874986I-14J-225014D01*
G01*
X154725264Y-104525261D02*
G75*
G02*
X154787639Y-104587610I36J-62339D01*
G01*
X152750014Y-104649986D02*
G75*
G02*
X152975014Y-104874986I-14J-225014D01*
G01*
X152074963Y-105349737D02*
G75*
G03*
X152300014Y-105574737I225037J37D01*
G01*
X153200014Y-105574714D02*
G75*
G03*
X153425014Y-105349737I-14J225014D01*
G01*
X152524986Y-104874986D02*
G75*
G02*
X152750014Y-104649986I225014J-14D01*
G01*
X153650014Y-104649986D02*
G75*
G02*
X153875014Y-104874986I-14J-225014D01*
G01*
X152300014Y-105574714D02*
G75*
G03*
X152525014Y-105349737I-14J225014D01*
G01*
X154337635Y-104587610D02*
G75*
G02*
X154400014Y-104525235I62365J10D01*
G01*
X154100014Y-105574714D02*
G75*
G03*
X154325014Y-105349737I-14J225014D01*
G01*
X154289340Y-107010662D02*
X153843085Y-106564407D01*
X154720285Y-106579713D02*
X154713603Y-106586397D01*
X156000028Y-105299972D02*
X155350000Y-105950000D01*
X154528202Y-105950000D02*
X154514836Y-105963365D01*
X153360000Y-107940000D02*
X150000000Y-107940000D01*
X153418821Y-106988671D02*
X153652942Y-107222792D01*
X154713603Y-106586397D02*
X155159857Y-107032651D01*
X154735593Y-107456915D02*
X154289340Y-107010662D01*
X153652942Y-107647056D02*
X153360000Y-107940000D01*
X154514836Y-106374263D02*
X154514836Y-106374264D01*
X154528202Y-105949999D02*
X154528202Y-105950000D01*
X154939100Y-105950000D02*
X154939101Y-105950000D01*
X154514836Y-106374264D02*
X154720285Y-106579713D01*
X157050052Y-105299972D02*
X156000028Y-105299972D01*
X155159874Y-107456932D02*
G75*
G03*
X155159857Y-107032651I-212174J212132D01*
G01*
X154735594Y-107456914D02*
G75*
G03*
X155159856Y-107456914I212131J212131D01*
G01*
X153418860Y-106988632D02*
G75*
G02*
X153418821Y-106564407I212140J212132D01*
G01*
X153418822Y-106564408D02*
G75*
G02*
X153843084Y-106564408I212131J-212131D01*
G01*
X154528252Y-105950049D02*
G75*
G02*
X154939100Y-105950001I205448J-205451D01*
G01*
X153652918Y-107647032D02*
G75*
G03*
X153652942Y-107222792I-212118J212132D01*
G01*
X154514850Y-106374249D02*
G75*
G02*
X154514836Y-105963365I205450J205449D01*
G01*
X154939101Y-105949999D02*
G75*
G03*
X155349999Y-105949999I205449J205450D01*
G01*
G04 #@! TA.AperFunction,Conductor*
G36*
X164314867Y-106217905D02*
G01*
X164343392Y-106239296D01*
X164677951Y-106573855D01*
X164711977Y-106636167D01*
X164706912Y-106706982D01*
X164685386Y-106743931D01*
X164615193Y-106827602D01*
X164615188Y-106827609D01*
X164611658Y-106831817D01*
X164530007Y-106973276D01*
X164528128Y-106978439D01*
X164528127Y-106978442D01*
X164520818Y-106998529D01*
X164474159Y-107126764D01*
X164473205Y-107132176D01*
X164473205Y-107132177D01*
X164449502Y-107266680D01*
X164445812Y-107287617D01*
X164445827Y-107450950D01*
X164474203Y-107611799D01*
X164530078Y-107765277D01*
X164611754Y-107906721D01*
X164671112Y-107977450D01*
X164680391Y-107988507D01*
X164684619Y-107993831D01*
X164706592Y-108023093D01*
X164715943Y-108032641D01*
X164719186Y-108035184D01*
X164719191Y-108035188D01*
X164740017Y-108051515D01*
X164743240Y-108054130D01*
X164793796Y-108096546D01*
X164836702Y-108132544D01*
X164841835Y-108136851D01*
X164846604Y-108139604D01*
X164978515Y-108215757D01*
X164978518Y-108215758D01*
X164983286Y-108218511D01*
X164988456Y-108220392D01*
X164988461Y-108220395D01*
X165073747Y-108251434D01*
X165136766Y-108274370D01*
X165142177Y-108275324D01*
X165142180Y-108275325D01*
X165292195Y-108301778D01*
X165292199Y-108301778D01*
X165297613Y-108302733D01*
X165379308Y-108302735D01*
X165455443Y-108302737D01*
X165460943Y-108302737D01*
X165541367Y-108288560D01*
X165616377Y-108275337D01*
X165616382Y-108275336D01*
X165621792Y-108274382D01*
X165775274Y-108218530D01*
X165916728Y-108136877D01*
X165956871Y-108103199D01*
X165973713Y-108091276D01*
X165975956Y-108089950D01*
X165975959Y-108089948D01*
X165982783Y-108085912D01*
X166001160Y-108067535D01*
X166014633Y-108055847D01*
X166016812Y-108054212D01*
X166083304Y-108029326D01*
X166152695Y-108044340D01*
X166188956Y-108074004D01*
X166201108Y-108088488D01*
X166213029Y-108105328D01*
X166218248Y-108114152D01*
X166236640Y-108132544D01*
X166248310Y-108145992D01*
X166262176Y-108164462D01*
X166271526Y-108174011D01*
X166274774Y-108176558D01*
X166296046Y-108193239D01*
X166307390Y-108203294D01*
X166436343Y-108332247D01*
X166443887Y-108340537D01*
X166448000Y-108347018D01*
X166453777Y-108352443D01*
X166497667Y-108393658D01*
X166500509Y-108396413D01*
X166520230Y-108416134D01*
X166523425Y-108418612D01*
X166532447Y-108426318D01*
X166564679Y-108456586D01*
X166571628Y-108460406D01*
X166582432Y-108466346D01*
X166598956Y-108477199D01*
X166614959Y-108489613D01*
X166655543Y-108507176D01*
X166666173Y-108512383D01*
X166704940Y-108533695D01*
X166712617Y-108535666D01*
X166712622Y-108535668D01*
X166724558Y-108538732D01*
X166743266Y-108545137D01*
X166761855Y-108553181D01*
X166769680Y-108554420D01*
X166769682Y-108554421D01*
X166805519Y-108560097D01*
X166817140Y-108562504D01*
X166848959Y-108570673D01*
X166859970Y-108573500D01*
X166880231Y-108573500D01*
X166899940Y-108575051D01*
X166919943Y-108578219D01*
X166927835Y-108577473D01*
X166933062Y-108576979D01*
X166963954Y-108574059D01*
X166975811Y-108573500D01*
X168724274Y-108573500D01*
X168792395Y-108593502D01*
X168831707Y-108633665D01*
X168899987Y-108745088D01*
X169046250Y-108913938D01*
X169089703Y-108950013D01*
X169199930Y-109041525D01*
X169218126Y-109056632D01*
X169291955Y-109099774D01*
X169340679Y-109151412D01*
X169353750Y-109221195D01*
X169327019Y-109286967D01*
X169286562Y-109320327D01*
X169278457Y-109324546D01*
X169269738Y-109330036D01*
X169099433Y-109457905D01*
X169091726Y-109464748D01*
X168944590Y-109618717D01*
X168938104Y-109626727D01*
X168818098Y-109802649D01*
X168813000Y-109811623D01*
X168723338Y-110004783D01*
X168719775Y-110014470D01*
X168664389Y-110214183D01*
X168665912Y-110222607D01*
X168678292Y-110226000D01*
X172668000Y-110226000D01*
X172736121Y-110246002D01*
X172782614Y-110299658D01*
X172794000Y-110352000D01*
X172794000Y-110608000D01*
X172773998Y-110676121D01*
X172720342Y-110722614D01*
X172668000Y-110734000D01*
X168683225Y-110734000D01*
X168669694Y-110737973D01*
X168668257Y-110747966D01*
X168698565Y-110882446D01*
X168701645Y-110892275D01*
X168781770Y-111089603D01*
X168786413Y-111098794D01*
X168897694Y-111280388D01*
X168903777Y-111288699D01*
X169043213Y-111449667D01*
X169050580Y-111456883D01*
X169214434Y-111592916D01*
X169222881Y-111598831D01*
X169291969Y-111639203D01*
X169340693Y-111690842D01*
X169353764Y-111760625D01*
X169327033Y-111826396D01*
X169286584Y-111859752D01*
X169273607Y-111866507D01*
X169269474Y-111869610D01*
X169269471Y-111869612D01*
X169117227Y-111983920D01*
X169094965Y-112000635D01*
X168940629Y-112162138D01*
X168814743Y-112346680D01*
X168720688Y-112549305D01*
X168660989Y-112764570D01*
X168637251Y-112986695D01*
X168650110Y-113209715D01*
X168651247Y-113214761D01*
X168651248Y-113214767D01*
X168675304Y-113321508D01*
X168699222Y-113427639D01*
X168783266Y-113634616D01*
X168820366Y-113695158D01*
X168897291Y-113820688D01*
X168899987Y-113825088D01*
X169046250Y-113993938D01*
X169218126Y-114136632D01*
X169288595Y-114177811D01*
X169291445Y-114179476D01*
X169340169Y-114231114D01*
X169353240Y-114300897D01*
X169326509Y-114366669D01*
X169286055Y-114400027D01*
X169273607Y-114406507D01*
X169269474Y-114409610D01*
X169269471Y-114409612D01*
X169117227Y-114523920D01*
X169094965Y-114540635D01*
X168940629Y-114702138D01*
X168937720Y-114706403D01*
X168937714Y-114706411D01*
X168825095Y-114871504D01*
X168770184Y-114916507D01*
X168721007Y-114926500D01*
X165074594Y-114926500D01*
X165006473Y-114906498D01*
X164985499Y-114889595D01*
X160533084Y-110437179D01*
X160499058Y-110374867D01*
X160504123Y-110304052D01*
X160546670Y-110247216D01*
X160582305Y-110228560D01*
X160606103Y-110220621D01*
X160619286Y-110214445D01*
X160752173Y-110132212D01*
X160763574Y-110123176D01*
X160873986Y-110012571D01*
X160882998Y-110001160D01*
X160965004Y-109868120D01*
X160971151Y-109854939D01*
X161020491Y-109706186D01*
X161023358Y-109692810D01*
X161032672Y-109601903D01*
X161033000Y-109595487D01*
X161033000Y-109572115D01*
X161028525Y-109556876D01*
X161027135Y-109555671D01*
X161019452Y-109554000D01*
X160059500Y-109554000D01*
X159991379Y-109533998D01*
X159944886Y-109480342D01*
X159933500Y-109428000D01*
X159933500Y-109172000D01*
X159953502Y-109103879D01*
X160007158Y-109057386D01*
X160059500Y-109046000D01*
X161014885Y-109046000D01*
X161030124Y-109041525D01*
X161031329Y-109040135D01*
X161033000Y-109032452D01*
X161033000Y-109004562D01*
X161032663Y-108998047D01*
X161023106Y-108905943D01*
X161020212Y-108892544D01*
X161003303Y-108841861D01*
X161000719Y-108770911D01*
X161036903Y-108709828D01*
X161100367Y-108678003D01*
X161109823Y-108676658D01*
X161144056Y-108673106D01*
X161157456Y-108670212D01*
X161306107Y-108620619D01*
X161319286Y-108614445D01*
X161452173Y-108532212D01*
X161463574Y-108523176D01*
X161573986Y-108412571D01*
X161582998Y-108401160D01*
X161665004Y-108268120D01*
X161671151Y-108254939D01*
X161720491Y-108106186D01*
X161723358Y-108092810D01*
X161732672Y-108001903D01*
X161733000Y-107995487D01*
X161733000Y-107972115D01*
X161728525Y-107956876D01*
X161727135Y-107955671D01*
X161719452Y-107954000D01*
X160647000Y-107954000D01*
X160578879Y-107933998D01*
X160532386Y-107880342D01*
X160521000Y-107828000D01*
X160521000Y-107572000D01*
X160541002Y-107503879D01*
X160594658Y-107457386D01*
X160647000Y-107446000D01*
X161714885Y-107446000D01*
X161730124Y-107441525D01*
X161731329Y-107440135D01*
X161733000Y-107432452D01*
X161733000Y-107404562D01*
X161732663Y-107398047D01*
X161723106Y-107305943D01*
X161720212Y-107292544D01*
X161670619Y-107143893D01*
X161664445Y-107130715D01*
X161616594Y-107053388D01*
X161597756Y-106984936D01*
X161618917Y-106917167D01*
X161673358Y-106871595D01*
X161678765Y-106869543D01*
X161682288Y-106868794D01*
X161692339Y-106864319D01*
X161850722Y-106793803D01*
X161850724Y-106793802D01*
X161856752Y-106791118D01*
X161863099Y-106786507D01*
X161921699Y-106743931D01*
X162011253Y-106678866D01*
X162021152Y-106667872D01*
X162081598Y-106630632D01*
X162137518Y-106629704D01*
X162137583Y-106629103D01*
X162142377Y-106629624D01*
X162142379Y-106629624D01*
X162199765Y-106635858D01*
X163700131Y-106635858D01*
X163762313Y-106629103D01*
X163898702Y-106577973D01*
X164015258Y-106490619D01*
X164102612Y-106374063D01*
X164136315Y-106284161D01*
X164178957Y-106227397D01*
X164245518Y-106202697D01*
X164314867Y-106217905D01*
G37*
G04 #@! TD.AperFunction*
G04 #@! TA.AperFunction,Conductor*
G36*
X154368615Y-107977448D02*
G01*
X154410247Y-108012382D01*
X154415014Y-108015134D01*
X154415018Y-108015137D01*
X154480241Y-108052793D01*
X154551704Y-108094052D01*
X154556867Y-108095931D01*
X154556871Y-108095933D01*
X154595903Y-108110139D01*
X154701888Y-108148714D01*
X154759058Y-108190807D01*
X154784396Y-108257128D01*
X154769855Y-108326620D01*
X154747887Y-108356209D01*
X151093490Y-112010605D01*
X151031178Y-112044631D01*
X150960362Y-112039566D01*
X150926303Y-112020392D01*
X150758414Y-111887800D01*
X150758410Y-111887798D01*
X150754359Y-111884598D01*
X150712569Y-111861529D01*
X150662598Y-111811097D01*
X150647826Y-111741654D01*
X150672942Y-111675248D01*
X150700294Y-111648641D01*
X150875328Y-111523792D01*
X150883200Y-111517139D01*
X151034052Y-111366812D01*
X151040730Y-111358965D01*
X151165003Y-111186020D01*
X151170313Y-111177183D01*
X151264670Y-110986267D01*
X151268469Y-110976672D01*
X151330377Y-110772910D01*
X151332555Y-110762837D01*
X151333986Y-110751962D01*
X151331775Y-110737778D01*
X151318617Y-110734000D01*
X147332000Y-110734000D01*
X147263879Y-110713998D01*
X147217386Y-110660342D01*
X147206000Y-110608000D01*
X147206000Y-110352000D01*
X147226002Y-110283879D01*
X147279658Y-110237386D01*
X147332000Y-110226000D01*
X151318344Y-110226000D01*
X151331875Y-110222027D01*
X151333180Y-110212947D01*
X151291214Y-110045875D01*
X151287894Y-110036124D01*
X151202972Y-109840814D01*
X151198105Y-109831739D01*
X151082426Y-109652926D01*
X151076136Y-109644757D01*
X150932806Y-109487240D01*
X150925273Y-109480215D01*
X150758139Y-109348222D01*
X150749556Y-109342520D01*
X150712602Y-109322120D01*
X150662631Y-109271687D01*
X150647859Y-109202245D01*
X150672975Y-109135839D01*
X150700327Y-109109232D01*
X150723797Y-109092491D01*
X150879860Y-108981173D01*
X151038096Y-108823489D01*
X151132630Y-108691931D01*
X151165435Y-108646277D01*
X151168453Y-108642077D01*
X151170746Y-108637437D01*
X151172446Y-108634608D01*
X151224674Y-108586518D01*
X151280451Y-108573500D01*
X153281235Y-108573500D01*
X153292418Y-108574027D01*
X153299911Y-108575702D01*
X153307837Y-108575453D01*
X153307838Y-108575453D01*
X153367988Y-108573562D01*
X153371947Y-108573500D01*
X153399856Y-108573500D01*
X153403789Y-108573003D01*
X153403792Y-108573003D01*
X153403857Y-108572995D01*
X153415695Y-108572062D01*
X153459892Y-108570673D01*
X153479338Y-108565023D01*
X153498698Y-108561014D01*
X153510932Y-108559468D01*
X153510936Y-108559467D01*
X153518797Y-108558474D01*
X153526161Y-108555558D01*
X153526166Y-108555557D01*
X153559908Y-108542197D01*
X153571141Y-108538351D01*
X153587167Y-108533695D01*
X153613595Y-108526017D01*
X153631029Y-108515706D01*
X153648783Y-108507009D01*
X153667617Y-108499552D01*
X153703385Y-108473565D01*
X153713306Y-108467049D01*
X153730997Y-108456586D01*
X153751364Y-108444541D01*
X153756968Y-108438936D01*
X153756974Y-108438932D01*
X153765688Y-108430218D01*
X153780722Y-108417377D01*
X153790691Y-108410134D01*
X153790694Y-108410131D01*
X153797107Y-108405472D01*
X153825287Y-108371408D01*
X153833276Y-108362628D01*
X154062705Y-108133197D01*
X154076153Y-108121528D01*
X154091323Y-108110139D01*
X154094620Y-108107664D01*
X154104169Y-108098313D01*
X154107511Y-108094052D01*
X154123636Y-108073487D01*
X154126271Y-108070239D01*
X154191108Y-107992976D01*
X154250219Y-107953652D01*
X154321207Y-107952528D01*
X154368615Y-107977448D01*
G37*
G04 #@! TD.AperFunction*
G04 #@! TA.AperFunction,Conductor*
G36*
X173533621Y-78328502D02*
G01*
X173580114Y-78382158D01*
X173591500Y-78434500D01*
X173591500Y-78839202D01*
X173571498Y-78907323D01*
X173517842Y-78953816D01*
X173447568Y-78963920D01*
X173387408Y-78938084D01*
X173298414Y-78867800D01*
X173298410Y-78867798D01*
X173294359Y-78864598D01*
X173098789Y-78756638D01*
X173093920Y-78754914D01*
X173093916Y-78754912D01*
X172893087Y-78683795D01*
X172893083Y-78683794D01*
X172888212Y-78682069D01*
X172883119Y-78681162D01*
X172883116Y-78681161D01*
X172673373Y-78643800D01*
X172673367Y-78643799D01*
X172668284Y-78642894D01*
X172594452Y-78641992D01*
X172450081Y-78640228D01*
X172450079Y-78640228D01*
X172444911Y-78640165D01*
X172224091Y-78673955D01*
X172011756Y-78743357D01*
X171813607Y-78846507D01*
X171809474Y-78849610D01*
X171809471Y-78849612D01*
X171657227Y-78963920D01*
X171634965Y-78980635D01*
X171578537Y-79039684D01*
X171554283Y-79065064D01*
X171492759Y-79100494D01*
X171421846Y-79097037D01*
X171364060Y-79055791D01*
X171345207Y-79022243D01*
X171303767Y-78911703D01*
X171300615Y-78903295D01*
X171213261Y-78786739D01*
X171096705Y-78699385D01*
X170960316Y-78648255D01*
X170898134Y-78641500D01*
X169101866Y-78641500D01*
X169039684Y-78648255D01*
X168903295Y-78699385D01*
X168786739Y-78786739D01*
X168699385Y-78903295D01*
X168648255Y-79039684D01*
X168641500Y-79101866D01*
X168641500Y-79240500D01*
X168621498Y-79308621D01*
X168567842Y-79355114D01*
X168515500Y-79366500D01*
X166978765Y-79366500D01*
X166967582Y-79365973D01*
X166960089Y-79364298D01*
X166952163Y-79364547D01*
X166952162Y-79364547D01*
X166892012Y-79366438D01*
X166888053Y-79366500D01*
X166860144Y-79366500D01*
X166856211Y-79366997D01*
X166856208Y-79366997D01*
X166856143Y-79367005D01*
X166844305Y-79367938D01*
X166800109Y-79369327D01*
X166792496Y-79371539D01*
X166792495Y-79371539D01*
X166780659Y-79374978D01*
X166761295Y-79378988D01*
X166741203Y-79381526D01*
X166733836Y-79384443D01*
X166733831Y-79384444D01*
X166700102Y-79397798D01*
X166688874Y-79401643D01*
X166669084Y-79407393D01*
X166646405Y-79413982D01*
X166628961Y-79424298D01*
X166611217Y-79432991D01*
X166592383Y-79440448D01*
X166585968Y-79445109D01*
X166585966Y-79445110D01*
X166556617Y-79466433D01*
X166546695Y-79472951D01*
X166508636Y-79495459D01*
X166503032Y-79501064D01*
X166503026Y-79501068D01*
X166494312Y-79509782D01*
X166479278Y-79522623D01*
X166469309Y-79529866D01*
X166469306Y-79529869D01*
X166462893Y-79534528D01*
X166457840Y-79540636D01*
X166434713Y-79568592D01*
X166426724Y-79577372D01*
X166357570Y-79646527D01*
X166295259Y-79680551D01*
X166224443Y-79675487D01*
X166209079Y-79668553D01*
X166087220Y-79603418D01*
X166081759Y-79600499D01*
X166075839Y-79598703D01*
X166075836Y-79598702D01*
X165921141Y-79551776D01*
X165921137Y-79551775D01*
X165915219Y-79549980D01*
X165742023Y-79532922D01*
X165568827Y-79549980D01*
X165562909Y-79551775D01*
X165562905Y-79551776D01*
X165408210Y-79598702D01*
X165408207Y-79598703D01*
X165402287Y-79600499D01*
X165248803Y-79682538D01*
X165244026Y-79686458D01*
X165244022Y-79686461D01*
X165201609Y-79721268D01*
X165185825Y-79732316D01*
X165173883Y-79739378D01*
X165155489Y-79757772D01*
X165142040Y-79769442D01*
X165123583Y-79783298D01*
X165114033Y-79792648D01*
X165114031Y-79792651D01*
X165114005Y-79792676D01*
X165104202Y-79805177D01*
X165102472Y-79807333D01*
X165003883Y-79927450D01*
X164972432Y-79986285D01*
X164928686Y-80068119D01*
X164921832Y-80080940D01*
X164920035Y-80086864D01*
X164888620Y-80190414D01*
X164849703Y-80249794D01*
X164804623Y-80274409D01*
X164701100Y-80305812D01*
X164701097Y-80305813D01*
X164695177Y-80307609D01*
X164541693Y-80389648D01*
X164474764Y-80444575D01*
X164464882Y-80451906D01*
X164439514Y-80468866D01*
X164434227Y-80474772D01*
X164428240Y-80479970D01*
X164428191Y-80479914D01*
X164423144Y-80484544D01*
X164423389Y-80484826D01*
X164420021Y-80487748D01*
X164416456Y-80490425D01*
X164416447Y-80490434D01*
X164416444Y-80490436D01*
X164406895Y-80499786D01*
X164404346Y-80503037D01*
X164397475Y-80511799D01*
X164395722Y-80513984D01*
X164359955Y-80557565D01*
X164356438Y-80561667D01*
X164332756Y-80588122D01*
X164329703Y-80594003D01*
X164325806Y-80599174D01*
X164296755Y-80634570D01*
X164293833Y-80640036D01*
X164293832Y-80640038D01*
X164217628Y-80782601D01*
X164217626Y-80782605D01*
X164214710Y-80788061D01*
X164212913Y-80793985D01*
X164175121Y-80918568D01*
X164136206Y-80977949D01*
X164071365Y-81006865D01*
X164001184Y-80996134D01*
X163978982Y-80982819D01*
X163905641Y-80927853D01*
X163890051Y-80919318D01*
X163769603Y-80874164D01*
X163754348Y-80870537D01*
X163703483Y-80865011D01*
X163696669Y-80864642D01*
X163145463Y-80864642D01*
X163130224Y-80869117D01*
X163129019Y-80870507D01*
X163127348Y-80878190D01*
X163127348Y-81388128D01*
X163107346Y-81456249D01*
X163053690Y-81502742D01*
X163001348Y-81514128D01*
X162895179Y-81514128D01*
X162827058Y-81494126D01*
X162780565Y-81440470D01*
X162770461Y-81370196D01*
X162772059Y-81361343D01*
X162772548Y-81359095D01*
X162772548Y-80882758D01*
X162768073Y-80867519D01*
X162766683Y-80866314D01*
X162759000Y-80864643D01*
X162203230Y-80864643D01*
X162196409Y-80865013D01*
X162145547Y-80870537D01*
X162130295Y-80874163D01*
X162009845Y-80919318D01*
X161994250Y-80927856D01*
X161892175Y-81004357D01*
X161879614Y-81016918D01*
X161803113Y-81118993D01*
X161794575Y-81134588D01*
X161749421Y-81255036D01*
X161745794Y-81270291D01*
X161740268Y-81321156D01*
X161739899Y-81327970D01*
X161739899Y-81354527D01*
X161744374Y-81369766D01*
X161745764Y-81370971D01*
X161753447Y-81372642D01*
X161888996Y-81372642D01*
X161957117Y-81392644D01*
X162003610Y-81446300D01*
X162013714Y-81516574D01*
X161984220Y-81581154D01*
X161964561Y-81599468D01*
X161884638Y-81659367D01*
X161879257Y-81666547D01*
X161879255Y-81666549D01*
X161871419Y-81677005D01*
X161814561Y-81719521D01*
X161770592Y-81727442D01*
X161758015Y-81727442D01*
X161742776Y-81731917D01*
X161741571Y-81733307D01*
X161739900Y-81740990D01*
X161739900Y-81772111D01*
X161740270Y-81778932D01*
X161745794Y-81829792D01*
X161749361Y-81844795D01*
X161749361Y-81903092D01*
X161748928Y-81904911D01*
X161746154Y-81912312D01*
X161739399Y-81974494D01*
X161739399Y-82425562D01*
X161746154Y-82487744D01*
X161748927Y-82495140D01*
X161749101Y-82495873D01*
X161749101Y-82554169D01*
X161748927Y-82554902D01*
X161746154Y-82562298D01*
X161739399Y-82624480D01*
X161739399Y-83075548D01*
X161746154Y-83137730D01*
X161748927Y-83145126D01*
X161749101Y-83145859D01*
X161749101Y-83204155D01*
X161748927Y-83204888D01*
X161746154Y-83212284D01*
X161745301Y-83220136D01*
X161742918Y-83242077D01*
X161739399Y-83274466D01*
X161739399Y-83725534D01*
X161746154Y-83787716D01*
X161748927Y-83795112D01*
X161749101Y-83795845D01*
X161749101Y-83854141D01*
X161748927Y-83854874D01*
X161746154Y-83862270D01*
X161739399Y-83924452D01*
X161739399Y-84375520D01*
X161739768Y-84378919D01*
X161739885Y-84381075D01*
X161723596Y-84450178D01*
X161672533Y-84499505D01*
X161602909Y-84513395D01*
X161587872Y-84511137D01*
X161501944Y-84492872D01*
X161501939Y-84492872D01*
X161495487Y-84491500D01*
X161304513Y-84491500D01*
X161298061Y-84492872D01*
X161298056Y-84492872D01*
X161224624Y-84508481D01*
X161117712Y-84531206D01*
X161111682Y-84533891D01*
X161111681Y-84533891D01*
X160949278Y-84606197D01*
X160949276Y-84606198D01*
X160943248Y-84608882D01*
X160788747Y-84721134D01*
X160784326Y-84726044D01*
X160784325Y-84726045D01*
X160672464Y-84850280D01*
X160660960Y-84863056D01*
X160565473Y-85028444D01*
X160506458Y-85210072D01*
X160486496Y-85400000D01*
X160487186Y-85406565D01*
X160504120Y-85567680D01*
X160506458Y-85589928D01*
X160565473Y-85771556D01*
X160568776Y-85777278D01*
X160568777Y-85777279D01*
X160573217Y-85784969D01*
X160660960Y-85936944D01*
X160788747Y-86078866D01*
X160943248Y-86191118D01*
X160949276Y-86193802D01*
X160949278Y-86193803D01*
X161111681Y-86266109D01*
X161117712Y-86268794D01*
X161211113Y-86288647D01*
X161298056Y-86307128D01*
X161298061Y-86307128D01*
X161304513Y-86308500D01*
X161495487Y-86308500D01*
X161501939Y-86307128D01*
X161501944Y-86307128D01*
X161588888Y-86288647D01*
X161682288Y-86268794D01*
X161688319Y-86266109D01*
X161850722Y-86193803D01*
X161850724Y-86193802D01*
X161856752Y-86191118D01*
X161869320Y-86181987D01*
X161953811Y-86120601D01*
X162020679Y-86096742D01*
X162072101Y-86104555D01*
X162130188Y-86126331D01*
X162130190Y-86126331D01*
X162137583Y-86129103D01*
X162145431Y-86129956D01*
X162145433Y-86129956D01*
X162184668Y-86134218D01*
X162199765Y-86135858D01*
X163700131Y-86135858D01*
X163703526Y-86135489D01*
X163703530Y-86135489D01*
X163729636Y-86132653D01*
X163799518Y-86145181D01*
X163851534Y-86193502D01*
X163869168Y-86262274D01*
X163861646Y-86301004D01*
X163830251Y-86387276D01*
X163830249Y-86387282D01*
X163828368Y-86392452D01*
X163827414Y-86397867D01*
X163827413Y-86397869D01*
X163816599Y-86459222D01*
X163797736Y-86566239D01*
X163797736Y-86571739D01*
X163797739Y-86604373D01*
X163797749Y-86742705D01*
X163798705Y-86748122D01*
X163798705Y-86748126D01*
X163808961Y-86806260D01*
X163828406Y-86916488D01*
X163830286Y-86921653D01*
X163830288Y-86921659D01*
X163850257Y-86976507D01*
X163888776Y-87082307D01*
X163891526Y-87087070D01*
X163891527Y-87087071D01*
X163897739Y-87097827D01*
X163977024Y-87235122D01*
X163980559Y-87239334D01*
X164057474Y-87330979D01*
X164061712Y-87336315D01*
X164073818Y-87352434D01*
X164080512Y-87361348D01*
X164089864Y-87370896D01*
X164107217Y-87384499D01*
X164110415Y-87387092D01*
X164225612Y-87483735D01*
X164230370Y-87486481D01*
X164230375Y-87486485D01*
X164373665Y-87569196D01*
X164378431Y-87571947D01*
X164383598Y-87573827D01*
X164383604Y-87573830D01*
X164486960Y-87611440D01*
X164544244Y-87632285D01*
X164718016Y-87662915D01*
X164723517Y-87662915D01*
X164806242Y-87662911D01*
X164894467Y-87662908D01*
X165068237Y-87632263D01*
X165084711Y-87626267D01*
X165167573Y-87596106D01*
X165234046Y-87571911D01*
X165238806Y-87569163D01*
X165238810Y-87569161D01*
X165341352Y-87509959D01*
X165386857Y-87483687D01*
X165391067Y-87480154D01*
X165391072Y-87480151D01*
X165438113Y-87440680D01*
X165454959Y-87428752D01*
X165455918Y-87428185D01*
X165455922Y-87428182D01*
X165462748Y-87424145D01*
X165481146Y-87405747D01*
X165494592Y-87394079D01*
X165496637Y-87392544D01*
X165513068Y-87380208D01*
X165516009Y-87377328D01*
X165516016Y-87377322D01*
X165519670Y-87373743D01*
X165519671Y-87373742D01*
X165522617Y-87370857D01*
X165527764Y-87364294D01*
X165541840Y-87346342D01*
X165551891Y-87335002D01*
X165597377Y-87289515D01*
X165659690Y-87255490D01*
X165730506Y-87260556D01*
X165787341Y-87303103D01*
X165795591Y-87315610D01*
X165876902Y-87456449D01*
X165880436Y-87460661D01*
X165919903Y-87507700D01*
X165931830Y-87524545D01*
X165936446Y-87532350D01*
X165954839Y-87550743D01*
X165966508Y-87564190D01*
X165973717Y-87573792D01*
X165980375Y-87582661D01*
X165983257Y-87585604D01*
X165983261Y-87585609D01*
X165986844Y-87589268D01*
X165989725Y-87592210D01*
X165992968Y-87594753D01*
X165992969Y-87594754D01*
X166014247Y-87611440D01*
X166025592Y-87621496D01*
X166113906Y-87709810D01*
X166416348Y-88012253D01*
X166423888Y-88020539D01*
X166428000Y-88027018D01*
X166433777Y-88032443D01*
X166477652Y-88073644D01*
X166480494Y-88076399D01*
X166500230Y-88096135D01*
X166503427Y-88098615D01*
X166512447Y-88106318D01*
X166544679Y-88136586D01*
X166551625Y-88140405D01*
X166551628Y-88140407D01*
X166562434Y-88146348D01*
X166578953Y-88157199D01*
X166594959Y-88169614D01*
X166602228Y-88172759D01*
X166602232Y-88172762D01*
X166635537Y-88187174D01*
X166646187Y-88192391D01*
X166684940Y-88213695D01*
X166692615Y-88215666D01*
X166692616Y-88215666D01*
X166704562Y-88218733D01*
X166723267Y-88225137D01*
X166741855Y-88233181D01*
X166749678Y-88234420D01*
X166749688Y-88234423D01*
X166785524Y-88240099D01*
X166797144Y-88242505D01*
X166828959Y-88250673D01*
X166839970Y-88253500D01*
X166860224Y-88253500D01*
X166879934Y-88255051D01*
X166899943Y-88258220D01*
X166907835Y-88257474D01*
X166926580Y-88255702D01*
X166943962Y-88254059D01*
X166955819Y-88253500D01*
X168724274Y-88253500D01*
X168792395Y-88273502D01*
X168831707Y-88313665D01*
X168899987Y-88425088D01*
X169046250Y-88593938D01*
X169122846Y-88657529D01*
X169202610Y-88723750D01*
X169218126Y-88736632D01*
X169288595Y-88777811D01*
X169291445Y-88779476D01*
X169340169Y-88831114D01*
X169353240Y-88900897D01*
X169326509Y-88966669D01*
X169286055Y-89000027D01*
X169273607Y-89006507D01*
X169269474Y-89009610D01*
X169269471Y-89009612D01*
X169117227Y-89123920D01*
X169094965Y-89140635D01*
X168940629Y-89302138D01*
X168937720Y-89306403D01*
X168937714Y-89306411D01*
X168825095Y-89471504D01*
X168770184Y-89516507D01*
X168721007Y-89526500D01*
X166868765Y-89526500D01*
X166857582Y-89525973D01*
X166850089Y-89524298D01*
X166842163Y-89524547D01*
X166842162Y-89524547D01*
X166782012Y-89526438D01*
X166778053Y-89526500D01*
X166750144Y-89526500D01*
X166746211Y-89526997D01*
X166746208Y-89526997D01*
X166746143Y-89527005D01*
X166734305Y-89527938D01*
X166690109Y-89529327D01*
X166682496Y-89531539D01*
X166682495Y-89531539D01*
X166670659Y-89534978D01*
X166651295Y-89538988D01*
X166631203Y-89541526D01*
X166623836Y-89544443D01*
X166623831Y-89544444D01*
X166590102Y-89557798D01*
X166578874Y-89561643D01*
X166558550Y-89567548D01*
X166536405Y-89573982D01*
X166518961Y-89584298D01*
X166501217Y-89592991D01*
X166482383Y-89600448D01*
X166475968Y-89605109D01*
X166475966Y-89605110D01*
X166446617Y-89626433D01*
X166436695Y-89632951D01*
X166405457Y-89651425D01*
X166398636Y-89655459D01*
X166393032Y-89661064D01*
X166393026Y-89661068D01*
X166384312Y-89669782D01*
X166369278Y-89682623D01*
X166359309Y-89689866D01*
X166359306Y-89689869D01*
X166352893Y-89694528D01*
X166347840Y-89700636D01*
X166324713Y-89728592D01*
X166316723Y-89737372D01*
X166228361Y-89825734D01*
X166166049Y-89859760D01*
X166095234Y-89854695D01*
X166076266Y-89845758D01*
X165987275Y-89794379D01*
X165987276Y-89794379D01*
X165982512Y-89791629D01*
X165829021Y-89735762D01*
X165668160Y-89707398D01*
X165504818Y-89707398D01*
X165343957Y-89735762D01*
X165190466Y-89791629D01*
X165049008Y-89873300D01*
X165044795Y-89876835D01*
X165044791Y-89876838D01*
X164966458Y-89942568D01*
X164961121Y-89946805D01*
X164939834Y-89962788D01*
X164932660Y-89968175D01*
X164932652Y-89968183D01*
X164923103Y-89977534D01*
X164920555Y-89980784D01*
X164920553Y-89980786D01*
X164904189Y-90001656D01*
X164901558Y-90004899D01*
X164822422Y-90099213D01*
X164822415Y-90099223D01*
X164818885Y-90103430D01*
X164816136Y-90108191D01*
X164816135Y-90108193D01*
X164785017Y-90162094D01*
X164737219Y-90244885D01*
X164681356Y-90398372D01*
X164680401Y-90403788D01*
X164668807Y-90469538D01*
X164637279Y-90533150D01*
X164576364Y-90569619D01*
X164566601Y-90571743D01*
X164529770Y-90578237D01*
X164495426Y-90584293D01*
X164490263Y-90586172D01*
X164490260Y-90586173D01*
X164358816Y-90634016D01*
X164341935Y-90640160D01*
X164200477Y-90721831D01*
X164196264Y-90725366D01*
X164196260Y-90725369D01*
X164117927Y-90791099D01*
X164112590Y-90795336D01*
X164087331Y-90814301D01*
X164087323Y-90814308D01*
X164084129Y-90816706D01*
X164084059Y-90816774D01*
X164084053Y-90816779D01*
X164077146Y-90823544D01*
X164074581Y-90826057D01*
X164074579Y-90826059D01*
X164074506Y-90826131D01*
X164072031Y-90829289D01*
X164072027Y-90829293D01*
X164056412Y-90849214D01*
X164053783Y-90852456D01*
X164029238Y-90881718D01*
X163970135Y-90921055D01*
X163899148Y-90922194D01*
X163888472Y-90918726D01*
X163769603Y-90874164D01*
X163754348Y-90870537D01*
X163703483Y-90865011D01*
X163696669Y-90864642D01*
X163145463Y-90864642D01*
X163130224Y-90869117D01*
X163129019Y-90870507D01*
X163127348Y-90878190D01*
X163127348Y-91388128D01*
X163107346Y-91456249D01*
X163053690Y-91502742D01*
X163001348Y-91514128D01*
X162895179Y-91514128D01*
X162827058Y-91494126D01*
X162780565Y-91440470D01*
X162770461Y-91370196D01*
X162772059Y-91361343D01*
X162772548Y-91359095D01*
X162772548Y-90882758D01*
X162768073Y-90867519D01*
X162766683Y-90866314D01*
X162759000Y-90864643D01*
X162203230Y-90864643D01*
X162196409Y-90865013D01*
X162145547Y-90870537D01*
X162130295Y-90874163D01*
X162009845Y-90919318D01*
X161994250Y-90927856D01*
X161892175Y-91004357D01*
X161879614Y-91016918D01*
X161803113Y-91118993D01*
X161794575Y-91134588D01*
X161749421Y-91255036D01*
X161745794Y-91270291D01*
X161740268Y-91321156D01*
X161739899Y-91327970D01*
X161739899Y-91354527D01*
X161744374Y-91369766D01*
X161745764Y-91370971D01*
X161753447Y-91372642D01*
X161888996Y-91372642D01*
X161957117Y-91392644D01*
X162003610Y-91446300D01*
X162013714Y-91516574D01*
X161984220Y-91581154D01*
X161964561Y-91599468D01*
X161884638Y-91659367D01*
X161879257Y-91666547D01*
X161879255Y-91666549D01*
X161871419Y-91677005D01*
X161814561Y-91719521D01*
X161770592Y-91727442D01*
X161758015Y-91727442D01*
X161742776Y-91731917D01*
X161741571Y-91733307D01*
X161739900Y-91740990D01*
X161739900Y-91772111D01*
X161740270Y-91778932D01*
X161745794Y-91829792D01*
X161749361Y-91844795D01*
X161749361Y-91903092D01*
X161748928Y-91904911D01*
X161746154Y-91912312D01*
X161739399Y-91974494D01*
X161739399Y-92425562D01*
X161746154Y-92487744D01*
X161748927Y-92495140D01*
X161749101Y-92495873D01*
X161749101Y-92554169D01*
X161748927Y-92554902D01*
X161746154Y-92562298D01*
X161739399Y-92624480D01*
X161739399Y-93075548D01*
X161746154Y-93137730D01*
X161748927Y-93145126D01*
X161749101Y-93145859D01*
X161749101Y-93204155D01*
X161748927Y-93204888D01*
X161746154Y-93212284D01*
X161739399Y-93274466D01*
X161739399Y-93725534D01*
X161746154Y-93787716D01*
X161748927Y-93795112D01*
X161749101Y-93795845D01*
X161749101Y-93854141D01*
X161748927Y-93854874D01*
X161746154Y-93862270D01*
X161739399Y-93924452D01*
X161739399Y-94375520D01*
X161739768Y-94378919D01*
X161739885Y-94381075D01*
X161723596Y-94450178D01*
X161672533Y-94499505D01*
X161602909Y-94513395D01*
X161587872Y-94511137D01*
X161501944Y-94492872D01*
X161501939Y-94492872D01*
X161495487Y-94491500D01*
X161304513Y-94491500D01*
X161298061Y-94492872D01*
X161298056Y-94492872D01*
X161212129Y-94511137D01*
X161117712Y-94531206D01*
X161111682Y-94533891D01*
X161111681Y-94533891D01*
X160949278Y-94606197D01*
X160949276Y-94606198D01*
X160943248Y-94608882D01*
X160788747Y-94721134D01*
X160784326Y-94726044D01*
X160784325Y-94726045D01*
X160684885Y-94836485D01*
X160660960Y-94863056D01*
X160565473Y-95028444D01*
X160506458Y-95210072D01*
X160486496Y-95400000D01*
X160506458Y-95589928D01*
X160565473Y-95771556D01*
X160660960Y-95936944D01*
X160665378Y-95941851D01*
X160665379Y-95941852D01*
X160766941Y-96054648D01*
X160788747Y-96078866D01*
X160943248Y-96191118D01*
X160949276Y-96193802D01*
X160949278Y-96193803D01*
X161102133Y-96261858D01*
X161117712Y-96268794D01*
X161190055Y-96284171D01*
X161298056Y-96307128D01*
X161298061Y-96307128D01*
X161304513Y-96308500D01*
X161495487Y-96308500D01*
X161501939Y-96307128D01*
X161501944Y-96307128D01*
X161609945Y-96284171D01*
X161682288Y-96268794D01*
X161697867Y-96261858D01*
X161850722Y-96193803D01*
X161850724Y-96193802D01*
X161856752Y-96191118D01*
X161882159Y-96172659D01*
X161953811Y-96120601D01*
X162020679Y-96096742D01*
X162072101Y-96104555D01*
X162130188Y-96126331D01*
X162130190Y-96126331D01*
X162137583Y-96129103D01*
X162145431Y-96129956D01*
X162145433Y-96129956D01*
X162196368Y-96135489D01*
X162199765Y-96135858D01*
X163700131Y-96135858D01*
X163700131Y-96135998D01*
X163768115Y-96152026D01*
X163817439Y-96203090D01*
X163829973Y-96254035D01*
X163831342Y-96253915D01*
X163831822Y-96259398D01*
X163831822Y-96264897D01*
X163860192Y-96425760D01*
X163862072Y-96430926D01*
X163862073Y-96430928D01*
X163875582Y-96468039D01*
X163916066Y-96579253D01*
X163997747Y-96720710D01*
X164001283Y-96724923D01*
X164001284Y-96724925D01*
X164066834Y-96803035D01*
X164071073Y-96808373D01*
X164092619Y-96837066D01*
X164101970Y-96846614D01*
X164105217Y-96849159D01*
X164105222Y-96849164D01*
X164126056Y-96865497D01*
X164129303Y-96868131D01*
X164223657Y-96947295D01*
X164227868Y-96950828D01*
X164369326Y-97032488D01*
X164374495Y-97034369D01*
X164374497Y-97034370D01*
X164517649Y-97086465D01*
X164517655Y-97086467D01*
X164522814Y-97088344D01*
X164540740Y-97091504D01*
X164593969Y-97100888D01*
X164657583Y-97132413D01*
X164694054Y-97193326D01*
X164696177Y-97203080D01*
X164708747Y-97274325D01*
X164764637Y-97427818D01*
X164767386Y-97432577D01*
X164767387Y-97432580D01*
X164793769Y-97478258D01*
X164846335Y-97569273D01*
X164900422Y-97633709D01*
X164915011Y-97651089D01*
X164919250Y-97656426D01*
X164941165Y-97685603D01*
X164941199Y-97685648D01*
X164950552Y-97695195D01*
X164953793Y-97697736D01*
X164953796Y-97697738D01*
X164974618Y-97714059D01*
X164977862Y-97716690D01*
X165003354Y-97738072D01*
X165076452Y-97799386D01*
X165217907Y-97881025D01*
X165223068Y-97882903D01*
X165223073Y-97882905D01*
X165347024Y-97928000D01*
X165371388Y-97936864D01*
X165376809Y-97937819D01*
X165376812Y-97937820D01*
X165526817Y-97964251D01*
X165526820Y-97964251D01*
X165532233Y-97965205D01*
X165613970Y-97965197D01*
X165690050Y-97965190D01*
X165690055Y-97965190D01*
X165695556Y-97965189D01*
X165829011Y-97941646D01*
X165850983Y-97937770D01*
X165850984Y-97937770D01*
X165856396Y-97936815D01*
X165861560Y-97934935D01*
X165861564Y-97934934D01*
X166004696Y-97882827D01*
X166009866Y-97880945D01*
X166100583Y-97828564D01*
X166169577Y-97811823D01*
X166236670Y-97835041D01*
X166252682Y-97848586D01*
X166576343Y-98172247D01*
X166583887Y-98180537D01*
X166588000Y-98187018D01*
X166593777Y-98192443D01*
X166637667Y-98233658D01*
X166640509Y-98236413D01*
X166660230Y-98256134D01*
X166663425Y-98258612D01*
X166672447Y-98266318D01*
X166704679Y-98296586D01*
X166711628Y-98300406D01*
X166722432Y-98306346D01*
X166738956Y-98317199D01*
X166754959Y-98329613D01*
X166795543Y-98347176D01*
X166806173Y-98352383D01*
X166844940Y-98373695D01*
X166852617Y-98375666D01*
X166852622Y-98375668D01*
X166864558Y-98378732D01*
X166883266Y-98385137D01*
X166901855Y-98393181D01*
X166909683Y-98394421D01*
X166909690Y-98394423D01*
X166945524Y-98400099D01*
X166957144Y-98402505D01*
X166988959Y-98410673D01*
X166999970Y-98413500D01*
X167020224Y-98413500D01*
X167039934Y-98415051D01*
X167059943Y-98418220D01*
X167067835Y-98417474D01*
X167086580Y-98415702D01*
X167103962Y-98414059D01*
X167115819Y-98413500D01*
X168724274Y-98413500D01*
X168792395Y-98433502D01*
X168831707Y-98473665D01*
X168899987Y-98585088D01*
X169046250Y-98753938D01*
X169218126Y-98896632D01*
X169224588Y-98900408D01*
X169291445Y-98939476D01*
X169340169Y-98991114D01*
X169353240Y-99060897D01*
X169326509Y-99126669D01*
X169286055Y-99160027D01*
X169273607Y-99166507D01*
X169269474Y-99169610D01*
X169269471Y-99169612D01*
X169117227Y-99283920D01*
X169094965Y-99300635D01*
X168940629Y-99462138D01*
X168937720Y-99466403D01*
X168937714Y-99466411D01*
X168825095Y-99631504D01*
X168770184Y-99676507D01*
X168721007Y-99686500D01*
X167258768Y-99686500D01*
X167247585Y-99685973D01*
X167240092Y-99684298D01*
X167232166Y-99684547D01*
X167232165Y-99684547D01*
X167172002Y-99686438D01*
X167168044Y-99686500D01*
X167140144Y-99686500D01*
X167136154Y-99687004D01*
X167124320Y-99687936D01*
X167080111Y-99689326D01*
X167072495Y-99691539D01*
X167072493Y-99691539D01*
X167060652Y-99694979D01*
X167041293Y-99698988D01*
X167039983Y-99699154D01*
X167021203Y-99701526D01*
X167013837Y-99704442D01*
X167013831Y-99704444D01*
X166980098Y-99717800D01*
X166968868Y-99721645D01*
X166934017Y-99731770D01*
X166926407Y-99733981D01*
X166919584Y-99738016D01*
X166908966Y-99744295D01*
X166891213Y-99752992D01*
X166883568Y-99756019D01*
X166872383Y-99760448D01*
X166865968Y-99765109D01*
X166836612Y-99786437D01*
X166826695Y-99792951D01*
X166788638Y-99815458D01*
X166774314Y-99829782D01*
X166759287Y-99842617D01*
X166742893Y-99854528D01*
X166737840Y-99860636D01*
X166737838Y-99860638D01*
X166714713Y-99888592D01*
X166706723Y-99897372D01*
X166648914Y-99955181D01*
X166586602Y-99989207D01*
X166515787Y-99984142D01*
X166496819Y-99975205D01*
X166428872Y-99935976D01*
X166428873Y-99935976D01*
X166424109Y-99933226D01*
X166392694Y-99921792D01*
X166275789Y-99879241D01*
X166275788Y-99879241D01*
X166270618Y-99877359D01*
X166109757Y-99848995D01*
X165946415Y-99848995D01*
X165785554Y-99877359D01*
X165780384Y-99879241D01*
X165780383Y-99879241D01*
X165663478Y-99921792D01*
X165632063Y-99933226D01*
X165490605Y-100014897D01*
X165486392Y-100018432D01*
X165486388Y-100018435D01*
X165408055Y-100084165D01*
X165402718Y-100088402D01*
X165381431Y-100104385D01*
X165374257Y-100109772D01*
X165374249Y-100109780D01*
X165364700Y-100119131D01*
X165362152Y-100122381D01*
X165362150Y-100122383D01*
X165345707Y-100143355D01*
X165343092Y-100146579D01*
X165297147Y-100201337D01*
X165274597Y-100228212D01*
X165260486Y-100245029D01*
X165257741Y-100249784D01*
X165257738Y-100249788D01*
X165238564Y-100283000D01*
X165178820Y-100386483D01*
X165176942Y-100391643D01*
X165176941Y-100391645D01*
X165174335Y-100398805D01*
X165122957Y-100539968D01*
X165122002Y-100545381D01*
X165122002Y-100545383D01*
X165110408Y-100611134D01*
X165078880Y-100674746D01*
X165017966Y-100711215D01*
X165008202Y-100713339D01*
X164972305Y-100719669D01*
X164937023Y-100725890D01*
X164783532Y-100781757D01*
X164642074Y-100863428D01*
X164637861Y-100866963D01*
X164637857Y-100866966D01*
X164559524Y-100932696D01*
X164554187Y-100936933D01*
X164528928Y-100955898D01*
X164528920Y-100955905D01*
X164525726Y-100958303D01*
X164525656Y-100958371D01*
X164525650Y-100958376D01*
X164518743Y-100965141D01*
X164516178Y-100967654D01*
X164516176Y-100967656D01*
X164516103Y-100967728D01*
X164497920Y-100990926D01*
X164495312Y-100994142D01*
X164455949Y-101041069D01*
X164411881Y-101093604D01*
X164409133Y-101098365D01*
X164409131Y-101098368D01*
X164339995Y-101218153D01*
X164330236Y-101235061D01*
X164304330Y-101306263D01*
X164276498Y-101382758D01*
X164274392Y-101388545D01*
X164273438Y-101393959D01*
X164258178Y-101480544D01*
X164226656Y-101544159D01*
X164165745Y-101580634D01*
X164094784Y-101578387D01*
X164033263Y-101534239D01*
X164020281Y-101516917D01*
X164007721Y-101504357D01*
X163905646Y-101427856D01*
X163890051Y-101419318D01*
X163769603Y-101374164D01*
X163754348Y-101370537D01*
X163703483Y-101365011D01*
X163696669Y-101364642D01*
X163145463Y-101364642D01*
X163130224Y-101369117D01*
X163129019Y-101370507D01*
X163127348Y-101378190D01*
X163127348Y-101888128D01*
X163107346Y-101956249D01*
X163053690Y-102002742D01*
X163001348Y-102014128D01*
X162895179Y-102014128D01*
X162827058Y-101994126D01*
X162780565Y-101940470D01*
X162770461Y-101870196D01*
X162772059Y-101861343D01*
X162772548Y-101859095D01*
X162772548Y-101382758D01*
X162768073Y-101367519D01*
X162766683Y-101366314D01*
X162759000Y-101364643D01*
X162203230Y-101364643D01*
X162196409Y-101365013D01*
X162145547Y-101370537D01*
X162130295Y-101374163D01*
X162009845Y-101419318D01*
X161994250Y-101427856D01*
X161892175Y-101504357D01*
X161879614Y-101516918D01*
X161803113Y-101618993D01*
X161794575Y-101634588D01*
X161749421Y-101755036D01*
X161745794Y-101770291D01*
X161740268Y-101821156D01*
X161739899Y-101827970D01*
X161739899Y-101854527D01*
X161744374Y-101869766D01*
X161745764Y-101870971D01*
X161753447Y-101872642D01*
X161888996Y-101872642D01*
X161957117Y-101892644D01*
X162003610Y-101946300D01*
X162013714Y-102016574D01*
X161984220Y-102081154D01*
X161964561Y-102099468D01*
X161884638Y-102159367D01*
X161879257Y-102166547D01*
X161879255Y-102166549D01*
X161871419Y-102177005D01*
X161814561Y-102219521D01*
X161770592Y-102227442D01*
X161758015Y-102227442D01*
X161742776Y-102231917D01*
X161741571Y-102233307D01*
X161739900Y-102240990D01*
X161739900Y-102272111D01*
X161740270Y-102278932D01*
X161745794Y-102329792D01*
X161749361Y-102344795D01*
X161749361Y-102403092D01*
X161748928Y-102404911D01*
X161746154Y-102412312D01*
X161739399Y-102474494D01*
X161739399Y-102925562D01*
X161746154Y-102987744D01*
X161748927Y-102995140D01*
X161749101Y-102995873D01*
X161749101Y-103054169D01*
X161748927Y-103054902D01*
X161746154Y-103062298D01*
X161739399Y-103124480D01*
X161739399Y-103575548D01*
X161746154Y-103637730D01*
X161748927Y-103645126D01*
X161749101Y-103645859D01*
X161749101Y-103704155D01*
X161748927Y-103704888D01*
X161746154Y-103712284D01*
X161739399Y-103774466D01*
X161739399Y-104225534D01*
X161746154Y-104287716D01*
X161748927Y-104295112D01*
X161749101Y-104295845D01*
X161749101Y-104354141D01*
X161748927Y-104354874D01*
X161746154Y-104362270D01*
X161739399Y-104424452D01*
X161739399Y-104875520D01*
X161746154Y-104937702D01*
X161748927Y-104945098D01*
X161749101Y-104945831D01*
X161749102Y-105004124D01*
X161748927Y-105004858D01*
X161746154Y-105012256D01*
X161745393Y-105019262D01*
X161710364Y-105080580D01*
X161647409Y-105113401D01*
X161596801Y-105113035D01*
X161501944Y-105092872D01*
X161501939Y-105092872D01*
X161495487Y-105091500D01*
X161304513Y-105091500D01*
X161298061Y-105092872D01*
X161298056Y-105092872D01*
X161211112Y-105111353D01*
X161117712Y-105131206D01*
X161111682Y-105133891D01*
X161111681Y-105133891D01*
X160949278Y-105206197D01*
X160949276Y-105206198D01*
X160943248Y-105208882D01*
X160788747Y-105321134D01*
X160784326Y-105326044D01*
X160784325Y-105326045D01*
X160688094Y-105432921D01*
X160660960Y-105463056D01*
X160565473Y-105628444D01*
X160506458Y-105810072D01*
X160505768Y-105816633D01*
X160505768Y-105816635D01*
X160504072Y-105832775D01*
X160486496Y-106000000D01*
X160487186Y-106006565D01*
X160505284Y-106178754D01*
X160506458Y-106189928D01*
X160565473Y-106371556D01*
X160568776Y-106377278D01*
X160568777Y-106377279D01*
X160655796Y-106528000D01*
X160672534Y-106596995D01*
X160649314Y-106664087D01*
X160593506Y-106707974D01*
X160546677Y-106717000D01*
X160504562Y-106717000D01*
X160498047Y-106717337D01*
X160405943Y-106726894D01*
X160392544Y-106729788D01*
X160243893Y-106779381D01*
X160230715Y-106785555D01*
X160125803Y-106850476D01*
X160057351Y-106869314D01*
X159989581Y-106848153D01*
X159944010Y-106793712D01*
X159933500Y-106743332D01*
X159933500Y-106702524D01*
X159953502Y-106634403D01*
X159965858Y-106618221D01*
X160039040Y-106536944D01*
X160128965Y-106381190D01*
X160131223Y-106377279D01*
X160131224Y-106377278D01*
X160134527Y-106371556D01*
X160193542Y-106189928D01*
X160194717Y-106178754D01*
X160212814Y-106006565D01*
X160213504Y-106000000D01*
X160195928Y-105832775D01*
X160194232Y-105816635D01*
X160194232Y-105816633D01*
X160193542Y-105810072D01*
X160134527Y-105628444D01*
X160039040Y-105463056D01*
X159965863Y-105381785D01*
X159935147Y-105317779D01*
X159933500Y-105297476D01*
X159933500Y-100264885D01*
X160329000Y-100264885D01*
X160333475Y-100280124D01*
X160334865Y-100281329D01*
X160342548Y-100283000D01*
X160345438Y-100283000D01*
X160351953Y-100282663D01*
X160444057Y-100273106D01*
X160457456Y-100270212D01*
X160606107Y-100220619D01*
X160619286Y-100214445D01*
X160752173Y-100132212D01*
X160763574Y-100123176D01*
X160873986Y-100012571D01*
X160882998Y-100001160D01*
X160965004Y-99868120D01*
X160971151Y-99854939D01*
X161020491Y-99706186D01*
X161023358Y-99692810D01*
X161032672Y-99601903D01*
X161033000Y-99595487D01*
X161033000Y-99572115D01*
X161028525Y-99556876D01*
X161027135Y-99555671D01*
X161019452Y-99554000D01*
X160347115Y-99554000D01*
X160331876Y-99558475D01*
X160330671Y-99559865D01*
X160329000Y-99567548D01*
X160329000Y-100264885D01*
X159933500Y-100264885D01*
X159933500Y-99172000D01*
X159953502Y-99103879D01*
X160007158Y-99057386D01*
X160059500Y-99046000D01*
X161014885Y-99046000D01*
X161030124Y-99041525D01*
X161031329Y-99040135D01*
X161033000Y-99032452D01*
X161033000Y-99004562D01*
X161032663Y-98998047D01*
X161023105Y-98905937D01*
X161021911Y-98900408D01*
X161027081Y-98829600D01*
X161069713Y-98772828D01*
X161105196Y-98754285D01*
X161206105Y-98720620D01*
X161219286Y-98714445D01*
X161352173Y-98632212D01*
X161363574Y-98623176D01*
X161473986Y-98512571D01*
X161482998Y-98501160D01*
X161565004Y-98368120D01*
X161571151Y-98354939D01*
X161620491Y-98206186D01*
X161623358Y-98192810D01*
X161632672Y-98101903D01*
X161633000Y-98095487D01*
X161633000Y-98072115D01*
X161628525Y-98056876D01*
X161627135Y-98055671D01*
X161619452Y-98054000D01*
X160547000Y-98054000D01*
X160478879Y-98033998D01*
X160432386Y-97980342D01*
X160421000Y-97928000D01*
X160421000Y-97527885D01*
X160929000Y-97527885D01*
X160933475Y-97543124D01*
X160934865Y-97544329D01*
X160942548Y-97546000D01*
X161614885Y-97546000D01*
X161630124Y-97541525D01*
X161631329Y-97540135D01*
X161633000Y-97532452D01*
X161633000Y-97504562D01*
X161632663Y-97498047D01*
X161623106Y-97405943D01*
X161620212Y-97392544D01*
X161570619Y-97243893D01*
X161564445Y-97230714D01*
X161482212Y-97097827D01*
X161473176Y-97086426D01*
X161362571Y-96976014D01*
X161351160Y-96967002D01*
X161218120Y-96884996D01*
X161204939Y-96878849D01*
X161056186Y-96829509D01*
X161042810Y-96826642D01*
X160951903Y-96817328D01*
X160946874Y-96817071D01*
X160931876Y-96821475D01*
X160930671Y-96822865D01*
X160929000Y-96830548D01*
X160929000Y-97527885D01*
X160421000Y-97527885D01*
X160421000Y-96835115D01*
X160416525Y-96819876D01*
X160415135Y-96818671D01*
X160407452Y-96817000D01*
X160404562Y-96817000D01*
X160398047Y-96817337D01*
X160305943Y-96826894D01*
X160292544Y-96829788D01*
X160143893Y-96879381D01*
X160130719Y-96885552D01*
X160125804Y-96888594D01*
X160057352Y-96907432D01*
X159989582Y-96886271D01*
X159944011Y-96831831D01*
X159933500Y-96781450D01*
X159933500Y-96002524D01*
X159953502Y-95934403D01*
X159965858Y-95918221D01*
X160039040Y-95836944D01*
X160100288Y-95730860D01*
X160131223Y-95677279D01*
X160131224Y-95677278D01*
X160134527Y-95671556D01*
X160193542Y-95489928D01*
X160194400Y-95481771D01*
X160212814Y-95306565D01*
X160213504Y-95300000D01*
X160212814Y-95293435D01*
X160194232Y-95116635D01*
X160194232Y-95116633D01*
X160193542Y-95110072D01*
X160134527Y-94928444D01*
X160116438Y-94897112D01*
X160096775Y-94863056D01*
X160039040Y-94763056D01*
X159965863Y-94681785D01*
X159935147Y-94617779D01*
X159933500Y-94597476D01*
X159933500Y-90264885D01*
X160329000Y-90264885D01*
X160333475Y-90280124D01*
X160334865Y-90281329D01*
X160342548Y-90283000D01*
X160345438Y-90283000D01*
X160351953Y-90282663D01*
X160444057Y-90273106D01*
X160457456Y-90270212D01*
X160606107Y-90220619D01*
X160619286Y-90214445D01*
X160752173Y-90132212D01*
X160763574Y-90123176D01*
X160873986Y-90012571D01*
X160882998Y-90001160D01*
X160965004Y-89868120D01*
X160971151Y-89854939D01*
X161020491Y-89706186D01*
X161023358Y-89692810D01*
X161032672Y-89601903D01*
X161033000Y-89595487D01*
X161033000Y-89572115D01*
X161028525Y-89556876D01*
X161027135Y-89555671D01*
X161019452Y-89554000D01*
X160347115Y-89554000D01*
X160331876Y-89558475D01*
X160330671Y-89559865D01*
X160329000Y-89567548D01*
X160329000Y-90264885D01*
X159933500Y-90264885D01*
X159933500Y-89172000D01*
X159953502Y-89103879D01*
X160007158Y-89057386D01*
X160059500Y-89046000D01*
X161014885Y-89046000D01*
X161030124Y-89041525D01*
X161031329Y-89040135D01*
X161033000Y-89032452D01*
X161033000Y-89004562D01*
X161032663Y-88998047D01*
X161023106Y-88905943D01*
X161020212Y-88892544D01*
X161017078Y-88883151D01*
X161014492Y-88812202D01*
X161050675Y-88751117D01*
X161096723Y-88723750D01*
X161106111Y-88720618D01*
X161119280Y-88714449D01*
X161252173Y-88632212D01*
X161263574Y-88623176D01*
X161373986Y-88512571D01*
X161382998Y-88501160D01*
X161465004Y-88368120D01*
X161471151Y-88354939D01*
X161520491Y-88206186D01*
X161523358Y-88192810D01*
X161532672Y-88101903D01*
X161533000Y-88095487D01*
X161533000Y-88072115D01*
X161528525Y-88056876D01*
X161527135Y-88055671D01*
X161519452Y-88054000D01*
X160447000Y-88054000D01*
X160378879Y-88033998D01*
X160332386Y-87980342D01*
X160321000Y-87928000D01*
X160321000Y-87527885D01*
X160829000Y-87527885D01*
X160833475Y-87543124D01*
X160834865Y-87544329D01*
X160842548Y-87546000D01*
X161514885Y-87546000D01*
X161530124Y-87541525D01*
X161531329Y-87540135D01*
X161533000Y-87532452D01*
X161533000Y-87504562D01*
X161532663Y-87498047D01*
X161523106Y-87405943D01*
X161520212Y-87392544D01*
X161470619Y-87243893D01*
X161464445Y-87230714D01*
X161382212Y-87097827D01*
X161373176Y-87086426D01*
X161262571Y-86976014D01*
X161251160Y-86967002D01*
X161118120Y-86884996D01*
X161104939Y-86878849D01*
X160956186Y-86829509D01*
X160942810Y-86826642D01*
X160851903Y-86817328D01*
X160846874Y-86817071D01*
X160831876Y-86821475D01*
X160830671Y-86822865D01*
X160829000Y-86830548D01*
X160829000Y-87527885D01*
X160321000Y-87527885D01*
X160321000Y-86835115D01*
X160316525Y-86819876D01*
X160315135Y-86818671D01*
X160307452Y-86817000D01*
X160304562Y-86817000D01*
X160298047Y-86817337D01*
X160205943Y-86826894D01*
X160192544Y-86829788D01*
X160099376Y-86860871D01*
X160028426Y-86863455D01*
X159967343Y-86827271D01*
X159935518Y-86763807D01*
X159933500Y-86741347D01*
X159933500Y-86102524D01*
X159953502Y-86034403D01*
X159965858Y-86018221D01*
X160039040Y-85936944D01*
X160126783Y-85784969D01*
X160131223Y-85777279D01*
X160131224Y-85777278D01*
X160134527Y-85771556D01*
X160193542Y-85589928D01*
X160195881Y-85567680D01*
X160212814Y-85406565D01*
X160213504Y-85400000D01*
X160193542Y-85210072D01*
X160134527Y-85028444D01*
X160039040Y-84863056D01*
X160027537Y-84850280D01*
X159915675Y-84726045D01*
X159915674Y-84726044D01*
X159911253Y-84721134D01*
X159756752Y-84608882D01*
X159750724Y-84606198D01*
X159750722Y-84606197D01*
X159588319Y-84533891D01*
X159588318Y-84533891D01*
X159582288Y-84531206D01*
X159475376Y-84508481D01*
X159401944Y-84492872D01*
X159401939Y-84492872D01*
X159395487Y-84491500D01*
X159204513Y-84491500D01*
X159198061Y-84492872D01*
X159198056Y-84492872D01*
X159124624Y-84508481D01*
X159017712Y-84531206D01*
X158887360Y-84589242D01*
X158816994Y-84598676D01*
X158752697Y-84568570D01*
X158714883Y-84508481D01*
X158710112Y-84474135D01*
X158710112Y-81955380D01*
X158710639Y-81944197D01*
X158712314Y-81936704D01*
X158710174Y-81868613D01*
X158710112Y-81864656D01*
X158710112Y-81836756D01*
X158709608Y-81832765D01*
X158708675Y-81820923D01*
X158707535Y-81784648D01*
X158707286Y-81776723D01*
X158705074Y-81769109D01*
X158705073Y-81769104D01*
X158701635Y-81757271D01*
X158697624Y-81737907D01*
X158696079Y-81725676D01*
X158695086Y-81717815D01*
X158692169Y-81710448D01*
X158692168Y-81710443D01*
X158678810Y-81676704D01*
X158674966Y-81665477D01*
X158664842Y-81630634D01*
X158662630Y-81623019D01*
X158652319Y-81605584D01*
X158643624Y-81587836D01*
X158636164Y-81568995D01*
X158620090Y-81546870D01*
X158610176Y-81533225D01*
X158603660Y-81523305D01*
X158598233Y-81514128D01*
X158581154Y-81485250D01*
X158575548Y-81479643D01*
X158566832Y-81470927D01*
X158553991Y-81455893D01*
X158546743Y-81445917D01*
X158546742Y-81445916D01*
X158542084Y-81439505D01*
X158508019Y-81411324D01*
X158499238Y-81403334D01*
X158253689Y-81157784D01*
X158246155Y-81149505D01*
X158242042Y-81143024D01*
X158216452Y-81118993D01*
X158192388Y-81096396D01*
X158189546Y-81093641D01*
X158169812Y-81073907D01*
X158166680Y-81071478D01*
X158163711Y-81068860D01*
X158164122Y-81068394D01*
X158145085Y-81049040D01*
X158115362Y-81009381D01*
X157998806Y-80922027D01*
X157862417Y-80870897D01*
X157800235Y-80864142D01*
X156299869Y-80864142D01*
X156237687Y-80870897D01*
X156101298Y-80922027D01*
X155984742Y-81009381D01*
X155897388Y-81125937D01*
X155846258Y-81262326D01*
X155839503Y-81324508D01*
X155839503Y-81739409D01*
X155819501Y-81807530D01*
X155765845Y-81854023D01*
X155695571Y-81864127D01*
X155630991Y-81834633D01*
X155624408Y-81828504D01*
X155347173Y-81551269D01*
X155313147Y-81488957D01*
X155318212Y-81418142D01*
X155327150Y-81399172D01*
X155334463Y-81386507D01*
X155375560Y-81315327D01*
X155431429Y-81161831D01*
X155441645Y-81103891D01*
X155458839Y-81006384D01*
X155458840Y-81006378D01*
X155459794Y-81000965D01*
X155459794Y-80959504D01*
X155459792Y-80843117D01*
X155459792Y-80837617D01*
X155431424Y-80676752D01*
X155389535Y-80561671D01*
X155377433Y-80528423D01*
X155377430Y-80528417D01*
X155375552Y-80523257D01*
X155293874Y-80381797D01*
X155224602Y-80299248D01*
X155220368Y-80293917D01*
X155201468Y-80268746D01*
X155201458Y-80268734D01*
X155198991Y-80265449D01*
X155189640Y-80255900D01*
X155186388Y-80253350D01*
X155169407Y-80240036D01*
X155166101Y-80237444D01*
X155162856Y-80234812D01*
X155109940Y-80190414D01*
X155063756Y-80151665D01*
X154922294Y-80070000D01*
X154768801Y-80014139D01*
X154763387Y-80013185D01*
X154763385Y-80013184D01*
X154697680Y-80001601D01*
X154634066Y-79970076D01*
X154597595Y-79909163D01*
X154595471Y-79899405D01*
X154583860Y-79833591D01*
X154583860Y-79833590D01*
X154582905Y-79828178D01*
X154527015Y-79674676D01*
X154445315Y-79533213D01*
X154436427Y-79522623D01*
X154376108Y-79450761D01*
X154371857Y-79445408D01*
X154352887Y-79420142D01*
X154352886Y-79420141D01*
X154350485Y-79416943D01*
X154350416Y-79416872D01*
X154350411Y-79416866D01*
X154343743Y-79410059D01*
X154343726Y-79410041D01*
X154343721Y-79410037D01*
X154341134Y-79407395D01*
X154341132Y-79407393D01*
X154341059Y-79407319D01*
X154337905Y-79404847D01*
X154337894Y-79404837D01*
X154316863Y-79388353D01*
X154313638Y-79385738D01*
X154215238Y-79303170D01*
X154210470Y-79300417D01*
X154210467Y-79300415D01*
X154078542Y-79224249D01*
X154073781Y-79221500D01*
X154068618Y-79219621D01*
X154068614Y-79219619D01*
X153954721Y-79178166D01*
X153920290Y-79165634D01*
X153914873Y-79164679D01*
X153914870Y-79164678D01*
X153856879Y-79154453D01*
X153759431Y-79137270D01*
X153596089Y-79137270D01*
X153498641Y-79154453D01*
X153440650Y-79164678D01*
X153440647Y-79164679D01*
X153435230Y-79165634D01*
X153400799Y-79178166D01*
X153286906Y-79219619D01*
X153286902Y-79219621D01*
X153281739Y-79221500D01*
X153140282Y-79303170D01*
X153114088Y-79325150D01*
X153100248Y-79336763D01*
X153083392Y-79348697D01*
X153076031Y-79353050D01*
X153007214Y-79370508D01*
X152995651Y-79368829D01*
X152995571Y-79369465D01*
X152987709Y-79368472D01*
X152980030Y-79366500D01*
X152972105Y-79366500D01*
X152965908Y-79365717D01*
X152961788Y-79365317D01*
X152961769Y-79365580D01*
X152954194Y-79365024D01*
X152946738Y-79363561D01*
X152896271Y-79365941D01*
X152887386Y-79366360D01*
X152881451Y-79366500D01*
X151484500Y-79366500D01*
X151416379Y-79346498D01*
X151369886Y-79292842D01*
X151358500Y-79240500D01*
X151358500Y-79101866D01*
X151351745Y-79039684D01*
X151300615Y-78903295D01*
X151213261Y-78786739D01*
X151096705Y-78699385D01*
X150960316Y-78648255D01*
X150898134Y-78641500D01*
X149101866Y-78641500D01*
X149039684Y-78648255D01*
X148903295Y-78699385D01*
X148786739Y-78786739D01*
X148699385Y-78903295D01*
X148696233Y-78911703D01*
X148654919Y-79021907D01*
X148612277Y-79078671D01*
X148545716Y-79103371D01*
X148476367Y-79088163D01*
X148443743Y-79062476D01*
X148393151Y-79006875D01*
X148393142Y-79006866D01*
X148389670Y-79003051D01*
X148385619Y-78999852D01*
X148385615Y-78999848D01*
X148218414Y-78867800D01*
X148218410Y-78867798D01*
X148214359Y-78864598D01*
X148018789Y-78756638D01*
X148013920Y-78754914D01*
X148013916Y-78754912D01*
X147813087Y-78683795D01*
X147813083Y-78683794D01*
X147808212Y-78682069D01*
X147803119Y-78681162D01*
X147803116Y-78681161D01*
X147593373Y-78643800D01*
X147593367Y-78643799D01*
X147588284Y-78642894D01*
X147514452Y-78641992D01*
X147370081Y-78640228D01*
X147370079Y-78640228D01*
X147364911Y-78640165D01*
X147144091Y-78673955D01*
X146931756Y-78743357D01*
X146733607Y-78846507D01*
X146729474Y-78849610D01*
X146729471Y-78849612D01*
X146577227Y-78963920D01*
X146554965Y-78980635D01*
X146525594Y-79011370D01*
X146464070Y-79046800D01*
X146393157Y-79043343D01*
X146335371Y-79002097D01*
X146309057Y-78936157D01*
X146308500Y-78924319D01*
X146308500Y-78434500D01*
X146328502Y-78366379D01*
X146382158Y-78319886D01*
X146434500Y-78308500D01*
X173465500Y-78308500D01*
X173533621Y-78328502D01*
G37*
G04 #@! TD.AperFunction*
M02*
