M48
; DRILL file {KiCad (6.0.4)} date Tue Jun 28 09:07:57 2022
; FORMAT={-:-/ absolute / metric / decimal}
; #@! TF.CreationDate,2022-06-28T09:07:57+02:00
; #@! TF.GenerationSoftware,Kicad,Pcbnew,(6.0.4)
; #@! TF.FileFunction,Plated,1,2,PTH
FMAT,2
METRIC
; #@! TA.AperFunction,Plated,PTH,ViaDrill
T1C0.400
; #@! TA.AperFunction,Plated,PTH,ComponentDrill
T2C1.000
%
G90
G05
T1
X157.05Y-107.15
X159.3Y-85.4
X159.3Y-95.3
X159.3Y-106.0
X160.6Y-86.7
X160.6Y-96.6
X161.4Y-85.4
X161.4Y-95.4
X161.4Y-106.0
X161.8Y-108.8
T2
X147.46Y-80.0
X147.46Y-82.54
X147.46Y-85.08
X147.46Y-87.62
X147.46Y-90.16
X147.46Y-92.7
X147.46Y-95.24
X147.46Y-97.78
X147.46Y-100.32
X147.46Y-102.86
X147.46Y-105.4
X147.46Y-107.94
X147.46Y-110.48
X147.46Y-113.02
X147.46Y-115.56
X150.0Y-80.0
X150.0Y-82.54
X150.0Y-85.08
X150.0Y-87.62
X150.0Y-90.16
X150.0Y-92.7
X150.0Y-95.24
X150.0Y-97.78
X150.0Y-100.32
X150.0Y-102.86
X150.0Y-105.4
X150.0Y-107.94
X150.0Y-110.48
X150.0Y-113.02
X150.0Y-115.56
X170.0Y-80.0
X170.0Y-82.54
X170.0Y-85.08
X170.0Y-87.62
X170.0Y-90.16
X170.0Y-92.7
X170.0Y-95.24
X170.0Y-97.78
X170.0Y-100.32
X170.0Y-102.86
X170.0Y-105.4
X170.0Y-107.94
X170.0Y-110.48
X170.0Y-113.02
X170.0Y-115.56
X172.54Y-80.0
X172.54Y-82.54
X172.54Y-85.08
X172.54Y-87.62
X172.54Y-90.16
X172.54Y-92.7
X172.54Y-95.24
X172.54Y-97.78
X172.54Y-100.32
X172.54Y-102.86
X172.54Y-105.4
X172.54Y-107.94
X172.54Y-110.48
X172.54Y-113.02
X172.54Y-115.56
T0
M30
