M48
; DRILL file {KiCad (6.0.4)} date Tue Jun 28 09:06:21 2022
; FORMAT={-:-/ absolute / metric / decimal}
; #@! TF.CreationDate,2022-06-28T09:06:21+02:00
; #@! TF.GenerationSoftware,Kicad,Pcbnew,(6.0.4)
; #@! TF.FileFunction,Plated,1,2,PTH
FMAT,2
METRIC
; #@! TA.AperFunction,Plated,PTH,ComponentDrill
T1C1.000
; #@! TA.AperFunction,Plated,PTH,ComponentDrill
T2C1.020
; #@! TA.AperFunction,Plated,PTH,ComponentDrill
T3C3.200
%
G90
G05
T1
X74.485Y-72.2
X74.485Y-74.74
X74.485Y-77.28
X74.485Y-79.82
X74.485Y-82.36
X74.485Y-84.9
X74.485Y-87.44
X74.485Y-89.98
X74.485Y-92.52
X74.485Y-95.06
X74.485Y-97.6
X74.485Y-100.14
X74.485Y-102.68
X74.485Y-105.22
X74.485Y-107.76
X77.025Y-72.2
X77.025Y-74.74
X77.025Y-77.28
X77.025Y-79.82
X77.025Y-82.36
X77.025Y-84.9
X77.025Y-87.44
X77.025Y-89.98
X77.025Y-92.52
X77.025Y-95.06
X77.025Y-97.6
X77.025Y-100.14
X77.025Y-102.68
X77.025Y-105.22
X77.025Y-107.76
T2
X99.295Y-64.655
X99.295Y-67.195
X99.295Y-69.735
X99.295Y-72.275
X99.295Y-74.815
X99.295Y-77.355
X99.295Y-79.895
X99.295Y-82.435
X99.295Y-84.975
X99.295Y-87.515
X99.295Y-90.055
X99.295Y-92.595
X99.295Y-95.135
X99.295Y-97.675
X99.295Y-100.215
X99.295Y-102.755
X99.295Y-105.295
X99.295Y-107.835
X99.295Y-110.375
X99.295Y-112.915
X105.645Y-112.685
X108.185Y-112.685
X110.725Y-112.685
X117.075Y-64.655
X117.075Y-67.195
X117.075Y-69.735
X117.075Y-72.275
X117.075Y-74.815
X117.075Y-77.355
X117.075Y-79.895
X117.075Y-82.435
X117.075Y-84.975
X117.075Y-87.515
X117.075Y-90.055
X117.075Y-92.595
X117.075Y-95.135
X117.075Y-97.675
X117.075Y-100.215
X117.075Y-102.755
X117.075Y-105.295
X117.075Y-107.835
X117.075Y-110.375
X117.075Y-112.915
T3
X76.4Y-113.2
X77.2Y-65.5
X126.4Y-66.4
X126.4Y-113.1
T0
M30
