G04 #@! TF.GenerationSoftware,KiCad,Pcbnew,(6.0.4)*
G04 #@! TF.CreationDate,2022-06-28T09:06:08+02:00*
G04 #@! TF.ProjectId,LogicAnalyzer,4c6f6769-6341-46e6-916c-797a65722e6b,rev?*
G04 #@! TF.SameCoordinates,Original*
G04 #@! TF.FileFunction,Legend,Top*
G04 #@! TF.FilePolarity,Positive*
%FSLAX46Y46*%
G04 Gerber Fmt 4.6, Leading zero omitted, Abs format (unit mm)*
G04 Created by KiCad (PCBNEW (6.0.4)) date 2022-06-28 09:06:08*
%MOMM*%
%LPD*%
G01*
G04 APERTURE LIST*
%ADD10C,0.150000*%
%ADD11C,0.120000*%
%ADD12O,1.500000X1.500000*%
%ADD13O,1.800000X1.800000*%
%ADD14R,3.500000X1.700000*%
%ADD15O,1.700000X1.700000*%
%ADD16R,1.700000X1.700000*%
%ADD17R,1.700000X3.500000*%
%ADD18C,5.600000*%
%ADD19C,3.600000*%
G04 APERTURE END LIST*
D10*
X80119047Y-105442380D02*
X79642857Y-105442380D01*
X79642857Y-104442380D01*
X80595238Y-105442380D02*
X80500000Y-105394761D01*
X80452380Y-105347142D01*
X80404761Y-105251904D01*
X80404761Y-104966190D01*
X80452380Y-104870952D01*
X80500000Y-104823333D01*
X80595238Y-104775714D01*
X80738095Y-104775714D01*
X80833333Y-104823333D01*
X80880952Y-104870952D01*
X80928571Y-104966190D01*
X80928571Y-105251904D01*
X80880952Y-105347142D01*
X80833333Y-105394761D01*
X80738095Y-105442380D01*
X80595238Y-105442380D01*
X81785714Y-104775714D02*
X81785714Y-105585238D01*
X81738095Y-105680476D01*
X81690476Y-105728095D01*
X81595238Y-105775714D01*
X81452380Y-105775714D01*
X81357142Y-105728095D01*
X81785714Y-105394761D02*
X81690476Y-105442380D01*
X81500000Y-105442380D01*
X81404761Y-105394761D01*
X81357142Y-105347142D01*
X81309523Y-105251904D01*
X81309523Y-104966190D01*
X81357142Y-104870952D01*
X81404761Y-104823333D01*
X81500000Y-104775714D01*
X81690476Y-104775714D01*
X81785714Y-104823333D01*
X82261904Y-105442380D02*
X82261904Y-104775714D01*
X82261904Y-104442380D02*
X82214285Y-104490000D01*
X82261904Y-104537619D01*
X82309523Y-104490000D01*
X82261904Y-104442380D01*
X82261904Y-104537619D01*
X83166666Y-105394761D02*
X83071428Y-105442380D01*
X82880952Y-105442380D01*
X82785714Y-105394761D01*
X82738095Y-105347142D01*
X82690476Y-105251904D01*
X82690476Y-104966190D01*
X82738095Y-104870952D01*
X82785714Y-104823333D01*
X82880952Y-104775714D01*
X83071428Y-104775714D01*
X83166666Y-104823333D01*
X83547619Y-105156666D02*
X84023809Y-105156666D01*
X83452380Y-105442380D02*
X83785714Y-104442380D01*
X84119047Y-105442380D01*
X84452380Y-104775714D02*
X84452380Y-105442380D01*
X84452380Y-104870952D02*
X84500000Y-104823333D01*
X84595238Y-104775714D01*
X84738095Y-104775714D01*
X84833333Y-104823333D01*
X84880952Y-104918571D01*
X84880952Y-105442380D01*
X85785714Y-105442380D02*
X85785714Y-104918571D01*
X85738095Y-104823333D01*
X85642857Y-104775714D01*
X85452380Y-104775714D01*
X85357142Y-104823333D01*
X85785714Y-105394761D02*
X85690476Y-105442380D01*
X85452380Y-105442380D01*
X85357142Y-105394761D01*
X85309523Y-105299523D01*
X85309523Y-105204285D01*
X85357142Y-105109047D01*
X85452380Y-105061428D01*
X85690476Y-105061428D01*
X85785714Y-105013809D01*
X86404761Y-105442380D02*
X86309523Y-105394761D01*
X86261904Y-105299523D01*
X86261904Y-104442380D01*
X86690476Y-104775714D02*
X86928571Y-105442380D01*
X87166666Y-104775714D02*
X86928571Y-105442380D01*
X86833333Y-105680476D01*
X86785714Y-105728095D01*
X86690476Y-105775714D01*
X87452380Y-104775714D02*
X87976190Y-104775714D01*
X87452380Y-105442380D01*
X87976190Y-105442380D01*
X88738095Y-105394761D02*
X88642857Y-105442380D01*
X88452380Y-105442380D01*
X88357142Y-105394761D01*
X88309523Y-105299523D01*
X88309523Y-104918571D01*
X88357142Y-104823333D01*
X88452380Y-104775714D01*
X88642857Y-104775714D01*
X88738095Y-104823333D01*
X88785714Y-104918571D01*
X88785714Y-105013809D01*
X88309523Y-105109047D01*
X89214285Y-105442380D02*
X89214285Y-104775714D01*
X89214285Y-104966190D02*
X89261904Y-104870952D01*
X89309523Y-104823333D01*
X89404761Y-104775714D01*
X89500000Y-104775714D01*
X90452380Y-104442380D02*
X90785714Y-105442380D01*
X91119047Y-104442380D01*
X91976190Y-105442380D02*
X91404761Y-105442380D01*
X91690476Y-105442380D02*
X91690476Y-104442380D01*
X91595238Y-104585238D01*
X91500000Y-104680476D01*
X91404761Y-104728095D01*
X92404761Y-105347142D02*
X92452380Y-105394761D01*
X92404761Y-105442380D01*
X92357142Y-105394761D01*
X92404761Y-105347142D01*
X92404761Y-105442380D01*
X93071428Y-104442380D02*
X93166666Y-104442380D01*
X93261904Y-104490000D01*
X93309523Y-104537619D01*
X93357142Y-104632857D01*
X93404761Y-104823333D01*
X93404761Y-105061428D01*
X93357142Y-105251904D01*
X93309523Y-105347142D01*
X93261904Y-105394761D01*
X93166666Y-105442380D01*
X93071428Y-105442380D01*
X92976190Y-105394761D01*
X92928571Y-105347142D01*
X92880952Y-105251904D01*
X92833333Y-105061428D01*
X92833333Y-104823333D01*
X92880952Y-104632857D01*
X92928571Y-104537619D01*
X92976190Y-104490000D01*
X93071428Y-104442380D01*
X80071428Y-107052380D02*
X80071428Y-106052380D01*
X80071428Y-106433333D02*
X80166666Y-106385714D01*
X80357142Y-106385714D01*
X80452380Y-106433333D01*
X80500000Y-106480952D01*
X80547619Y-106576190D01*
X80547619Y-106861904D01*
X80500000Y-106957142D01*
X80452380Y-107004761D01*
X80357142Y-107052380D01*
X80166666Y-107052380D01*
X80071428Y-107004761D01*
X80880952Y-106385714D02*
X81119047Y-107052380D01*
X81357142Y-106385714D02*
X81119047Y-107052380D01*
X81023809Y-107290476D01*
X80976190Y-107338095D01*
X80880952Y-107385714D01*
X82500000Y-106528571D02*
X82833333Y-106528571D01*
X82976190Y-107052380D02*
X82500000Y-107052380D01*
X82500000Y-106052380D01*
X82976190Y-106052380D01*
X83547619Y-107052380D02*
X83452380Y-107004761D01*
X83404761Y-106909523D01*
X83404761Y-106052380D01*
X84690476Y-107052380D02*
X84690476Y-106052380D01*
X84928571Y-106052380D01*
X85071428Y-106100000D01*
X85166666Y-106195238D01*
X85214285Y-106290476D01*
X85261904Y-106480952D01*
X85261904Y-106623809D01*
X85214285Y-106814285D01*
X85166666Y-106909523D01*
X85071428Y-107004761D01*
X84928571Y-107052380D01*
X84690476Y-107052380D01*
X85690476Y-107052380D02*
X85690476Y-106385714D01*
X85690476Y-106576190D02*
X85738095Y-106480952D01*
X85785714Y-106433333D01*
X85880952Y-106385714D01*
X85976190Y-106385714D01*
X86309523Y-106957142D02*
X86357142Y-107004761D01*
X86309523Y-107052380D01*
X86261904Y-107004761D01*
X86309523Y-106957142D01*
X86309523Y-107052380D01*
X88071428Y-106100000D02*
X87976190Y-106052380D01*
X87833333Y-106052380D01*
X87690476Y-106100000D01*
X87595238Y-106195238D01*
X87547619Y-106290476D01*
X87500000Y-106480952D01*
X87500000Y-106623809D01*
X87547619Y-106814285D01*
X87595238Y-106909523D01*
X87690476Y-107004761D01*
X87833333Y-107052380D01*
X87928571Y-107052380D01*
X88071428Y-107004761D01*
X88119047Y-106957142D01*
X88119047Y-106623809D01*
X87928571Y-106623809D01*
X88976190Y-106385714D02*
X88976190Y-107052380D01*
X88547619Y-106385714D02*
X88547619Y-106909523D01*
X88595238Y-107004761D01*
X88690476Y-107052380D01*
X88833333Y-107052380D01*
X88928571Y-107004761D01*
X88976190Y-106957142D01*
X89404761Y-107004761D02*
X89500000Y-107052380D01*
X89690476Y-107052380D01*
X89785714Y-107004761D01*
X89833333Y-106909523D01*
X89833333Y-106861904D01*
X89785714Y-106766666D01*
X89690476Y-106719047D01*
X89547619Y-106719047D01*
X89452380Y-106671428D01*
X89404761Y-106576190D01*
X89404761Y-106528571D01*
X89452380Y-106433333D01*
X89547619Y-106385714D01*
X89690476Y-106385714D01*
X89785714Y-106433333D01*
X90261904Y-107052380D02*
X90261904Y-106385714D01*
X90261904Y-106480952D02*
X90309523Y-106433333D01*
X90404761Y-106385714D01*
X90547619Y-106385714D01*
X90642857Y-106433333D01*
X90690476Y-106528571D01*
X90690476Y-107052380D01*
X90690476Y-106528571D02*
X90738095Y-106433333D01*
X90833333Y-106385714D01*
X90976190Y-106385714D01*
X91071428Y-106433333D01*
X91119047Y-106528571D01*
X91119047Y-107052380D01*
X92023809Y-107052380D02*
X92023809Y-106528571D01*
X91976190Y-106433333D01*
X91880952Y-106385714D01*
X91690476Y-106385714D01*
X91595238Y-106433333D01*
X92023809Y-107004761D02*
X91928571Y-107052380D01*
X91690476Y-107052380D01*
X91595238Y-107004761D01*
X91547619Y-106909523D01*
X91547619Y-106814285D01*
X91595238Y-106719047D01*
X91690476Y-106671428D01*
X91928571Y-106671428D01*
X92023809Y-106623809D01*
X92500000Y-106385714D02*
X92500000Y-107052380D01*
X92500000Y-106480952D02*
X92547619Y-106433333D01*
X92642857Y-106385714D01*
X92785714Y-106385714D01*
X92880952Y-106433333D01*
X92928571Y-106528571D01*
X92928571Y-107052380D01*
X83642857Y-109043333D02*
X83595238Y-108995714D01*
X83500000Y-108852857D01*
X83452380Y-108757619D01*
X83404761Y-108614761D01*
X83357142Y-108376666D01*
X83357142Y-108186190D01*
X83404761Y-107948095D01*
X83452380Y-107805238D01*
X83500000Y-107710000D01*
X83595238Y-107567142D01*
X83642857Y-107519523D01*
X84452380Y-108614761D02*
X84357142Y-108662380D01*
X84166666Y-108662380D01*
X84071428Y-108614761D01*
X84023809Y-108567142D01*
X83976190Y-108471904D01*
X83976190Y-108186190D01*
X84023809Y-108090952D01*
X84071428Y-108043333D01*
X84166666Y-107995714D01*
X84357142Y-107995714D01*
X84452380Y-108043333D01*
X84785714Y-109043333D02*
X84833333Y-108995714D01*
X84928571Y-108852857D01*
X84976190Y-108757619D01*
X85023809Y-108614761D01*
X85071428Y-108376666D01*
X85071428Y-108186190D01*
X85023809Y-107948095D01*
X84976190Y-107805238D01*
X84928571Y-107710000D01*
X84833333Y-107567142D01*
X84785714Y-107519523D01*
X86261904Y-107757619D02*
X86309523Y-107710000D01*
X86404761Y-107662380D01*
X86642857Y-107662380D01*
X86738095Y-107710000D01*
X86785714Y-107757619D01*
X86833333Y-107852857D01*
X86833333Y-107948095D01*
X86785714Y-108090952D01*
X86214285Y-108662380D01*
X86833333Y-108662380D01*
X87452380Y-107662380D02*
X87547619Y-107662380D01*
X87642857Y-107710000D01*
X87690476Y-107757619D01*
X87738095Y-107852857D01*
X87785714Y-108043333D01*
X87785714Y-108281428D01*
X87738095Y-108471904D01*
X87690476Y-108567142D01*
X87642857Y-108614761D01*
X87547619Y-108662380D01*
X87452380Y-108662380D01*
X87357142Y-108614761D01*
X87309523Y-108567142D01*
X87261904Y-108471904D01*
X87214285Y-108281428D01*
X87214285Y-108043333D01*
X87261904Y-107852857D01*
X87309523Y-107757619D01*
X87357142Y-107710000D01*
X87452380Y-107662380D01*
X88166666Y-107757619D02*
X88214285Y-107710000D01*
X88309523Y-107662380D01*
X88547619Y-107662380D01*
X88642857Y-107710000D01*
X88690476Y-107757619D01*
X88738095Y-107852857D01*
X88738095Y-107948095D01*
X88690476Y-108090952D01*
X88119047Y-108662380D01*
X88738095Y-108662380D01*
X89119047Y-107757619D02*
X89166666Y-107710000D01*
X89261904Y-107662380D01*
X89500000Y-107662380D01*
X89595238Y-107710000D01*
X89642857Y-107757619D01*
X89690476Y-107852857D01*
X89690476Y-107948095D01*
X89642857Y-108090952D01*
X89071428Y-108662380D01*
X89690476Y-108662380D01*
X107423095Y-88237380D02*
X107423095Y-89046904D01*
X107470714Y-89142142D01*
X107518333Y-89189761D01*
X107613571Y-89237380D01*
X107804047Y-89237380D01*
X107899285Y-89189761D01*
X107946904Y-89142142D01*
X107994523Y-89046904D01*
X107994523Y-88237380D01*
X108994523Y-89237380D02*
X108423095Y-89237380D01*
X108708809Y-89237380D02*
X108708809Y-88237380D01*
X108613571Y-88380238D01*
X108518333Y-88475476D01*
X108423095Y-88523095D01*
X94174722Y-98065592D02*
X94093910Y-98092529D01*
X94013097Y-98173341D01*
X93959223Y-98281091D01*
X93959223Y-98388841D01*
X93986160Y-98469653D01*
X94066972Y-98604340D01*
X94147784Y-98685152D01*
X94282471Y-98765964D01*
X94363284Y-98792902D01*
X94471033Y-98792902D01*
X94578783Y-98739027D01*
X94632658Y-98685152D01*
X94686532Y-98577402D01*
X94686532Y-98523528D01*
X94497971Y-98334966D01*
X94390221Y-98442715D01*
X94982844Y-98334966D02*
X94417158Y-97769280D01*
X94632658Y-97553781D01*
X94713470Y-97526844D01*
X94767345Y-97526844D01*
X94848157Y-97553781D01*
X94928969Y-97634593D01*
X94955906Y-97715406D01*
X94955906Y-97769280D01*
X94928969Y-97850093D01*
X94713470Y-98065592D01*
X95844841Y-97472969D02*
X95521592Y-97796218D01*
X95683216Y-97634593D02*
X95117531Y-97068908D01*
X95144468Y-97203595D01*
X95144468Y-97311345D01*
X95117531Y-97392157D01*
X95629341Y-96557097D02*
X95683216Y-96503223D01*
X95764028Y-96476285D01*
X95817903Y-96476285D01*
X95898715Y-96503223D01*
X96033402Y-96584035D01*
X96168089Y-96718722D01*
X96248902Y-96853409D01*
X96275839Y-96934221D01*
X96275839Y-96988096D01*
X96248902Y-97068908D01*
X96195027Y-97122783D01*
X96114215Y-97149720D01*
X96060340Y-97149720D01*
X95979528Y-97122783D01*
X95844841Y-97041971D01*
X95710154Y-96907284D01*
X95629341Y-96772597D01*
X95602404Y-96691784D01*
X95602404Y-96637910D01*
X95629341Y-96557097D01*
X94028722Y-103145592D02*
X93947910Y-103172529D01*
X93867097Y-103253341D01*
X93813223Y-103361091D01*
X93813223Y-103468841D01*
X93840160Y-103549653D01*
X93920972Y-103684340D01*
X94001784Y-103765152D01*
X94136471Y-103845964D01*
X94217284Y-103872902D01*
X94325033Y-103872902D01*
X94432783Y-103819027D01*
X94486658Y-103765152D01*
X94540532Y-103657402D01*
X94540532Y-103603528D01*
X94351971Y-103414966D01*
X94244221Y-103522715D01*
X94836844Y-103414966D02*
X94271158Y-102849280D01*
X94486658Y-102633781D01*
X94567470Y-102606844D01*
X94621345Y-102606844D01*
X94702157Y-102633781D01*
X94782969Y-102714593D01*
X94809906Y-102795406D01*
X94809906Y-102849280D01*
X94782969Y-102930093D01*
X94567470Y-103145592D01*
X95698841Y-102552969D02*
X95375592Y-102876218D01*
X95537216Y-102714593D02*
X94971531Y-102148908D01*
X94998468Y-102283595D01*
X94998468Y-102391345D01*
X94971531Y-102472157D01*
X95402529Y-101825659D02*
X95402529Y-101771784D01*
X95429467Y-101690972D01*
X95564154Y-101556285D01*
X95644966Y-101529348D01*
X95698841Y-101529348D01*
X95779653Y-101556285D01*
X95833528Y-101610160D01*
X95887402Y-101717910D01*
X95887402Y-102364407D01*
X96237589Y-102014221D01*
X120271158Y-107983155D02*
X120190346Y-108010093D01*
X120109534Y-108090905D01*
X120055659Y-108198654D01*
X120055659Y-108306404D01*
X120082597Y-108387216D01*
X120163409Y-108521903D01*
X120244221Y-108602715D01*
X120378908Y-108683528D01*
X120459720Y-108710465D01*
X120567470Y-108710465D01*
X120675219Y-108656590D01*
X120729094Y-108602715D01*
X120782969Y-108494966D01*
X120782969Y-108441091D01*
X120594407Y-108252529D01*
X120486658Y-108360279D01*
X121079280Y-108252529D02*
X120513595Y-107686844D01*
X121402529Y-107929280D01*
X120836844Y-107363595D01*
X121671903Y-107659906D02*
X121106218Y-107094221D01*
X121240905Y-106959534D01*
X121348654Y-106905659D01*
X121456404Y-106905659D01*
X121537216Y-106932597D01*
X121671903Y-107013409D01*
X121752715Y-107094221D01*
X121833528Y-107228908D01*
X121860465Y-107309720D01*
X121860465Y-107417470D01*
X121806590Y-107525219D01*
X121671903Y-107659906D01*
X120282722Y-80031592D02*
X120201910Y-80058529D01*
X120121097Y-80139341D01*
X120067223Y-80247091D01*
X120067223Y-80354841D01*
X120094160Y-80435653D01*
X120174972Y-80570340D01*
X120255784Y-80651152D01*
X120390471Y-80731964D01*
X120471284Y-80758902D01*
X120579033Y-80758902D01*
X120686783Y-80705027D01*
X120740658Y-80651152D01*
X120794532Y-80543402D01*
X120794532Y-80489528D01*
X120605971Y-80300966D01*
X120498221Y-80408715D01*
X121090844Y-80300966D02*
X120525158Y-79735280D01*
X120740658Y-79519781D01*
X120821470Y-79492844D01*
X120875345Y-79492844D01*
X120956157Y-79519781D01*
X121036969Y-79600593D01*
X121063906Y-79681406D01*
X121063906Y-79735280D01*
X121036969Y-79816093D01*
X120821470Y-80031592D01*
X121117781Y-79250407D02*
X121117781Y-79196532D01*
X121144719Y-79115720D01*
X121279406Y-78981033D01*
X121360218Y-78954096D01*
X121414093Y-78954096D01*
X121494905Y-78981033D01*
X121548780Y-79034908D01*
X121602654Y-79142658D01*
X121602654Y-79789155D01*
X121952841Y-79438969D01*
X121952841Y-78792471D02*
X121872028Y-78819409D01*
X121818154Y-78819409D01*
X121737341Y-78792471D01*
X121710404Y-78765534D01*
X121683467Y-78684722D01*
X121683467Y-78630847D01*
X121710404Y-78550035D01*
X121818154Y-78442285D01*
X121898966Y-78415348D01*
X121952841Y-78415348D01*
X122033653Y-78442285D01*
X122060590Y-78469223D01*
X122087528Y-78550035D01*
X122087528Y-78603910D01*
X122060590Y-78684722D01*
X121952841Y-78792471D01*
X121925903Y-78873284D01*
X121925903Y-78927158D01*
X121952841Y-79007971D01*
X122060590Y-79115720D01*
X122141402Y-79142658D01*
X122195277Y-79142658D01*
X122276089Y-79115720D01*
X122383839Y-79007971D01*
X122410776Y-78927158D01*
X122410776Y-78873284D01*
X122383839Y-78792471D01*
X122276089Y-78684722D01*
X122195277Y-78657784D01*
X122141402Y-78657784D01*
X122060590Y-78684722D01*
X120282722Y-113305592D02*
X120201910Y-113332529D01*
X120121097Y-113413341D01*
X120067223Y-113521091D01*
X120067223Y-113628841D01*
X120094160Y-113709653D01*
X120174972Y-113844340D01*
X120255784Y-113925152D01*
X120390471Y-114005964D01*
X120471284Y-114032902D01*
X120579033Y-114032902D01*
X120686783Y-113979027D01*
X120740658Y-113925152D01*
X120794532Y-113817402D01*
X120794532Y-113763528D01*
X120605971Y-113574966D01*
X120498221Y-113682715D01*
X121090844Y-113574966D02*
X120525158Y-113009280D01*
X120740658Y-112793781D01*
X120821470Y-112766844D01*
X120875345Y-112766844D01*
X120956157Y-112793781D01*
X121036969Y-112874593D01*
X121063906Y-112955406D01*
X121063906Y-113009280D01*
X121036969Y-113090093D01*
X120821470Y-113305592D01*
X121952841Y-112712969D02*
X121629592Y-113036218D01*
X121791216Y-112874593D02*
X121225531Y-112308908D01*
X121252468Y-112443595D01*
X121252468Y-112551345D01*
X121225531Y-112632157D01*
X121872028Y-111662410D02*
X121764279Y-111770160D01*
X121737341Y-111850972D01*
X121737341Y-111904847D01*
X121764279Y-112039534D01*
X121845091Y-112174221D01*
X122060590Y-112389720D01*
X122141402Y-112416658D01*
X122195277Y-112416658D01*
X122276089Y-112389720D01*
X122383839Y-112281971D01*
X122410776Y-112201158D01*
X122410776Y-112147284D01*
X122383839Y-112066471D01*
X122249152Y-111931784D01*
X122168340Y-111904847D01*
X122114465Y-111904847D01*
X122033653Y-111931784D01*
X121925903Y-112039534D01*
X121898966Y-112120346D01*
X121898966Y-112174221D01*
X121925903Y-112255033D01*
X112089761Y-115308809D02*
X112204047Y-115346904D01*
X112394523Y-115346904D01*
X112470714Y-115308809D01*
X112508809Y-115270714D01*
X112546904Y-115194523D01*
X112546904Y-115118333D01*
X112508809Y-115042142D01*
X112470714Y-115004047D01*
X112394523Y-114965952D01*
X112242142Y-114927857D01*
X112165952Y-114889761D01*
X112127857Y-114851666D01*
X112089761Y-114775476D01*
X112089761Y-114699285D01*
X112127857Y-114623095D01*
X112165952Y-114585000D01*
X112242142Y-114546904D01*
X112432619Y-114546904D01*
X112546904Y-114585000D01*
X112813571Y-114546904D02*
X113004047Y-115346904D01*
X113156428Y-114775476D01*
X113308809Y-115346904D01*
X113499285Y-114546904D01*
X113804047Y-115346904D02*
X113804047Y-114546904D01*
X113994523Y-114546904D01*
X114108809Y-114585000D01*
X114185000Y-114661190D01*
X114223095Y-114737380D01*
X114261190Y-114889761D01*
X114261190Y-115004047D01*
X114223095Y-115156428D01*
X114185000Y-115232619D01*
X114108809Y-115308809D01*
X113994523Y-115346904D01*
X113804047Y-115346904D01*
X114604047Y-115346904D02*
X114604047Y-114546904D01*
X115137380Y-114546904D02*
X115289761Y-114546904D01*
X115365952Y-114585000D01*
X115442142Y-114661190D01*
X115480238Y-114813571D01*
X115480238Y-115080238D01*
X115442142Y-115232619D01*
X115365952Y-115308809D01*
X115289761Y-115346904D01*
X115137380Y-115346904D01*
X115061190Y-115308809D01*
X114985000Y-115232619D01*
X114946904Y-115080238D01*
X114946904Y-114813571D01*
X114985000Y-114661190D01*
X115061190Y-114585000D01*
X115137380Y-114546904D01*
X120107131Y-72743308D02*
X120457317Y-72393122D01*
X120484255Y-72797183D01*
X120565067Y-72716370D01*
X120645879Y-72689433D01*
X120699754Y-72689433D01*
X120780566Y-72716370D01*
X120915253Y-72851057D01*
X120942190Y-72931870D01*
X120942190Y-72985744D01*
X120915253Y-73066557D01*
X120753629Y-73228181D01*
X120672816Y-73255118D01*
X120618942Y-73255118D01*
X120618942Y-72231497D02*
X121373189Y-72608621D01*
X120996065Y-71854374D01*
X121130752Y-71719687D02*
X121480938Y-71369500D01*
X121507876Y-71773561D01*
X121588688Y-71692749D01*
X121669500Y-71665812D01*
X121723375Y-71665812D01*
X121804187Y-71692749D01*
X121938874Y-71827436D01*
X121965812Y-71908248D01*
X121965812Y-71962123D01*
X121938874Y-72042935D01*
X121777250Y-72204560D01*
X121696438Y-72231497D01*
X121642563Y-72231497D01*
X122208248Y-71881311D02*
X122639247Y-71450312D01*
X122423748Y-70965439D02*
X122612309Y-70776877D01*
X122989433Y-70992377D02*
X122720059Y-71261751D01*
X122154374Y-70696065D01*
X122423748Y-70426691D01*
X123231870Y-70749940D02*
X122666184Y-70184255D01*
X123555118Y-70426691D01*
X122989433Y-69861006D01*
X94671158Y-69883155D02*
X94590346Y-69910093D01*
X94509534Y-69990905D01*
X94455659Y-70098654D01*
X94455659Y-70206404D01*
X94482597Y-70287216D01*
X94563409Y-70421903D01*
X94644221Y-70502715D01*
X94778908Y-70583528D01*
X94859720Y-70610465D01*
X94967470Y-70610465D01*
X95075219Y-70556590D01*
X95129094Y-70502715D01*
X95182969Y-70394966D01*
X95182969Y-70341091D01*
X94994407Y-70152529D01*
X94886658Y-70260279D01*
X95479280Y-70152529D02*
X94913595Y-69586844D01*
X95802529Y-69829280D01*
X95236844Y-69263595D01*
X96071903Y-69559906D02*
X95506218Y-68994221D01*
X95640905Y-68859534D01*
X95748654Y-68805659D01*
X95856404Y-68805659D01*
X95937216Y-68832597D01*
X96071903Y-68913409D01*
X96152715Y-68994221D01*
X96233528Y-69128908D01*
X96260465Y-69209720D01*
X96260465Y-69317470D01*
X96206590Y-69425219D01*
X96071903Y-69559906D01*
X94698096Y-77476218D02*
X94617284Y-77503155D01*
X94536471Y-77583967D01*
X94482597Y-77691717D01*
X94482597Y-77799467D01*
X94509534Y-77880279D01*
X94590346Y-78014966D01*
X94671158Y-78095778D01*
X94805845Y-78176590D01*
X94886658Y-78203528D01*
X94994407Y-78203528D01*
X95102157Y-78149653D01*
X95156032Y-78095778D01*
X95209906Y-77988028D01*
X95209906Y-77934154D01*
X95021345Y-77745592D01*
X94913595Y-77853341D01*
X95506218Y-77745592D02*
X94940532Y-77179906D01*
X95156032Y-76964407D01*
X95236844Y-76937470D01*
X95290719Y-76937470D01*
X95371531Y-76964407D01*
X95452343Y-77045219D01*
X95479280Y-77126032D01*
X95479280Y-77179906D01*
X95452343Y-77260719D01*
X95236844Y-77476218D01*
X95937216Y-76560346D02*
X96314340Y-76937470D01*
X95587030Y-76479534D02*
X95856404Y-77018282D01*
X96206590Y-76668096D01*
X120138129Y-65312309D02*
X120892377Y-65689433D01*
X120515253Y-64935186D01*
X121161751Y-64827436D02*
X121269500Y-64773561D01*
X121323375Y-64773561D01*
X121404187Y-64800499D01*
X121484999Y-64881311D01*
X121511937Y-64962123D01*
X121511937Y-65015998D01*
X121485000Y-65096810D01*
X121269500Y-65312309D01*
X120703815Y-64746624D01*
X120892377Y-64558062D01*
X120973189Y-64531125D01*
X121027064Y-64531125D01*
X121107876Y-64558062D01*
X121161751Y-64611937D01*
X121188688Y-64692749D01*
X121188688Y-64746624D01*
X121161751Y-64827436D01*
X120973189Y-65015998D01*
X121269500Y-64180938D02*
X121727436Y-64638874D01*
X121808248Y-64665812D01*
X121862123Y-64665812D01*
X121942935Y-64638874D01*
X122050685Y-64531125D01*
X122077622Y-64450312D01*
X122077622Y-64396438D01*
X122050685Y-64315625D01*
X121592749Y-63857690D01*
X122373934Y-64154001D02*
X122481683Y-64100126D01*
X122616370Y-63965439D01*
X122643308Y-63884627D01*
X122643308Y-63830752D01*
X122616370Y-63749940D01*
X122562496Y-63696065D01*
X122481683Y-63669128D01*
X122427809Y-63669128D01*
X122346996Y-63696065D01*
X122212309Y-63776877D01*
X122131497Y-63803815D01*
X122077622Y-63803815D01*
X121996810Y-63776877D01*
X121942935Y-63723003D01*
X121915998Y-63642190D01*
X121915998Y-63588316D01*
X121942935Y-63507503D01*
X122077622Y-63372816D01*
X122185372Y-63318942D01*
X120271158Y-95283155D02*
X120190346Y-95310093D01*
X120109534Y-95390905D01*
X120055659Y-95498654D01*
X120055659Y-95606404D01*
X120082597Y-95687216D01*
X120163409Y-95821903D01*
X120244221Y-95902715D01*
X120378908Y-95983528D01*
X120459720Y-96010465D01*
X120567470Y-96010465D01*
X120675219Y-95956590D01*
X120729094Y-95902715D01*
X120782969Y-95794966D01*
X120782969Y-95741091D01*
X120594407Y-95552529D01*
X120486658Y-95660279D01*
X121079280Y-95552529D02*
X120513595Y-94986844D01*
X121402529Y-95229280D01*
X120836844Y-94663595D01*
X121671903Y-94959906D02*
X121106218Y-94394221D01*
X121240905Y-94259534D01*
X121348654Y-94205659D01*
X121456404Y-94205659D01*
X121537216Y-94232597D01*
X121671903Y-94313409D01*
X121752715Y-94394221D01*
X121833528Y-94528908D01*
X121860465Y-94609720D01*
X121860465Y-94717470D01*
X121806590Y-94825219D01*
X121671903Y-94959906D01*
X94698096Y-85096218D02*
X94617284Y-85123155D01*
X94536471Y-85203967D01*
X94482597Y-85311717D01*
X94482597Y-85419467D01*
X94509534Y-85500279D01*
X94590346Y-85634966D01*
X94671158Y-85715778D01*
X94805845Y-85796590D01*
X94886658Y-85823528D01*
X94994407Y-85823528D01*
X95102157Y-85769653D01*
X95156032Y-85715778D01*
X95209906Y-85608028D01*
X95209906Y-85554154D01*
X95021345Y-85365592D01*
X94913595Y-85473341D01*
X95506218Y-85365592D02*
X94940532Y-84799906D01*
X95156032Y-84584407D01*
X95236844Y-84557470D01*
X95290719Y-84557470D01*
X95371531Y-84584407D01*
X95452343Y-84665219D01*
X95479280Y-84746032D01*
X95479280Y-84799906D01*
X95452343Y-84880719D01*
X95236844Y-85096218D01*
X95748654Y-83991784D02*
X95640905Y-84099534D01*
X95613967Y-84180346D01*
X95613967Y-84234221D01*
X95640905Y-84368908D01*
X95721717Y-84503595D01*
X95937216Y-84719094D01*
X96018028Y-84746032D01*
X96071903Y-84746032D01*
X96152715Y-84719094D01*
X96260465Y-84611345D01*
X96287402Y-84530532D01*
X96287402Y-84476658D01*
X96260465Y-84395845D01*
X96125778Y-84261158D01*
X96044966Y-84234221D01*
X95991091Y-84234221D01*
X95910279Y-84261158D01*
X95802529Y-84368908D01*
X95775592Y-84449720D01*
X95775592Y-84503595D01*
X95802529Y-84584407D01*
X120282722Y-103145592D02*
X120201910Y-103172529D01*
X120121097Y-103253341D01*
X120067223Y-103361091D01*
X120067223Y-103468841D01*
X120094160Y-103549653D01*
X120174972Y-103684340D01*
X120255784Y-103765152D01*
X120390471Y-103845964D01*
X120471284Y-103872902D01*
X120579033Y-103872902D01*
X120686783Y-103819027D01*
X120740658Y-103765152D01*
X120794532Y-103657402D01*
X120794532Y-103603528D01*
X120605971Y-103414966D01*
X120498221Y-103522715D01*
X121090844Y-103414966D02*
X120525158Y-102849280D01*
X120740658Y-102633781D01*
X120821470Y-102606844D01*
X120875345Y-102606844D01*
X120956157Y-102633781D01*
X121036969Y-102714593D01*
X121063906Y-102795406D01*
X121063906Y-102849280D01*
X121036969Y-102930093D01*
X120821470Y-103145592D01*
X121952841Y-102552969D02*
X121629592Y-102876218D01*
X121791216Y-102714593D02*
X121225531Y-102148908D01*
X121252468Y-102283595D01*
X121252468Y-102391345D01*
X121225531Y-102472157D01*
X122222215Y-102283595D02*
X122329964Y-102175845D01*
X122356902Y-102095033D01*
X122356902Y-102041158D01*
X122329964Y-101906471D01*
X122249152Y-101771784D01*
X122033653Y-101556285D01*
X121952841Y-101529348D01*
X121898966Y-101529348D01*
X121818154Y-101556285D01*
X121710404Y-101664035D01*
X121683467Y-101744847D01*
X121683467Y-101798722D01*
X121710404Y-101879534D01*
X121845091Y-102014221D01*
X121925903Y-102041158D01*
X121979778Y-102041158D01*
X122060590Y-102014221D01*
X122168340Y-101906471D01*
X122195277Y-101825659D01*
X122195277Y-101771784D01*
X122168340Y-101690972D01*
X94174722Y-105685592D02*
X94093910Y-105712529D01*
X94013097Y-105793341D01*
X93959223Y-105901091D01*
X93959223Y-106008841D01*
X93986160Y-106089653D01*
X94066972Y-106224340D01*
X94147784Y-106305152D01*
X94282471Y-106385964D01*
X94363284Y-106412902D01*
X94471033Y-106412902D01*
X94578783Y-106359027D01*
X94632658Y-106305152D01*
X94686532Y-106197402D01*
X94686532Y-106143528D01*
X94497971Y-105954966D01*
X94390221Y-106062715D01*
X94982844Y-105954966D02*
X94417158Y-105389280D01*
X94632658Y-105173781D01*
X94713470Y-105146844D01*
X94767345Y-105146844D01*
X94848157Y-105173781D01*
X94928969Y-105254593D01*
X94955906Y-105335406D01*
X94955906Y-105389280D01*
X94928969Y-105470093D01*
X94713470Y-105685592D01*
X95844841Y-105092969D02*
X95521592Y-105416218D01*
X95683216Y-105254593D02*
X95117531Y-104688908D01*
X95144468Y-104823595D01*
X95144468Y-104931345D01*
X95117531Y-105012157D01*
X95467717Y-104338722D02*
X95817903Y-103988536D01*
X95844841Y-104392597D01*
X95925653Y-104311784D01*
X96006465Y-104284847D01*
X96060340Y-104284847D01*
X96141152Y-104311784D01*
X96275839Y-104446471D01*
X96302776Y-104527284D01*
X96302776Y-104581158D01*
X96275839Y-104661971D01*
X96114215Y-104823595D01*
X96033402Y-104850532D01*
X95979528Y-104850532D01*
X120282722Y-92985592D02*
X120201910Y-93012529D01*
X120121097Y-93093341D01*
X120067223Y-93201091D01*
X120067223Y-93308841D01*
X120094160Y-93389653D01*
X120174972Y-93524340D01*
X120255784Y-93605152D01*
X120390471Y-93685964D01*
X120471284Y-93712902D01*
X120579033Y-93712902D01*
X120686783Y-93659027D01*
X120740658Y-93605152D01*
X120794532Y-93497402D01*
X120794532Y-93443528D01*
X120605971Y-93254966D01*
X120498221Y-93362715D01*
X121090844Y-93254966D02*
X120525158Y-92689280D01*
X120740658Y-92473781D01*
X120821470Y-92446844D01*
X120875345Y-92446844D01*
X120956157Y-92473781D01*
X121036969Y-92554593D01*
X121063906Y-92635406D01*
X121063906Y-92689280D01*
X121036969Y-92770093D01*
X120821470Y-92985592D01*
X121117781Y-92204407D02*
X121117781Y-92150532D01*
X121144719Y-92069720D01*
X121279406Y-91935033D01*
X121360218Y-91908096D01*
X121414093Y-91908096D01*
X121494905Y-91935033D01*
X121548780Y-91988908D01*
X121602654Y-92096658D01*
X121602654Y-92743155D01*
X121952841Y-92392969D01*
X121656529Y-91665659D02*
X121656529Y-91611784D01*
X121683467Y-91530972D01*
X121818154Y-91396285D01*
X121898966Y-91369348D01*
X121952841Y-91369348D01*
X122033653Y-91396285D01*
X122087528Y-91450160D01*
X122141402Y-91557910D01*
X122141402Y-92204407D01*
X122491589Y-91854221D01*
X120282722Y-100605592D02*
X120201910Y-100632529D01*
X120121097Y-100713341D01*
X120067223Y-100821091D01*
X120067223Y-100928841D01*
X120094160Y-101009653D01*
X120174972Y-101144340D01*
X120255784Y-101225152D01*
X120390471Y-101305964D01*
X120471284Y-101332902D01*
X120579033Y-101332902D01*
X120686783Y-101279027D01*
X120740658Y-101225152D01*
X120794532Y-101117402D01*
X120794532Y-101063528D01*
X120605971Y-100874966D01*
X120498221Y-100982715D01*
X121090844Y-100874966D02*
X120525158Y-100309280D01*
X120740658Y-100093781D01*
X120821470Y-100066844D01*
X120875345Y-100066844D01*
X120956157Y-100093781D01*
X121036969Y-100174593D01*
X121063906Y-100255406D01*
X121063906Y-100309280D01*
X121036969Y-100390093D01*
X120821470Y-100605592D01*
X121117781Y-99824407D02*
X121117781Y-99770532D01*
X121144719Y-99689720D01*
X121279406Y-99555033D01*
X121360218Y-99528096D01*
X121414093Y-99528096D01*
X121494905Y-99555033D01*
X121548780Y-99608908D01*
X121602654Y-99716658D01*
X121602654Y-100363155D01*
X121952841Y-100012969D01*
X121737341Y-99097097D02*
X121791216Y-99043223D01*
X121872028Y-99016285D01*
X121925903Y-99016285D01*
X122006715Y-99043223D01*
X122141402Y-99124035D01*
X122276089Y-99258722D01*
X122356902Y-99393409D01*
X122383839Y-99474221D01*
X122383839Y-99528096D01*
X122356902Y-99608908D01*
X122303027Y-99662783D01*
X122222215Y-99689720D01*
X122168340Y-99689720D01*
X122087528Y-99662783D01*
X121952841Y-99581971D01*
X121818154Y-99447284D01*
X121737341Y-99312597D01*
X121710404Y-99231784D01*
X121710404Y-99177910D01*
X121737341Y-99097097D01*
X120336597Y-83525964D02*
X120605971Y-83256590D01*
X120444346Y-83741463D02*
X120067223Y-82987216D01*
X120821470Y-83364340D01*
X120767595Y-82340719D02*
X120686783Y-82367656D01*
X120605971Y-82448468D01*
X120552096Y-82556218D01*
X120552096Y-82663967D01*
X120579033Y-82744780D01*
X120659845Y-82879467D01*
X120740658Y-82960279D01*
X120875345Y-83041091D01*
X120956157Y-83068028D01*
X121063906Y-83068028D01*
X121171656Y-83014154D01*
X121225531Y-82960279D01*
X121279406Y-82852529D01*
X121279406Y-82798654D01*
X121090844Y-82610093D01*
X120983094Y-82717842D01*
X121575717Y-82610093D02*
X121010032Y-82044407D01*
X121898966Y-82286844D01*
X121333280Y-81721158D01*
X122168340Y-82017470D02*
X121602654Y-81451784D01*
X121737341Y-81317097D01*
X121845091Y-81263223D01*
X121952841Y-81263223D01*
X122033653Y-81290160D01*
X122168340Y-81370972D01*
X122249152Y-81451784D01*
X122329964Y-81586471D01*
X122356902Y-81667284D01*
X122356902Y-81775033D01*
X122303027Y-81882783D01*
X122168340Y-82017470D01*
X94671158Y-82583155D02*
X94590346Y-82610093D01*
X94509534Y-82690905D01*
X94455659Y-82798654D01*
X94455659Y-82906404D01*
X94482597Y-82987216D01*
X94563409Y-83121903D01*
X94644221Y-83202715D01*
X94778908Y-83283528D01*
X94859720Y-83310465D01*
X94967470Y-83310465D01*
X95075219Y-83256590D01*
X95129094Y-83202715D01*
X95182969Y-83094966D01*
X95182969Y-83041091D01*
X94994407Y-82852529D01*
X94886658Y-82960279D01*
X95479280Y-82852529D02*
X94913595Y-82286844D01*
X95802529Y-82529280D01*
X95236844Y-81963595D01*
X96071903Y-82259906D02*
X95506218Y-81694221D01*
X95640905Y-81559534D01*
X95748654Y-81505659D01*
X95856404Y-81505659D01*
X95937216Y-81532597D01*
X96071903Y-81613409D01*
X96152715Y-81694221D01*
X96233528Y-81828908D01*
X96260465Y-81909720D01*
X96260465Y-82017470D01*
X96206590Y-82125219D01*
X96071903Y-82259906D01*
X121023375Y-90728435D02*
X120565439Y-90647622D01*
X120700126Y-91051683D02*
X120134441Y-90485998D01*
X120349940Y-90270499D01*
X120430752Y-90243561D01*
X120484627Y-90243561D01*
X120565439Y-90270499D01*
X120646251Y-90351311D01*
X120673189Y-90432123D01*
X120673189Y-90485998D01*
X120646251Y-90566810D01*
X120430752Y-90782309D01*
X120700126Y-89920312D02*
X121158062Y-90378248D01*
X121238874Y-90405186D01*
X121292749Y-90405186D01*
X121373561Y-90378248D01*
X121481311Y-90270499D01*
X121508248Y-90189687D01*
X121508248Y-90135812D01*
X121481311Y-90055000D01*
X121023375Y-89597064D01*
X121858435Y-89893375D02*
X121292749Y-89327690D01*
X122181683Y-89570126D01*
X121615998Y-89004441D01*
X94698096Y-64776218D02*
X94617284Y-64803155D01*
X94536471Y-64883967D01*
X94482597Y-64991717D01*
X94482597Y-65099467D01*
X94509534Y-65180279D01*
X94590346Y-65314966D01*
X94671158Y-65395778D01*
X94805845Y-65476590D01*
X94886658Y-65503528D01*
X94994407Y-65503528D01*
X95102157Y-65449653D01*
X95156032Y-65395778D01*
X95209906Y-65288028D01*
X95209906Y-65234154D01*
X95021345Y-65045592D01*
X94913595Y-65153341D01*
X95506218Y-65045592D02*
X94940532Y-64479906D01*
X95156032Y-64264407D01*
X95236844Y-64237470D01*
X95290719Y-64237470D01*
X95371531Y-64264407D01*
X95452343Y-64345219D01*
X95479280Y-64426032D01*
X95479280Y-64479906D01*
X95452343Y-64560719D01*
X95236844Y-64776218D01*
X95613967Y-63806471D02*
X95667842Y-63752597D01*
X95748654Y-63725659D01*
X95802529Y-63725659D01*
X95883341Y-63752597D01*
X96018028Y-63833409D01*
X96152715Y-63968096D01*
X96233528Y-64102783D01*
X96260465Y-64183595D01*
X96260465Y-64237470D01*
X96233528Y-64318282D01*
X96179653Y-64372157D01*
X96098841Y-64399094D01*
X96044966Y-64399094D01*
X95964154Y-64372157D01*
X95829467Y-64291345D01*
X95694780Y-64156658D01*
X95613967Y-64021971D01*
X95587030Y-63941158D01*
X95587030Y-63887284D01*
X95613967Y-63806471D01*
X94598096Y-67306218D02*
X94517284Y-67333155D01*
X94436471Y-67413967D01*
X94382597Y-67521717D01*
X94382597Y-67629467D01*
X94409534Y-67710279D01*
X94490346Y-67844966D01*
X94571158Y-67925778D01*
X94705845Y-68006590D01*
X94786658Y-68033528D01*
X94894407Y-68033528D01*
X95002157Y-67979653D01*
X95056032Y-67925778D01*
X95109906Y-67818028D01*
X95109906Y-67764154D01*
X94921345Y-67575592D01*
X94813595Y-67683341D01*
X95406218Y-67575592D02*
X94840532Y-67009906D01*
X95056032Y-66794407D01*
X95136844Y-66767470D01*
X95190719Y-66767470D01*
X95271531Y-66794407D01*
X95352343Y-66875219D01*
X95379280Y-66956032D01*
X95379280Y-67009906D01*
X95352343Y-67090719D01*
X95136844Y-67306218D01*
X96268215Y-66713595D02*
X95944966Y-67036844D01*
X96106590Y-66875219D02*
X95540905Y-66309534D01*
X95567842Y-66444221D01*
X95567842Y-66551971D01*
X95540905Y-66632783D01*
X120105473Y-67854966D02*
X120859720Y-68232089D01*
X120482597Y-67477842D01*
X121182969Y-67854966D02*
X121290719Y-67801091D01*
X121425406Y-67666404D01*
X121452343Y-67585592D01*
X121452343Y-67531717D01*
X121425406Y-67450905D01*
X121371531Y-67397030D01*
X121290719Y-67370093D01*
X121236844Y-67370093D01*
X121156032Y-67397030D01*
X121021345Y-67477842D01*
X120940532Y-67504780D01*
X120886658Y-67504780D01*
X120805845Y-67477842D01*
X120751971Y-67423967D01*
X120725033Y-67343155D01*
X120725033Y-67289280D01*
X120751971Y-67208468D01*
X120886658Y-67073781D01*
X120994407Y-67019906D01*
X121613967Y-66939094D02*
X121883341Y-67208468D01*
X121129094Y-66831345D02*
X121613967Y-66939094D01*
X121506218Y-66454221D01*
X122206590Y-66831345D02*
X122314340Y-66777470D01*
X122449027Y-66642783D01*
X122475964Y-66561971D01*
X122475964Y-66508096D01*
X122449027Y-66427284D01*
X122395152Y-66373409D01*
X122314340Y-66346471D01*
X122260465Y-66346471D01*
X122179653Y-66373409D01*
X122044966Y-66454221D01*
X121964154Y-66481158D01*
X121910279Y-66481158D01*
X121829467Y-66454221D01*
X121775592Y-66400346D01*
X121748654Y-66319534D01*
X121748654Y-66265659D01*
X121775592Y-66184847D01*
X121910279Y-66050160D01*
X122018028Y-65996285D01*
X94698096Y-90176218D02*
X94617284Y-90203155D01*
X94536471Y-90283967D01*
X94482597Y-90391717D01*
X94482597Y-90499467D01*
X94509534Y-90580279D01*
X94590346Y-90714966D01*
X94671158Y-90795778D01*
X94805845Y-90876590D01*
X94886658Y-90903528D01*
X94994407Y-90903528D01*
X95102157Y-90849653D01*
X95156032Y-90795778D01*
X95209906Y-90688028D01*
X95209906Y-90634154D01*
X95021345Y-90445592D01*
X94913595Y-90553341D01*
X95506218Y-90445592D02*
X94940532Y-89879906D01*
X95156032Y-89664407D01*
X95236844Y-89637470D01*
X95290719Y-89637470D01*
X95371531Y-89664407D01*
X95452343Y-89745219D01*
X95479280Y-89826032D01*
X95479280Y-89879906D01*
X95452343Y-89960719D01*
X95236844Y-90176218D01*
X95829467Y-89475845D02*
X95748654Y-89502783D01*
X95694780Y-89502783D01*
X95613967Y-89475845D01*
X95587030Y-89448908D01*
X95560093Y-89368096D01*
X95560093Y-89314221D01*
X95587030Y-89233409D01*
X95694780Y-89125659D01*
X95775592Y-89098722D01*
X95829467Y-89098722D01*
X95910279Y-89125659D01*
X95937216Y-89152597D01*
X95964154Y-89233409D01*
X95964154Y-89287284D01*
X95937216Y-89368096D01*
X95829467Y-89475845D01*
X95802529Y-89556658D01*
X95802529Y-89610532D01*
X95829467Y-89691345D01*
X95937216Y-89799094D01*
X96018028Y-89826032D01*
X96071903Y-89826032D01*
X96152715Y-89799094D01*
X96260465Y-89691345D01*
X96287402Y-89610532D01*
X96287402Y-89556658D01*
X96260465Y-89475845D01*
X96152715Y-89368096D01*
X96071903Y-89341158D01*
X96018028Y-89341158D01*
X95937216Y-89368096D01*
X94174722Y-113305592D02*
X94093910Y-113332529D01*
X94013097Y-113413341D01*
X93959223Y-113521091D01*
X93959223Y-113628841D01*
X93986160Y-113709653D01*
X94066972Y-113844340D01*
X94147784Y-113925152D01*
X94282471Y-114005964D01*
X94363284Y-114032902D01*
X94471033Y-114032902D01*
X94578783Y-113979027D01*
X94632658Y-113925152D01*
X94686532Y-113817402D01*
X94686532Y-113763528D01*
X94497971Y-113574966D01*
X94390221Y-113682715D01*
X94982844Y-113574966D02*
X94417158Y-113009280D01*
X94632658Y-112793781D01*
X94713470Y-112766844D01*
X94767345Y-112766844D01*
X94848157Y-112793781D01*
X94928969Y-112874593D01*
X94955906Y-112955406D01*
X94955906Y-113009280D01*
X94928969Y-113090093D01*
X94713470Y-113305592D01*
X95844841Y-112712969D02*
X95521592Y-113036218D01*
X95683216Y-112874593D02*
X95117531Y-112308908D01*
X95144468Y-112443595D01*
X95144468Y-112551345D01*
X95117531Y-112632157D01*
X95790966Y-111635473D02*
X95521592Y-111904847D01*
X95764028Y-112201158D01*
X95764028Y-112147284D01*
X95790966Y-112066471D01*
X95925653Y-111931784D01*
X96006465Y-111904847D01*
X96060340Y-111904847D01*
X96141152Y-111931784D01*
X96275839Y-112066471D01*
X96302776Y-112147284D01*
X96302776Y-112201158D01*
X96275839Y-112281971D01*
X96141152Y-112416658D01*
X96060340Y-112443595D01*
X96006465Y-112443595D01*
X120282722Y-98075592D02*
X120201910Y-98102529D01*
X120121097Y-98183341D01*
X120067223Y-98291091D01*
X120067223Y-98398841D01*
X120094160Y-98479653D01*
X120174972Y-98614340D01*
X120255784Y-98695152D01*
X120390471Y-98775964D01*
X120471284Y-98802902D01*
X120579033Y-98802902D01*
X120686783Y-98749027D01*
X120740658Y-98695152D01*
X120794532Y-98587402D01*
X120794532Y-98533528D01*
X120605971Y-98344966D01*
X120498221Y-98452715D01*
X121090844Y-98344966D02*
X120525158Y-97779280D01*
X120740658Y-97563781D01*
X120821470Y-97536844D01*
X120875345Y-97536844D01*
X120956157Y-97563781D01*
X121036969Y-97644593D01*
X121063906Y-97725406D01*
X121063906Y-97779280D01*
X121036969Y-97860093D01*
X120821470Y-98075592D01*
X121117781Y-97294407D02*
X121117781Y-97240532D01*
X121144719Y-97159720D01*
X121279406Y-97025033D01*
X121360218Y-96998096D01*
X121414093Y-96998096D01*
X121494905Y-97025033D01*
X121548780Y-97078908D01*
X121602654Y-97186658D01*
X121602654Y-97833155D01*
X121952841Y-97482969D01*
X122491589Y-96944221D02*
X122168340Y-97267470D01*
X122329964Y-97105845D02*
X121764279Y-96540160D01*
X121791216Y-96674847D01*
X121791216Y-96782597D01*
X121764279Y-96863409D01*
X120282722Y-87905592D02*
X120201910Y-87932529D01*
X120121097Y-88013341D01*
X120067223Y-88121091D01*
X120067223Y-88228841D01*
X120094160Y-88309653D01*
X120174972Y-88444340D01*
X120255784Y-88525152D01*
X120390471Y-88605964D01*
X120471284Y-88632902D01*
X120579033Y-88632902D01*
X120686783Y-88579027D01*
X120740658Y-88525152D01*
X120794532Y-88417402D01*
X120794532Y-88363528D01*
X120605971Y-88174966D01*
X120498221Y-88282715D01*
X121090844Y-88174966D02*
X120525158Y-87609280D01*
X120740658Y-87393781D01*
X120821470Y-87366844D01*
X120875345Y-87366844D01*
X120956157Y-87393781D01*
X121036969Y-87474593D01*
X121063906Y-87555406D01*
X121063906Y-87609280D01*
X121036969Y-87690093D01*
X120821470Y-87905592D01*
X121117781Y-87124407D02*
X121117781Y-87070532D01*
X121144719Y-86989720D01*
X121279406Y-86855033D01*
X121360218Y-86828096D01*
X121414093Y-86828096D01*
X121494905Y-86855033D01*
X121548780Y-86908908D01*
X121602654Y-87016658D01*
X121602654Y-87663155D01*
X121952841Y-87312969D01*
X121872028Y-86262410D02*
X121764279Y-86370160D01*
X121737341Y-86450972D01*
X121737341Y-86504847D01*
X121764279Y-86639534D01*
X121845091Y-86774221D01*
X122060590Y-86989720D01*
X122141402Y-87016658D01*
X122195277Y-87016658D01*
X122276089Y-86989720D01*
X122383839Y-86881971D01*
X122410776Y-86801158D01*
X122410776Y-86747284D01*
X122383839Y-86666471D01*
X122249152Y-86531784D01*
X122168340Y-86504847D01*
X122114465Y-86504847D01*
X122033653Y-86531784D01*
X121925903Y-86639534D01*
X121898966Y-86720346D01*
X121898966Y-86774221D01*
X121925903Y-86855033D01*
X100675476Y-115308809D02*
X100789761Y-115346904D01*
X100980238Y-115346904D01*
X101056428Y-115308809D01*
X101094523Y-115270714D01*
X101132619Y-115194523D01*
X101132619Y-115118333D01*
X101094523Y-115042142D01*
X101056428Y-115004047D01*
X100980238Y-114965952D01*
X100827857Y-114927857D01*
X100751666Y-114889761D01*
X100713571Y-114851666D01*
X100675476Y-114775476D01*
X100675476Y-114699285D01*
X100713571Y-114623095D01*
X100751666Y-114585000D01*
X100827857Y-114546904D01*
X101018333Y-114546904D01*
X101132619Y-114585000D01*
X101399285Y-114546904D02*
X101589761Y-115346904D01*
X101742142Y-114775476D01*
X101894523Y-115346904D01*
X102085000Y-114546904D01*
X102846904Y-115270714D02*
X102808809Y-115308809D01*
X102694523Y-115346904D01*
X102618333Y-115346904D01*
X102504047Y-115308809D01*
X102427857Y-115232619D01*
X102389761Y-115156428D01*
X102351666Y-115004047D01*
X102351666Y-114889761D01*
X102389761Y-114737380D01*
X102427857Y-114661190D01*
X102504047Y-114585000D01*
X102618333Y-114546904D01*
X102694523Y-114546904D01*
X102808809Y-114585000D01*
X102846904Y-114623095D01*
X103570714Y-115346904D02*
X103189761Y-115346904D01*
X103189761Y-114546904D01*
X103837380Y-115346904D02*
X103837380Y-114546904D01*
X104294523Y-115346904D02*
X103951666Y-114889761D01*
X104294523Y-114546904D02*
X103837380Y-115004047D01*
X94671158Y-95283155D02*
X94590346Y-95310093D01*
X94509534Y-95390905D01*
X94455659Y-95498654D01*
X94455659Y-95606404D01*
X94482597Y-95687216D01*
X94563409Y-95821903D01*
X94644221Y-95902715D01*
X94778908Y-95983528D01*
X94859720Y-96010465D01*
X94967470Y-96010465D01*
X95075219Y-95956590D01*
X95129094Y-95902715D01*
X95182969Y-95794966D01*
X95182969Y-95741091D01*
X94994407Y-95552529D01*
X94886658Y-95660279D01*
X95479280Y-95552529D02*
X94913595Y-94986844D01*
X95802529Y-95229280D01*
X95236844Y-94663595D01*
X96071903Y-94959906D02*
X95506218Y-94394221D01*
X95640905Y-94259534D01*
X95748654Y-94205659D01*
X95856404Y-94205659D01*
X95937216Y-94232597D01*
X96071903Y-94313409D01*
X96152715Y-94394221D01*
X96233528Y-94528908D01*
X96260465Y-94609720D01*
X96260465Y-94717470D01*
X96206590Y-94825219D01*
X96071903Y-94959906D01*
X94028722Y-100605592D02*
X93947910Y-100632529D01*
X93867097Y-100713341D01*
X93813223Y-100821091D01*
X93813223Y-100928841D01*
X93840160Y-101009653D01*
X93920972Y-101144340D01*
X94001784Y-101225152D01*
X94136471Y-101305964D01*
X94217284Y-101332902D01*
X94325033Y-101332902D01*
X94432783Y-101279027D01*
X94486658Y-101225152D01*
X94540532Y-101117402D01*
X94540532Y-101063528D01*
X94351971Y-100874966D01*
X94244221Y-100982715D01*
X94836844Y-100874966D02*
X94271158Y-100309280D01*
X94486658Y-100093781D01*
X94567470Y-100066844D01*
X94621345Y-100066844D01*
X94702157Y-100093781D01*
X94782969Y-100174593D01*
X94809906Y-100255406D01*
X94809906Y-100309280D01*
X94782969Y-100390093D01*
X94567470Y-100605592D01*
X95698841Y-100012969D02*
X95375592Y-100336218D01*
X95537216Y-100174593D02*
X94971531Y-99608908D01*
X94998468Y-99743595D01*
X94998468Y-99851345D01*
X94971531Y-99932157D01*
X96237589Y-99474221D02*
X95914340Y-99797470D01*
X96075964Y-99635845D02*
X95510279Y-99070160D01*
X95537216Y-99204847D01*
X95537216Y-99312597D01*
X95510279Y-99393409D01*
X94798096Y-87606218D02*
X94717284Y-87633155D01*
X94636471Y-87713967D01*
X94582597Y-87821717D01*
X94582597Y-87929467D01*
X94609534Y-88010279D01*
X94690346Y-88144966D01*
X94771158Y-88225778D01*
X94905845Y-88306590D01*
X94986658Y-88333528D01*
X95094407Y-88333528D01*
X95202157Y-88279653D01*
X95256032Y-88225778D01*
X95309906Y-88118028D01*
X95309906Y-88064154D01*
X95121345Y-87875592D01*
X95013595Y-87983341D01*
X95606218Y-87875592D02*
X95040532Y-87309906D01*
X95256032Y-87094407D01*
X95336844Y-87067470D01*
X95390719Y-87067470D01*
X95471531Y-87094407D01*
X95552343Y-87175219D01*
X95579280Y-87256032D01*
X95579280Y-87309906D01*
X95552343Y-87390719D01*
X95336844Y-87606218D01*
X95552343Y-86798096D02*
X95929467Y-86420972D01*
X96252715Y-87229094D01*
X94698096Y-80016218D02*
X94617284Y-80043155D01*
X94536471Y-80123967D01*
X94482597Y-80231717D01*
X94482597Y-80339467D01*
X94509534Y-80420279D01*
X94590346Y-80554966D01*
X94671158Y-80635778D01*
X94805845Y-80716590D01*
X94886658Y-80743528D01*
X94994407Y-80743528D01*
X95102157Y-80689653D01*
X95156032Y-80635778D01*
X95209906Y-80528028D01*
X95209906Y-80474154D01*
X95021345Y-80285592D01*
X94913595Y-80393341D01*
X95506218Y-80285592D02*
X94940532Y-79719906D01*
X95156032Y-79504407D01*
X95236844Y-79477470D01*
X95290719Y-79477470D01*
X95371531Y-79504407D01*
X95452343Y-79585219D01*
X95479280Y-79666032D01*
X95479280Y-79719906D01*
X95452343Y-79800719D01*
X95236844Y-80016218D01*
X95775592Y-78884847D02*
X95506218Y-79154221D01*
X95748654Y-79450532D01*
X95748654Y-79396658D01*
X95775592Y-79315845D01*
X95910279Y-79181158D01*
X95991091Y-79154221D01*
X96044966Y-79154221D01*
X96125778Y-79181158D01*
X96260465Y-79315845D01*
X96287402Y-79396658D01*
X96287402Y-79450532D01*
X96260465Y-79531345D01*
X96125778Y-79666032D01*
X96044966Y-79692969D01*
X95991091Y-79692969D01*
X94671158Y-107983155D02*
X94590346Y-108010093D01*
X94509534Y-108090905D01*
X94455659Y-108198654D01*
X94455659Y-108306404D01*
X94482597Y-108387216D01*
X94563409Y-108521903D01*
X94644221Y-108602715D01*
X94778908Y-108683528D01*
X94859720Y-108710465D01*
X94967470Y-108710465D01*
X95075219Y-108656590D01*
X95129094Y-108602715D01*
X95182969Y-108494966D01*
X95182969Y-108441091D01*
X94994407Y-108252529D01*
X94886658Y-108360279D01*
X95479280Y-108252529D02*
X94913595Y-107686844D01*
X95802529Y-107929280D01*
X95236844Y-107363595D01*
X96071903Y-107659906D02*
X95506218Y-107094221D01*
X95640905Y-106959534D01*
X95748654Y-106905659D01*
X95856404Y-106905659D01*
X95937216Y-106932597D01*
X96071903Y-107013409D01*
X96152715Y-107094221D01*
X96233528Y-107228908D01*
X96260465Y-107309720D01*
X96260465Y-107417470D01*
X96206590Y-107525219D01*
X96071903Y-107659906D01*
X120282722Y-110765592D02*
X120201910Y-110792529D01*
X120121097Y-110873341D01*
X120067223Y-110981091D01*
X120067223Y-111088841D01*
X120094160Y-111169653D01*
X120174972Y-111304340D01*
X120255784Y-111385152D01*
X120390471Y-111465964D01*
X120471284Y-111492902D01*
X120579033Y-111492902D01*
X120686783Y-111439027D01*
X120740658Y-111385152D01*
X120794532Y-111277402D01*
X120794532Y-111223528D01*
X120605971Y-111034966D01*
X120498221Y-111142715D01*
X121090844Y-111034966D02*
X120525158Y-110469280D01*
X120740658Y-110253781D01*
X120821470Y-110226844D01*
X120875345Y-110226844D01*
X120956157Y-110253781D01*
X121036969Y-110334593D01*
X121063906Y-110415406D01*
X121063906Y-110469280D01*
X121036969Y-110550093D01*
X120821470Y-110765592D01*
X121952841Y-110172969D02*
X121629592Y-110496218D01*
X121791216Y-110334593D02*
X121225531Y-109768908D01*
X121252468Y-109903595D01*
X121252468Y-110011345D01*
X121225531Y-110092157D01*
X121575717Y-109418722D02*
X121952841Y-109041598D01*
X122276089Y-109849720D01*
X120339788Y-78318773D02*
X120609162Y-78049399D01*
X120447537Y-78534272D02*
X120070414Y-77780025D01*
X120824661Y-78157149D01*
X121013223Y-77968587D02*
X120447537Y-77402902D01*
X120582224Y-77268215D01*
X120689974Y-77214340D01*
X120797723Y-77214340D01*
X120878536Y-77241277D01*
X121013223Y-77322089D01*
X121094035Y-77402902D01*
X121174847Y-77537589D01*
X121201784Y-77618401D01*
X121201784Y-77726150D01*
X121147910Y-77833900D01*
X121013223Y-77968587D01*
X121848282Y-77025778D02*
X121848282Y-77079653D01*
X121794407Y-77187402D01*
X121740532Y-77241277D01*
X121632783Y-77295152D01*
X121525033Y-77295152D01*
X121444221Y-77268215D01*
X121309534Y-77187402D01*
X121228722Y-77106590D01*
X121147910Y-76971903D01*
X121120972Y-76891091D01*
X121120972Y-76783341D01*
X121174847Y-76675592D01*
X121228722Y-76621717D01*
X121336471Y-76567842D01*
X121390346Y-76567842D01*
X122063781Y-77025778D02*
X122494780Y-76594780D01*
X121929094Y-75921345D02*
X122683341Y-76298468D01*
X122306218Y-75544221D01*
X123383714Y-75598096D02*
X122925778Y-75517284D01*
X123060465Y-75921345D02*
X122494780Y-75355659D01*
X122710279Y-75140160D01*
X122791091Y-75113223D01*
X122844966Y-75113223D01*
X122925778Y-75140160D01*
X123006590Y-75220972D01*
X123033528Y-75301784D01*
X123033528Y-75355659D01*
X123006590Y-75436471D01*
X122791091Y-75651971D01*
X123329839Y-75059348D02*
X123518401Y-74870786D01*
X123895524Y-75086285D02*
X123626150Y-75355659D01*
X123060465Y-74789974D01*
X123329839Y-74520600D01*
X124030211Y-74358975D02*
X123841650Y-74547537D01*
X124137961Y-74843849D02*
X123572276Y-74278163D01*
X123841650Y-74008789D01*
X120074847Y-75275592D02*
X120425033Y-74925406D01*
X120451971Y-75329467D01*
X120532783Y-75248654D01*
X120613595Y-75221717D01*
X120667470Y-75221717D01*
X120748282Y-75248654D01*
X120882969Y-75383341D01*
X120909906Y-75464154D01*
X120909906Y-75518028D01*
X120882969Y-75598841D01*
X120721345Y-75760465D01*
X120640532Y-75787402D01*
X120586658Y-75787402D01*
X120586658Y-74763781D02*
X121340905Y-75140905D01*
X120963781Y-74386658D01*
X121098468Y-74251971D02*
X121448654Y-73901784D01*
X121475592Y-74305845D01*
X121556404Y-74225033D01*
X121637216Y-74198096D01*
X121691091Y-74198096D01*
X121771903Y-74225033D01*
X121906590Y-74359720D01*
X121933528Y-74440532D01*
X121933528Y-74494407D01*
X121906590Y-74575219D01*
X121744966Y-74736844D01*
X121664154Y-74763781D01*
X121610279Y-74763781D01*
X94598096Y-72396218D02*
X94517284Y-72423155D01*
X94436471Y-72503967D01*
X94382597Y-72611717D01*
X94382597Y-72719467D01*
X94409534Y-72800279D01*
X94490346Y-72934966D01*
X94571158Y-73015778D01*
X94705845Y-73096590D01*
X94786658Y-73123528D01*
X94894407Y-73123528D01*
X95002157Y-73069653D01*
X95056032Y-73015778D01*
X95109906Y-72908028D01*
X95109906Y-72854154D01*
X94921345Y-72665592D01*
X94813595Y-72773341D01*
X95406218Y-72665592D02*
X94840532Y-72099906D01*
X95056032Y-71884407D01*
X95136844Y-71857470D01*
X95190719Y-71857470D01*
X95271531Y-71884407D01*
X95352343Y-71965219D01*
X95379280Y-72046032D01*
X95379280Y-72099906D01*
X95352343Y-72180719D01*
X95136844Y-72396218D01*
X95433155Y-71615033D02*
X95433155Y-71561158D01*
X95460093Y-71480346D01*
X95594780Y-71345659D01*
X95675592Y-71318722D01*
X95729467Y-71318722D01*
X95810279Y-71345659D01*
X95864154Y-71399534D01*
X95918028Y-71507284D01*
X95918028Y-72153781D01*
X96268215Y-71803595D01*
X120282722Y-105685592D02*
X120201910Y-105712529D01*
X120121097Y-105793341D01*
X120067223Y-105901091D01*
X120067223Y-106008841D01*
X120094160Y-106089653D01*
X120174972Y-106224340D01*
X120255784Y-106305152D01*
X120390471Y-106385964D01*
X120471284Y-106412902D01*
X120579033Y-106412902D01*
X120686783Y-106359027D01*
X120740658Y-106305152D01*
X120794532Y-106197402D01*
X120794532Y-106143528D01*
X120605971Y-105954966D01*
X120498221Y-106062715D01*
X121090844Y-105954966D02*
X120525158Y-105389280D01*
X120740658Y-105173781D01*
X120821470Y-105146844D01*
X120875345Y-105146844D01*
X120956157Y-105173781D01*
X121036969Y-105254593D01*
X121063906Y-105335406D01*
X121063906Y-105389280D01*
X121036969Y-105470093D01*
X120821470Y-105685592D01*
X121952841Y-105092969D02*
X121629592Y-105416218D01*
X121791216Y-105254593D02*
X121225531Y-104688908D01*
X121252468Y-104823595D01*
X121252468Y-104931345D01*
X121225531Y-105012157D01*
X121952841Y-104446471D02*
X121872028Y-104473409D01*
X121818154Y-104473409D01*
X121737341Y-104446471D01*
X121710404Y-104419534D01*
X121683467Y-104338722D01*
X121683467Y-104284847D01*
X121710404Y-104204035D01*
X121818154Y-104096285D01*
X121898966Y-104069348D01*
X121952841Y-104069348D01*
X122033653Y-104096285D01*
X122060590Y-104123223D01*
X122087528Y-104204035D01*
X122087528Y-104257910D01*
X122060590Y-104338722D01*
X121952841Y-104446471D01*
X121925903Y-104527284D01*
X121925903Y-104581158D01*
X121952841Y-104661971D01*
X122060590Y-104769720D01*
X122141402Y-104796658D01*
X122195277Y-104796658D01*
X122276089Y-104769720D01*
X122383839Y-104661971D01*
X122410776Y-104581158D01*
X122410776Y-104527284D01*
X122383839Y-104446471D01*
X122276089Y-104338722D01*
X122195277Y-104311784D01*
X122141402Y-104311784D01*
X122060590Y-104338722D01*
X94128722Y-110765592D02*
X94047910Y-110792529D01*
X93967097Y-110873341D01*
X93913223Y-110981091D01*
X93913223Y-111088841D01*
X93940160Y-111169653D01*
X94020972Y-111304340D01*
X94101784Y-111385152D01*
X94236471Y-111465964D01*
X94317284Y-111492902D01*
X94425033Y-111492902D01*
X94532783Y-111439027D01*
X94586658Y-111385152D01*
X94640532Y-111277402D01*
X94640532Y-111223528D01*
X94451971Y-111034966D01*
X94344221Y-111142715D01*
X94936844Y-111034966D02*
X94371158Y-110469280D01*
X94586658Y-110253781D01*
X94667470Y-110226844D01*
X94721345Y-110226844D01*
X94802157Y-110253781D01*
X94882969Y-110334593D01*
X94909906Y-110415406D01*
X94909906Y-110469280D01*
X94882969Y-110550093D01*
X94667470Y-110765592D01*
X95798841Y-110172969D02*
X95475592Y-110496218D01*
X95637216Y-110334593D02*
X95071531Y-109768908D01*
X95098468Y-109903595D01*
X95098468Y-110011345D01*
X95071531Y-110092157D01*
X95906590Y-109310972D02*
X96283714Y-109688096D01*
X95556404Y-109230160D02*
X95825778Y-109768908D01*
X96175964Y-109418722D01*
X94698096Y-74936218D02*
X94617284Y-74963155D01*
X94536471Y-75043967D01*
X94482597Y-75151717D01*
X94482597Y-75259467D01*
X94509534Y-75340279D01*
X94590346Y-75474966D01*
X94671158Y-75555778D01*
X94805845Y-75636590D01*
X94886658Y-75663528D01*
X94994407Y-75663528D01*
X95102157Y-75609653D01*
X95156032Y-75555778D01*
X95209906Y-75448028D01*
X95209906Y-75394154D01*
X95021345Y-75205592D01*
X94913595Y-75313341D01*
X95506218Y-75205592D02*
X94940532Y-74639906D01*
X95156032Y-74424407D01*
X95236844Y-74397470D01*
X95290719Y-74397470D01*
X95371531Y-74424407D01*
X95452343Y-74505219D01*
X95479280Y-74586032D01*
X95479280Y-74639906D01*
X95452343Y-74720719D01*
X95236844Y-74936218D01*
X95452343Y-74128096D02*
X95802529Y-73777910D01*
X95829467Y-74181971D01*
X95910279Y-74101158D01*
X95991091Y-74074221D01*
X96044966Y-74074221D01*
X96125778Y-74101158D01*
X96260465Y-74235845D01*
X96287402Y-74316658D01*
X96287402Y-74370532D01*
X96260465Y-74451345D01*
X96098841Y-74612969D01*
X96018028Y-74639906D01*
X95964154Y-74639906D01*
X120282722Y-85375592D02*
X120201910Y-85402529D01*
X120121097Y-85483341D01*
X120067223Y-85591091D01*
X120067223Y-85698841D01*
X120094160Y-85779653D01*
X120174972Y-85914340D01*
X120255784Y-85995152D01*
X120390471Y-86075964D01*
X120471284Y-86102902D01*
X120579033Y-86102902D01*
X120686783Y-86049027D01*
X120740658Y-85995152D01*
X120794532Y-85887402D01*
X120794532Y-85833528D01*
X120605971Y-85644966D01*
X120498221Y-85752715D01*
X121090844Y-85644966D02*
X120525158Y-85079280D01*
X120740658Y-84863781D01*
X120821470Y-84836844D01*
X120875345Y-84836844D01*
X120956157Y-84863781D01*
X121036969Y-84944593D01*
X121063906Y-85025406D01*
X121063906Y-85079280D01*
X121036969Y-85160093D01*
X120821470Y-85375592D01*
X121117781Y-84594407D02*
X121117781Y-84540532D01*
X121144719Y-84459720D01*
X121279406Y-84325033D01*
X121360218Y-84298096D01*
X121414093Y-84298096D01*
X121494905Y-84325033D01*
X121548780Y-84378908D01*
X121602654Y-84486658D01*
X121602654Y-85133155D01*
X121952841Y-84782969D01*
X121575717Y-84028722D02*
X121952841Y-83651598D01*
X122276089Y-84459720D01*
X120271158Y-69883155D02*
X120190346Y-69910093D01*
X120109534Y-69990905D01*
X120055659Y-70098654D01*
X120055659Y-70206404D01*
X120082597Y-70287216D01*
X120163409Y-70421903D01*
X120244221Y-70502715D01*
X120378908Y-70583528D01*
X120459720Y-70610465D01*
X120567470Y-70610465D01*
X120675219Y-70556590D01*
X120729094Y-70502715D01*
X120782969Y-70394966D01*
X120782969Y-70341091D01*
X120594407Y-70152529D01*
X120486658Y-70260279D01*
X121079280Y-70152529D02*
X120513595Y-69586844D01*
X121402529Y-69829280D01*
X120836844Y-69263595D01*
X121671903Y-69559906D02*
X121106218Y-68994221D01*
X121240905Y-68859534D01*
X121348654Y-68805659D01*
X121456404Y-68805659D01*
X121537216Y-68832597D01*
X121671903Y-68913409D01*
X121752715Y-68994221D01*
X121833528Y-69128908D01*
X121860465Y-69209720D01*
X121860465Y-69317470D01*
X121806590Y-69425219D01*
X121671903Y-69559906D01*
X94698096Y-92716218D02*
X94617284Y-92743155D01*
X94536471Y-92823967D01*
X94482597Y-92931717D01*
X94482597Y-93039467D01*
X94509534Y-93120279D01*
X94590346Y-93254966D01*
X94671158Y-93335778D01*
X94805845Y-93416590D01*
X94886658Y-93443528D01*
X94994407Y-93443528D01*
X95102157Y-93389653D01*
X95156032Y-93335778D01*
X95209906Y-93228028D01*
X95209906Y-93174154D01*
X95021345Y-92985592D01*
X94913595Y-93093341D01*
X95506218Y-92985592D02*
X94940532Y-92419906D01*
X95156032Y-92204407D01*
X95236844Y-92177470D01*
X95290719Y-92177470D01*
X95371531Y-92204407D01*
X95452343Y-92285219D01*
X95479280Y-92366032D01*
X95479280Y-92419906D01*
X95452343Y-92500719D01*
X95236844Y-92716218D01*
X96098841Y-92392969D02*
X96206590Y-92285219D01*
X96233528Y-92204407D01*
X96233528Y-92150532D01*
X96206590Y-92015845D01*
X96125778Y-91881158D01*
X95910279Y-91665659D01*
X95829467Y-91638722D01*
X95775592Y-91638722D01*
X95694780Y-91665659D01*
X95587030Y-91773409D01*
X95560093Y-91854221D01*
X95560093Y-91908096D01*
X95587030Y-91988908D01*
X95721717Y-92123595D01*
X95802529Y-92150532D01*
X95856404Y-92150532D01*
X95937216Y-92123595D01*
X96044966Y-92015845D01*
X96071903Y-91935033D01*
X96071903Y-91881158D01*
X96044966Y-91800346D01*
X125542857Y-109752380D02*
X125542857Y-108752380D01*
X125876190Y-109466666D01*
X126209523Y-108752380D01*
X126209523Y-109752380D01*
X126685714Y-109752380D02*
X126685714Y-108752380D01*
X126685714Y-109228571D02*
X127257142Y-109228571D01*
X127257142Y-109752380D02*
X127257142Y-108752380D01*
X81842857Y-65952380D02*
X81842857Y-64952380D01*
X82176190Y-65666666D01*
X82509523Y-64952380D01*
X82509523Y-65952380D01*
X82985714Y-65952380D02*
X82985714Y-64952380D01*
X82985714Y-65428571D02*
X83557142Y-65428571D01*
X83557142Y-65952380D02*
X83557142Y-64952380D01*
X125742857Y-71352380D02*
X125742857Y-70352380D01*
X126076190Y-71066666D01*
X126409523Y-70352380D01*
X126409523Y-71352380D01*
X126885714Y-71352380D02*
X126885714Y-70352380D01*
X126885714Y-70828571D02*
X127457142Y-70828571D01*
X127457142Y-71352380D02*
X127457142Y-70352380D01*
X81042857Y-113652380D02*
X81042857Y-112652380D01*
X81376190Y-113366666D01*
X81709523Y-112652380D01*
X81709523Y-113652380D01*
X82185714Y-113652380D02*
X82185714Y-112652380D01*
X82185714Y-113128571D02*
X82757142Y-113128571D01*
X82757142Y-113652380D02*
X82757142Y-112652380D01*
X75166666Y-68952380D02*
X75166666Y-69666666D01*
X75119047Y-69809523D01*
X75023809Y-69904761D01*
X74880952Y-69952380D01*
X74785714Y-69952380D01*
X76166666Y-69952380D02*
X75595238Y-69952380D01*
X75880952Y-69952380D02*
X75880952Y-68952380D01*
X75785714Y-69095238D01*
X75690476Y-69190476D01*
X75595238Y-69238095D01*
D11*
X97685000Y-65952000D02*
X100692000Y-65952000D01*
X100692000Y-65952000D02*
X100692000Y-63285000D01*
X118685000Y-68285000D02*
X118685000Y-68685000D01*
X97685000Y-103885000D02*
X97685000Y-104285000D01*
X97685000Y-75885000D02*
X97685000Y-76285000D01*
X118685000Y-98785000D02*
X118685000Y-99185000D01*
X97685000Y-63285000D02*
X118685000Y-63285000D01*
X109285000Y-114285000D02*
X109685000Y-114285000D01*
X118685000Y-83485000D02*
X118685000Y-83885000D01*
X97685000Y-70785000D02*
X97685000Y-71185000D01*
X97685000Y-68285000D02*
X97685000Y-68685000D01*
X118685000Y-101285000D02*
X118685000Y-101685000D01*
X118685000Y-65685000D02*
X118685000Y-66085000D01*
X97685000Y-73385000D02*
X97685000Y-73785000D01*
X118685000Y-70785000D02*
X118685000Y-71185000D01*
X97685000Y-86085000D02*
X97685000Y-86485000D01*
X118685000Y-73385000D02*
X118685000Y-73785000D01*
X118685000Y-75885000D02*
X118685000Y-76285000D01*
X97685000Y-101285000D02*
X97685000Y-101685000D01*
X97685000Y-83485000D02*
X97685000Y-83885000D01*
X118685000Y-86085000D02*
X118685000Y-86485000D01*
X97685000Y-65685000D02*
X97685000Y-66085000D01*
X118685000Y-80985000D02*
X118685000Y-81385000D01*
X97685000Y-91085000D02*
X97685000Y-91485000D01*
X97685000Y-63285000D02*
X97685000Y-63585000D01*
X118685000Y-88585000D02*
X118685000Y-88985000D01*
X118685000Y-114285000D02*
X111885000Y-114285000D01*
X118685000Y-111485000D02*
X118685000Y-111885000D01*
X97685000Y-78385000D02*
X97685000Y-78785000D01*
X106685000Y-114285000D02*
X107085000Y-114285000D01*
X118685000Y-96185000D02*
X118685000Y-96585000D01*
X97685000Y-80985000D02*
X97685000Y-81385000D01*
X118685000Y-108885000D02*
X118685000Y-109285000D01*
X97685000Y-111485000D02*
X97685000Y-111885000D01*
X118685000Y-91085000D02*
X118685000Y-91485000D01*
X97685000Y-96185000D02*
X97685000Y-96585000D01*
X97685000Y-88585000D02*
X97685000Y-88985000D01*
X97685000Y-93685000D02*
X97685000Y-94085000D01*
X97685000Y-108885000D02*
X97685000Y-109285000D01*
X104485000Y-114285000D02*
X97685000Y-114285000D01*
X118685000Y-63285000D02*
X118685000Y-63585000D01*
X97685000Y-98785000D02*
X97685000Y-99185000D01*
X118685000Y-93685000D02*
X118685000Y-94085000D01*
X118685000Y-78385000D02*
X118685000Y-78785000D01*
X97685000Y-106385000D02*
X97685000Y-106785000D01*
X118685000Y-106385000D02*
X118685000Y-106785000D01*
X118685000Y-103885000D02*
X118685000Y-104285000D01*
X64395000Y-71226190D02*
X73025000Y-71226190D01*
X75535000Y-75100000D02*
X75975000Y-75100000D01*
X73025000Y-72560000D02*
X73435000Y-72560000D01*
X73025000Y-92160000D02*
X73435000Y-92160000D01*
X73025000Y-107400000D02*
X73435000Y-107400000D01*
X75535000Y-84540000D02*
X75975000Y-84540000D01*
X64395000Y-106490000D02*
X73025000Y-106490000D01*
X64395000Y-86170000D02*
X73025000Y-86170000D01*
X78135000Y-70870000D02*
X78135000Y-72200000D01*
X64395000Y-72643330D02*
X73025000Y-72643330D01*
X75535000Y-77640000D02*
X75975000Y-77640000D01*
X75535000Y-89620000D02*
X75975000Y-89620000D01*
X64395000Y-76010000D02*
X73025000Y-76010000D01*
X75535000Y-82000000D02*
X75975000Y-82000000D01*
X73025000Y-77640000D02*
X73435000Y-77640000D01*
X75535000Y-80180000D02*
X75975000Y-80180000D01*
X64395000Y-91250000D02*
X73025000Y-91250000D01*
X64395000Y-72052855D02*
X73025000Y-72052855D01*
X73025000Y-108120000D02*
X73435000Y-108120000D01*
X75535000Y-103040000D02*
X75975000Y-103040000D01*
X64395000Y-71816665D02*
X73025000Y-71816665D01*
X64395000Y-71698570D02*
X73025000Y-71698570D01*
X75535000Y-82720000D02*
X75975000Y-82720000D01*
X73025000Y-100500000D02*
X73435000Y-100500000D01*
X64395000Y-78550000D02*
X73025000Y-78550000D01*
X75535000Y-87080000D02*
X75975000Y-87080000D01*
X75535000Y-74380000D02*
X75975000Y-74380000D01*
X75535000Y-87800000D02*
X75975000Y-87800000D01*
X75535000Y-79460000D02*
X75975000Y-79460000D01*
X64395000Y-72170950D02*
X73025000Y-72170950D01*
X73025000Y-74380000D02*
X73435000Y-74380000D01*
X73025000Y-105580000D02*
X73435000Y-105580000D01*
X64395000Y-72997615D02*
X73025000Y-72997615D01*
X73025000Y-76920000D02*
X73435000Y-76920000D01*
X64395000Y-72761425D02*
X73025000Y-72761425D01*
X64395000Y-71344285D02*
X73025000Y-71344285D01*
X73025000Y-92880000D02*
X73435000Y-92880000D01*
X75535000Y-95420000D02*
X75975000Y-95420000D01*
X73025000Y-82000000D02*
X73435000Y-82000000D01*
X64395000Y-73470000D02*
X73025000Y-73470000D01*
X75535000Y-107400000D02*
X75975000Y-107400000D01*
X64395000Y-70870000D02*
X73025000Y-70870000D01*
X77025000Y-70870000D02*
X78135000Y-70870000D01*
X64395000Y-71934760D02*
X73025000Y-71934760D01*
X75535000Y-97240000D02*
X75975000Y-97240000D01*
X73025000Y-79460000D02*
X73435000Y-79460000D01*
X75535000Y-92160000D02*
X75975000Y-92160000D01*
X73025000Y-75100000D02*
X73435000Y-75100000D01*
X73025000Y-85260000D02*
X73435000Y-85260000D01*
X75535000Y-100500000D02*
X75975000Y-100500000D01*
X64395000Y-72879520D02*
X73025000Y-72879520D01*
X73025000Y-82720000D02*
X73435000Y-82720000D01*
X64395000Y-109090000D02*
X73025000Y-109090000D01*
X64395000Y-73351900D02*
X73025000Y-73351900D01*
X64395000Y-93790000D02*
X73025000Y-93790000D01*
X73025000Y-89620000D02*
X73435000Y-89620000D01*
X64395000Y-81090000D02*
X73025000Y-81090000D01*
X73025000Y-99780000D02*
X73435000Y-99780000D01*
X73025000Y-84540000D02*
X73435000Y-84540000D01*
X64395000Y-88710000D02*
X73025000Y-88710000D01*
X73025000Y-97960000D02*
X73435000Y-97960000D01*
X64395000Y-98870000D02*
X73025000Y-98870000D01*
X64395000Y-71580475D02*
X73025000Y-71580475D01*
X75535000Y-71840000D02*
X75915000Y-71840000D01*
X75535000Y-90340000D02*
X75975000Y-90340000D01*
X64395000Y-83630000D02*
X73025000Y-83630000D01*
X75535000Y-104860000D02*
X75975000Y-104860000D01*
X75535000Y-99780000D02*
X75975000Y-99780000D01*
X75535000Y-85260000D02*
X75975000Y-85260000D01*
X75535000Y-94700000D02*
X75975000Y-94700000D01*
X73025000Y-95420000D02*
X73435000Y-95420000D01*
X75535000Y-108120000D02*
X75975000Y-108120000D01*
X73025000Y-87800000D02*
X73435000Y-87800000D01*
X64395000Y-72289045D02*
X73025000Y-72289045D01*
X73025000Y-104860000D02*
X73435000Y-104860000D01*
X73025000Y-103040000D02*
X73435000Y-103040000D01*
X75535000Y-105580000D02*
X75975000Y-105580000D01*
X64395000Y-73115710D02*
X73025000Y-73115710D01*
X75535000Y-102320000D02*
X75975000Y-102320000D01*
X73025000Y-80180000D02*
X73435000Y-80180000D01*
X75535000Y-92880000D02*
X75975000Y-92880000D01*
X73025000Y-90340000D02*
X73435000Y-90340000D01*
X73025000Y-70870000D02*
X73025000Y-109090000D01*
X64395000Y-72407140D02*
X73025000Y-72407140D01*
X64395000Y-71108095D02*
X73025000Y-71108095D01*
X73025000Y-87080000D02*
X73435000Y-87080000D01*
X64395000Y-96330000D02*
X73025000Y-96330000D01*
X64395000Y-70990000D02*
X73025000Y-70990000D01*
X73025000Y-71840000D02*
X73435000Y-71840000D01*
X64395000Y-72525235D02*
X73025000Y-72525235D01*
X73025000Y-94700000D02*
X73435000Y-94700000D01*
X73025000Y-102320000D02*
X73435000Y-102320000D01*
X64395000Y-70870000D02*
X64395000Y-109090000D01*
X64395000Y-103950000D02*
X73025000Y-103950000D01*
X64395000Y-71462380D02*
X73025000Y-71462380D01*
X75535000Y-72560000D02*
X75915000Y-72560000D01*
X64395000Y-101410000D02*
X73025000Y-101410000D01*
X64395000Y-73233805D02*
X73025000Y-73233805D01*
X75535000Y-97960000D02*
X75975000Y-97960000D01*
X73025000Y-97240000D02*
X73435000Y-97240000D01*
X75535000Y-76920000D02*
X75975000Y-76920000D01*
%LPC*%
D12*
X105760000Y-67815000D03*
D13*
X105460000Y-64785000D03*
D12*
X110610000Y-67815000D03*
D13*
X110910000Y-64785000D03*
D14*
X98395000Y-64655000D03*
D15*
X99295000Y-64655000D03*
X99295000Y-67195000D03*
D14*
X98395000Y-67195000D03*
D16*
X99295000Y-69735000D03*
D14*
X98395000Y-69735000D03*
X98395000Y-72275000D03*
D15*
X99295000Y-72275000D03*
D14*
X98395000Y-74815000D03*
D15*
X99295000Y-74815000D03*
X99295000Y-77355000D03*
D14*
X98395000Y-77355000D03*
D15*
X99295000Y-79895000D03*
D14*
X98395000Y-79895000D03*
D16*
X99295000Y-82435000D03*
D14*
X98395000Y-82435000D03*
D15*
X99295000Y-84975000D03*
D14*
X98395000Y-84975000D03*
D15*
X99295000Y-87515000D03*
D14*
X98395000Y-87515000D03*
D15*
X99295000Y-90055000D03*
D14*
X98395000Y-90055000D03*
D15*
X99295000Y-92595000D03*
D14*
X98395000Y-92595000D03*
D16*
X99295000Y-95135000D03*
D14*
X98395000Y-95135000D03*
X98395000Y-97675000D03*
D15*
X99295000Y-97675000D03*
D14*
X98395000Y-100215000D03*
D15*
X99295000Y-100215000D03*
X99295000Y-102755000D03*
D14*
X98395000Y-102755000D03*
X98395000Y-105295000D03*
D15*
X99295000Y-105295000D03*
D14*
X98395000Y-107835000D03*
D16*
X99295000Y-107835000D03*
D14*
X98395000Y-110375000D03*
D15*
X99295000Y-110375000D03*
D14*
X98395000Y-112915000D03*
D15*
X99295000Y-112915000D03*
D14*
X117975000Y-112915000D03*
D15*
X117075000Y-112915000D03*
X117075000Y-110375000D03*
D14*
X117975000Y-110375000D03*
X117975000Y-107835000D03*
D16*
X117075000Y-107835000D03*
D14*
X117975000Y-105295000D03*
D15*
X117075000Y-105295000D03*
X117075000Y-102755000D03*
D14*
X117975000Y-102755000D03*
D15*
X117075000Y-100215000D03*
D14*
X117975000Y-100215000D03*
X117975000Y-97675000D03*
D15*
X117075000Y-97675000D03*
D14*
X117975000Y-95135000D03*
D16*
X117075000Y-95135000D03*
D15*
X117075000Y-92595000D03*
D14*
X117975000Y-92595000D03*
X117975000Y-90055000D03*
D15*
X117075000Y-90055000D03*
X117075000Y-87515000D03*
D14*
X117975000Y-87515000D03*
X117975000Y-84975000D03*
D15*
X117075000Y-84975000D03*
D16*
X117075000Y-82435000D03*
D14*
X117975000Y-82435000D03*
D15*
X117075000Y-79895000D03*
D14*
X117975000Y-79895000D03*
X117975000Y-77355000D03*
D15*
X117075000Y-77355000D03*
X117075000Y-74815000D03*
D14*
X117975000Y-74815000D03*
D15*
X117075000Y-72275000D03*
D14*
X117975000Y-72275000D03*
X117975000Y-69735000D03*
D16*
X117075000Y-69735000D03*
D14*
X117975000Y-67195000D03*
D15*
X117075000Y-67195000D03*
D14*
X117975000Y-64655000D03*
D15*
X117075000Y-64655000D03*
X105645000Y-112685000D03*
D17*
X105645000Y-113585000D03*
X108185000Y-113585000D03*
D16*
X108185000Y-112685000D03*
D15*
X110725000Y-112685000D03*
D17*
X110725000Y-113585000D03*
D18*
X126400000Y-113100000D03*
D19*
X126400000Y-113100000D03*
D18*
X77200000Y-65500000D03*
D19*
X77200000Y-65500000D03*
X126400000Y-66400000D03*
D18*
X126400000Y-66400000D03*
D19*
X76400000Y-113200000D03*
D18*
X76400000Y-113200000D03*
D16*
X77025000Y-72200000D03*
D15*
X74485000Y-72200000D03*
X77025000Y-74740000D03*
X74485000Y-74740000D03*
X77025000Y-77280000D03*
X74485000Y-77280000D03*
X77025000Y-79820000D03*
X74485000Y-79820000D03*
X77025000Y-82360000D03*
X74485000Y-82360000D03*
X77025000Y-84900000D03*
X74485000Y-84900000D03*
X77025000Y-87440000D03*
X74485000Y-87440000D03*
X77025000Y-89980000D03*
X74485000Y-89980000D03*
X77025000Y-92520000D03*
X74485000Y-92520000D03*
X77025000Y-95060000D03*
X74485000Y-95060000D03*
X77025000Y-97600000D03*
X74485000Y-97600000D03*
X77025000Y-100140000D03*
X74485000Y-100140000D03*
X77025000Y-102680000D03*
X74485000Y-102680000D03*
X77025000Y-105220000D03*
X74485000Y-105220000D03*
X77025000Y-107760000D03*
X74485000Y-107760000D03*
M02*
