G04 #@! TF.GenerationSoftware,KiCad,Pcbnew,(6.0.4)*
G04 #@! TF.CreationDate,2022-06-28T09:06:08+02:00*
G04 #@! TF.ProjectId,LogicAnalyzer,4c6f6769-6341-46e6-916c-797a65722e6b,rev?*
G04 #@! TF.SameCoordinates,Original*
G04 #@! TF.FileFunction,Legend,Bot*
G04 #@! TF.FilePolarity,Positive*
%FSLAX46Y46*%
G04 Gerber Fmt 4.6, Leading zero omitted, Abs format (unit mm)*
G04 Created by KiCad (PCBNEW (6.0.4)) date 2022-06-28 09:06:08*
%MOMM*%
%LPD*%
G01*
G04 APERTURE LIST*
%ADD10O,1.500000X1.500000*%
%ADD11O,1.800000X1.800000*%
%ADD12O,1.700000X1.700000*%
%ADD13R,1.700000X1.700000*%
%ADD14C,5.600000*%
%ADD15C,3.600000*%
G04 APERTURE END LIST*
%LPC*%
D10*
X105760000Y-67815000D03*
D11*
X105460000Y-64785000D03*
D10*
X110610000Y-67815000D03*
D11*
X110910000Y-64785000D03*
D12*
X99295000Y-64655000D03*
X99295000Y-67195000D03*
D13*
X99295000Y-69735000D03*
D12*
X99295000Y-72275000D03*
X99295000Y-74815000D03*
X99295000Y-77355000D03*
X99295000Y-79895000D03*
D13*
X99295000Y-82435000D03*
D12*
X99295000Y-84975000D03*
X99295000Y-87515000D03*
X99295000Y-90055000D03*
X99295000Y-92595000D03*
D13*
X99295000Y-95135000D03*
D12*
X99295000Y-97675000D03*
X99295000Y-100215000D03*
X99295000Y-102755000D03*
X99295000Y-105295000D03*
D13*
X99295000Y-107835000D03*
D12*
X99295000Y-110375000D03*
X99295000Y-112915000D03*
X117075000Y-112915000D03*
X117075000Y-110375000D03*
D13*
X117075000Y-107835000D03*
D12*
X117075000Y-105295000D03*
X117075000Y-102755000D03*
X117075000Y-100215000D03*
X117075000Y-97675000D03*
D13*
X117075000Y-95135000D03*
D12*
X117075000Y-92595000D03*
X117075000Y-90055000D03*
X117075000Y-87515000D03*
X117075000Y-84975000D03*
D13*
X117075000Y-82435000D03*
D12*
X117075000Y-79895000D03*
X117075000Y-77355000D03*
X117075000Y-74815000D03*
X117075000Y-72275000D03*
D13*
X117075000Y-69735000D03*
D12*
X117075000Y-67195000D03*
X117075000Y-64655000D03*
X105645000Y-112685000D03*
D13*
X108185000Y-112685000D03*
D12*
X110725000Y-112685000D03*
D14*
X126400000Y-113100000D03*
D15*
X126400000Y-113100000D03*
D14*
X77200000Y-65500000D03*
D15*
X77200000Y-65500000D03*
X126400000Y-66400000D03*
D14*
X126400000Y-66400000D03*
X76400000Y-113200000D03*
D15*
X76400000Y-113200000D03*
D13*
X77025000Y-72200000D03*
D12*
X74485000Y-72200000D03*
X77025000Y-74740000D03*
X74485000Y-74740000D03*
X77025000Y-77280000D03*
X74485000Y-77280000D03*
X77025000Y-79820000D03*
X74485000Y-79820000D03*
X77025000Y-82360000D03*
X74485000Y-82360000D03*
X77025000Y-84900000D03*
X74485000Y-84900000D03*
X77025000Y-87440000D03*
X74485000Y-87440000D03*
X77025000Y-89980000D03*
X74485000Y-89980000D03*
X77025000Y-92520000D03*
X74485000Y-92520000D03*
X77025000Y-95060000D03*
X74485000Y-95060000D03*
X77025000Y-97600000D03*
X74485000Y-97600000D03*
X77025000Y-100140000D03*
X74485000Y-100140000D03*
X77025000Y-102680000D03*
X74485000Y-102680000D03*
X77025000Y-105220000D03*
X74485000Y-105220000D03*
X77025000Y-107760000D03*
X74485000Y-107760000D03*
M02*
