%TF.GenerationSoftware,KiCad,Pcbnew,8.0.6*%
%TF.CreationDate,2025-02-01T18:27:49+01:00*%
%TF.ProjectId,jitx-design,6a697478-2d64-4657-9369-676e2e6b6963,rev?*%
%TF.SameCoordinates,Original*%
%TF.FileFunction,Drillmap*%
%TF.FilePolarity,Positive*%
%FSLAX45Y45*%
G04 Gerber Fmt 4.5, Leading zero omitted, Abs format (unit mm)*
G04 Created by KiCad (PCBNEW 8.0.6) date 2025-02-01 18:27:49*
%MOMM*%
%LPD*%
G01*
G04 APERTURE LIST*
%ADD10C,0.050000*%
%ADD11C,0.200000*%
%ADD12C,0.100000*%
%ADD13C,0.110000*%
%ADD14C,0.120000*%
%ADD15C,0.270000*%
G04 APERTURE END LIST*
D10*
X16720787Y-7561111D02*
X16717678Y-7557322D01*
X16717678Y-7557322D02*
X16713889Y-7554213D01*
X11186111Y-14045787D02*
X11190433Y-14048097D01*
X11195123Y-7550480D02*
X11190433Y-7551903D01*
X16724520Y-7570123D02*
X16723097Y-7565433D01*
X11175480Y-14029877D02*
X11176903Y-14034567D01*
X16720787Y-14038889D02*
X16723097Y-14034567D01*
X11186111Y-7554213D02*
X11182322Y-7557322D01*
X16717678Y-14042678D02*
X16720787Y-14038889D01*
X11190433Y-7551903D02*
X11186111Y-7554213D01*
X11200000Y-7550000D02*
X11195123Y-7550480D01*
X11182322Y-7557322D02*
X11179213Y-7561111D01*
X11200000Y-14050000D02*
X16700000Y-14050000D01*
X11176903Y-14034567D02*
X11179213Y-14038889D01*
X16709567Y-14048097D02*
X16713889Y-14045787D01*
X16709567Y-7551903D02*
X16704877Y-7550480D01*
X11190433Y-14048097D02*
X11195123Y-14049520D01*
X16700000Y-7550000D02*
X11200000Y-7550000D01*
X16725000Y-7575000D02*
X16724520Y-7570123D01*
X11175000Y-14025000D02*
X11175480Y-14029877D01*
X11175000Y-7575000D02*
X11175000Y-14025000D01*
X16704877Y-7550480D02*
X16700000Y-7550000D01*
X11179213Y-7561111D02*
X11176903Y-7565433D01*
X16700000Y-14050000D02*
X16704877Y-14049520D01*
X16725000Y-14025000D02*
X16725000Y-7575000D01*
X11195123Y-14049520D02*
X11200000Y-14050000D01*
X16704877Y-14049520D02*
X16709567Y-14048097D01*
X11182322Y-14042678D02*
X11186111Y-14045787D01*
X16713889Y-7554213D02*
X16709567Y-7551903D01*
X11179213Y-14038889D02*
X11182322Y-14042678D01*
X11176903Y-7565433D02*
X11175480Y-7570123D01*
X16723097Y-7565433D02*
X16720787Y-7561111D01*
X11175480Y-7570123D02*
X11175000Y-7575000D01*
X16713889Y-14045787D02*
X16717678Y-14042678D01*
X16723097Y-14034567D02*
X16724520Y-14029877D01*
X16724520Y-14029877D02*
X16725000Y-14025000D01*
D11*
D12*
X12409443Y-12613373D02*
X12439443Y-12643373D01*
X12439443Y-12613373D02*
X12409443Y-12643373D01*
X12510841Y-10033790D02*
X12540841Y-10063790D01*
X12540841Y-10033790D02*
X12510841Y-10063790D01*
X12510841Y-10163790D02*
X12540841Y-10193790D01*
X12540841Y-10163790D02*
X12510841Y-10193790D01*
X12510841Y-11506347D02*
X12540841Y-11536347D01*
X12540841Y-11506347D02*
X12510841Y-11536347D01*
X12510841Y-11636347D02*
X12540841Y-11666347D01*
X12540841Y-11636347D02*
X12510841Y-11666347D01*
X12520841Y-12978904D02*
X12550841Y-13008904D01*
X12550841Y-12978904D02*
X12520841Y-13008904D01*
X12520841Y-13108904D02*
X12550841Y-13138904D01*
X12550841Y-13108904D02*
X12520841Y-13138904D01*
X12645841Y-9677512D02*
X12675841Y-9707512D01*
X12675841Y-9677512D02*
X12645841Y-9707512D01*
X12645841Y-10418454D02*
X12675841Y-10448454D01*
X12675841Y-10418454D02*
X12645841Y-10448454D01*
X12645841Y-11150069D02*
X12675841Y-11180069D01*
X12675841Y-11150069D02*
X12645841Y-11180069D01*
X12645841Y-12622625D02*
X12675841Y-12652625D01*
X12675841Y-12622625D02*
X12645841Y-12652625D01*
X12780841Y-10098790D02*
X12810841Y-10128790D01*
X12810841Y-10098790D02*
X12780841Y-10128790D01*
X12780841Y-10228790D02*
X12810841Y-10258790D01*
X12810841Y-10228790D02*
X12780841Y-10258790D01*
X12780841Y-11571347D02*
X12810841Y-11601347D01*
X12810841Y-11571347D02*
X12780841Y-11601347D01*
X12780841Y-11701347D02*
X12810841Y-11731347D01*
X12810841Y-11701347D02*
X12780841Y-11731347D01*
X12790841Y-13043904D02*
X12820841Y-13073904D01*
X12820841Y-13043904D02*
X12790841Y-13073904D01*
X12790841Y-13173904D02*
X12820841Y-13203904D01*
X12820841Y-13173904D02*
X12790841Y-13203904D01*
X12844424Y-9126614D02*
X12874424Y-9156614D01*
X12874424Y-9126614D02*
X12844424Y-9156614D01*
X12900383Y-11284200D02*
X12930383Y-11314200D01*
X12930383Y-11284200D02*
X12900383Y-11314200D01*
X12925761Y-10540633D02*
X12955761Y-10570633D01*
X12955761Y-10540633D02*
X12925761Y-10570633D01*
X12927959Y-9799550D02*
X12957959Y-9829550D01*
X12957959Y-9799550D02*
X12927959Y-9829550D01*
X12933563Y-12719917D02*
X12963563Y-12749917D01*
X12963563Y-12719917D02*
X12933563Y-12749917D01*
X13008788Y-9132544D02*
X13038788Y-9162544D01*
X13038788Y-9132544D02*
X13008788Y-9162544D01*
X13014622Y-12259944D02*
X13044622Y-12289944D01*
X13044622Y-12259944D02*
X13014622Y-12289944D01*
X13070841Y-10033790D02*
X13100841Y-10063790D01*
X13100841Y-10033790D02*
X13070841Y-10063790D01*
X13070841Y-10163790D02*
X13100841Y-10193790D01*
X13100841Y-10163790D02*
X13070841Y-10193790D01*
X13070841Y-11506347D02*
X13100841Y-11536347D01*
X13100841Y-11506347D02*
X13070841Y-11536347D01*
X13070841Y-11636347D02*
X13100841Y-11666347D01*
X13100841Y-11636347D02*
X13070841Y-11666347D01*
X13080841Y-13043904D02*
X13110841Y-13073904D01*
X13110841Y-13043904D02*
X13080841Y-13073904D01*
X13081592Y-12910663D02*
X13111592Y-12940663D01*
X13111592Y-12910663D02*
X13081592Y-12940663D01*
X13090761Y-8996249D02*
X13120761Y-9026249D01*
X13120761Y-8996249D02*
X13090761Y-9026249D01*
X13340841Y-10098790D02*
X13370841Y-10128790D01*
X13370841Y-10098790D02*
X13340841Y-10128790D01*
X13340841Y-10228790D02*
X13370841Y-10258790D01*
X13370841Y-10228790D02*
X13340841Y-10258790D01*
X13340841Y-11571347D02*
X13370841Y-11601347D01*
X13370841Y-11571347D02*
X13340841Y-11601347D01*
X13340841Y-11701347D02*
X13370841Y-11731347D01*
X13370841Y-11701347D02*
X13340841Y-11731347D01*
X13345237Y-13303910D02*
X13375237Y-13333910D01*
X13375237Y-13303910D02*
X13345237Y-13333910D01*
X13350841Y-12978904D02*
X13380841Y-13008904D01*
X13380841Y-12978904D02*
X13350841Y-13008904D01*
X13741506Y-8471217D02*
X13771506Y-8501217D01*
X13771506Y-8471217D02*
X13741506Y-8501217D01*
X13986309Y-8318866D02*
X14016309Y-8348866D01*
X14016309Y-8318866D02*
X13986309Y-8348866D01*
X16171241Y-12725361D02*
X16201241Y-12755361D01*
X16201241Y-12725361D02*
X16171241Y-12755361D01*
X16177350Y-9427112D02*
X16207350Y-9457112D01*
X16207350Y-9427112D02*
X16177350Y-9457112D01*
X16177350Y-9935112D02*
X16207350Y-9965112D01*
X16207350Y-9935112D02*
X16177350Y-9965112D01*
X16177350Y-10189112D02*
X16207350Y-10219112D01*
X16207350Y-10189112D02*
X16177350Y-10219112D01*
X16177350Y-10697112D02*
X16207350Y-10727112D01*
X16207350Y-10697112D02*
X16177350Y-10727112D01*
X16177350Y-11205112D02*
X16207350Y-11235112D01*
X16207350Y-11205112D02*
X16177350Y-11235112D01*
X16177350Y-11459112D02*
X16207350Y-11489112D01*
X16207350Y-11459112D02*
X16177350Y-11489112D01*
X16177350Y-11713112D02*
X16207350Y-11743112D01*
X16207350Y-11713112D02*
X16177350Y-11743112D01*
X16177350Y-11967112D02*
X16207350Y-11997112D01*
X16207350Y-11967112D02*
X16177350Y-11997112D01*
X16177350Y-12475112D02*
X16207350Y-12505112D01*
X16207350Y-12475112D02*
X16177350Y-12505112D01*
X16355638Y-7661807D02*
X16385638Y-7691807D01*
X16385638Y-7661807D02*
X16355638Y-7691807D01*
X11493503Y-7692963D02*
G75*
G02*
X11433503Y-7692963I-30000J0D01*
G01*
X11433503Y-7692963D02*
G75*
G02*
X11493503Y-7692963I30000J0D01*
G01*
X11508503Y-7662963D02*
X11418503Y-7662963D01*
X11418503Y-7722963D02*
G75*
G02*
X11418503Y-7662963I0J30000D01*
G01*
X11418503Y-7722963D02*
X11508503Y-7722963D01*
X11508503Y-7722963D02*
G75*
G03*
X11508503Y-7662963I0J30000D01*
G01*
X11493503Y-8962963D02*
G75*
G02*
X11433503Y-8962963I-30000J0D01*
G01*
X11433503Y-8962963D02*
G75*
G02*
X11493503Y-8962963I30000J0D01*
G01*
X11508503Y-8932963D02*
X11418503Y-8932963D01*
X11418503Y-8992963D02*
G75*
G02*
X11418503Y-8932963I0J30000D01*
G01*
X11418503Y-8992963D02*
X11508503Y-8992963D01*
X11508503Y-8992963D02*
G75*
G03*
X11508503Y-8932963I0J30000D01*
G01*
X11463503Y-7887963D02*
X11463503Y-7967963D01*
X11423503Y-7927963D02*
X11503503Y-7927963D01*
X11463503Y-8287963D02*
X11463503Y-8367963D01*
X11423503Y-8327963D02*
X11503503Y-8327963D01*
X11463503Y-8487963D02*
X11463503Y-8567963D01*
X11423503Y-8527963D02*
X11503503Y-8527963D01*
X11463503Y-8687963D02*
X11463503Y-8767963D01*
X11423503Y-8727963D02*
X11503503Y-8727963D01*
D13*
X12735760Y-8550371D02*
X12735760Y-8472589D01*
X12657978Y-8472589D01*
X12657978Y-8550371D01*
X12735760Y-8550371D01*
X12735760Y-13673884D02*
X12735760Y-13596101D01*
X12657978Y-13596101D01*
X12657978Y-13673884D01*
X12735760Y-13673884D01*
X12989760Y-8550371D02*
X12989760Y-8472589D01*
X12911978Y-8472589D01*
X12911978Y-8550371D01*
X12989760Y-8550371D01*
X12989760Y-13673884D02*
X12989760Y-13596101D01*
X12911978Y-13596101D01*
X12911978Y-13673884D01*
X12989760Y-13673884D01*
X13243760Y-8550371D02*
X13243760Y-8472589D01*
X13165978Y-8472589D01*
X13165978Y-8550371D01*
X13243760Y-8550371D01*
X13243760Y-13673884D02*
X13243760Y-13596101D01*
X13165978Y-13596101D01*
X13165978Y-13673884D01*
X13243760Y-13673884D01*
D14*
X11596794Y-9400095D02*
X11656794Y-9340095D01*
X11596794Y-9280095D01*
X11536794Y-9340095D01*
X11596794Y-9400095D01*
X11596794Y-9654095D02*
X11656794Y-9594095D01*
X11596794Y-9534095D01*
X11536794Y-9594095D01*
X11596794Y-9654095D01*
X11596794Y-9908095D02*
X11656794Y-9848095D01*
X11596794Y-9788095D01*
X11536794Y-9848095D01*
X11596794Y-9908095D01*
X11596794Y-10162095D02*
X11656794Y-10102095D01*
X11596794Y-10042095D01*
X11536794Y-10102095D01*
X11596794Y-10162095D01*
X11596794Y-10416095D02*
X11656794Y-10356095D01*
X11596794Y-10296095D01*
X11536794Y-10356095D01*
X11596794Y-10416095D01*
X11596794Y-10670095D02*
X11656794Y-10610095D01*
X11596794Y-10550095D01*
X11536794Y-10610095D01*
X11596794Y-10670095D01*
X11596794Y-10924095D02*
X11656794Y-10864095D01*
X11596794Y-10804095D01*
X11536794Y-10864095D01*
X11596794Y-10924095D01*
X11596794Y-11178095D02*
X11656794Y-11118095D01*
X11596794Y-11058095D01*
X11536794Y-11118095D01*
X11596794Y-11178095D01*
X11596794Y-11432095D02*
X11656794Y-11372095D01*
X11596794Y-11312095D01*
X11536794Y-11372095D01*
X11596794Y-11432095D01*
X11596794Y-11686095D02*
X11656794Y-11626095D01*
X11596794Y-11566095D01*
X11536794Y-11626095D01*
X11596794Y-11686095D01*
X11596794Y-11940095D02*
X11656794Y-11880095D01*
X11596794Y-11820095D01*
X11536794Y-11880095D01*
X11596794Y-11940095D01*
X11596794Y-12194095D02*
X11656794Y-12134095D01*
X11596794Y-12074095D01*
X11536794Y-12134095D01*
X11596794Y-12194095D01*
X11596794Y-12448095D02*
X11656794Y-12388095D01*
X11596794Y-12328095D01*
X11536794Y-12388095D01*
X11596794Y-12448095D01*
X11596794Y-12702095D02*
X11656794Y-12642095D01*
X11596794Y-12582095D01*
X11536794Y-12642095D01*
X11596794Y-12702095D01*
X11596794Y-12956095D02*
X11656794Y-12896095D01*
X11596794Y-12836095D01*
X11536794Y-12896095D01*
X11596794Y-12956095D01*
X11596794Y-13210095D02*
X11656794Y-13150095D01*
X11596794Y-13090095D01*
X11536794Y-13150095D01*
X11596794Y-13210095D01*
X11850794Y-9400095D02*
X11910794Y-9340095D01*
X11850794Y-9280095D01*
X11790794Y-9340095D01*
X11850794Y-9400095D01*
X11850794Y-9654095D02*
X11910794Y-9594095D01*
X11850794Y-9534095D01*
X11790794Y-9594095D01*
X11850794Y-9654095D01*
X11850794Y-9908095D02*
X11910794Y-9848095D01*
X11850794Y-9788095D01*
X11790794Y-9848095D01*
X11850794Y-9908095D01*
X11850794Y-10162095D02*
X11910794Y-10102095D01*
X11850794Y-10042095D01*
X11790794Y-10102095D01*
X11850794Y-10162095D01*
X11850794Y-10416095D02*
X11910794Y-10356095D01*
X11850794Y-10296095D01*
X11790794Y-10356095D01*
X11850794Y-10416095D01*
X11850794Y-10670095D02*
X11910794Y-10610095D01*
X11850794Y-10550095D01*
X11790794Y-10610095D01*
X11850794Y-10670095D01*
X11850794Y-10924095D02*
X11910794Y-10864095D01*
X11850794Y-10804095D01*
X11790794Y-10864095D01*
X11850794Y-10924095D01*
X11850794Y-11178095D02*
X11910794Y-11118095D01*
X11850794Y-11058095D01*
X11790794Y-11118095D01*
X11850794Y-11178095D01*
X11850794Y-11432095D02*
X11910794Y-11372095D01*
X11850794Y-11312095D01*
X11790794Y-11372095D01*
X11850794Y-11432095D01*
X11850794Y-11686095D02*
X11910794Y-11626095D01*
X11850794Y-11566095D01*
X11790794Y-11626095D01*
X11850794Y-11686095D01*
X11850794Y-11940095D02*
X11910794Y-11880095D01*
X11850794Y-11820095D01*
X11790794Y-11880095D01*
X11850794Y-11940095D01*
X11850794Y-12194095D02*
X11910794Y-12134095D01*
X11850794Y-12074095D01*
X11790794Y-12134095D01*
X11850794Y-12194095D01*
X11850794Y-12448095D02*
X11910794Y-12388095D01*
X11850794Y-12328095D01*
X11790794Y-12388095D01*
X11850794Y-12448095D01*
X11850794Y-12702095D02*
X11910794Y-12642095D01*
X11850794Y-12582095D01*
X11790794Y-12642095D01*
X11850794Y-12702095D01*
X11850794Y-12956095D02*
X11910794Y-12896095D01*
X11850794Y-12836095D01*
X11790794Y-12896095D01*
X11850794Y-12956095D01*
X11850794Y-13210095D02*
X11910794Y-13150095D01*
X11850794Y-13090095D01*
X11790794Y-13150095D01*
X11850794Y-13210095D01*
D15*
X11515000Y-13515000D02*
X11785000Y-13785000D01*
X11785000Y-13515000D02*
X11515000Y-13785000D01*
X11785000Y-13650000D02*
G75*
G02*
X11515000Y-13650000I-135000J0D01*
G01*
X11515000Y-13650000D02*
G75*
G02*
X11785000Y-13650000I135000J0D01*
G01*
X11965000Y-7865000D02*
X12235000Y-8135000D01*
X12235000Y-7865000D02*
X11965000Y-8135000D01*
X12235000Y-8000000D02*
G75*
G02*
X11965000Y-8000000I-135000J0D01*
G01*
X11965000Y-8000000D02*
G75*
G02*
X12235000Y-8000000I135000J0D01*
G01*
X16215000Y-13515000D02*
X16485000Y-13785000D01*
X16485000Y-13515000D02*
X16215000Y-13785000D01*
X16485000Y-13650000D02*
G75*
G02*
X16215000Y-13650000I-135000J0D01*
G01*
X16215000Y-13650000D02*
G75*
G02*
X16485000Y-13650000I135000J0D01*
G01*
D11*
X11433277Y-14363984D02*
X11433277Y-14163984D01*
X11433277Y-14163984D02*
X11480896Y-14163984D01*
X11480896Y-14163984D02*
X11509467Y-14173508D01*
X11509467Y-14173508D02*
X11528515Y-14192555D01*
X11528515Y-14192555D02*
X11538039Y-14211603D01*
X11538039Y-14211603D02*
X11547562Y-14249698D01*
X11547562Y-14249698D02*
X11547562Y-14278269D01*
X11547562Y-14278269D02*
X11538039Y-14316365D01*
X11538039Y-14316365D02*
X11528515Y-14335412D01*
X11528515Y-14335412D02*
X11509467Y-14354460D01*
X11509467Y-14354460D02*
X11480896Y-14363984D01*
X11480896Y-14363984D02*
X11433277Y-14363984D01*
X11633277Y-14363984D02*
X11633277Y-14230650D01*
X11633277Y-14268746D02*
X11642801Y-14249698D01*
X11642801Y-14249698D02*
X11652324Y-14240174D01*
X11652324Y-14240174D02*
X11671372Y-14230650D01*
X11671372Y-14230650D02*
X11690420Y-14230650D01*
X11757086Y-14363984D02*
X11757086Y-14230650D01*
X11757086Y-14163984D02*
X11747562Y-14173508D01*
X11747562Y-14173508D02*
X11757086Y-14183031D01*
X11757086Y-14183031D02*
X11766610Y-14173508D01*
X11766610Y-14173508D02*
X11757086Y-14163984D01*
X11757086Y-14163984D02*
X11757086Y-14183031D01*
X11880896Y-14363984D02*
X11861848Y-14354460D01*
X11861848Y-14354460D02*
X11852324Y-14335412D01*
X11852324Y-14335412D02*
X11852324Y-14163984D01*
X11985658Y-14363984D02*
X11966610Y-14354460D01*
X11966610Y-14354460D02*
X11957086Y-14335412D01*
X11957086Y-14335412D02*
X11957086Y-14163984D01*
X12214229Y-14363984D02*
X12214229Y-14163984D01*
X12214229Y-14163984D02*
X12280896Y-14306841D01*
X12280896Y-14306841D02*
X12347562Y-14163984D01*
X12347562Y-14163984D02*
X12347562Y-14363984D01*
X12528515Y-14363984D02*
X12528515Y-14259222D01*
X12528515Y-14259222D02*
X12518991Y-14240174D01*
X12518991Y-14240174D02*
X12499943Y-14230650D01*
X12499943Y-14230650D02*
X12461848Y-14230650D01*
X12461848Y-14230650D02*
X12442801Y-14240174D01*
X12528515Y-14354460D02*
X12509467Y-14363984D01*
X12509467Y-14363984D02*
X12461848Y-14363984D01*
X12461848Y-14363984D02*
X12442801Y-14354460D01*
X12442801Y-14354460D02*
X12433277Y-14335412D01*
X12433277Y-14335412D02*
X12433277Y-14316365D01*
X12433277Y-14316365D02*
X12442801Y-14297317D01*
X12442801Y-14297317D02*
X12461848Y-14287793D01*
X12461848Y-14287793D02*
X12509467Y-14287793D01*
X12509467Y-14287793D02*
X12528515Y-14278269D01*
X12623753Y-14230650D02*
X12623753Y-14430650D01*
X12623753Y-14240174D02*
X12642801Y-14230650D01*
X12642801Y-14230650D02*
X12680896Y-14230650D01*
X12680896Y-14230650D02*
X12699943Y-14240174D01*
X12699943Y-14240174D02*
X12709467Y-14249698D01*
X12709467Y-14249698D02*
X12718991Y-14268746D01*
X12718991Y-14268746D02*
X12718991Y-14325888D01*
X12718991Y-14325888D02*
X12709467Y-14344936D01*
X12709467Y-14344936D02*
X12699943Y-14354460D01*
X12699943Y-14354460D02*
X12680896Y-14363984D01*
X12680896Y-14363984D02*
X12642801Y-14363984D01*
X12642801Y-14363984D02*
X12623753Y-14354460D01*
X12804705Y-14344936D02*
X12814229Y-14354460D01*
X12814229Y-14354460D02*
X12804705Y-14363984D01*
X12804705Y-14363984D02*
X12795182Y-14354460D01*
X12795182Y-14354460D02*
X12804705Y-14344936D01*
X12804705Y-14344936D02*
X12804705Y-14363984D01*
X12804705Y-14240174D02*
X12814229Y-14249698D01*
X12814229Y-14249698D02*
X12804705Y-14259222D01*
X12804705Y-14259222D02*
X12795182Y-14249698D01*
X12795182Y-14249698D02*
X12804705Y-14240174D01*
X12804705Y-14240174D02*
X12804705Y-14259222D01*
D12*
X11142500Y-14677500D02*
X11172500Y-14707500D01*
X11172500Y-14677500D02*
X11142500Y-14707500D01*
D11*
X11471372Y-14583984D02*
X11490420Y-14583984D01*
X11490420Y-14583984D02*
X11509467Y-14593508D01*
X11509467Y-14593508D02*
X11518991Y-14603031D01*
X11518991Y-14603031D02*
X11528515Y-14622079D01*
X11528515Y-14622079D02*
X11538039Y-14660174D01*
X11538039Y-14660174D02*
X11538039Y-14707793D01*
X11538039Y-14707793D02*
X11528515Y-14745888D01*
X11528515Y-14745888D02*
X11518991Y-14764936D01*
X11518991Y-14764936D02*
X11509467Y-14774460D01*
X11509467Y-14774460D02*
X11490420Y-14783984D01*
X11490420Y-14783984D02*
X11471372Y-14783984D01*
X11471372Y-14783984D02*
X11452324Y-14774460D01*
X11452324Y-14774460D02*
X11442801Y-14764936D01*
X11442801Y-14764936D02*
X11433277Y-14745888D01*
X11433277Y-14745888D02*
X11423753Y-14707793D01*
X11423753Y-14707793D02*
X11423753Y-14660174D01*
X11423753Y-14660174D02*
X11433277Y-14622079D01*
X11433277Y-14622079D02*
X11442801Y-14603031D01*
X11442801Y-14603031D02*
X11452324Y-14593508D01*
X11452324Y-14593508D02*
X11471372Y-14583984D01*
X11623753Y-14764936D02*
X11633277Y-14774460D01*
X11633277Y-14774460D02*
X11623753Y-14783984D01*
X11623753Y-14783984D02*
X11614229Y-14774460D01*
X11614229Y-14774460D02*
X11623753Y-14764936D01*
X11623753Y-14764936D02*
X11623753Y-14783984D01*
X11699943Y-14583984D02*
X11823753Y-14583984D01*
X11823753Y-14583984D02*
X11757086Y-14660174D01*
X11757086Y-14660174D02*
X11785658Y-14660174D01*
X11785658Y-14660174D02*
X11804705Y-14669698D01*
X11804705Y-14669698D02*
X11814229Y-14679222D01*
X11814229Y-14679222D02*
X11823753Y-14698269D01*
X11823753Y-14698269D02*
X11823753Y-14745888D01*
X11823753Y-14745888D02*
X11814229Y-14764936D01*
X11814229Y-14764936D02*
X11804705Y-14774460D01*
X11804705Y-14774460D02*
X11785658Y-14783984D01*
X11785658Y-14783984D02*
X11728515Y-14783984D01*
X11728515Y-14783984D02*
X11709467Y-14774460D01*
X11709467Y-14774460D02*
X11699943Y-14764936D01*
X11947562Y-14583984D02*
X11966610Y-14583984D01*
X11966610Y-14583984D02*
X11985658Y-14593508D01*
X11985658Y-14593508D02*
X11995182Y-14603031D01*
X11995182Y-14603031D02*
X12004705Y-14622079D01*
X12004705Y-14622079D02*
X12014229Y-14660174D01*
X12014229Y-14660174D02*
X12014229Y-14707793D01*
X12014229Y-14707793D02*
X12004705Y-14745888D01*
X12004705Y-14745888D02*
X11995182Y-14764936D01*
X11995182Y-14764936D02*
X11985658Y-14774460D01*
X11985658Y-14774460D02*
X11966610Y-14783984D01*
X11966610Y-14783984D02*
X11947562Y-14783984D01*
X11947562Y-14783984D02*
X11928515Y-14774460D01*
X11928515Y-14774460D02*
X11918991Y-14764936D01*
X11918991Y-14764936D02*
X11909467Y-14745888D01*
X11909467Y-14745888D02*
X11899943Y-14707793D01*
X11899943Y-14707793D02*
X11899943Y-14660174D01*
X11899943Y-14660174D02*
X11909467Y-14622079D01*
X11909467Y-14622079D02*
X11918991Y-14603031D01*
X11918991Y-14603031D02*
X11928515Y-14593508D01*
X11928515Y-14593508D02*
X11947562Y-14583984D01*
X12138039Y-14583984D02*
X12157086Y-14583984D01*
X12157086Y-14583984D02*
X12176134Y-14593508D01*
X12176134Y-14593508D02*
X12185658Y-14603031D01*
X12185658Y-14603031D02*
X12195182Y-14622079D01*
X12195182Y-14622079D02*
X12204705Y-14660174D01*
X12204705Y-14660174D02*
X12204705Y-14707793D01*
X12204705Y-14707793D02*
X12195182Y-14745888D01*
X12195182Y-14745888D02*
X12185658Y-14764936D01*
X12185658Y-14764936D02*
X12176134Y-14774460D01*
X12176134Y-14774460D02*
X12157086Y-14783984D01*
X12157086Y-14783984D02*
X12138039Y-14783984D01*
X12138039Y-14783984D02*
X12118991Y-14774460D01*
X12118991Y-14774460D02*
X12109467Y-14764936D01*
X12109467Y-14764936D02*
X12099943Y-14745888D01*
X12099943Y-14745888D02*
X12090420Y-14707793D01*
X12090420Y-14707793D02*
X12090420Y-14660174D01*
X12090420Y-14660174D02*
X12099943Y-14622079D01*
X12099943Y-14622079D02*
X12109467Y-14603031D01*
X12109467Y-14603031D02*
X12118991Y-14593508D01*
X12118991Y-14593508D02*
X12138039Y-14583984D01*
X12290420Y-14783984D02*
X12290420Y-14650650D01*
X12290420Y-14669698D02*
X12299943Y-14660174D01*
X12299943Y-14660174D02*
X12318991Y-14650650D01*
X12318991Y-14650650D02*
X12347563Y-14650650D01*
X12347563Y-14650650D02*
X12366610Y-14660174D01*
X12366610Y-14660174D02*
X12376134Y-14679222D01*
X12376134Y-14679222D02*
X12376134Y-14783984D01*
X12376134Y-14679222D02*
X12385658Y-14660174D01*
X12385658Y-14660174D02*
X12404705Y-14650650D01*
X12404705Y-14650650D02*
X12433277Y-14650650D01*
X12433277Y-14650650D02*
X12452324Y-14660174D01*
X12452324Y-14660174D02*
X12461848Y-14679222D01*
X12461848Y-14679222D02*
X12461848Y-14783984D01*
X12557086Y-14783984D02*
X12557086Y-14650650D01*
X12557086Y-14669698D02*
X12566610Y-14660174D01*
X12566610Y-14660174D02*
X12585658Y-14650650D01*
X12585658Y-14650650D02*
X12614229Y-14650650D01*
X12614229Y-14650650D02*
X12633277Y-14660174D01*
X12633277Y-14660174D02*
X12642801Y-14679222D01*
X12642801Y-14679222D02*
X12642801Y-14783984D01*
X12642801Y-14679222D02*
X12652324Y-14660174D01*
X12652324Y-14660174D02*
X12671372Y-14650650D01*
X12671372Y-14650650D02*
X12699943Y-14650650D01*
X12699943Y-14650650D02*
X12718991Y-14660174D01*
X12718991Y-14660174D02*
X12728515Y-14679222D01*
X12728515Y-14679222D02*
X12728515Y-14783984D01*
X13118991Y-14574460D02*
X12947563Y-14831603D01*
X13376134Y-14583984D02*
X13395182Y-14583984D01*
X13395182Y-14583984D02*
X13414229Y-14593508D01*
X13414229Y-14593508D02*
X13423753Y-14603031D01*
X13423753Y-14603031D02*
X13433277Y-14622079D01*
X13433277Y-14622079D02*
X13442801Y-14660174D01*
X13442801Y-14660174D02*
X13442801Y-14707793D01*
X13442801Y-14707793D02*
X13433277Y-14745888D01*
X13433277Y-14745888D02*
X13423753Y-14764936D01*
X13423753Y-14764936D02*
X13414229Y-14774460D01*
X13414229Y-14774460D02*
X13395182Y-14783984D01*
X13395182Y-14783984D02*
X13376134Y-14783984D01*
X13376134Y-14783984D02*
X13357086Y-14774460D01*
X13357086Y-14774460D02*
X13347563Y-14764936D01*
X13347563Y-14764936D02*
X13338039Y-14745888D01*
X13338039Y-14745888D02*
X13328515Y-14707793D01*
X13328515Y-14707793D02*
X13328515Y-14660174D01*
X13328515Y-14660174D02*
X13338039Y-14622079D01*
X13338039Y-14622079D02*
X13347563Y-14603031D01*
X13347563Y-14603031D02*
X13357086Y-14593508D01*
X13357086Y-14593508D02*
X13376134Y-14583984D01*
X13528515Y-14764936D02*
X13538039Y-14774460D01*
X13538039Y-14774460D02*
X13528515Y-14783984D01*
X13528515Y-14783984D02*
X13518991Y-14774460D01*
X13518991Y-14774460D02*
X13528515Y-14764936D01*
X13528515Y-14764936D02*
X13528515Y-14783984D01*
X13661848Y-14583984D02*
X13680896Y-14583984D01*
X13680896Y-14583984D02*
X13699944Y-14593508D01*
X13699944Y-14593508D02*
X13709467Y-14603031D01*
X13709467Y-14603031D02*
X13718991Y-14622079D01*
X13718991Y-14622079D02*
X13728515Y-14660174D01*
X13728515Y-14660174D02*
X13728515Y-14707793D01*
X13728515Y-14707793D02*
X13718991Y-14745888D01*
X13718991Y-14745888D02*
X13709467Y-14764936D01*
X13709467Y-14764936D02*
X13699944Y-14774460D01*
X13699944Y-14774460D02*
X13680896Y-14783984D01*
X13680896Y-14783984D02*
X13661848Y-14783984D01*
X13661848Y-14783984D02*
X13642801Y-14774460D01*
X13642801Y-14774460D02*
X13633277Y-14764936D01*
X13633277Y-14764936D02*
X13623753Y-14745888D01*
X13623753Y-14745888D02*
X13614229Y-14707793D01*
X13614229Y-14707793D02*
X13614229Y-14660174D01*
X13614229Y-14660174D02*
X13623753Y-14622079D01*
X13623753Y-14622079D02*
X13633277Y-14603031D01*
X13633277Y-14603031D02*
X13642801Y-14593508D01*
X13642801Y-14593508D02*
X13661848Y-14583984D01*
X13918991Y-14783984D02*
X13804706Y-14783984D01*
X13861848Y-14783984D02*
X13861848Y-14583984D01*
X13861848Y-14583984D02*
X13842801Y-14612555D01*
X13842801Y-14612555D02*
X13823753Y-14631603D01*
X13823753Y-14631603D02*
X13804706Y-14641127D01*
X14109467Y-14783984D02*
X13995182Y-14783984D01*
X14052325Y-14783984D02*
X14052325Y-14583984D01*
X14052325Y-14583984D02*
X14033277Y-14612555D01*
X14033277Y-14612555D02*
X14014229Y-14631603D01*
X14014229Y-14631603D02*
X13995182Y-14641127D01*
X14223753Y-14669698D02*
X14204706Y-14660174D01*
X14204706Y-14660174D02*
X14195182Y-14650650D01*
X14195182Y-14650650D02*
X14185658Y-14631603D01*
X14185658Y-14631603D02*
X14185658Y-14622079D01*
X14185658Y-14622079D02*
X14195182Y-14603031D01*
X14195182Y-14603031D02*
X14204706Y-14593508D01*
X14204706Y-14593508D02*
X14223753Y-14583984D01*
X14223753Y-14583984D02*
X14261848Y-14583984D01*
X14261848Y-14583984D02*
X14280896Y-14593508D01*
X14280896Y-14593508D02*
X14290420Y-14603031D01*
X14290420Y-14603031D02*
X14299944Y-14622079D01*
X14299944Y-14622079D02*
X14299944Y-14631603D01*
X14299944Y-14631603D02*
X14290420Y-14650650D01*
X14290420Y-14650650D02*
X14280896Y-14660174D01*
X14280896Y-14660174D02*
X14261848Y-14669698D01*
X14261848Y-14669698D02*
X14223753Y-14669698D01*
X14223753Y-14669698D02*
X14204706Y-14679222D01*
X14204706Y-14679222D02*
X14195182Y-14688746D01*
X14195182Y-14688746D02*
X14185658Y-14707793D01*
X14185658Y-14707793D02*
X14185658Y-14745888D01*
X14185658Y-14745888D02*
X14195182Y-14764936D01*
X14195182Y-14764936D02*
X14204706Y-14774460D01*
X14204706Y-14774460D02*
X14223753Y-14783984D01*
X14223753Y-14783984D02*
X14261848Y-14783984D01*
X14261848Y-14783984D02*
X14280896Y-14774460D01*
X14280896Y-14774460D02*
X14290420Y-14764936D01*
X14290420Y-14764936D02*
X14299944Y-14745888D01*
X14299944Y-14745888D02*
X14299944Y-14707793D01*
X14299944Y-14707793D02*
X14290420Y-14688746D01*
X14290420Y-14688746D02*
X14280896Y-14679222D01*
X14280896Y-14679222D02*
X14261848Y-14669698D01*
X14376134Y-14583984D02*
X14376134Y-14622079D01*
X14452325Y-14583984D02*
X14452325Y-14622079D01*
X14747563Y-14860174D02*
X14738039Y-14850650D01*
X14738039Y-14850650D02*
X14718991Y-14822079D01*
X14718991Y-14822079D02*
X14709468Y-14803031D01*
X14709468Y-14803031D02*
X14699944Y-14774460D01*
X14699944Y-14774460D02*
X14690420Y-14726841D01*
X14690420Y-14726841D02*
X14690420Y-14688746D01*
X14690420Y-14688746D02*
X14699944Y-14641127D01*
X14699944Y-14641127D02*
X14709468Y-14612555D01*
X14709468Y-14612555D02*
X14718991Y-14593508D01*
X14718991Y-14593508D02*
X14738039Y-14564936D01*
X14738039Y-14564936D02*
X14747563Y-14555412D01*
X14918991Y-14583984D02*
X14823753Y-14583984D01*
X14823753Y-14583984D02*
X14814229Y-14679222D01*
X14814229Y-14679222D02*
X14823753Y-14669698D01*
X14823753Y-14669698D02*
X14842801Y-14660174D01*
X14842801Y-14660174D02*
X14890420Y-14660174D01*
X14890420Y-14660174D02*
X14909468Y-14669698D01*
X14909468Y-14669698D02*
X14918991Y-14679222D01*
X14918991Y-14679222D02*
X14928515Y-14698269D01*
X14928515Y-14698269D02*
X14928515Y-14745888D01*
X14928515Y-14745888D02*
X14918991Y-14764936D01*
X14918991Y-14764936D02*
X14909468Y-14774460D01*
X14909468Y-14774460D02*
X14890420Y-14783984D01*
X14890420Y-14783984D02*
X14842801Y-14783984D01*
X14842801Y-14783984D02*
X14823753Y-14774460D01*
X14823753Y-14774460D02*
X14814229Y-14764936D01*
X15052325Y-14583984D02*
X15071372Y-14583984D01*
X15071372Y-14583984D02*
X15090420Y-14593508D01*
X15090420Y-14593508D02*
X15099944Y-14603031D01*
X15099944Y-14603031D02*
X15109468Y-14622079D01*
X15109468Y-14622079D02*
X15118991Y-14660174D01*
X15118991Y-14660174D02*
X15118991Y-14707793D01*
X15118991Y-14707793D02*
X15109468Y-14745888D01*
X15109468Y-14745888D02*
X15099944Y-14764936D01*
X15099944Y-14764936D02*
X15090420Y-14774460D01*
X15090420Y-14774460D02*
X15071372Y-14783984D01*
X15071372Y-14783984D02*
X15052325Y-14783984D01*
X15052325Y-14783984D02*
X15033277Y-14774460D01*
X15033277Y-14774460D02*
X15023753Y-14764936D01*
X15023753Y-14764936D02*
X15014229Y-14745888D01*
X15014229Y-14745888D02*
X15004706Y-14707793D01*
X15004706Y-14707793D02*
X15004706Y-14660174D01*
X15004706Y-14660174D02*
X15014229Y-14622079D01*
X15014229Y-14622079D02*
X15023753Y-14603031D01*
X15023753Y-14603031D02*
X15033277Y-14593508D01*
X15033277Y-14593508D02*
X15052325Y-14583984D01*
X15357087Y-14783984D02*
X15357087Y-14583984D01*
X15442801Y-14783984D02*
X15442801Y-14679222D01*
X15442801Y-14679222D02*
X15433277Y-14660174D01*
X15433277Y-14660174D02*
X15414230Y-14650650D01*
X15414230Y-14650650D02*
X15385658Y-14650650D01*
X15385658Y-14650650D02*
X15366610Y-14660174D01*
X15366610Y-14660174D02*
X15357087Y-14669698D01*
X15566610Y-14783984D02*
X15547563Y-14774460D01*
X15547563Y-14774460D02*
X15538039Y-14764936D01*
X15538039Y-14764936D02*
X15528515Y-14745888D01*
X15528515Y-14745888D02*
X15528515Y-14688746D01*
X15528515Y-14688746D02*
X15538039Y-14669698D01*
X15538039Y-14669698D02*
X15547563Y-14660174D01*
X15547563Y-14660174D02*
X15566610Y-14650650D01*
X15566610Y-14650650D02*
X15595182Y-14650650D01*
X15595182Y-14650650D02*
X15614230Y-14660174D01*
X15614230Y-14660174D02*
X15623753Y-14669698D01*
X15623753Y-14669698D02*
X15633277Y-14688746D01*
X15633277Y-14688746D02*
X15633277Y-14745888D01*
X15633277Y-14745888D02*
X15623753Y-14764936D01*
X15623753Y-14764936D02*
X15614230Y-14774460D01*
X15614230Y-14774460D02*
X15595182Y-14783984D01*
X15595182Y-14783984D02*
X15566610Y-14783984D01*
X15747563Y-14783984D02*
X15728515Y-14774460D01*
X15728515Y-14774460D02*
X15718991Y-14755412D01*
X15718991Y-14755412D02*
X15718991Y-14583984D01*
X15899944Y-14774460D02*
X15880896Y-14783984D01*
X15880896Y-14783984D02*
X15842801Y-14783984D01*
X15842801Y-14783984D02*
X15823753Y-14774460D01*
X15823753Y-14774460D02*
X15814230Y-14755412D01*
X15814230Y-14755412D02*
X15814230Y-14679222D01*
X15814230Y-14679222D02*
X15823753Y-14660174D01*
X15823753Y-14660174D02*
X15842801Y-14650650D01*
X15842801Y-14650650D02*
X15880896Y-14650650D01*
X15880896Y-14650650D02*
X15899944Y-14660174D01*
X15899944Y-14660174D02*
X15909468Y-14679222D01*
X15909468Y-14679222D02*
X15909468Y-14698269D01*
X15909468Y-14698269D02*
X15814230Y-14717317D01*
X15985658Y-14774460D02*
X16004706Y-14783984D01*
X16004706Y-14783984D02*
X16042801Y-14783984D01*
X16042801Y-14783984D02*
X16061849Y-14774460D01*
X16061849Y-14774460D02*
X16071372Y-14755412D01*
X16071372Y-14755412D02*
X16071372Y-14745888D01*
X16071372Y-14745888D02*
X16061849Y-14726841D01*
X16061849Y-14726841D02*
X16042801Y-14717317D01*
X16042801Y-14717317D02*
X16014230Y-14717317D01*
X16014230Y-14717317D02*
X15995182Y-14707793D01*
X15995182Y-14707793D02*
X15985658Y-14688746D01*
X15985658Y-14688746D02*
X15985658Y-14679222D01*
X15985658Y-14679222D02*
X15995182Y-14660174D01*
X15995182Y-14660174D02*
X16014230Y-14650650D01*
X16014230Y-14650650D02*
X16042801Y-14650650D01*
X16042801Y-14650650D02*
X16061849Y-14660174D01*
X16138039Y-14860174D02*
X16147563Y-14850650D01*
X16147563Y-14850650D02*
X16166611Y-14822079D01*
X16166611Y-14822079D02*
X16176134Y-14803031D01*
X16176134Y-14803031D02*
X16185658Y-14774460D01*
X16185658Y-14774460D02*
X16195182Y-14726841D01*
X16195182Y-14726841D02*
X16195182Y-14688746D01*
X16195182Y-14688746D02*
X16185658Y-14641127D01*
X16185658Y-14641127D02*
X16176134Y-14612555D01*
X16176134Y-14612555D02*
X16166611Y-14593508D01*
X16166611Y-14593508D02*
X16147563Y-14564936D01*
X16147563Y-14564936D02*
X16138039Y-14555412D01*
D12*
X11172500Y-14956500D02*
G75*
G02*
X11112500Y-14956500I-30000J0D01*
G01*
X11112500Y-14956500D02*
G75*
G02*
X11172500Y-14956500I30000J0D01*
G01*
D11*
X11471372Y-14847984D02*
X11490420Y-14847984D01*
X11490420Y-14847984D02*
X11509467Y-14857508D01*
X11509467Y-14857508D02*
X11518991Y-14867031D01*
X11518991Y-14867031D02*
X11528515Y-14886079D01*
X11528515Y-14886079D02*
X11538039Y-14924174D01*
X11538039Y-14924174D02*
X11538039Y-14971793D01*
X11538039Y-14971793D02*
X11528515Y-15009888D01*
X11528515Y-15009888D02*
X11518991Y-15028936D01*
X11518991Y-15028936D02*
X11509467Y-15038460D01*
X11509467Y-15038460D02*
X11490420Y-15047984D01*
X11490420Y-15047984D02*
X11471372Y-15047984D01*
X11471372Y-15047984D02*
X11452324Y-15038460D01*
X11452324Y-15038460D02*
X11442801Y-15028936D01*
X11442801Y-15028936D02*
X11433277Y-15009888D01*
X11433277Y-15009888D02*
X11423753Y-14971793D01*
X11423753Y-14971793D02*
X11423753Y-14924174D01*
X11423753Y-14924174D02*
X11433277Y-14886079D01*
X11433277Y-14886079D02*
X11442801Y-14867031D01*
X11442801Y-14867031D02*
X11452324Y-14857508D01*
X11452324Y-14857508D02*
X11471372Y-14847984D01*
X11623753Y-15028936D02*
X11633277Y-15038460D01*
X11633277Y-15038460D02*
X11623753Y-15047984D01*
X11623753Y-15047984D02*
X11614229Y-15038460D01*
X11614229Y-15038460D02*
X11623753Y-15028936D01*
X11623753Y-15028936D02*
X11623753Y-15047984D01*
X11804705Y-14847984D02*
X11766610Y-14847984D01*
X11766610Y-14847984D02*
X11747562Y-14857508D01*
X11747562Y-14857508D02*
X11738039Y-14867031D01*
X11738039Y-14867031D02*
X11718991Y-14895603D01*
X11718991Y-14895603D02*
X11709467Y-14933698D01*
X11709467Y-14933698D02*
X11709467Y-15009888D01*
X11709467Y-15009888D02*
X11718991Y-15028936D01*
X11718991Y-15028936D02*
X11728515Y-15038460D01*
X11728515Y-15038460D02*
X11747562Y-15047984D01*
X11747562Y-15047984D02*
X11785658Y-15047984D01*
X11785658Y-15047984D02*
X11804705Y-15038460D01*
X11804705Y-15038460D02*
X11814229Y-15028936D01*
X11814229Y-15028936D02*
X11823753Y-15009888D01*
X11823753Y-15009888D02*
X11823753Y-14962269D01*
X11823753Y-14962269D02*
X11814229Y-14943222D01*
X11814229Y-14943222D02*
X11804705Y-14933698D01*
X11804705Y-14933698D02*
X11785658Y-14924174D01*
X11785658Y-14924174D02*
X11747562Y-14924174D01*
X11747562Y-14924174D02*
X11728515Y-14933698D01*
X11728515Y-14933698D02*
X11718991Y-14943222D01*
X11718991Y-14943222D02*
X11709467Y-14962269D01*
X11947562Y-14847984D02*
X11966610Y-14847984D01*
X11966610Y-14847984D02*
X11985658Y-14857508D01*
X11985658Y-14857508D02*
X11995182Y-14867031D01*
X11995182Y-14867031D02*
X12004705Y-14886079D01*
X12004705Y-14886079D02*
X12014229Y-14924174D01*
X12014229Y-14924174D02*
X12014229Y-14971793D01*
X12014229Y-14971793D02*
X12004705Y-15009888D01*
X12004705Y-15009888D02*
X11995182Y-15028936D01*
X11995182Y-15028936D02*
X11985658Y-15038460D01*
X11985658Y-15038460D02*
X11966610Y-15047984D01*
X11966610Y-15047984D02*
X11947562Y-15047984D01*
X11947562Y-15047984D02*
X11928515Y-15038460D01*
X11928515Y-15038460D02*
X11918991Y-15028936D01*
X11918991Y-15028936D02*
X11909467Y-15009888D01*
X11909467Y-15009888D02*
X11899943Y-14971793D01*
X11899943Y-14971793D02*
X11899943Y-14924174D01*
X11899943Y-14924174D02*
X11909467Y-14886079D01*
X11909467Y-14886079D02*
X11918991Y-14867031D01*
X11918991Y-14867031D02*
X11928515Y-14857508D01*
X11928515Y-14857508D02*
X11947562Y-14847984D01*
X12138039Y-14847984D02*
X12157086Y-14847984D01*
X12157086Y-14847984D02*
X12176134Y-14857508D01*
X12176134Y-14857508D02*
X12185658Y-14867031D01*
X12185658Y-14867031D02*
X12195182Y-14886079D01*
X12195182Y-14886079D02*
X12204705Y-14924174D01*
X12204705Y-14924174D02*
X12204705Y-14971793D01*
X12204705Y-14971793D02*
X12195182Y-15009888D01*
X12195182Y-15009888D02*
X12185658Y-15028936D01*
X12185658Y-15028936D02*
X12176134Y-15038460D01*
X12176134Y-15038460D02*
X12157086Y-15047984D01*
X12157086Y-15047984D02*
X12138039Y-15047984D01*
X12138039Y-15047984D02*
X12118991Y-15038460D01*
X12118991Y-15038460D02*
X12109467Y-15028936D01*
X12109467Y-15028936D02*
X12099943Y-15009888D01*
X12099943Y-15009888D02*
X12090420Y-14971793D01*
X12090420Y-14971793D02*
X12090420Y-14924174D01*
X12090420Y-14924174D02*
X12099943Y-14886079D01*
X12099943Y-14886079D02*
X12109467Y-14867031D01*
X12109467Y-14867031D02*
X12118991Y-14857508D01*
X12118991Y-14857508D02*
X12138039Y-14847984D01*
X12290420Y-15047984D02*
X12290420Y-14914650D01*
X12290420Y-14933698D02*
X12299943Y-14924174D01*
X12299943Y-14924174D02*
X12318991Y-14914650D01*
X12318991Y-14914650D02*
X12347563Y-14914650D01*
X12347563Y-14914650D02*
X12366610Y-14924174D01*
X12366610Y-14924174D02*
X12376134Y-14943222D01*
X12376134Y-14943222D02*
X12376134Y-15047984D01*
X12376134Y-14943222D02*
X12385658Y-14924174D01*
X12385658Y-14924174D02*
X12404705Y-14914650D01*
X12404705Y-14914650D02*
X12433277Y-14914650D01*
X12433277Y-14914650D02*
X12452324Y-14924174D01*
X12452324Y-14924174D02*
X12461848Y-14943222D01*
X12461848Y-14943222D02*
X12461848Y-15047984D01*
X12557086Y-15047984D02*
X12557086Y-14914650D01*
X12557086Y-14933698D02*
X12566610Y-14924174D01*
X12566610Y-14924174D02*
X12585658Y-14914650D01*
X12585658Y-14914650D02*
X12614229Y-14914650D01*
X12614229Y-14914650D02*
X12633277Y-14924174D01*
X12633277Y-14924174D02*
X12642801Y-14943222D01*
X12642801Y-14943222D02*
X12642801Y-15047984D01*
X12642801Y-14943222D02*
X12652324Y-14924174D01*
X12652324Y-14924174D02*
X12671372Y-14914650D01*
X12671372Y-14914650D02*
X12699943Y-14914650D01*
X12699943Y-14914650D02*
X12718991Y-14924174D01*
X12718991Y-14924174D02*
X12728515Y-14943222D01*
X12728515Y-14943222D02*
X12728515Y-15047984D01*
X13118991Y-14838460D02*
X12947563Y-15095603D01*
X13376134Y-14847984D02*
X13395182Y-14847984D01*
X13395182Y-14847984D02*
X13414229Y-14857508D01*
X13414229Y-14857508D02*
X13423753Y-14867031D01*
X13423753Y-14867031D02*
X13433277Y-14886079D01*
X13433277Y-14886079D02*
X13442801Y-14924174D01*
X13442801Y-14924174D02*
X13442801Y-14971793D01*
X13442801Y-14971793D02*
X13433277Y-15009888D01*
X13433277Y-15009888D02*
X13423753Y-15028936D01*
X13423753Y-15028936D02*
X13414229Y-15038460D01*
X13414229Y-15038460D02*
X13395182Y-15047984D01*
X13395182Y-15047984D02*
X13376134Y-15047984D01*
X13376134Y-15047984D02*
X13357086Y-15038460D01*
X13357086Y-15038460D02*
X13347563Y-15028936D01*
X13347563Y-15028936D02*
X13338039Y-15009888D01*
X13338039Y-15009888D02*
X13328515Y-14971793D01*
X13328515Y-14971793D02*
X13328515Y-14924174D01*
X13328515Y-14924174D02*
X13338039Y-14886079D01*
X13338039Y-14886079D02*
X13347563Y-14867031D01*
X13347563Y-14867031D02*
X13357086Y-14857508D01*
X13357086Y-14857508D02*
X13376134Y-14847984D01*
X13528515Y-15028936D02*
X13538039Y-15038460D01*
X13538039Y-15038460D02*
X13528515Y-15047984D01*
X13528515Y-15047984D02*
X13518991Y-15038460D01*
X13518991Y-15038460D02*
X13528515Y-15028936D01*
X13528515Y-15028936D02*
X13528515Y-15047984D01*
X13661848Y-14847984D02*
X13680896Y-14847984D01*
X13680896Y-14847984D02*
X13699944Y-14857508D01*
X13699944Y-14857508D02*
X13709467Y-14867031D01*
X13709467Y-14867031D02*
X13718991Y-14886079D01*
X13718991Y-14886079D02*
X13728515Y-14924174D01*
X13728515Y-14924174D02*
X13728515Y-14971793D01*
X13728515Y-14971793D02*
X13718991Y-15009888D01*
X13718991Y-15009888D02*
X13709467Y-15028936D01*
X13709467Y-15028936D02*
X13699944Y-15038460D01*
X13699944Y-15038460D02*
X13680896Y-15047984D01*
X13680896Y-15047984D02*
X13661848Y-15047984D01*
X13661848Y-15047984D02*
X13642801Y-15038460D01*
X13642801Y-15038460D02*
X13633277Y-15028936D01*
X13633277Y-15028936D02*
X13623753Y-15009888D01*
X13623753Y-15009888D02*
X13614229Y-14971793D01*
X13614229Y-14971793D02*
X13614229Y-14924174D01*
X13614229Y-14924174D02*
X13623753Y-14886079D01*
X13623753Y-14886079D02*
X13633277Y-14867031D01*
X13633277Y-14867031D02*
X13642801Y-14857508D01*
X13642801Y-14857508D02*
X13661848Y-14847984D01*
X13804706Y-14867031D02*
X13814229Y-14857508D01*
X13814229Y-14857508D02*
X13833277Y-14847984D01*
X13833277Y-14847984D02*
X13880896Y-14847984D01*
X13880896Y-14847984D02*
X13899944Y-14857508D01*
X13899944Y-14857508D02*
X13909467Y-14867031D01*
X13909467Y-14867031D02*
X13918991Y-14886079D01*
X13918991Y-14886079D02*
X13918991Y-14905127D01*
X13918991Y-14905127D02*
X13909467Y-14933698D01*
X13909467Y-14933698D02*
X13795182Y-15047984D01*
X13795182Y-15047984D02*
X13918991Y-15047984D01*
X13985658Y-14847984D02*
X14109467Y-14847984D01*
X14109467Y-14847984D02*
X14042801Y-14924174D01*
X14042801Y-14924174D02*
X14071372Y-14924174D01*
X14071372Y-14924174D02*
X14090420Y-14933698D01*
X14090420Y-14933698D02*
X14099944Y-14943222D01*
X14099944Y-14943222D02*
X14109467Y-14962269D01*
X14109467Y-14962269D02*
X14109467Y-15009888D01*
X14109467Y-15009888D02*
X14099944Y-15028936D01*
X14099944Y-15028936D02*
X14090420Y-15038460D01*
X14090420Y-15038460D02*
X14071372Y-15047984D01*
X14071372Y-15047984D02*
X14014229Y-15047984D01*
X14014229Y-15047984D02*
X13995182Y-15038460D01*
X13995182Y-15038460D02*
X13985658Y-15028936D01*
X14280896Y-14847984D02*
X14242801Y-14847984D01*
X14242801Y-14847984D02*
X14223753Y-14857508D01*
X14223753Y-14857508D02*
X14214229Y-14867031D01*
X14214229Y-14867031D02*
X14195182Y-14895603D01*
X14195182Y-14895603D02*
X14185658Y-14933698D01*
X14185658Y-14933698D02*
X14185658Y-15009888D01*
X14185658Y-15009888D02*
X14195182Y-15028936D01*
X14195182Y-15028936D02*
X14204706Y-15038460D01*
X14204706Y-15038460D02*
X14223753Y-15047984D01*
X14223753Y-15047984D02*
X14261848Y-15047984D01*
X14261848Y-15047984D02*
X14280896Y-15038460D01*
X14280896Y-15038460D02*
X14290420Y-15028936D01*
X14290420Y-15028936D02*
X14299944Y-15009888D01*
X14299944Y-15009888D02*
X14299944Y-14962269D01*
X14299944Y-14962269D02*
X14290420Y-14943222D01*
X14290420Y-14943222D02*
X14280896Y-14933698D01*
X14280896Y-14933698D02*
X14261848Y-14924174D01*
X14261848Y-14924174D02*
X14223753Y-14924174D01*
X14223753Y-14924174D02*
X14204706Y-14933698D01*
X14204706Y-14933698D02*
X14195182Y-14943222D01*
X14195182Y-14943222D02*
X14185658Y-14962269D01*
X14376134Y-14847984D02*
X14376134Y-14886079D01*
X14452325Y-14847984D02*
X14452325Y-14886079D01*
X14747563Y-15124174D02*
X14738039Y-15114650D01*
X14738039Y-15114650D02*
X14718991Y-15086079D01*
X14718991Y-15086079D02*
X14709468Y-15067031D01*
X14709468Y-15067031D02*
X14699944Y-15038460D01*
X14699944Y-15038460D02*
X14690420Y-14990841D01*
X14690420Y-14990841D02*
X14690420Y-14952746D01*
X14690420Y-14952746D02*
X14699944Y-14905127D01*
X14699944Y-14905127D02*
X14709468Y-14876555D01*
X14709468Y-14876555D02*
X14718991Y-14857508D01*
X14718991Y-14857508D02*
X14738039Y-14828936D01*
X14738039Y-14828936D02*
X14747563Y-14819412D01*
X14861848Y-14847984D02*
X14880896Y-14847984D01*
X14880896Y-14847984D02*
X14899944Y-14857508D01*
X14899944Y-14857508D02*
X14909468Y-14867031D01*
X14909468Y-14867031D02*
X14918991Y-14886079D01*
X14918991Y-14886079D02*
X14928515Y-14924174D01*
X14928515Y-14924174D02*
X14928515Y-14971793D01*
X14928515Y-14971793D02*
X14918991Y-15009888D01*
X14918991Y-15009888D02*
X14909468Y-15028936D01*
X14909468Y-15028936D02*
X14899944Y-15038460D01*
X14899944Y-15038460D02*
X14880896Y-15047984D01*
X14880896Y-15047984D02*
X14861848Y-15047984D01*
X14861848Y-15047984D02*
X14842801Y-15038460D01*
X14842801Y-15038460D02*
X14833277Y-15028936D01*
X14833277Y-15028936D02*
X14823753Y-15009888D01*
X14823753Y-15009888D02*
X14814229Y-14971793D01*
X14814229Y-14971793D02*
X14814229Y-14924174D01*
X14814229Y-14924174D02*
X14823753Y-14886079D01*
X14823753Y-14886079D02*
X14833277Y-14867031D01*
X14833277Y-14867031D02*
X14842801Y-14857508D01*
X14842801Y-14857508D02*
X14861848Y-14847984D01*
X15166610Y-15047984D02*
X15166610Y-14847984D01*
X15252325Y-15047984D02*
X15252325Y-14943222D01*
X15252325Y-14943222D02*
X15242801Y-14924174D01*
X15242801Y-14924174D02*
X15223753Y-14914650D01*
X15223753Y-14914650D02*
X15195182Y-14914650D01*
X15195182Y-14914650D02*
X15176134Y-14924174D01*
X15176134Y-14924174D02*
X15166610Y-14933698D01*
X15376134Y-15047984D02*
X15357087Y-15038460D01*
X15357087Y-15038460D02*
X15347563Y-15028936D01*
X15347563Y-15028936D02*
X15338039Y-15009888D01*
X15338039Y-15009888D02*
X15338039Y-14952746D01*
X15338039Y-14952746D02*
X15347563Y-14933698D01*
X15347563Y-14933698D02*
X15357087Y-14924174D01*
X15357087Y-14924174D02*
X15376134Y-14914650D01*
X15376134Y-14914650D02*
X15404706Y-14914650D01*
X15404706Y-14914650D02*
X15423753Y-14924174D01*
X15423753Y-14924174D02*
X15433277Y-14933698D01*
X15433277Y-14933698D02*
X15442801Y-14952746D01*
X15442801Y-14952746D02*
X15442801Y-15009888D01*
X15442801Y-15009888D02*
X15433277Y-15028936D01*
X15433277Y-15028936D02*
X15423753Y-15038460D01*
X15423753Y-15038460D02*
X15404706Y-15047984D01*
X15404706Y-15047984D02*
X15376134Y-15047984D01*
X15557087Y-15047984D02*
X15538039Y-15038460D01*
X15538039Y-15038460D02*
X15528515Y-15019412D01*
X15528515Y-15019412D02*
X15528515Y-14847984D01*
X15709468Y-15038460D02*
X15690420Y-15047984D01*
X15690420Y-15047984D02*
X15652325Y-15047984D01*
X15652325Y-15047984D02*
X15633277Y-15038460D01*
X15633277Y-15038460D02*
X15623753Y-15019412D01*
X15623753Y-15019412D02*
X15623753Y-14943222D01*
X15623753Y-14943222D02*
X15633277Y-14924174D01*
X15633277Y-14924174D02*
X15652325Y-14914650D01*
X15652325Y-14914650D02*
X15690420Y-14914650D01*
X15690420Y-14914650D02*
X15709468Y-14924174D01*
X15709468Y-14924174D02*
X15718991Y-14943222D01*
X15718991Y-14943222D02*
X15718991Y-14962269D01*
X15718991Y-14962269D02*
X15623753Y-14981317D01*
X15795182Y-15038460D02*
X15814230Y-15047984D01*
X15814230Y-15047984D02*
X15852325Y-15047984D01*
X15852325Y-15047984D02*
X15871372Y-15038460D01*
X15871372Y-15038460D02*
X15880896Y-15019412D01*
X15880896Y-15019412D02*
X15880896Y-15009888D01*
X15880896Y-15009888D02*
X15871372Y-14990841D01*
X15871372Y-14990841D02*
X15852325Y-14981317D01*
X15852325Y-14981317D02*
X15823753Y-14981317D01*
X15823753Y-14981317D02*
X15804706Y-14971793D01*
X15804706Y-14971793D02*
X15795182Y-14952746D01*
X15795182Y-14952746D02*
X15795182Y-14943222D01*
X15795182Y-14943222D02*
X15804706Y-14924174D01*
X15804706Y-14924174D02*
X15823753Y-14914650D01*
X15823753Y-14914650D02*
X15852325Y-14914650D01*
X15852325Y-14914650D02*
X15871372Y-14924174D01*
X16118992Y-14971793D02*
X16271373Y-14971793D01*
X16195182Y-15047984D02*
X16195182Y-14895603D01*
X16509468Y-14867031D02*
X16518992Y-14857508D01*
X16518992Y-14857508D02*
X16538039Y-14847984D01*
X16538039Y-14847984D02*
X16585658Y-14847984D01*
X16585658Y-14847984D02*
X16604706Y-14857508D01*
X16604706Y-14857508D02*
X16614230Y-14867031D01*
X16614230Y-14867031D02*
X16623753Y-14886079D01*
X16623753Y-14886079D02*
X16623753Y-14905127D01*
X16623753Y-14905127D02*
X16614230Y-14933698D01*
X16614230Y-14933698D02*
X16499944Y-15047984D01*
X16499944Y-15047984D02*
X16623753Y-15047984D01*
X16852325Y-15038460D02*
X16871373Y-15047984D01*
X16871373Y-15047984D02*
X16909468Y-15047984D01*
X16909468Y-15047984D02*
X16928516Y-15038460D01*
X16928516Y-15038460D02*
X16938039Y-15019412D01*
X16938039Y-15019412D02*
X16938039Y-15009888D01*
X16938039Y-15009888D02*
X16928516Y-14990841D01*
X16928516Y-14990841D02*
X16909468Y-14981317D01*
X16909468Y-14981317D02*
X16880896Y-14981317D01*
X16880896Y-14981317D02*
X16861849Y-14971793D01*
X16861849Y-14971793D02*
X16852325Y-14952746D01*
X16852325Y-14952746D02*
X16852325Y-14943222D01*
X16852325Y-14943222D02*
X16861849Y-14924174D01*
X16861849Y-14924174D02*
X16880896Y-14914650D01*
X16880896Y-14914650D02*
X16909468Y-14914650D01*
X16909468Y-14914650D02*
X16928516Y-14924174D01*
X17052325Y-15047984D02*
X17033277Y-15038460D01*
X17033277Y-15038460D02*
X17023754Y-15019412D01*
X17023754Y-15019412D02*
X17023754Y-14847984D01*
X17157087Y-15047984D02*
X17138039Y-15038460D01*
X17138039Y-15038460D02*
X17128516Y-15028936D01*
X17128516Y-15028936D02*
X17118992Y-15009888D01*
X17118992Y-15009888D02*
X17118992Y-14952746D01*
X17118992Y-14952746D02*
X17128516Y-14933698D01*
X17128516Y-14933698D02*
X17138039Y-14924174D01*
X17138039Y-14924174D02*
X17157087Y-14914650D01*
X17157087Y-14914650D02*
X17185658Y-14914650D01*
X17185658Y-14914650D02*
X17204706Y-14924174D01*
X17204706Y-14924174D02*
X17214230Y-14933698D01*
X17214230Y-14933698D02*
X17223754Y-14952746D01*
X17223754Y-14952746D02*
X17223754Y-15009888D01*
X17223754Y-15009888D02*
X17214230Y-15028936D01*
X17214230Y-15028936D02*
X17204706Y-15038460D01*
X17204706Y-15038460D02*
X17185658Y-15047984D01*
X17185658Y-15047984D02*
X17157087Y-15047984D01*
X17280897Y-14914650D02*
X17357087Y-14914650D01*
X17309468Y-14847984D02*
X17309468Y-15019412D01*
X17309468Y-15019412D02*
X17318992Y-15038460D01*
X17318992Y-15038460D02*
X17338039Y-15047984D01*
X17338039Y-15047984D02*
X17357087Y-15047984D01*
X17414230Y-15038460D02*
X17433277Y-15047984D01*
X17433277Y-15047984D02*
X17471373Y-15047984D01*
X17471373Y-15047984D02*
X17490420Y-15038460D01*
X17490420Y-15038460D02*
X17499944Y-15019412D01*
X17499944Y-15019412D02*
X17499944Y-15009888D01*
X17499944Y-15009888D02*
X17490420Y-14990841D01*
X17490420Y-14990841D02*
X17471373Y-14981317D01*
X17471373Y-14981317D02*
X17442801Y-14981317D01*
X17442801Y-14981317D02*
X17423754Y-14971793D01*
X17423754Y-14971793D02*
X17414230Y-14952746D01*
X17414230Y-14952746D02*
X17414230Y-14943222D01*
X17414230Y-14943222D02*
X17423754Y-14924174D01*
X17423754Y-14924174D02*
X17442801Y-14914650D01*
X17442801Y-14914650D02*
X17471373Y-14914650D01*
X17471373Y-14914650D02*
X17490420Y-14924174D01*
X17566611Y-15124174D02*
X17576135Y-15114650D01*
X17576135Y-15114650D02*
X17595182Y-15086079D01*
X17595182Y-15086079D02*
X17604706Y-15067031D01*
X17604706Y-15067031D02*
X17614230Y-15038460D01*
X17614230Y-15038460D02*
X17623754Y-14990841D01*
X17623754Y-14990841D02*
X17623754Y-14952746D01*
X17623754Y-14952746D02*
X17614230Y-14905127D01*
X17614230Y-14905127D02*
X17604706Y-14876555D01*
X17604706Y-14876555D02*
X17595182Y-14857508D01*
X17595182Y-14857508D02*
X17576135Y-14828936D01*
X17576135Y-14828936D02*
X17566611Y-14819412D01*
D12*
X11132500Y-15180500D02*
X11132500Y-15260500D01*
X11092500Y-15220500D02*
X11172500Y-15220500D01*
D11*
X11471372Y-15111984D02*
X11490420Y-15111984D01*
X11490420Y-15111984D02*
X11509467Y-15121508D01*
X11509467Y-15121508D02*
X11518991Y-15131031D01*
X11518991Y-15131031D02*
X11528515Y-15150079D01*
X11528515Y-15150079D02*
X11538039Y-15188174D01*
X11538039Y-15188174D02*
X11538039Y-15235793D01*
X11538039Y-15235793D02*
X11528515Y-15273888D01*
X11528515Y-15273888D02*
X11518991Y-15292936D01*
X11518991Y-15292936D02*
X11509467Y-15302460D01*
X11509467Y-15302460D02*
X11490420Y-15311984D01*
X11490420Y-15311984D02*
X11471372Y-15311984D01*
X11471372Y-15311984D02*
X11452324Y-15302460D01*
X11452324Y-15302460D02*
X11442801Y-15292936D01*
X11442801Y-15292936D02*
X11433277Y-15273888D01*
X11433277Y-15273888D02*
X11423753Y-15235793D01*
X11423753Y-15235793D02*
X11423753Y-15188174D01*
X11423753Y-15188174D02*
X11433277Y-15150079D01*
X11433277Y-15150079D02*
X11442801Y-15131031D01*
X11442801Y-15131031D02*
X11452324Y-15121508D01*
X11452324Y-15121508D02*
X11471372Y-15111984D01*
X11623753Y-15292936D02*
X11633277Y-15302460D01*
X11633277Y-15302460D02*
X11623753Y-15311984D01*
X11623753Y-15311984D02*
X11614229Y-15302460D01*
X11614229Y-15302460D02*
X11623753Y-15292936D01*
X11623753Y-15292936D02*
X11623753Y-15311984D01*
X11747562Y-15197698D02*
X11728515Y-15188174D01*
X11728515Y-15188174D02*
X11718991Y-15178650D01*
X11718991Y-15178650D02*
X11709467Y-15159603D01*
X11709467Y-15159603D02*
X11709467Y-15150079D01*
X11709467Y-15150079D02*
X11718991Y-15131031D01*
X11718991Y-15131031D02*
X11728515Y-15121508D01*
X11728515Y-15121508D02*
X11747562Y-15111984D01*
X11747562Y-15111984D02*
X11785658Y-15111984D01*
X11785658Y-15111984D02*
X11804705Y-15121508D01*
X11804705Y-15121508D02*
X11814229Y-15131031D01*
X11814229Y-15131031D02*
X11823753Y-15150079D01*
X11823753Y-15150079D02*
X11823753Y-15159603D01*
X11823753Y-15159603D02*
X11814229Y-15178650D01*
X11814229Y-15178650D02*
X11804705Y-15188174D01*
X11804705Y-15188174D02*
X11785658Y-15197698D01*
X11785658Y-15197698D02*
X11747562Y-15197698D01*
X11747562Y-15197698D02*
X11728515Y-15207222D01*
X11728515Y-15207222D02*
X11718991Y-15216746D01*
X11718991Y-15216746D02*
X11709467Y-15235793D01*
X11709467Y-15235793D02*
X11709467Y-15273888D01*
X11709467Y-15273888D02*
X11718991Y-15292936D01*
X11718991Y-15292936D02*
X11728515Y-15302460D01*
X11728515Y-15302460D02*
X11747562Y-15311984D01*
X11747562Y-15311984D02*
X11785658Y-15311984D01*
X11785658Y-15311984D02*
X11804705Y-15302460D01*
X11804705Y-15302460D02*
X11814229Y-15292936D01*
X11814229Y-15292936D02*
X11823753Y-15273888D01*
X11823753Y-15273888D02*
X11823753Y-15235793D01*
X11823753Y-15235793D02*
X11814229Y-15216746D01*
X11814229Y-15216746D02*
X11804705Y-15207222D01*
X11804705Y-15207222D02*
X11785658Y-15197698D01*
X11947562Y-15111984D02*
X11966610Y-15111984D01*
X11966610Y-15111984D02*
X11985658Y-15121508D01*
X11985658Y-15121508D02*
X11995182Y-15131031D01*
X11995182Y-15131031D02*
X12004705Y-15150079D01*
X12004705Y-15150079D02*
X12014229Y-15188174D01*
X12014229Y-15188174D02*
X12014229Y-15235793D01*
X12014229Y-15235793D02*
X12004705Y-15273888D01*
X12004705Y-15273888D02*
X11995182Y-15292936D01*
X11995182Y-15292936D02*
X11985658Y-15302460D01*
X11985658Y-15302460D02*
X11966610Y-15311984D01*
X11966610Y-15311984D02*
X11947562Y-15311984D01*
X11947562Y-15311984D02*
X11928515Y-15302460D01*
X11928515Y-15302460D02*
X11918991Y-15292936D01*
X11918991Y-15292936D02*
X11909467Y-15273888D01*
X11909467Y-15273888D02*
X11899943Y-15235793D01*
X11899943Y-15235793D02*
X11899943Y-15188174D01*
X11899943Y-15188174D02*
X11909467Y-15150079D01*
X11909467Y-15150079D02*
X11918991Y-15131031D01*
X11918991Y-15131031D02*
X11928515Y-15121508D01*
X11928515Y-15121508D02*
X11947562Y-15111984D01*
X12138039Y-15111984D02*
X12157086Y-15111984D01*
X12157086Y-15111984D02*
X12176134Y-15121508D01*
X12176134Y-15121508D02*
X12185658Y-15131031D01*
X12185658Y-15131031D02*
X12195182Y-15150079D01*
X12195182Y-15150079D02*
X12204705Y-15188174D01*
X12204705Y-15188174D02*
X12204705Y-15235793D01*
X12204705Y-15235793D02*
X12195182Y-15273888D01*
X12195182Y-15273888D02*
X12185658Y-15292936D01*
X12185658Y-15292936D02*
X12176134Y-15302460D01*
X12176134Y-15302460D02*
X12157086Y-15311984D01*
X12157086Y-15311984D02*
X12138039Y-15311984D01*
X12138039Y-15311984D02*
X12118991Y-15302460D01*
X12118991Y-15302460D02*
X12109467Y-15292936D01*
X12109467Y-15292936D02*
X12099943Y-15273888D01*
X12099943Y-15273888D02*
X12090420Y-15235793D01*
X12090420Y-15235793D02*
X12090420Y-15188174D01*
X12090420Y-15188174D02*
X12099943Y-15150079D01*
X12099943Y-15150079D02*
X12109467Y-15131031D01*
X12109467Y-15131031D02*
X12118991Y-15121508D01*
X12118991Y-15121508D02*
X12138039Y-15111984D01*
X12290420Y-15311984D02*
X12290420Y-15178650D01*
X12290420Y-15197698D02*
X12299943Y-15188174D01*
X12299943Y-15188174D02*
X12318991Y-15178650D01*
X12318991Y-15178650D02*
X12347563Y-15178650D01*
X12347563Y-15178650D02*
X12366610Y-15188174D01*
X12366610Y-15188174D02*
X12376134Y-15207222D01*
X12376134Y-15207222D02*
X12376134Y-15311984D01*
X12376134Y-15207222D02*
X12385658Y-15188174D01*
X12385658Y-15188174D02*
X12404705Y-15178650D01*
X12404705Y-15178650D02*
X12433277Y-15178650D01*
X12433277Y-15178650D02*
X12452324Y-15188174D01*
X12452324Y-15188174D02*
X12461848Y-15207222D01*
X12461848Y-15207222D02*
X12461848Y-15311984D01*
X12557086Y-15311984D02*
X12557086Y-15178650D01*
X12557086Y-15197698D02*
X12566610Y-15188174D01*
X12566610Y-15188174D02*
X12585658Y-15178650D01*
X12585658Y-15178650D02*
X12614229Y-15178650D01*
X12614229Y-15178650D02*
X12633277Y-15188174D01*
X12633277Y-15188174D02*
X12642801Y-15207222D01*
X12642801Y-15207222D02*
X12642801Y-15311984D01*
X12642801Y-15207222D02*
X12652324Y-15188174D01*
X12652324Y-15188174D02*
X12671372Y-15178650D01*
X12671372Y-15178650D02*
X12699943Y-15178650D01*
X12699943Y-15178650D02*
X12718991Y-15188174D01*
X12718991Y-15188174D02*
X12728515Y-15207222D01*
X12728515Y-15207222D02*
X12728515Y-15311984D01*
X13118991Y-15102460D02*
X12947563Y-15359603D01*
X13376134Y-15111984D02*
X13395182Y-15111984D01*
X13395182Y-15111984D02*
X13414229Y-15121508D01*
X13414229Y-15121508D02*
X13423753Y-15131031D01*
X13423753Y-15131031D02*
X13433277Y-15150079D01*
X13433277Y-15150079D02*
X13442801Y-15188174D01*
X13442801Y-15188174D02*
X13442801Y-15235793D01*
X13442801Y-15235793D02*
X13433277Y-15273888D01*
X13433277Y-15273888D02*
X13423753Y-15292936D01*
X13423753Y-15292936D02*
X13414229Y-15302460D01*
X13414229Y-15302460D02*
X13395182Y-15311984D01*
X13395182Y-15311984D02*
X13376134Y-15311984D01*
X13376134Y-15311984D02*
X13357086Y-15302460D01*
X13357086Y-15302460D02*
X13347563Y-15292936D01*
X13347563Y-15292936D02*
X13338039Y-15273888D01*
X13338039Y-15273888D02*
X13328515Y-15235793D01*
X13328515Y-15235793D02*
X13328515Y-15188174D01*
X13328515Y-15188174D02*
X13338039Y-15150079D01*
X13338039Y-15150079D02*
X13347563Y-15131031D01*
X13347563Y-15131031D02*
X13357086Y-15121508D01*
X13357086Y-15121508D02*
X13376134Y-15111984D01*
X13528515Y-15292936D02*
X13538039Y-15302460D01*
X13538039Y-15302460D02*
X13528515Y-15311984D01*
X13528515Y-15311984D02*
X13518991Y-15302460D01*
X13518991Y-15302460D02*
X13528515Y-15292936D01*
X13528515Y-15292936D02*
X13528515Y-15311984D01*
X13661848Y-15111984D02*
X13680896Y-15111984D01*
X13680896Y-15111984D02*
X13699944Y-15121508D01*
X13699944Y-15121508D02*
X13709467Y-15131031D01*
X13709467Y-15131031D02*
X13718991Y-15150079D01*
X13718991Y-15150079D02*
X13728515Y-15188174D01*
X13728515Y-15188174D02*
X13728515Y-15235793D01*
X13728515Y-15235793D02*
X13718991Y-15273888D01*
X13718991Y-15273888D02*
X13709467Y-15292936D01*
X13709467Y-15292936D02*
X13699944Y-15302460D01*
X13699944Y-15302460D02*
X13680896Y-15311984D01*
X13680896Y-15311984D02*
X13661848Y-15311984D01*
X13661848Y-15311984D02*
X13642801Y-15302460D01*
X13642801Y-15302460D02*
X13633277Y-15292936D01*
X13633277Y-15292936D02*
X13623753Y-15273888D01*
X13623753Y-15273888D02*
X13614229Y-15235793D01*
X13614229Y-15235793D02*
X13614229Y-15188174D01*
X13614229Y-15188174D02*
X13623753Y-15150079D01*
X13623753Y-15150079D02*
X13633277Y-15131031D01*
X13633277Y-15131031D02*
X13642801Y-15121508D01*
X13642801Y-15121508D02*
X13661848Y-15111984D01*
X13795182Y-15111984D02*
X13918991Y-15111984D01*
X13918991Y-15111984D02*
X13852325Y-15188174D01*
X13852325Y-15188174D02*
X13880896Y-15188174D01*
X13880896Y-15188174D02*
X13899944Y-15197698D01*
X13899944Y-15197698D02*
X13909467Y-15207222D01*
X13909467Y-15207222D02*
X13918991Y-15226269D01*
X13918991Y-15226269D02*
X13918991Y-15273888D01*
X13918991Y-15273888D02*
X13909467Y-15292936D01*
X13909467Y-15292936D02*
X13899944Y-15302460D01*
X13899944Y-15302460D02*
X13880896Y-15311984D01*
X13880896Y-15311984D02*
X13823753Y-15311984D01*
X13823753Y-15311984D02*
X13804706Y-15302460D01*
X13804706Y-15302460D02*
X13795182Y-15292936D01*
X14109467Y-15311984D02*
X13995182Y-15311984D01*
X14052325Y-15311984D02*
X14052325Y-15111984D01*
X14052325Y-15111984D02*
X14033277Y-15140555D01*
X14033277Y-15140555D02*
X14014229Y-15159603D01*
X14014229Y-15159603D02*
X13995182Y-15169127D01*
X14290420Y-15111984D02*
X14195182Y-15111984D01*
X14195182Y-15111984D02*
X14185658Y-15207222D01*
X14185658Y-15207222D02*
X14195182Y-15197698D01*
X14195182Y-15197698D02*
X14214229Y-15188174D01*
X14214229Y-15188174D02*
X14261848Y-15188174D01*
X14261848Y-15188174D02*
X14280896Y-15197698D01*
X14280896Y-15197698D02*
X14290420Y-15207222D01*
X14290420Y-15207222D02*
X14299944Y-15226269D01*
X14299944Y-15226269D02*
X14299944Y-15273888D01*
X14299944Y-15273888D02*
X14290420Y-15292936D01*
X14290420Y-15292936D02*
X14280896Y-15302460D01*
X14280896Y-15302460D02*
X14261848Y-15311984D01*
X14261848Y-15311984D02*
X14214229Y-15311984D01*
X14214229Y-15311984D02*
X14195182Y-15302460D01*
X14195182Y-15302460D02*
X14185658Y-15292936D01*
X14376134Y-15111984D02*
X14376134Y-15150079D01*
X14452325Y-15111984D02*
X14452325Y-15150079D01*
X14747563Y-15388174D02*
X14738039Y-15378650D01*
X14738039Y-15378650D02*
X14718991Y-15350079D01*
X14718991Y-15350079D02*
X14709468Y-15331031D01*
X14709468Y-15331031D02*
X14699944Y-15302460D01*
X14699944Y-15302460D02*
X14690420Y-15254841D01*
X14690420Y-15254841D02*
X14690420Y-15216746D01*
X14690420Y-15216746D02*
X14699944Y-15169127D01*
X14699944Y-15169127D02*
X14709468Y-15140555D01*
X14709468Y-15140555D02*
X14718991Y-15121508D01*
X14718991Y-15121508D02*
X14738039Y-15092936D01*
X14738039Y-15092936D02*
X14747563Y-15083412D01*
X14909468Y-15178650D02*
X14909468Y-15311984D01*
X14861848Y-15102460D02*
X14814229Y-15245317D01*
X14814229Y-15245317D02*
X14938039Y-15245317D01*
X15166610Y-15311984D02*
X15166610Y-15111984D01*
X15252325Y-15311984D02*
X15252325Y-15207222D01*
X15252325Y-15207222D02*
X15242801Y-15188174D01*
X15242801Y-15188174D02*
X15223753Y-15178650D01*
X15223753Y-15178650D02*
X15195182Y-15178650D01*
X15195182Y-15178650D02*
X15176134Y-15188174D01*
X15176134Y-15188174D02*
X15166610Y-15197698D01*
X15376134Y-15311984D02*
X15357087Y-15302460D01*
X15357087Y-15302460D02*
X15347563Y-15292936D01*
X15347563Y-15292936D02*
X15338039Y-15273888D01*
X15338039Y-15273888D02*
X15338039Y-15216746D01*
X15338039Y-15216746D02*
X15347563Y-15197698D01*
X15347563Y-15197698D02*
X15357087Y-15188174D01*
X15357087Y-15188174D02*
X15376134Y-15178650D01*
X15376134Y-15178650D02*
X15404706Y-15178650D01*
X15404706Y-15178650D02*
X15423753Y-15188174D01*
X15423753Y-15188174D02*
X15433277Y-15197698D01*
X15433277Y-15197698D02*
X15442801Y-15216746D01*
X15442801Y-15216746D02*
X15442801Y-15273888D01*
X15442801Y-15273888D02*
X15433277Y-15292936D01*
X15433277Y-15292936D02*
X15423753Y-15302460D01*
X15423753Y-15302460D02*
X15404706Y-15311984D01*
X15404706Y-15311984D02*
X15376134Y-15311984D01*
X15557087Y-15311984D02*
X15538039Y-15302460D01*
X15538039Y-15302460D02*
X15528515Y-15283412D01*
X15528515Y-15283412D02*
X15528515Y-15111984D01*
X15709468Y-15302460D02*
X15690420Y-15311984D01*
X15690420Y-15311984D02*
X15652325Y-15311984D01*
X15652325Y-15311984D02*
X15633277Y-15302460D01*
X15633277Y-15302460D02*
X15623753Y-15283412D01*
X15623753Y-15283412D02*
X15623753Y-15207222D01*
X15623753Y-15207222D02*
X15633277Y-15188174D01*
X15633277Y-15188174D02*
X15652325Y-15178650D01*
X15652325Y-15178650D02*
X15690420Y-15178650D01*
X15690420Y-15178650D02*
X15709468Y-15188174D01*
X15709468Y-15188174D02*
X15718991Y-15207222D01*
X15718991Y-15207222D02*
X15718991Y-15226269D01*
X15718991Y-15226269D02*
X15623753Y-15245317D01*
X15795182Y-15302460D02*
X15814230Y-15311984D01*
X15814230Y-15311984D02*
X15852325Y-15311984D01*
X15852325Y-15311984D02*
X15871372Y-15302460D01*
X15871372Y-15302460D02*
X15880896Y-15283412D01*
X15880896Y-15283412D02*
X15880896Y-15273888D01*
X15880896Y-15273888D02*
X15871372Y-15254841D01*
X15871372Y-15254841D02*
X15852325Y-15245317D01*
X15852325Y-15245317D02*
X15823753Y-15245317D01*
X15823753Y-15245317D02*
X15804706Y-15235793D01*
X15804706Y-15235793D02*
X15795182Y-15216746D01*
X15795182Y-15216746D02*
X15795182Y-15207222D01*
X15795182Y-15207222D02*
X15804706Y-15188174D01*
X15804706Y-15188174D02*
X15823753Y-15178650D01*
X15823753Y-15178650D02*
X15852325Y-15178650D01*
X15852325Y-15178650D02*
X15871372Y-15188174D01*
X15947563Y-15388174D02*
X15957087Y-15378650D01*
X15957087Y-15378650D02*
X15976134Y-15350079D01*
X15976134Y-15350079D02*
X15985658Y-15331031D01*
X15985658Y-15331031D02*
X15995182Y-15302460D01*
X15995182Y-15302460D02*
X16004706Y-15254841D01*
X16004706Y-15254841D02*
X16004706Y-15216746D01*
X16004706Y-15216746D02*
X15995182Y-15169127D01*
X15995182Y-15169127D02*
X15985658Y-15140555D01*
X15985658Y-15140555D02*
X15976134Y-15121508D01*
X15976134Y-15121508D02*
X15957087Y-15092936D01*
X15957087Y-15092936D02*
X15947563Y-15083412D01*
D13*
X11156391Y-15523391D02*
X11156391Y-15445609D01*
X11078609Y-15445609D01*
X11078609Y-15523391D01*
X11156391Y-15523391D01*
D11*
X11538039Y-15575984D02*
X11423753Y-15575984D01*
X11480896Y-15575984D02*
X11480896Y-15375984D01*
X11480896Y-15375984D02*
X11461848Y-15404555D01*
X11461848Y-15404555D02*
X11442801Y-15423603D01*
X11442801Y-15423603D02*
X11423753Y-15433127D01*
X11623753Y-15556936D02*
X11633277Y-15566460D01*
X11633277Y-15566460D02*
X11623753Y-15575984D01*
X11623753Y-15575984D02*
X11614229Y-15566460D01*
X11614229Y-15566460D02*
X11623753Y-15556936D01*
X11623753Y-15556936D02*
X11623753Y-15575984D01*
X11823753Y-15575984D02*
X11709467Y-15575984D01*
X11766610Y-15575984D02*
X11766610Y-15375984D01*
X11766610Y-15375984D02*
X11747562Y-15404555D01*
X11747562Y-15404555D02*
X11728515Y-15423603D01*
X11728515Y-15423603D02*
X11709467Y-15433127D01*
X11947562Y-15375984D02*
X11966610Y-15375984D01*
X11966610Y-15375984D02*
X11985658Y-15385508D01*
X11985658Y-15385508D02*
X11995182Y-15395031D01*
X11995182Y-15395031D02*
X12004705Y-15414079D01*
X12004705Y-15414079D02*
X12014229Y-15452174D01*
X12014229Y-15452174D02*
X12014229Y-15499793D01*
X12014229Y-15499793D02*
X12004705Y-15537888D01*
X12004705Y-15537888D02*
X11995182Y-15556936D01*
X11995182Y-15556936D02*
X11985658Y-15566460D01*
X11985658Y-15566460D02*
X11966610Y-15575984D01*
X11966610Y-15575984D02*
X11947562Y-15575984D01*
X11947562Y-15575984D02*
X11928515Y-15566460D01*
X11928515Y-15566460D02*
X11918991Y-15556936D01*
X11918991Y-15556936D02*
X11909467Y-15537888D01*
X11909467Y-15537888D02*
X11899943Y-15499793D01*
X11899943Y-15499793D02*
X11899943Y-15452174D01*
X11899943Y-15452174D02*
X11909467Y-15414079D01*
X11909467Y-15414079D02*
X11918991Y-15395031D01*
X11918991Y-15395031D02*
X11928515Y-15385508D01*
X11928515Y-15385508D02*
X11947562Y-15375984D01*
X12138039Y-15375984D02*
X12157086Y-15375984D01*
X12157086Y-15375984D02*
X12176134Y-15385508D01*
X12176134Y-15385508D02*
X12185658Y-15395031D01*
X12185658Y-15395031D02*
X12195182Y-15414079D01*
X12195182Y-15414079D02*
X12204705Y-15452174D01*
X12204705Y-15452174D02*
X12204705Y-15499793D01*
X12204705Y-15499793D02*
X12195182Y-15537888D01*
X12195182Y-15537888D02*
X12185658Y-15556936D01*
X12185658Y-15556936D02*
X12176134Y-15566460D01*
X12176134Y-15566460D02*
X12157086Y-15575984D01*
X12157086Y-15575984D02*
X12138039Y-15575984D01*
X12138039Y-15575984D02*
X12118991Y-15566460D01*
X12118991Y-15566460D02*
X12109467Y-15556936D01*
X12109467Y-15556936D02*
X12099943Y-15537888D01*
X12099943Y-15537888D02*
X12090420Y-15499793D01*
X12090420Y-15499793D02*
X12090420Y-15452174D01*
X12090420Y-15452174D02*
X12099943Y-15414079D01*
X12099943Y-15414079D02*
X12109467Y-15395031D01*
X12109467Y-15395031D02*
X12118991Y-15385508D01*
X12118991Y-15385508D02*
X12138039Y-15375984D01*
X12290420Y-15575984D02*
X12290420Y-15442650D01*
X12290420Y-15461698D02*
X12299943Y-15452174D01*
X12299943Y-15452174D02*
X12318991Y-15442650D01*
X12318991Y-15442650D02*
X12347563Y-15442650D01*
X12347563Y-15442650D02*
X12366610Y-15452174D01*
X12366610Y-15452174D02*
X12376134Y-15471222D01*
X12376134Y-15471222D02*
X12376134Y-15575984D01*
X12376134Y-15471222D02*
X12385658Y-15452174D01*
X12385658Y-15452174D02*
X12404705Y-15442650D01*
X12404705Y-15442650D02*
X12433277Y-15442650D01*
X12433277Y-15442650D02*
X12452324Y-15452174D01*
X12452324Y-15452174D02*
X12461848Y-15471222D01*
X12461848Y-15471222D02*
X12461848Y-15575984D01*
X12557086Y-15575984D02*
X12557086Y-15442650D01*
X12557086Y-15461698D02*
X12566610Y-15452174D01*
X12566610Y-15452174D02*
X12585658Y-15442650D01*
X12585658Y-15442650D02*
X12614229Y-15442650D01*
X12614229Y-15442650D02*
X12633277Y-15452174D01*
X12633277Y-15452174D02*
X12642801Y-15471222D01*
X12642801Y-15471222D02*
X12642801Y-15575984D01*
X12642801Y-15471222D02*
X12652324Y-15452174D01*
X12652324Y-15452174D02*
X12671372Y-15442650D01*
X12671372Y-15442650D02*
X12699943Y-15442650D01*
X12699943Y-15442650D02*
X12718991Y-15452174D01*
X12718991Y-15452174D02*
X12728515Y-15471222D01*
X12728515Y-15471222D02*
X12728515Y-15575984D01*
X13118991Y-15366460D02*
X12947563Y-15623603D01*
X13376134Y-15375984D02*
X13395182Y-15375984D01*
X13395182Y-15375984D02*
X13414229Y-15385508D01*
X13414229Y-15385508D02*
X13423753Y-15395031D01*
X13423753Y-15395031D02*
X13433277Y-15414079D01*
X13433277Y-15414079D02*
X13442801Y-15452174D01*
X13442801Y-15452174D02*
X13442801Y-15499793D01*
X13442801Y-15499793D02*
X13433277Y-15537888D01*
X13433277Y-15537888D02*
X13423753Y-15556936D01*
X13423753Y-15556936D02*
X13414229Y-15566460D01*
X13414229Y-15566460D02*
X13395182Y-15575984D01*
X13395182Y-15575984D02*
X13376134Y-15575984D01*
X13376134Y-15575984D02*
X13357086Y-15566460D01*
X13357086Y-15566460D02*
X13347563Y-15556936D01*
X13347563Y-15556936D02*
X13338039Y-15537888D01*
X13338039Y-15537888D02*
X13328515Y-15499793D01*
X13328515Y-15499793D02*
X13328515Y-15452174D01*
X13328515Y-15452174D02*
X13338039Y-15414079D01*
X13338039Y-15414079D02*
X13347563Y-15395031D01*
X13347563Y-15395031D02*
X13357086Y-15385508D01*
X13357086Y-15385508D02*
X13376134Y-15375984D01*
X13528515Y-15556936D02*
X13538039Y-15566460D01*
X13538039Y-15566460D02*
X13528515Y-15575984D01*
X13528515Y-15575984D02*
X13518991Y-15566460D01*
X13518991Y-15566460D02*
X13528515Y-15556936D01*
X13528515Y-15556936D02*
X13528515Y-15575984D01*
X13661848Y-15375984D02*
X13680896Y-15375984D01*
X13680896Y-15375984D02*
X13699944Y-15385508D01*
X13699944Y-15385508D02*
X13709467Y-15395031D01*
X13709467Y-15395031D02*
X13718991Y-15414079D01*
X13718991Y-15414079D02*
X13728515Y-15452174D01*
X13728515Y-15452174D02*
X13728515Y-15499793D01*
X13728515Y-15499793D02*
X13718991Y-15537888D01*
X13718991Y-15537888D02*
X13709467Y-15556936D01*
X13709467Y-15556936D02*
X13699944Y-15566460D01*
X13699944Y-15566460D02*
X13680896Y-15575984D01*
X13680896Y-15575984D02*
X13661848Y-15575984D01*
X13661848Y-15575984D02*
X13642801Y-15566460D01*
X13642801Y-15566460D02*
X13633277Y-15556936D01*
X13633277Y-15556936D02*
X13623753Y-15537888D01*
X13623753Y-15537888D02*
X13614229Y-15499793D01*
X13614229Y-15499793D02*
X13614229Y-15452174D01*
X13614229Y-15452174D02*
X13623753Y-15414079D01*
X13623753Y-15414079D02*
X13633277Y-15395031D01*
X13633277Y-15395031D02*
X13642801Y-15385508D01*
X13642801Y-15385508D02*
X13661848Y-15375984D01*
X13899944Y-15442650D02*
X13899944Y-15575984D01*
X13852325Y-15366460D02*
X13804706Y-15509317D01*
X13804706Y-15509317D02*
X13928515Y-15509317D01*
X13985658Y-15375984D02*
X14109467Y-15375984D01*
X14109467Y-15375984D02*
X14042801Y-15452174D01*
X14042801Y-15452174D02*
X14071372Y-15452174D01*
X14071372Y-15452174D02*
X14090420Y-15461698D01*
X14090420Y-15461698D02*
X14099944Y-15471222D01*
X14099944Y-15471222D02*
X14109467Y-15490269D01*
X14109467Y-15490269D02*
X14109467Y-15537888D01*
X14109467Y-15537888D02*
X14099944Y-15556936D01*
X14099944Y-15556936D02*
X14090420Y-15566460D01*
X14090420Y-15566460D02*
X14071372Y-15575984D01*
X14071372Y-15575984D02*
X14014229Y-15575984D01*
X14014229Y-15575984D02*
X13995182Y-15566460D01*
X13995182Y-15566460D02*
X13985658Y-15556936D01*
X14176134Y-15375984D02*
X14299944Y-15375984D01*
X14299944Y-15375984D02*
X14233277Y-15452174D01*
X14233277Y-15452174D02*
X14261848Y-15452174D01*
X14261848Y-15452174D02*
X14280896Y-15461698D01*
X14280896Y-15461698D02*
X14290420Y-15471222D01*
X14290420Y-15471222D02*
X14299944Y-15490269D01*
X14299944Y-15490269D02*
X14299944Y-15537888D01*
X14299944Y-15537888D02*
X14290420Y-15556936D01*
X14290420Y-15556936D02*
X14280896Y-15566460D01*
X14280896Y-15566460D02*
X14261848Y-15575984D01*
X14261848Y-15575984D02*
X14204706Y-15575984D01*
X14204706Y-15575984D02*
X14185658Y-15566460D01*
X14185658Y-15566460D02*
X14176134Y-15556936D01*
X14376134Y-15375984D02*
X14376134Y-15414079D01*
X14452325Y-15375984D02*
X14452325Y-15414079D01*
X14747563Y-15652174D02*
X14738039Y-15642650D01*
X14738039Y-15642650D02*
X14718991Y-15614079D01*
X14718991Y-15614079D02*
X14709468Y-15595031D01*
X14709468Y-15595031D02*
X14699944Y-15566460D01*
X14699944Y-15566460D02*
X14690420Y-15518841D01*
X14690420Y-15518841D02*
X14690420Y-15480746D01*
X14690420Y-15480746D02*
X14699944Y-15433127D01*
X14699944Y-15433127D02*
X14709468Y-15404555D01*
X14709468Y-15404555D02*
X14718991Y-15385508D01*
X14718991Y-15385508D02*
X14738039Y-15356936D01*
X14738039Y-15356936D02*
X14747563Y-15347412D01*
X14909468Y-15375984D02*
X14871372Y-15375984D01*
X14871372Y-15375984D02*
X14852325Y-15385508D01*
X14852325Y-15385508D02*
X14842801Y-15395031D01*
X14842801Y-15395031D02*
X14823753Y-15423603D01*
X14823753Y-15423603D02*
X14814229Y-15461698D01*
X14814229Y-15461698D02*
X14814229Y-15537888D01*
X14814229Y-15537888D02*
X14823753Y-15556936D01*
X14823753Y-15556936D02*
X14833277Y-15566460D01*
X14833277Y-15566460D02*
X14852325Y-15575984D01*
X14852325Y-15575984D02*
X14890420Y-15575984D01*
X14890420Y-15575984D02*
X14909468Y-15566460D01*
X14909468Y-15566460D02*
X14918991Y-15556936D01*
X14918991Y-15556936D02*
X14928515Y-15537888D01*
X14928515Y-15537888D02*
X14928515Y-15490269D01*
X14928515Y-15490269D02*
X14918991Y-15471222D01*
X14918991Y-15471222D02*
X14909468Y-15461698D01*
X14909468Y-15461698D02*
X14890420Y-15452174D01*
X14890420Y-15452174D02*
X14852325Y-15452174D01*
X14852325Y-15452174D02*
X14833277Y-15461698D01*
X14833277Y-15461698D02*
X14823753Y-15471222D01*
X14823753Y-15471222D02*
X14814229Y-15490269D01*
X15166610Y-15575984D02*
X15166610Y-15375984D01*
X15252325Y-15575984D02*
X15252325Y-15471222D01*
X15252325Y-15471222D02*
X15242801Y-15452174D01*
X15242801Y-15452174D02*
X15223753Y-15442650D01*
X15223753Y-15442650D02*
X15195182Y-15442650D01*
X15195182Y-15442650D02*
X15176134Y-15452174D01*
X15176134Y-15452174D02*
X15166610Y-15461698D01*
X15376134Y-15575984D02*
X15357087Y-15566460D01*
X15357087Y-15566460D02*
X15347563Y-15556936D01*
X15347563Y-15556936D02*
X15338039Y-15537888D01*
X15338039Y-15537888D02*
X15338039Y-15480746D01*
X15338039Y-15480746D02*
X15347563Y-15461698D01*
X15347563Y-15461698D02*
X15357087Y-15452174D01*
X15357087Y-15452174D02*
X15376134Y-15442650D01*
X15376134Y-15442650D02*
X15404706Y-15442650D01*
X15404706Y-15442650D02*
X15423753Y-15452174D01*
X15423753Y-15452174D02*
X15433277Y-15461698D01*
X15433277Y-15461698D02*
X15442801Y-15480746D01*
X15442801Y-15480746D02*
X15442801Y-15537888D01*
X15442801Y-15537888D02*
X15433277Y-15556936D01*
X15433277Y-15556936D02*
X15423753Y-15566460D01*
X15423753Y-15566460D02*
X15404706Y-15575984D01*
X15404706Y-15575984D02*
X15376134Y-15575984D01*
X15557087Y-15575984D02*
X15538039Y-15566460D01*
X15538039Y-15566460D02*
X15528515Y-15547412D01*
X15528515Y-15547412D02*
X15528515Y-15375984D01*
X15709468Y-15566460D02*
X15690420Y-15575984D01*
X15690420Y-15575984D02*
X15652325Y-15575984D01*
X15652325Y-15575984D02*
X15633277Y-15566460D01*
X15633277Y-15566460D02*
X15623753Y-15547412D01*
X15623753Y-15547412D02*
X15623753Y-15471222D01*
X15623753Y-15471222D02*
X15633277Y-15452174D01*
X15633277Y-15452174D02*
X15652325Y-15442650D01*
X15652325Y-15442650D02*
X15690420Y-15442650D01*
X15690420Y-15442650D02*
X15709468Y-15452174D01*
X15709468Y-15452174D02*
X15718991Y-15471222D01*
X15718991Y-15471222D02*
X15718991Y-15490269D01*
X15718991Y-15490269D02*
X15623753Y-15509317D01*
X15795182Y-15566460D02*
X15814230Y-15575984D01*
X15814230Y-15575984D02*
X15852325Y-15575984D01*
X15852325Y-15575984D02*
X15871372Y-15566460D01*
X15871372Y-15566460D02*
X15880896Y-15547412D01*
X15880896Y-15547412D02*
X15880896Y-15537888D01*
X15880896Y-15537888D02*
X15871372Y-15518841D01*
X15871372Y-15518841D02*
X15852325Y-15509317D01*
X15852325Y-15509317D02*
X15823753Y-15509317D01*
X15823753Y-15509317D02*
X15804706Y-15499793D01*
X15804706Y-15499793D02*
X15795182Y-15480746D01*
X15795182Y-15480746D02*
X15795182Y-15471222D01*
X15795182Y-15471222D02*
X15804706Y-15452174D01*
X15804706Y-15452174D02*
X15823753Y-15442650D01*
X15823753Y-15442650D02*
X15852325Y-15442650D01*
X15852325Y-15442650D02*
X15871372Y-15452174D01*
X15947563Y-15652174D02*
X15957087Y-15642650D01*
X15957087Y-15642650D02*
X15976134Y-15614079D01*
X15976134Y-15614079D02*
X15985658Y-15595031D01*
X15985658Y-15595031D02*
X15995182Y-15566460D01*
X15995182Y-15566460D02*
X16004706Y-15518841D01*
X16004706Y-15518841D02*
X16004706Y-15480746D01*
X16004706Y-15480746D02*
X15995182Y-15433127D01*
X15995182Y-15433127D02*
X15985658Y-15404555D01*
X15985658Y-15404555D02*
X15976134Y-15385508D01*
X15976134Y-15385508D02*
X15957087Y-15356936D01*
X15957087Y-15356936D02*
X15947563Y-15347412D01*
D14*
X11112500Y-15808500D02*
X11172500Y-15748500D01*
X11112500Y-15688500D01*
X11052500Y-15748500D01*
X11112500Y-15808500D01*
D11*
X11538039Y-15839984D02*
X11423753Y-15839984D01*
X11480896Y-15839984D02*
X11480896Y-15639984D01*
X11480896Y-15639984D02*
X11461848Y-15668555D01*
X11461848Y-15668555D02*
X11442801Y-15687603D01*
X11442801Y-15687603D02*
X11423753Y-15697127D01*
X11623753Y-15820936D02*
X11633277Y-15830460D01*
X11633277Y-15830460D02*
X11623753Y-15839984D01*
X11623753Y-15839984D02*
X11614229Y-15830460D01*
X11614229Y-15830460D02*
X11623753Y-15820936D01*
X11623753Y-15820936D02*
X11623753Y-15839984D01*
X11709467Y-15659031D02*
X11718991Y-15649508D01*
X11718991Y-15649508D02*
X11738039Y-15639984D01*
X11738039Y-15639984D02*
X11785658Y-15639984D01*
X11785658Y-15639984D02*
X11804705Y-15649508D01*
X11804705Y-15649508D02*
X11814229Y-15659031D01*
X11814229Y-15659031D02*
X11823753Y-15678079D01*
X11823753Y-15678079D02*
X11823753Y-15697127D01*
X11823753Y-15697127D02*
X11814229Y-15725698D01*
X11814229Y-15725698D02*
X11699943Y-15839984D01*
X11699943Y-15839984D02*
X11823753Y-15839984D01*
X11947562Y-15639984D02*
X11966610Y-15639984D01*
X11966610Y-15639984D02*
X11985658Y-15649508D01*
X11985658Y-15649508D02*
X11995182Y-15659031D01*
X11995182Y-15659031D02*
X12004705Y-15678079D01*
X12004705Y-15678079D02*
X12014229Y-15716174D01*
X12014229Y-15716174D02*
X12014229Y-15763793D01*
X12014229Y-15763793D02*
X12004705Y-15801888D01*
X12004705Y-15801888D02*
X11995182Y-15820936D01*
X11995182Y-15820936D02*
X11985658Y-15830460D01*
X11985658Y-15830460D02*
X11966610Y-15839984D01*
X11966610Y-15839984D02*
X11947562Y-15839984D01*
X11947562Y-15839984D02*
X11928515Y-15830460D01*
X11928515Y-15830460D02*
X11918991Y-15820936D01*
X11918991Y-15820936D02*
X11909467Y-15801888D01*
X11909467Y-15801888D02*
X11899943Y-15763793D01*
X11899943Y-15763793D02*
X11899943Y-15716174D01*
X11899943Y-15716174D02*
X11909467Y-15678079D01*
X11909467Y-15678079D02*
X11918991Y-15659031D01*
X11918991Y-15659031D02*
X11928515Y-15649508D01*
X11928515Y-15649508D02*
X11947562Y-15639984D01*
X12138039Y-15639984D02*
X12157086Y-15639984D01*
X12157086Y-15639984D02*
X12176134Y-15649508D01*
X12176134Y-15649508D02*
X12185658Y-15659031D01*
X12185658Y-15659031D02*
X12195182Y-15678079D01*
X12195182Y-15678079D02*
X12204705Y-15716174D01*
X12204705Y-15716174D02*
X12204705Y-15763793D01*
X12204705Y-15763793D02*
X12195182Y-15801888D01*
X12195182Y-15801888D02*
X12185658Y-15820936D01*
X12185658Y-15820936D02*
X12176134Y-15830460D01*
X12176134Y-15830460D02*
X12157086Y-15839984D01*
X12157086Y-15839984D02*
X12138039Y-15839984D01*
X12138039Y-15839984D02*
X12118991Y-15830460D01*
X12118991Y-15830460D02*
X12109467Y-15820936D01*
X12109467Y-15820936D02*
X12099943Y-15801888D01*
X12099943Y-15801888D02*
X12090420Y-15763793D01*
X12090420Y-15763793D02*
X12090420Y-15716174D01*
X12090420Y-15716174D02*
X12099943Y-15678079D01*
X12099943Y-15678079D02*
X12109467Y-15659031D01*
X12109467Y-15659031D02*
X12118991Y-15649508D01*
X12118991Y-15649508D02*
X12138039Y-15639984D01*
X12290420Y-15839984D02*
X12290420Y-15706650D01*
X12290420Y-15725698D02*
X12299943Y-15716174D01*
X12299943Y-15716174D02*
X12318991Y-15706650D01*
X12318991Y-15706650D02*
X12347563Y-15706650D01*
X12347563Y-15706650D02*
X12366610Y-15716174D01*
X12366610Y-15716174D02*
X12376134Y-15735222D01*
X12376134Y-15735222D02*
X12376134Y-15839984D01*
X12376134Y-15735222D02*
X12385658Y-15716174D01*
X12385658Y-15716174D02*
X12404705Y-15706650D01*
X12404705Y-15706650D02*
X12433277Y-15706650D01*
X12433277Y-15706650D02*
X12452324Y-15716174D01*
X12452324Y-15716174D02*
X12461848Y-15735222D01*
X12461848Y-15735222D02*
X12461848Y-15839984D01*
X12557086Y-15839984D02*
X12557086Y-15706650D01*
X12557086Y-15725698D02*
X12566610Y-15716174D01*
X12566610Y-15716174D02*
X12585658Y-15706650D01*
X12585658Y-15706650D02*
X12614229Y-15706650D01*
X12614229Y-15706650D02*
X12633277Y-15716174D01*
X12633277Y-15716174D02*
X12642801Y-15735222D01*
X12642801Y-15735222D02*
X12642801Y-15839984D01*
X12642801Y-15735222D02*
X12652324Y-15716174D01*
X12652324Y-15716174D02*
X12671372Y-15706650D01*
X12671372Y-15706650D02*
X12699943Y-15706650D01*
X12699943Y-15706650D02*
X12718991Y-15716174D01*
X12718991Y-15716174D02*
X12728515Y-15735222D01*
X12728515Y-15735222D02*
X12728515Y-15839984D01*
X13118991Y-15630460D02*
X12947563Y-15887603D01*
X13376134Y-15639984D02*
X13395182Y-15639984D01*
X13395182Y-15639984D02*
X13414229Y-15649508D01*
X13414229Y-15649508D02*
X13423753Y-15659031D01*
X13423753Y-15659031D02*
X13433277Y-15678079D01*
X13433277Y-15678079D02*
X13442801Y-15716174D01*
X13442801Y-15716174D02*
X13442801Y-15763793D01*
X13442801Y-15763793D02*
X13433277Y-15801888D01*
X13433277Y-15801888D02*
X13423753Y-15820936D01*
X13423753Y-15820936D02*
X13414229Y-15830460D01*
X13414229Y-15830460D02*
X13395182Y-15839984D01*
X13395182Y-15839984D02*
X13376134Y-15839984D01*
X13376134Y-15839984D02*
X13357086Y-15830460D01*
X13357086Y-15830460D02*
X13347563Y-15820936D01*
X13347563Y-15820936D02*
X13338039Y-15801888D01*
X13338039Y-15801888D02*
X13328515Y-15763793D01*
X13328515Y-15763793D02*
X13328515Y-15716174D01*
X13328515Y-15716174D02*
X13338039Y-15678079D01*
X13338039Y-15678079D02*
X13347563Y-15659031D01*
X13347563Y-15659031D02*
X13357086Y-15649508D01*
X13357086Y-15649508D02*
X13376134Y-15639984D01*
X13528515Y-15820936D02*
X13538039Y-15830460D01*
X13538039Y-15830460D02*
X13528515Y-15839984D01*
X13528515Y-15839984D02*
X13518991Y-15830460D01*
X13518991Y-15830460D02*
X13528515Y-15820936D01*
X13528515Y-15820936D02*
X13528515Y-15839984D01*
X13661848Y-15639984D02*
X13680896Y-15639984D01*
X13680896Y-15639984D02*
X13699944Y-15649508D01*
X13699944Y-15649508D02*
X13709467Y-15659031D01*
X13709467Y-15659031D02*
X13718991Y-15678079D01*
X13718991Y-15678079D02*
X13728515Y-15716174D01*
X13728515Y-15716174D02*
X13728515Y-15763793D01*
X13728515Y-15763793D02*
X13718991Y-15801888D01*
X13718991Y-15801888D02*
X13709467Y-15820936D01*
X13709467Y-15820936D02*
X13699944Y-15830460D01*
X13699944Y-15830460D02*
X13680896Y-15839984D01*
X13680896Y-15839984D02*
X13661848Y-15839984D01*
X13661848Y-15839984D02*
X13642801Y-15830460D01*
X13642801Y-15830460D02*
X13633277Y-15820936D01*
X13633277Y-15820936D02*
X13623753Y-15801888D01*
X13623753Y-15801888D02*
X13614229Y-15763793D01*
X13614229Y-15763793D02*
X13614229Y-15716174D01*
X13614229Y-15716174D02*
X13623753Y-15678079D01*
X13623753Y-15678079D02*
X13633277Y-15659031D01*
X13633277Y-15659031D02*
X13642801Y-15649508D01*
X13642801Y-15649508D02*
X13661848Y-15639984D01*
X13899944Y-15706650D02*
X13899944Y-15839984D01*
X13852325Y-15630460D02*
X13804706Y-15773317D01*
X13804706Y-15773317D02*
X13928515Y-15773317D01*
X13985658Y-15639984D02*
X14118991Y-15639984D01*
X14118991Y-15639984D02*
X14033277Y-15839984D01*
X14185658Y-15659031D02*
X14195182Y-15649508D01*
X14195182Y-15649508D02*
X14214229Y-15639984D01*
X14214229Y-15639984D02*
X14261848Y-15639984D01*
X14261848Y-15639984D02*
X14280896Y-15649508D01*
X14280896Y-15649508D02*
X14290420Y-15659031D01*
X14290420Y-15659031D02*
X14299944Y-15678079D01*
X14299944Y-15678079D02*
X14299944Y-15697127D01*
X14299944Y-15697127D02*
X14290420Y-15725698D01*
X14290420Y-15725698D02*
X14176134Y-15839984D01*
X14176134Y-15839984D02*
X14299944Y-15839984D01*
X14376134Y-15639984D02*
X14376134Y-15678079D01*
X14452325Y-15639984D02*
X14452325Y-15678079D01*
X14747563Y-15916174D02*
X14738039Y-15906650D01*
X14738039Y-15906650D02*
X14718991Y-15878079D01*
X14718991Y-15878079D02*
X14709468Y-15859031D01*
X14709468Y-15859031D02*
X14699944Y-15830460D01*
X14699944Y-15830460D02*
X14690420Y-15782841D01*
X14690420Y-15782841D02*
X14690420Y-15744746D01*
X14690420Y-15744746D02*
X14699944Y-15697127D01*
X14699944Y-15697127D02*
X14709468Y-15668555D01*
X14709468Y-15668555D02*
X14718991Y-15649508D01*
X14718991Y-15649508D02*
X14738039Y-15620936D01*
X14738039Y-15620936D02*
X14747563Y-15611412D01*
X14804706Y-15639984D02*
X14928515Y-15639984D01*
X14928515Y-15639984D02*
X14861848Y-15716174D01*
X14861848Y-15716174D02*
X14890420Y-15716174D01*
X14890420Y-15716174D02*
X14909468Y-15725698D01*
X14909468Y-15725698D02*
X14918991Y-15735222D01*
X14918991Y-15735222D02*
X14928515Y-15754269D01*
X14928515Y-15754269D02*
X14928515Y-15801888D01*
X14928515Y-15801888D02*
X14918991Y-15820936D01*
X14918991Y-15820936D02*
X14909468Y-15830460D01*
X14909468Y-15830460D02*
X14890420Y-15839984D01*
X14890420Y-15839984D02*
X14833277Y-15839984D01*
X14833277Y-15839984D02*
X14814229Y-15830460D01*
X14814229Y-15830460D02*
X14804706Y-15820936D01*
X15004706Y-15659031D02*
X15014229Y-15649508D01*
X15014229Y-15649508D02*
X15033277Y-15639984D01*
X15033277Y-15639984D02*
X15080896Y-15639984D01*
X15080896Y-15639984D02*
X15099944Y-15649508D01*
X15099944Y-15649508D02*
X15109468Y-15659031D01*
X15109468Y-15659031D02*
X15118991Y-15678079D01*
X15118991Y-15678079D02*
X15118991Y-15697127D01*
X15118991Y-15697127D02*
X15109468Y-15725698D01*
X15109468Y-15725698D02*
X14995182Y-15839984D01*
X14995182Y-15839984D02*
X15118991Y-15839984D01*
X15357087Y-15839984D02*
X15357087Y-15639984D01*
X15442801Y-15839984D02*
X15442801Y-15735222D01*
X15442801Y-15735222D02*
X15433277Y-15716174D01*
X15433277Y-15716174D02*
X15414230Y-15706650D01*
X15414230Y-15706650D02*
X15385658Y-15706650D01*
X15385658Y-15706650D02*
X15366610Y-15716174D01*
X15366610Y-15716174D02*
X15357087Y-15725698D01*
X15566610Y-15839984D02*
X15547563Y-15830460D01*
X15547563Y-15830460D02*
X15538039Y-15820936D01*
X15538039Y-15820936D02*
X15528515Y-15801888D01*
X15528515Y-15801888D02*
X15528515Y-15744746D01*
X15528515Y-15744746D02*
X15538039Y-15725698D01*
X15538039Y-15725698D02*
X15547563Y-15716174D01*
X15547563Y-15716174D02*
X15566610Y-15706650D01*
X15566610Y-15706650D02*
X15595182Y-15706650D01*
X15595182Y-15706650D02*
X15614230Y-15716174D01*
X15614230Y-15716174D02*
X15623753Y-15725698D01*
X15623753Y-15725698D02*
X15633277Y-15744746D01*
X15633277Y-15744746D02*
X15633277Y-15801888D01*
X15633277Y-15801888D02*
X15623753Y-15820936D01*
X15623753Y-15820936D02*
X15614230Y-15830460D01*
X15614230Y-15830460D02*
X15595182Y-15839984D01*
X15595182Y-15839984D02*
X15566610Y-15839984D01*
X15747563Y-15839984D02*
X15728515Y-15830460D01*
X15728515Y-15830460D02*
X15718991Y-15811412D01*
X15718991Y-15811412D02*
X15718991Y-15639984D01*
X15899944Y-15830460D02*
X15880896Y-15839984D01*
X15880896Y-15839984D02*
X15842801Y-15839984D01*
X15842801Y-15839984D02*
X15823753Y-15830460D01*
X15823753Y-15830460D02*
X15814230Y-15811412D01*
X15814230Y-15811412D02*
X15814230Y-15735222D01*
X15814230Y-15735222D02*
X15823753Y-15716174D01*
X15823753Y-15716174D02*
X15842801Y-15706650D01*
X15842801Y-15706650D02*
X15880896Y-15706650D01*
X15880896Y-15706650D02*
X15899944Y-15716174D01*
X15899944Y-15716174D02*
X15909468Y-15735222D01*
X15909468Y-15735222D02*
X15909468Y-15754269D01*
X15909468Y-15754269D02*
X15814230Y-15773317D01*
X15985658Y-15830460D02*
X16004706Y-15839984D01*
X16004706Y-15839984D02*
X16042801Y-15839984D01*
X16042801Y-15839984D02*
X16061849Y-15830460D01*
X16061849Y-15830460D02*
X16071372Y-15811412D01*
X16071372Y-15811412D02*
X16071372Y-15801888D01*
X16071372Y-15801888D02*
X16061849Y-15782841D01*
X16061849Y-15782841D02*
X16042801Y-15773317D01*
X16042801Y-15773317D02*
X16014230Y-15773317D01*
X16014230Y-15773317D02*
X15995182Y-15763793D01*
X15995182Y-15763793D02*
X15985658Y-15744746D01*
X15985658Y-15744746D02*
X15985658Y-15735222D01*
X15985658Y-15735222D02*
X15995182Y-15716174D01*
X15995182Y-15716174D02*
X16014230Y-15706650D01*
X16014230Y-15706650D02*
X16042801Y-15706650D01*
X16042801Y-15706650D02*
X16061849Y-15716174D01*
X16138039Y-15916174D02*
X16147563Y-15906650D01*
X16147563Y-15906650D02*
X16166611Y-15878079D01*
X16166611Y-15878079D02*
X16176134Y-15859031D01*
X16176134Y-15859031D02*
X16185658Y-15830460D01*
X16185658Y-15830460D02*
X16195182Y-15782841D01*
X16195182Y-15782841D02*
X16195182Y-15744746D01*
X16195182Y-15744746D02*
X16185658Y-15697127D01*
X16185658Y-15697127D02*
X16176134Y-15668555D01*
X16176134Y-15668555D02*
X16166611Y-15649508D01*
X16166611Y-15649508D02*
X16147563Y-15620936D01*
X16147563Y-15620936D02*
X16138039Y-15611412D01*
X10972500Y-15912500D02*
X11172500Y-16112500D01*
X11172500Y-15912500D02*
X10972500Y-16112500D01*
X11172500Y-16012500D02*
G75*
G02*
X10972500Y-16012500I-100000J0D01*
G01*
X10972500Y-16012500D02*
G75*
G02*
X11172500Y-16012500I100000J0D01*
G01*
X11423753Y-15923031D02*
X11433277Y-15913508D01*
X11433277Y-15913508D02*
X11452324Y-15903984D01*
X11452324Y-15903984D02*
X11499943Y-15903984D01*
X11499943Y-15903984D02*
X11518991Y-15913508D01*
X11518991Y-15913508D02*
X11528515Y-15923031D01*
X11528515Y-15923031D02*
X11538039Y-15942079D01*
X11538039Y-15942079D02*
X11538039Y-15961127D01*
X11538039Y-15961127D02*
X11528515Y-15989698D01*
X11528515Y-15989698D02*
X11414229Y-16103984D01*
X11414229Y-16103984D02*
X11538039Y-16103984D01*
X11623753Y-16084936D02*
X11633277Y-16094460D01*
X11633277Y-16094460D02*
X11623753Y-16103984D01*
X11623753Y-16103984D02*
X11614229Y-16094460D01*
X11614229Y-16094460D02*
X11623753Y-16084936D01*
X11623753Y-16084936D02*
X11623753Y-16103984D01*
X11699943Y-15903984D02*
X11833277Y-15903984D01*
X11833277Y-15903984D02*
X11747562Y-16103984D01*
X11947562Y-15903984D02*
X11966610Y-15903984D01*
X11966610Y-15903984D02*
X11985658Y-15913508D01*
X11985658Y-15913508D02*
X11995182Y-15923031D01*
X11995182Y-15923031D02*
X12004705Y-15942079D01*
X12004705Y-15942079D02*
X12014229Y-15980174D01*
X12014229Y-15980174D02*
X12014229Y-16027793D01*
X12014229Y-16027793D02*
X12004705Y-16065888D01*
X12004705Y-16065888D02*
X11995182Y-16084936D01*
X11995182Y-16084936D02*
X11985658Y-16094460D01*
X11985658Y-16094460D02*
X11966610Y-16103984D01*
X11966610Y-16103984D02*
X11947562Y-16103984D01*
X11947562Y-16103984D02*
X11928515Y-16094460D01*
X11928515Y-16094460D02*
X11918991Y-16084936D01*
X11918991Y-16084936D02*
X11909467Y-16065888D01*
X11909467Y-16065888D02*
X11899943Y-16027793D01*
X11899943Y-16027793D02*
X11899943Y-15980174D01*
X11899943Y-15980174D02*
X11909467Y-15942079D01*
X11909467Y-15942079D02*
X11918991Y-15923031D01*
X11918991Y-15923031D02*
X11928515Y-15913508D01*
X11928515Y-15913508D02*
X11947562Y-15903984D01*
X12138039Y-15903984D02*
X12157086Y-15903984D01*
X12157086Y-15903984D02*
X12176134Y-15913508D01*
X12176134Y-15913508D02*
X12185658Y-15923031D01*
X12185658Y-15923031D02*
X12195182Y-15942079D01*
X12195182Y-15942079D02*
X12204705Y-15980174D01*
X12204705Y-15980174D02*
X12204705Y-16027793D01*
X12204705Y-16027793D02*
X12195182Y-16065888D01*
X12195182Y-16065888D02*
X12185658Y-16084936D01*
X12185658Y-16084936D02*
X12176134Y-16094460D01*
X12176134Y-16094460D02*
X12157086Y-16103984D01*
X12157086Y-16103984D02*
X12138039Y-16103984D01*
X12138039Y-16103984D02*
X12118991Y-16094460D01*
X12118991Y-16094460D02*
X12109467Y-16084936D01*
X12109467Y-16084936D02*
X12099943Y-16065888D01*
X12099943Y-16065888D02*
X12090420Y-16027793D01*
X12090420Y-16027793D02*
X12090420Y-15980174D01*
X12090420Y-15980174D02*
X12099943Y-15942079D01*
X12099943Y-15942079D02*
X12109467Y-15923031D01*
X12109467Y-15923031D02*
X12118991Y-15913508D01*
X12118991Y-15913508D02*
X12138039Y-15903984D01*
X12290420Y-16103984D02*
X12290420Y-15970650D01*
X12290420Y-15989698D02*
X12299943Y-15980174D01*
X12299943Y-15980174D02*
X12318991Y-15970650D01*
X12318991Y-15970650D02*
X12347563Y-15970650D01*
X12347563Y-15970650D02*
X12366610Y-15980174D01*
X12366610Y-15980174D02*
X12376134Y-15999222D01*
X12376134Y-15999222D02*
X12376134Y-16103984D01*
X12376134Y-15999222D02*
X12385658Y-15980174D01*
X12385658Y-15980174D02*
X12404705Y-15970650D01*
X12404705Y-15970650D02*
X12433277Y-15970650D01*
X12433277Y-15970650D02*
X12452324Y-15980174D01*
X12452324Y-15980174D02*
X12461848Y-15999222D01*
X12461848Y-15999222D02*
X12461848Y-16103984D01*
X12557086Y-16103984D02*
X12557086Y-15970650D01*
X12557086Y-15989698D02*
X12566610Y-15980174D01*
X12566610Y-15980174D02*
X12585658Y-15970650D01*
X12585658Y-15970650D02*
X12614229Y-15970650D01*
X12614229Y-15970650D02*
X12633277Y-15980174D01*
X12633277Y-15980174D02*
X12642801Y-15999222D01*
X12642801Y-15999222D02*
X12642801Y-16103984D01*
X12642801Y-15999222D02*
X12652324Y-15980174D01*
X12652324Y-15980174D02*
X12671372Y-15970650D01*
X12671372Y-15970650D02*
X12699943Y-15970650D01*
X12699943Y-15970650D02*
X12718991Y-15980174D01*
X12718991Y-15980174D02*
X12728515Y-15999222D01*
X12728515Y-15999222D02*
X12728515Y-16103984D01*
X13118991Y-15894460D02*
X12947563Y-16151603D01*
X13376134Y-15903984D02*
X13395182Y-15903984D01*
X13395182Y-15903984D02*
X13414229Y-15913508D01*
X13414229Y-15913508D02*
X13423753Y-15923031D01*
X13423753Y-15923031D02*
X13433277Y-15942079D01*
X13433277Y-15942079D02*
X13442801Y-15980174D01*
X13442801Y-15980174D02*
X13442801Y-16027793D01*
X13442801Y-16027793D02*
X13433277Y-16065888D01*
X13433277Y-16065888D02*
X13423753Y-16084936D01*
X13423753Y-16084936D02*
X13414229Y-16094460D01*
X13414229Y-16094460D02*
X13395182Y-16103984D01*
X13395182Y-16103984D02*
X13376134Y-16103984D01*
X13376134Y-16103984D02*
X13357086Y-16094460D01*
X13357086Y-16094460D02*
X13347563Y-16084936D01*
X13347563Y-16084936D02*
X13338039Y-16065888D01*
X13338039Y-16065888D02*
X13328515Y-16027793D01*
X13328515Y-16027793D02*
X13328515Y-15980174D01*
X13328515Y-15980174D02*
X13338039Y-15942079D01*
X13338039Y-15942079D02*
X13347563Y-15923031D01*
X13347563Y-15923031D02*
X13357086Y-15913508D01*
X13357086Y-15913508D02*
X13376134Y-15903984D01*
X13528515Y-16084936D02*
X13538039Y-16094460D01*
X13538039Y-16094460D02*
X13528515Y-16103984D01*
X13528515Y-16103984D02*
X13518991Y-16094460D01*
X13518991Y-16094460D02*
X13528515Y-16084936D01*
X13528515Y-16084936D02*
X13528515Y-16103984D01*
X13728515Y-16103984D02*
X13614229Y-16103984D01*
X13671372Y-16103984D02*
X13671372Y-15903984D01*
X13671372Y-15903984D02*
X13652325Y-15932555D01*
X13652325Y-15932555D02*
X13633277Y-15951603D01*
X13633277Y-15951603D02*
X13614229Y-15961127D01*
X13852325Y-15903984D02*
X13871372Y-15903984D01*
X13871372Y-15903984D02*
X13890420Y-15913508D01*
X13890420Y-15913508D02*
X13899944Y-15923031D01*
X13899944Y-15923031D02*
X13909467Y-15942079D01*
X13909467Y-15942079D02*
X13918991Y-15980174D01*
X13918991Y-15980174D02*
X13918991Y-16027793D01*
X13918991Y-16027793D02*
X13909467Y-16065888D01*
X13909467Y-16065888D02*
X13899944Y-16084936D01*
X13899944Y-16084936D02*
X13890420Y-16094460D01*
X13890420Y-16094460D02*
X13871372Y-16103984D01*
X13871372Y-16103984D02*
X13852325Y-16103984D01*
X13852325Y-16103984D02*
X13833277Y-16094460D01*
X13833277Y-16094460D02*
X13823753Y-16084936D01*
X13823753Y-16084936D02*
X13814229Y-16065888D01*
X13814229Y-16065888D02*
X13804706Y-16027793D01*
X13804706Y-16027793D02*
X13804706Y-15980174D01*
X13804706Y-15980174D02*
X13814229Y-15942079D01*
X13814229Y-15942079D02*
X13823753Y-15923031D01*
X13823753Y-15923031D02*
X13833277Y-15913508D01*
X13833277Y-15913508D02*
X13852325Y-15903984D01*
X14090420Y-15903984D02*
X14052325Y-15903984D01*
X14052325Y-15903984D02*
X14033277Y-15913508D01*
X14033277Y-15913508D02*
X14023753Y-15923031D01*
X14023753Y-15923031D02*
X14004706Y-15951603D01*
X14004706Y-15951603D02*
X13995182Y-15989698D01*
X13995182Y-15989698D02*
X13995182Y-16065888D01*
X13995182Y-16065888D02*
X14004706Y-16084936D01*
X14004706Y-16084936D02*
X14014229Y-16094460D01*
X14014229Y-16094460D02*
X14033277Y-16103984D01*
X14033277Y-16103984D02*
X14071372Y-16103984D01*
X14071372Y-16103984D02*
X14090420Y-16094460D01*
X14090420Y-16094460D02*
X14099944Y-16084936D01*
X14099944Y-16084936D02*
X14109467Y-16065888D01*
X14109467Y-16065888D02*
X14109467Y-16018269D01*
X14109467Y-16018269D02*
X14099944Y-15999222D01*
X14099944Y-15999222D02*
X14090420Y-15989698D01*
X14090420Y-15989698D02*
X14071372Y-15980174D01*
X14071372Y-15980174D02*
X14033277Y-15980174D01*
X14033277Y-15980174D02*
X14014229Y-15989698D01*
X14014229Y-15989698D02*
X14004706Y-15999222D01*
X14004706Y-15999222D02*
X13995182Y-16018269D01*
X14176134Y-15903984D02*
X14299944Y-15903984D01*
X14299944Y-15903984D02*
X14233277Y-15980174D01*
X14233277Y-15980174D02*
X14261848Y-15980174D01*
X14261848Y-15980174D02*
X14280896Y-15989698D01*
X14280896Y-15989698D02*
X14290420Y-15999222D01*
X14290420Y-15999222D02*
X14299944Y-16018269D01*
X14299944Y-16018269D02*
X14299944Y-16065888D01*
X14299944Y-16065888D02*
X14290420Y-16084936D01*
X14290420Y-16084936D02*
X14280896Y-16094460D01*
X14280896Y-16094460D02*
X14261848Y-16103984D01*
X14261848Y-16103984D02*
X14204706Y-16103984D01*
X14204706Y-16103984D02*
X14185658Y-16094460D01*
X14185658Y-16094460D02*
X14176134Y-16084936D01*
X14376134Y-15903984D02*
X14376134Y-15942079D01*
X14452325Y-15903984D02*
X14452325Y-15942079D01*
X14747563Y-16180174D02*
X14738039Y-16170650D01*
X14738039Y-16170650D02*
X14718991Y-16142079D01*
X14718991Y-16142079D02*
X14709468Y-16123031D01*
X14709468Y-16123031D02*
X14699944Y-16094460D01*
X14699944Y-16094460D02*
X14690420Y-16046841D01*
X14690420Y-16046841D02*
X14690420Y-16008746D01*
X14690420Y-16008746D02*
X14699944Y-15961127D01*
X14699944Y-15961127D02*
X14709468Y-15932555D01*
X14709468Y-15932555D02*
X14718991Y-15913508D01*
X14718991Y-15913508D02*
X14738039Y-15884936D01*
X14738039Y-15884936D02*
X14747563Y-15875412D01*
X14804706Y-15903984D02*
X14928515Y-15903984D01*
X14928515Y-15903984D02*
X14861848Y-15980174D01*
X14861848Y-15980174D02*
X14890420Y-15980174D01*
X14890420Y-15980174D02*
X14909468Y-15989698D01*
X14909468Y-15989698D02*
X14918991Y-15999222D01*
X14918991Y-15999222D02*
X14928515Y-16018269D01*
X14928515Y-16018269D02*
X14928515Y-16065888D01*
X14928515Y-16065888D02*
X14918991Y-16084936D01*
X14918991Y-16084936D02*
X14909468Y-16094460D01*
X14909468Y-16094460D02*
X14890420Y-16103984D01*
X14890420Y-16103984D02*
X14833277Y-16103984D01*
X14833277Y-16103984D02*
X14814229Y-16094460D01*
X14814229Y-16094460D02*
X14804706Y-16084936D01*
X15166610Y-16103984D02*
X15166610Y-15903984D01*
X15252325Y-16103984D02*
X15252325Y-15999222D01*
X15252325Y-15999222D02*
X15242801Y-15980174D01*
X15242801Y-15980174D02*
X15223753Y-15970650D01*
X15223753Y-15970650D02*
X15195182Y-15970650D01*
X15195182Y-15970650D02*
X15176134Y-15980174D01*
X15176134Y-15980174D02*
X15166610Y-15989698D01*
X15376134Y-16103984D02*
X15357087Y-16094460D01*
X15357087Y-16094460D02*
X15347563Y-16084936D01*
X15347563Y-16084936D02*
X15338039Y-16065888D01*
X15338039Y-16065888D02*
X15338039Y-16008746D01*
X15338039Y-16008746D02*
X15347563Y-15989698D01*
X15347563Y-15989698D02*
X15357087Y-15980174D01*
X15357087Y-15980174D02*
X15376134Y-15970650D01*
X15376134Y-15970650D02*
X15404706Y-15970650D01*
X15404706Y-15970650D02*
X15423753Y-15980174D01*
X15423753Y-15980174D02*
X15433277Y-15989698D01*
X15433277Y-15989698D02*
X15442801Y-16008746D01*
X15442801Y-16008746D02*
X15442801Y-16065888D01*
X15442801Y-16065888D02*
X15433277Y-16084936D01*
X15433277Y-16084936D02*
X15423753Y-16094460D01*
X15423753Y-16094460D02*
X15404706Y-16103984D01*
X15404706Y-16103984D02*
X15376134Y-16103984D01*
X15557087Y-16103984D02*
X15538039Y-16094460D01*
X15538039Y-16094460D02*
X15528515Y-16075412D01*
X15528515Y-16075412D02*
X15528515Y-15903984D01*
X15709468Y-16094460D02*
X15690420Y-16103984D01*
X15690420Y-16103984D02*
X15652325Y-16103984D01*
X15652325Y-16103984D02*
X15633277Y-16094460D01*
X15633277Y-16094460D02*
X15623753Y-16075412D01*
X15623753Y-16075412D02*
X15623753Y-15999222D01*
X15623753Y-15999222D02*
X15633277Y-15980174D01*
X15633277Y-15980174D02*
X15652325Y-15970650D01*
X15652325Y-15970650D02*
X15690420Y-15970650D01*
X15690420Y-15970650D02*
X15709468Y-15980174D01*
X15709468Y-15980174D02*
X15718991Y-15999222D01*
X15718991Y-15999222D02*
X15718991Y-16018269D01*
X15718991Y-16018269D02*
X15623753Y-16037317D01*
X15795182Y-16094460D02*
X15814230Y-16103984D01*
X15814230Y-16103984D02*
X15852325Y-16103984D01*
X15852325Y-16103984D02*
X15871372Y-16094460D01*
X15871372Y-16094460D02*
X15880896Y-16075412D01*
X15880896Y-16075412D02*
X15880896Y-16065888D01*
X15880896Y-16065888D02*
X15871372Y-16046841D01*
X15871372Y-16046841D02*
X15852325Y-16037317D01*
X15852325Y-16037317D02*
X15823753Y-16037317D01*
X15823753Y-16037317D02*
X15804706Y-16027793D01*
X15804706Y-16027793D02*
X15795182Y-16008746D01*
X15795182Y-16008746D02*
X15795182Y-15999222D01*
X15795182Y-15999222D02*
X15804706Y-15980174D01*
X15804706Y-15980174D02*
X15823753Y-15970650D01*
X15823753Y-15970650D02*
X15852325Y-15970650D01*
X15852325Y-15970650D02*
X15871372Y-15980174D01*
X15947563Y-16180174D02*
X15957087Y-16170650D01*
X15957087Y-16170650D02*
X15976134Y-16142079D01*
X15976134Y-16142079D02*
X15985658Y-16123031D01*
X15985658Y-16123031D02*
X15995182Y-16094460D01*
X15995182Y-16094460D02*
X16004706Y-16046841D01*
X16004706Y-16046841D02*
X16004706Y-16008746D01*
X16004706Y-16008746D02*
X15995182Y-15961127D01*
X15995182Y-15961127D02*
X15985658Y-15932555D01*
X15985658Y-15932555D02*
X15976134Y-15913508D01*
X15976134Y-15913508D02*
X15957087Y-15884936D01*
X15957087Y-15884936D02*
X15947563Y-15875412D01*
M02*
