M48
; DRILL file {KiCad 8.0.6} date 2025-02-01T18:27:47+0100
; FORMAT={-:-/ absolute / metric / decimal}
; #@! TF.CreationDate,2025-02-01T18:27:47+01:00
; #@! TF.GenerationSoftware,Kicad,Pcbnew,8.0.6
; #@! TF.FileFunction,Plated,1,4,PTH
FMAT,2
METRIC
; #@! TA.AperFunction,Plated,PTH,ViaDrill
T1C0.300
; #@! TA.AperFunction,Plated,PTH,ComponentDrill
T2C0.600
; #@! TA.AperFunction,Plated,PTH,ComponentDrill
T3C0.800
; #@! TA.AperFunction,Plated,PTH,ComponentDrill
T4C1.100
; #@! TA.AperFunction,Plated,PTH,ComponentDrill
T5C1.200
; #@! TA.AperFunction,Plated,PTH,ComponentDrill
T6C2.700
%
G90
G05
T1
X124.244Y-126.284
X125.258Y-100.488
X125.258Y-101.788
X125.258Y-115.213
X125.258Y-116.513
X125.358Y-129.939
X125.358Y-131.239
X126.608Y-96.925
X126.608Y-104.335
X126.608Y-111.651
X126.608Y-126.376
X127.958Y-101.138
X127.958Y-102.438
X127.958Y-115.863
X127.958Y-117.163
X128.058Y-130.589
X128.058Y-131.889
X128.594Y-91.416
X129.154Y-112.992
X129.408Y-105.556
X129.43Y-98.145
X129.486Y-127.349
X130.238Y-91.475
X130.296Y-122.749
X130.858Y-100.488
X130.858Y-101.788
X130.858Y-115.213
X130.858Y-116.513
X130.958Y-130.589
X130.966Y-129.257
X131.058Y-90.112
X133.558Y-101.138
X133.558Y-102.438
X133.558Y-115.863
X133.558Y-117.163
X133.602Y-133.189
X133.658Y-129.939
X137.565Y-84.862
X140.013Y-83.339
X161.862Y-127.404
X161.924Y-94.421
X161.924Y-99.501
X161.924Y-102.041
X161.924Y-107.121
X161.924Y-112.201
X161.924Y-114.741
X161.924Y-117.281
X161.924Y-119.821
X161.924Y-124.901
X163.706Y-76.768
T3
X114.635Y-79.28
X114.635Y-83.28
X114.635Y-85.28
X114.635Y-87.28
T4
X126.969Y-85.115
X126.969Y-136.35
X129.509Y-85.115
X129.509Y-136.35
X132.049Y-85.115
X132.049Y-136.35
T5
X115.968Y-93.401
X115.968Y-95.941
X115.968Y-98.481
X115.968Y-101.021
X115.968Y-103.561
X115.968Y-106.101
X115.968Y-108.641
X115.968Y-111.181
X115.968Y-113.721
X115.968Y-116.261
X115.968Y-118.801
X115.968Y-121.341
X115.968Y-123.881
X115.968Y-126.421
X115.968Y-128.961
X115.968Y-131.501
X118.508Y-93.401
X118.508Y-95.941
X118.508Y-98.481
X118.508Y-101.021
X118.508Y-103.561
X118.508Y-106.101
X118.508Y-108.641
X118.508Y-111.181
X118.508Y-113.721
X118.508Y-116.261
X118.508Y-118.801
X118.508Y-121.341
X118.508Y-123.881
X118.508Y-126.421
X118.508Y-128.961
X118.508Y-131.501
T6
X116.5Y-136.5
X121.0Y-80.0
X163.5Y-136.5
T2
X115.085Y-76.93G85X114.185Y-76.93
G05
X115.085Y-89.63G85X114.185Y-89.63
G05
M30
