G04 #@! TF.GenerationSoftware,KiCad,Pcbnew,8.0.6*
G04 #@! TF.CreationDate,2025-02-01T18:27:41+01:00*
G04 #@! TF.ProjectId,jitx-design,6a697478-2d64-4657-9369-676e2e6b6963,rev?*
G04 #@! TF.SameCoordinates,Original*
G04 #@! TF.FileFunction,Paste,Top*
G04 #@! TF.FilePolarity,Positive*
%FSLAX46Y46*%
G04 Gerber Fmt 4.6, Leading zero omitted, Abs format (unit mm)*
G04 Created by KiCad (PCBNEW 8.0.6) date 2025-02-01 18:27:41*
%MOMM*%
%LPD*%
G01*
G04 APERTURE LIST*
G04 Aperture macros list*
%AMRoundRect*
0 Rectangle with rounded corners*
0 $1 Rounding radius*
0 $2 $3 $4 $5 $6 $7 $8 $9 X,Y pos of 4 corners*
0 Add a 4 corners polygon primitive as box body*
4,1,4,$2,$3,$4,$5,$6,$7,$8,$9,$2,$3,0*
0 Add four circle primitives for the rounded corners*
1,1,$1+$1,$2,$3*
1,1,$1+$1,$4,$5*
1,1,$1+$1,$6,$7*
1,1,$1+$1,$8,$9*
0 Add four rect primitives between the rounded corners*
20,1,$1+$1,$2,$3,$4,$5,0*
20,1,$1+$1,$4,$5,$6,$7,0*
20,1,$1+$1,$6,$7,$8,$9,0*
20,1,$1+$1,$8,$9,$2,$3,0*%
G04 Aperture macros list end*
%ADD10RoundRect,0.051000X-0.850000X0.200000X-0.850000X-0.200000X0.850000X-0.200000X0.850000X0.200000X0*%
%ADD11R,0.600000X0.280278*%
%ADD12R,0.280278X0.600000*%
%ADD13RoundRect,0.051000X-1.600000X0.800000X-1.600000X-0.800000X1.600000X-0.800000X1.600000X0.800000X0*%
%ADD14RoundRect,0.051000X-0.800000X-1.600000X0.800000X-1.600000X0.800000X1.600000X-0.800000X1.600000X0*%
%ADD15RoundRect,0.051000X-0.850000X0.550000X-0.850000X-0.550000X0.850000X-0.550000X0.850000X0.550000X0*%
G04 APERTURE END LIST*
D10*
X126608407Y-92475118D03*
X126608407Y-93125118D03*
X126608407Y-93775118D03*
X126608407Y-94425118D03*
X126608407Y-95075118D03*
X126608407Y-95725118D03*
X126608407Y-96375118D03*
X132208407Y-96375118D03*
X132208407Y-95725118D03*
X132208407Y-95075118D03*
X132208407Y-94425118D03*
X132208407Y-93775118D03*
X132208407Y-93125118D03*
X132208407Y-92475118D03*
D11*
X139363090Y-82518934D03*
X139363090Y-83338656D03*
D12*
X130237886Y-120320808D03*
X131057608Y-120320808D03*
D10*
X126608407Y-114563471D03*
X126608407Y-115213471D03*
X126608407Y-115863471D03*
X126608407Y-116513471D03*
X126608407Y-117163471D03*
X126608407Y-117813471D03*
X126608407Y-118463471D03*
X132208407Y-118463471D03*
X132208407Y-117813471D03*
X132208407Y-117163471D03*
X132208407Y-116513471D03*
X132208407Y-115863471D03*
X132208407Y-115213471D03*
X132208407Y-114563471D03*
X126608407Y-99837902D03*
X126608407Y-100487902D03*
X126608407Y-101137902D03*
X126608407Y-101787902D03*
X126608407Y-102437902D03*
X126608407Y-103087902D03*
X126608407Y-103737902D03*
X132208407Y-103737902D03*
X132208407Y-103087902D03*
X132208407Y-102437902D03*
X132208407Y-101787902D03*
X132208407Y-101137902D03*
X132208407Y-100487902D03*
X132208407Y-99837902D03*
X126608407Y-107200687D03*
X126608407Y-107850687D03*
X126608407Y-108500687D03*
X126608407Y-109150687D03*
X126608407Y-109800687D03*
X126608407Y-110450687D03*
X126608407Y-111100687D03*
X132208407Y-111100687D03*
X132208407Y-110450687D03*
X132208407Y-109800687D03*
X132208407Y-109150687D03*
X132208407Y-108500687D03*
X132208407Y-107850687D03*
X132208407Y-107200687D03*
D13*
X143943466Y-79058410D03*
X143943466Y-81598410D03*
X143943466Y-84138410D03*
X143943466Y-86678410D03*
X143943466Y-89218410D03*
X143943466Y-91758410D03*
X143943466Y-94298410D03*
X143943466Y-96838410D03*
X143943466Y-99378410D03*
X143943466Y-101918410D03*
X143943466Y-104458410D03*
X143943466Y-106998410D03*
X143943466Y-109538410D03*
X143943466Y-112078410D03*
X143943466Y-114618410D03*
X143943466Y-117158410D03*
X143943466Y-119698410D03*
X143943466Y-122238410D03*
X143943466Y-124778410D03*
X143943466Y-127318410D03*
X164118466Y-127318410D03*
X164118466Y-124778410D03*
X164118466Y-122238410D03*
X164118466Y-119698410D03*
X164118466Y-117158410D03*
X164118466Y-114618410D03*
X164118466Y-112078410D03*
X164118466Y-109538410D03*
X164118466Y-106998410D03*
X164118466Y-104458410D03*
X164118466Y-101918410D03*
X164118466Y-99378410D03*
X164118466Y-96838410D03*
X164118466Y-94298410D03*
X164118466Y-91758410D03*
X164118466Y-89218410D03*
X164118466Y-86678410D03*
X164118466Y-84138410D03*
X164118466Y-81598410D03*
X164118466Y-79058410D03*
D14*
X151491466Y-128118410D03*
X154031466Y-128118410D03*
X156571466Y-128118410D03*
D12*
X128694240Y-127710388D03*
X127874518Y-127710388D03*
D10*
X126608407Y-121926255D03*
X126608407Y-122576255D03*
X126608407Y-123226255D03*
X126608407Y-123876255D03*
X126608407Y-124526255D03*
X126608407Y-125176255D03*
X126608407Y-125826255D03*
X132208407Y-125826255D03*
X132208407Y-125176255D03*
X132208407Y-124526255D03*
X132208407Y-123876255D03*
X132208407Y-123226255D03*
X132208407Y-122576255D03*
X132208407Y-121926255D03*
D12*
X130237886Y-98152070D03*
X131057608Y-98152070D03*
X128594240Y-90766140D03*
X127774518Y-90766140D03*
X130237886Y-90762491D03*
X131057608Y-90762491D03*
X128594240Y-120321538D03*
X127774518Y-120321538D03*
D15*
X136915062Y-82498588D03*
X136915062Y-79098588D03*
D11*
X136915062Y-84042448D03*
X136915062Y-84862170D03*
D12*
X128594240Y-105543839D03*
X127774518Y-105543839D03*
D10*
X126708407Y-129289039D03*
X126708407Y-129939039D03*
X126708407Y-130589039D03*
X126708407Y-131239039D03*
X126708407Y-131889039D03*
X126708407Y-132539039D03*
X126708407Y-133189039D03*
X132308407Y-133189039D03*
X132308407Y-132539039D03*
X132308407Y-131889039D03*
X132308407Y-131239039D03*
X132308407Y-130589039D03*
X132308407Y-129939039D03*
X132308407Y-129289039D03*
D12*
X128594240Y-98154989D03*
X127774518Y-98154989D03*
X128594240Y-112932689D03*
X127774518Y-112932689D03*
X130237886Y-112931229D03*
X131057608Y-112931229D03*
X130237886Y-105541650D03*
X131057608Y-105541650D03*
X130337886Y-127710388D03*
X131157608Y-127710388D03*
M02*
