G04 #@! TF.GenerationSoftware,KiCad,Pcbnew,8.0.6*
G04 #@! TF.CreationDate,2024-11-27T08:06:08+01:00*
G04 #@! TF.ProjectId,jitx-design,6a697478-2d64-4657-9369-676e2e6b6963,rev?*
G04 #@! TF.SameCoordinates,Original*
G04 #@! TF.FileFunction,Soldermask,Bot*
G04 #@! TF.FilePolarity,Negative*
%FSLAX46Y46*%
G04 Gerber Fmt 4.6, Leading zero omitted, Abs format (unit mm)*
G04 Created by KiCad (PCBNEW 8.0.6) date 2024-11-27 08:06:08*
%MOMM*%
%LPD*%
G01*
G04 APERTURE LIST*
G04 Aperture macros list*
%AMRoundRect*
0 Rectangle with rounded corners*
0 $1 Rounding radius*
0 $2 $3 $4 $5 $6 $7 $8 $9 X,Y pos of 4 corners*
0 Add a 4 corners polygon primitive as box body*
4,1,4,$2,$3,$4,$5,$6,$7,$8,$9,$2,$3,0*
0 Add four circle primitives for the rounded corners*
1,1,$1+$1,$2,$3*
1,1,$1+$1,$4,$5*
1,1,$1+$1,$6,$7*
1,1,$1+$1,$8,$9*
0 Add four rect primitives between the rounded corners*
20,1,$1+$1,$2,$3,$4,$5,0*
20,1,$1+$1,$4,$5,$6,$7,0*
20,1,$1+$1,$6,$7,$8,$9,0*
20,1,$1+$1,$8,$9,$2,$3,0*%
G04 Aperture macros list end*
%ADD10RoundRect,0.051000X1.000000X-1.000000X1.000000X1.000000X-1.000000X1.000000X-1.000000X-1.000000X0*%
%ADD11C,2.102000*%
%ADD12C,4.700000*%
%ADD13C,2.000000*%
%ADD14RoundRect,0.051000X0.900000X0.900000X-0.900000X0.900000X-0.900000X-0.900000X0.900000X-0.900000X0*%
%ADD15C,1.902000*%
%ADD16C,1.700000*%
%ADD17O,2.100000X1.300000*%
G04 APERTURE END LIST*
D10*
X118507941Y-131500949D03*
D11*
X115967941Y-131500949D03*
X118507941Y-128960949D03*
X115967941Y-128960949D03*
X118507941Y-126420949D03*
X115967941Y-126420949D03*
X118507941Y-123880949D03*
X115967941Y-123880949D03*
X118507941Y-121340949D03*
X115967941Y-121340949D03*
X118507941Y-118800949D03*
X115967941Y-118800949D03*
X118507941Y-116260949D03*
X115967941Y-116260949D03*
X118507941Y-113720949D03*
X115967941Y-113720949D03*
X118507941Y-111180949D03*
X115967941Y-111180949D03*
X118507941Y-108640949D03*
X115967941Y-108640949D03*
X118507941Y-106100949D03*
X115967941Y-106100949D03*
X118507941Y-103560949D03*
X115967941Y-103560949D03*
X118507941Y-101020949D03*
X115967941Y-101020949D03*
X118507941Y-98480949D03*
X115967941Y-98480949D03*
X118507941Y-95940949D03*
X115967941Y-95940949D03*
X118507941Y-93400949D03*
X115967941Y-93400949D03*
D12*
X116500000Y-136500000D03*
X163500000Y-136500000D03*
D13*
X132048688Y-85114797D03*
X129508688Y-85114797D03*
X126968688Y-85114797D03*
D14*
X132048688Y-136349927D03*
D15*
X129508688Y-136349927D03*
X126968688Y-136349927D03*
D12*
X121000000Y-80000000D03*
D16*
X114635033Y-79279627D03*
X114635033Y-83279627D03*
X114635033Y-85279627D03*
X114635033Y-87279627D03*
D17*
X114635033Y-89629627D03*
X114635033Y-76929627D03*
M02*
