G04 #@! TF.GenerationSoftware,KiCad,Pcbnew,8.0.6*
G04 #@! TF.CreationDate,2025-02-01T18:27:41+01:00*
G04 #@! TF.ProjectId,jitx-design,6a697478-2d64-4657-9369-676e2e6b6963,rev?*
G04 #@! TF.SameCoordinates,Original*
G04 #@! TF.FileFunction,Profile,NP*
%FSLAX46Y46*%
G04 Gerber Fmt 4.6, Leading zero omitted, Abs format (unit mm)*
G04 Created by KiCad (PCBNEW 8.0.6) date 2025-02-01 18:27:41*
%MOMM*%
%LPD*%
G01*
G04 APERTURE LIST*
G04 #@! TA.AperFunction,Profile*
%ADD10C,0.050000*%
G04 #@! TD*
G04 APERTURE END LIST*
D10*
X167207867Y-75611107D02*
X167176777Y-75573223D01*
X167176777Y-75573223D02*
X167138893Y-75542133D01*
X111861107Y-140457867D02*
X111904329Y-140480970D01*
X111951227Y-75504804D02*
X111904329Y-75519030D01*
X167245196Y-75701227D02*
X167230970Y-75654329D01*
X111754804Y-140298773D02*
X111769030Y-140345671D01*
X167207867Y-140388893D02*
X167230970Y-140345671D01*
X111861107Y-75542133D02*
X111823223Y-75573223D01*
X167176777Y-140426777D02*
X167207867Y-140388893D01*
X111904329Y-75519030D02*
X111861107Y-75542133D01*
X112000000Y-75500000D02*
X111951227Y-75504804D01*
X111823223Y-75573223D02*
X111792133Y-75611107D01*
X112000000Y-140500000D02*
X167000000Y-140500000D01*
X111769030Y-140345671D02*
X111792133Y-140388893D01*
X167095671Y-140480970D02*
X167138893Y-140457867D01*
X167095671Y-75519030D02*
X167048773Y-75504804D01*
X111904329Y-140480970D02*
X111951227Y-140495196D01*
X167000000Y-75500000D02*
X112000000Y-75500000D01*
X167250000Y-75750000D02*
X167245196Y-75701227D01*
X111750000Y-140250000D02*
X111754804Y-140298773D01*
X111750000Y-75750000D02*
X111750000Y-140250000D01*
X167048773Y-75504804D02*
X167000000Y-75500000D01*
X111792133Y-75611107D02*
X111769030Y-75654329D01*
X167000000Y-140500000D02*
X167048773Y-140495196D01*
X167250000Y-140250000D02*
X167250000Y-75750000D01*
X111951227Y-140495196D02*
X112000000Y-140500000D01*
X167048773Y-140495196D02*
X167095671Y-140480970D01*
X111823223Y-140426777D02*
X111861107Y-140457867D01*
X167138893Y-75542133D02*
X167095671Y-75519030D01*
X111792133Y-140388893D02*
X111823223Y-140426777D01*
X111769030Y-75654329D02*
X111754804Y-75701227D01*
X167230970Y-75654329D02*
X167207867Y-75611107D01*
X111754804Y-75701227D02*
X111750000Y-75750000D01*
X167138893Y-140457867D02*
X167176777Y-140426777D01*
X167230970Y-140345671D02*
X167245196Y-140298773D01*
X167245196Y-140298773D02*
X167250000Y-140250000D01*
M02*
