%TF.GenerationSoftware,KiCad,Pcbnew,8.0.6*%
%TF.CreationDate,2025-02-01T18:27:49+01:00*%
%TF.ProjectId,jitx-design,6a697478-2d64-4657-9369-676e2e6b6963,rev?*%
%TF.SameCoordinates,Original*%
%TF.FileFunction,Drillmap*%
%TF.FilePolarity,Positive*%
%FSLAX45Y45*%
G04 Gerber Fmt 4.5, Leading zero omitted, Abs format (unit mm)*
G04 Created by KiCad (PCBNEW 8.0.6) date 2025-02-01 18:27:49*
%MOMM*%
%LPD*%
G01*
G04 APERTURE LIST*
%ADD10C,0.050000*%
%ADD11C,0.200000*%
G04 APERTURE END LIST*
D10*
X16720787Y-7561111D02*
X16717678Y-7557322D01*
X16717678Y-7557322D02*
X16713889Y-7554213D01*
X11186111Y-14045787D02*
X11190433Y-14048097D01*
X11195123Y-7550480D02*
X11190433Y-7551903D01*
X16724520Y-7570123D02*
X16723097Y-7565433D01*
X11175480Y-14029877D02*
X11176903Y-14034567D01*
X16720787Y-14038889D02*
X16723097Y-14034567D01*
X11186111Y-7554213D02*
X11182322Y-7557322D01*
X16717678Y-14042678D02*
X16720787Y-14038889D01*
X11190433Y-7551903D02*
X11186111Y-7554213D01*
X11200000Y-7550000D02*
X11195123Y-7550480D01*
X11182322Y-7557322D02*
X11179213Y-7561111D01*
X11200000Y-14050000D02*
X16700000Y-14050000D01*
X11176903Y-14034567D02*
X11179213Y-14038889D01*
X16709567Y-14048097D02*
X16713889Y-14045787D01*
X16709567Y-7551903D02*
X16704877Y-7550480D01*
X11190433Y-14048097D02*
X11195123Y-14049520D01*
X16700000Y-7550000D02*
X11200000Y-7550000D01*
X16725000Y-7575000D02*
X16724520Y-7570123D01*
X11175000Y-14025000D02*
X11175480Y-14029877D01*
X11175000Y-7575000D02*
X11175000Y-14025000D01*
X16704877Y-7550480D02*
X16700000Y-7550000D01*
X11179213Y-7561111D02*
X11176903Y-7565433D01*
X16700000Y-14050000D02*
X16704877Y-14049520D01*
X16725000Y-14025000D02*
X16725000Y-7575000D01*
X11195123Y-14049520D02*
X11200000Y-14050000D01*
X16704877Y-14049520D02*
X16709567Y-14048097D01*
X11182322Y-14042678D02*
X11186111Y-14045787D01*
X16713889Y-7554213D02*
X16709567Y-7551903D01*
X11179213Y-14038889D02*
X11182322Y-14042678D01*
X11176903Y-7565433D02*
X11175480Y-7570123D01*
X16723097Y-7565433D02*
X16720787Y-7561111D01*
X11175480Y-7570123D02*
X11175000Y-7575000D01*
X16713889Y-14045787D02*
X16717678Y-14042678D01*
X16723097Y-14034567D02*
X16724520Y-14029877D01*
X16724520Y-14029877D02*
X16725000Y-14025000D01*
D11*
X11433277Y-14363984D02*
X11433277Y-14163984D01*
X11433277Y-14163984D02*
X11480896Y-14163984D01*
X11480896Y-14163984D02*
X11509467Y-14173508D01*
X11509467Y-14173508D02*
X11528515Y-14192555D01*
X11528515Y-14192555D02*
X11538039Y-14211603D01*
X11538039Y-14211603D02*
X11547562Y-14249698D01*
X11547562Y-14249698D02*
X11547562Y-14278269D01*
X11547562Y-14278269D02*
X11538039Y-14316365D01*
X11538039Y-14316365D02*
X11528515Y-14335412D01*
X11528515Y-14335412D02*
X11509467Y-14354460D01*
X11509467Y-14354460D02*
X11480896Y-14363984D01*
X11480896Y-14363984D02*
X11433277Y-14363984D01*
X11633277Y-14363984D02*
X11633277Y-14230650D01*
X11633277Y-14268746D02*
X11642801Y-14249698D01*
X11642801Y-14249698D02*
X11652324Y-14240174D01*
X11652324Y-14240174D02*
X11671372Y-14230650D01*
X11671372Y-14230650D02*
X11690420Y-14230650D01*
X11757086Y-14363984D02*
X11757086Y-14230650D01*
X11757086Y-14163984D02*
X11747562Y-14173508D01*
X11747562Y-14173508D02*
X11757086Y-14183031D01*
X11757086Y-14183031D02*
X11766610Y-14173508D01*
X11766610Y-14173508D02*
X11757086Y-14163984D01*
X11757086Y-14163984D02*
X11757086Y-14183031D01*
X11880896Y-14363984D02*
X11861848Y-14354460D01*
X11861848Y-14354460D02*
X11852324Y-14335412D01*
X11852324Y-14335412D02*
X11852324Y-14163984D01*
X11985658Y-14363984D02*
X11966610Y-14354460D01*
X11966610Y-14354460D02*
X11957086Y-14335412D01*
X11957086Y-14335412D02*
X11957086Y-14163984D01*
X12214229Y-14363984D02*
X12214229Y-14163984D01*
X12214229Y-14163984D02*
X12280896Y-14306841D01*
X12280896Y-14306841D02*
X12347562Y-14163984D01*
X12347562Y-14163984D02*
X12347562Y-14363984D01*
X12528515Y-14363984D02*
X12528515Y-14259222D01*
X12528515Y-14259222D02*
X12518991Y-14240174D01*
X12518991Y-14240174D02*
X12499943Y-14230650D01*
X12499943Y-14230650D02*
X12461848Y-14230650D01*
X12461848Y-14230650D02*
X12442801Y-14240174D01*
X12528515Y-14354460D02*
X12509467Y-14363984D01*
X12509467Y-14363984D02*
X12461848Y-14363984D01*
X12461848Y-14363984D02*
X12442801Y-14354460D01*
X12442801Y-14354460D02*
X12433277Y-14335412D01*
X12433277Y-14335412D02*
X12433277Y-14316365D01*
X12433277Y-14316365D02*
X12442801Y-14297317D01*
X12442801Y-14297317D02*
X12461848Y-14287793D01*
X12461848Y-14287793D02*
X12509467Y-14287793D01*
X12509467Y-14287793D02*
X12528515Y-14278269D01*
X12623753Y-14230650D02*
X12623753Y-14430650D01*
X12623753Y-14240174D02*
X12642801Y-14230650D01*
X12642801Y-14230650D02*
X12680896Y-14230650D01*
X12680896Y-14230650D02*
X12699943Y-14240174D01*
X12699943Y-14240174D02*
X12709467Y-14249698D01*
X12709467Y-14249698D02*
X12718991Y-14268746D01*
X12718991Y-14268746D02*
X12718991Y-14325888D01*
X12718991Y-14325888D02*
X12709467Y-14344936D01*
X12709467Y-14344936D02*
X12699943Y-14354460D01*
X12699943Y-14354460D02*
X12680896Y-14363984D01*
X12680896Y-14363984D02*
X12642801Y-14363984D01*
X12642801Y-14363984D02*
X12623753Y-14354460D01*
X12804705Y-14344936D02*
X12814229Y-14354460D01*
X12814229Y-14354460D02*
X12804705Y-14363984D01*
X12804705Y-14363984D02*
X12795182Y-14354460D01*
X12795182Y-14354460D02*
X12804705Y-14344936D01*
X12804705Y-14344936D02*
X12804705Y-14363984D01*
X12804705Y-14240174D02*
X12814229Y-14249698D01*
X12814229Y-14249698D02*
X12804705Y-14259222D01*
X12804705Y-14259222D02*
X12795182Y-14249698D01*
X12795182Y-14249698D02*
X12804705Y-14240174D01*
X12804705Y-14240174D02*
X12804705Y-14259222D01*
M02*
