G04 #@! TF.GenerationSoftware,KiCad,Pcbnew,8.0.3*
G04 #@! TF.CreationDate,2024-09-14T14:57:03+02:00*
G04 #@! TF.ProjectId,jitx-design,6a697478-2d64-4657-9369-676e2e6b6963,rev?*
G04 #@! TF.SameCoordinates,Original*
G04 #@! TF.FileFunction,Copper,L4,Bot*
G04 #@! TF.FilePolarity,Positive*
%FSLAX46Y46*%
G04 Gerber Fmt 4.6, Leading zero omitted, Abs format (unit mm)*
G04 Created by KiCad (PCBNEW 8.0.3) date 2024-09-14 14:57:03*
%MOMM*%
%LPD*%
G01*
G04 APERTURE LIST*
G04 Aperture macros list*
%AMFreePoly0*
4,1,18,0.032683,1.193880,0.357107,0.977107,0.573880,0.652683,1.296716,-1.002122,1.350000,-1.270000,0.850000,-1.270000,0.834776,-1.193463,0.791421,-1.128579,0.726537,-1.085224,-0.732683,-0.653880,-1.057107,-0.437107,-1.273880,-0.112683,-1.350000,0.270000,-1.273880,0.652683,-1.057107,0.977107,-0.732683,1.193880,-0.350000,1.270000,0.032683,1.193880,0.032683,1.193880,$1*%
%AMFreePoly1*
4,1,16,-0.563231,1.151082,-0.173923,0.890955,0.667981,0.383490,0.992404,0.166717,1.209177,-0.157707,1.285298,-0.540390,1.209177,-0.923073,0.992404,-1.247497,0.667981,-1.464269,0.285298,-1.540390,-0.097386,-1.464269,-0.421809,-1.247497,-0.638582,-0.923073,-1.285298,1.349048,-0.823358,1.540390,-0.563231,1.151082,-0.563231,1.151082,$1*%
%AMFreePoly2*
4,1,26,24.900481,7.299375,24.997808,7.234343,25.062840,7.137016,25.085676,7.022211,25.062840,6.907406,24.997808,6.810079,24.900481,6.745048,-7.480417,-7.246091,-7.863101,-7.322211,-23.785014,-4.346893,-24.285676,-4.289348,-24.591823,-4.228451,-24.851361,-4.055033,-25.024780,-3.795495,-25.085676,-3.489348,-25.024780,-3.183201,-24.851361,-2.923662,-24.591823,-2.750244,-24.285676,-2.689348,-23.979529,-2.750244,
-8.054443,-6.784151,-7.863101,-6.822211,-7.671759,-6.784151,24.670871,7.299375,24.785676,7.322211,24.900481,7.299375,24.900481,7.299375,$1*%
%AMFreePoly3*
4,1,9,0.003536,0.003536,0.005000,0.000000,0.003536,-0.003536,0.000000,-0.005000,-0.003536,-0.003536,-0.005000,0.000000,-0.003536,0.003536,0.000000,0.005000,0.003536,0.003536,0.003536,0.003536,$1*%
%AMFreePoly4*
4,1,16,0.656147,3.339104,0.915685,3.165685,1.089104,2.906147,1.150000,2.600000,1.089104,2.293853,-0.573880,-1.017317,-0.650000,-1.400000,-0.650000,-3.400000,-1.150000,-3.400000,-1.150000,-1.400000,-0.450000,2.600000,-0.389104,2.906147,-0.215685,3.165685,0.043853,3.339104,0.350000,3.400000,0.656147,3.339104,0.656147,3.339104,$1*%
%AMFreePoly5*
4,1,19,-0.212873,0.995687,0.046666,0.822268,1.319020,-0.703030,0.965466,-1.056583,0.917814,-1.008931,0.573145,-0.771818,0.516084,-0.735964,0.455367,-0.706724,-0.018358,-0.600962,-0.519020,-0.543417,-0.825167,-0.482521,-1.084705,-0.309102,-1.258123,-0.049564,-1.319020,0.256583,-1.258123,0.562730,-1.084705,0.822268,-0.825167,0.995687,-0.519020,1.056583,-0.212873,0.995687,-0.212873,0.995687,
$1*%
%AMFreePoly6*
4,1,19,1.652683,0.923880,1.977107,0.707107,2.193880,0.382683,2.270000,0.000000,2.193880,-0.382683,1.977107,-0.707107,1.652683,-0.923880,1.270000,-1.000000,-1.270000,-1.000000,-1.652683,-0.923880,-1.977107,-0.707107,-2.193880,-0.382683,-2.270000,0.000000,-2.193880,0.382683,-1.977107,0.707107,-1.652683,0.923880,-1.270000,1.000000,1.270000,1.000000,1.652683,0.923880,1.652683,0.923880,
$1*%
%AMFreePoly7*
4,1,19,3.140702,2.044311,3.238029,1.979279,3.303061,1.881952,3.325897,1.767147,3.303061,1.652342,3.238029,1.555015,3.140702,1.489983,-2.911092,-2.044311,-3.025897,-2.067147,-3.140702,-2.044311,-3.238029,-1.979279,-3.303061,-1.881952,-3.325897,-1.767147,-3.303061,-1.652342,-3.238029,-1.555015,-3.140702,-1.489983,2.911092,2.044311,3.025897,2.067147,3.140702,2.044311,3.140702,2.044311,
$1*%
G04 Aperture macros list end*
G04 #@! TA.AperFunction,ComponentPad*
%ADD10C,3.600000*%
G04 #@! TD*
G04 #@! TA.AperFunction,ConnectorPad*
%ADD11C,5.600000*%
G04 #@! TD*
G04 #@! TA.AperFunction,ComponentPad*
%ADD12R,1.800000X1.800000*%
G04 #@! TD*
G04 #@! TA.AperFunction,ComponentPad*
%ADD13C,1.800000*%
G04 #@! TD*
G04 #@! TA.AperFunction,SMDPad,CuDef*
%ADD14FreePoly0,0.000000*%
G04 #@! TD*
G04 #@! TA.AperFunction,SMDPad,CuDef*
%ADD15FreePoly1,0.000000*%
G04 #@! TD*
G04 #@! TA.AperFunction,ComponentPad*
%ADD16R,2.000000X2.000000*%
G04 #@! TD*
G04 #@! TA.AperFunction,ComponentPad*
%ADD17C,2.000000*%
G04 #@! TD*
G04 #@! TA.AperFunction,SMDPad,CuDef*
%ADD18FreePoly2,0.000000*%
G04 #@! TD*
G04 #@! TA.AperFunction,SMDPad,CuDef*
%ADD19FreePoly3,0.000000*%
G04 #@! TD*
G04 #@! TA.AperFunction,SMDPad,CuDef*
%ADD20FreePoly4,0.000000*%
G04 #@! TD*
G04 #@! TA.AperFunction,SMDPad,CuDef*
%ADD21FreePoly5,0.000000*%
G04 #@! TD*
G04 #@! TA.AperFunction,ComponentPad*
%ADD22C,1.600000*%
G04 #@! TD*
G04 #@! TA.AperFunction,ComponentPad*
%ADD23O,2.000000X1.200000*%
G04 #@! TD*
G04 #@! TA.AperFunction,SMDPad,CuDef*
%ADD24FreePoly6,0.000000*%
G04 #@! TD*
G04 #@! TA.AperFunction,SMDPad,CuDef*
%ADD25FreePoly7,0.000000*%
G04 #@! TD*
G04 #@! TA.AperFunction,ComponentPad*
%ADD26C,1.900000*%
G04 #@! TD*
G04 #@! TA.AperFunction,ViaPad*
%ADD27C,0.600000*%
G04 #@! TD*
G04 #@! TA.AperFunction,Conductor*
%ADD28C,0.130000*%
G04 #@! TD*
G04 #@! TA.AperFunction,Conductor*
%ADD29C,0.500000*%
G04 #@! TD*
G04 APERTURE END LIST*
D10*
X163500000Y-137000000D03*
D11*
X163500000Y-137000000D03*
D10*
X115500000Y-137000000D03*
D11*
X115500000Y-137000000D03*
D12*
X132048688Y-136349927D03*
D13*
X129508688Y-136349927D03*
X126968688Y-136349927D03*
D14*
X118857941Y-129230949D03*
D15*
X115682644Y-125880559D03*
D16*
X118507941Y-131500949D03*
D17*
X115967941Y-131500949D03*
X118507941Y-128960949D03*
X115967941Y-128960949D03*
X118507941Y-126420949D03*
X115967941Y-126420949D03*
X118507941Y-123880949D03*
X115967941Y-123880949D03*
X118507941Y-121340949D03*
X115967941Y-121340949D03*
X118507941Y-118800949D03*
X115967941Y-118800949D03*
X118507941Y-116260949D03*
X115967941Y-116260949D03*
X118507941Y-113720949D03*
X115967941Y-113720949D03*
X118507941Y-111180949D03*
X115967941Y-111180949D03*
X118507941Y-108640949D03*
X115967941Y-108640949D03*
X118507941Y-106100949D03*
X115967941Y-106100949D03*
X118507941Y-103560949D03*
X115967941Y-103560949D03*
X118507941Y-101020949D03*
X115967941Y-101020949D03*
X118507941Y-98480949D03*
X115967941Y-98480949D03*
X118507941Y-95940949D03*
X115967941Y-95940949D03*
X118507941Y-93400949D03*
X115967941Y-93400949D03*
D18*
X138920709Y-83790279D03*
D19*
X138920709Y-83790279D03*
D20*
X114285033Y-81879627D03*
D19*
X114285033Y-81879627D03*
D21*
X115154053Y-87536210D03*
D22*
X114635033Y-79279627D03*
X114635033Y-83279627D03*
X114635033Y-85279627D03*
X114635033Y-87279627D03*
D23*
X114635033Y-89629627D03*
X114635033Y-76929627D03*
D24*
X117237941Y-126420949D03*
D25*
X127270327Y-124516587D03*
D10*
X121000000Y-79500000D03*
D11*
X121000000Y-79500000D03*
D26*
X132048688Y-85114797D03*
X129508688Y-85114797D03*
X126968688Y-85114797D03*
D27*
X128058407Y-131889039D03*
X127958407Y-101137902D03*
X161923502Y-99501123D03*
X133558407Y-101137902D03*
X124244430Y-126283734D03*
X131057608Y-90112491D03*
X130296225Y-122749440D03*
X161923502Y-112201123D03*
X130858407Y-115213471D03*
X125258407Y-100487902D03*
X125358407Y-131239039D03*
X127958407Y-117163471D03*
X161923502Y-114741123D03*
X133558407Y-115863471D03*
X161923502Y-102041123D03*
X130858407Y-101787902D03*
X125258407Y-116513471D03*
X161923502Y-117281123D03*
X130858407Y-116513471D03*
X128058407Y-130589039D03*
X127958407Y-115863471D03*
X133558407Y-102437902D03*
X161923502Y-107121123D03*
X133558407Y-117163471D03*
X161923502Y-119821123D03*
X125358407Y-129939039D03*
X125258407Y-115213471D03*
X129429593Y-98145500D03*
X129407610Y-105556333D03*
X126608407Y-126376255D03*
X137565062Y-84862171D03*
X128594240Y-91416140D03*
X126608407Y-96925118D03*
X129485627Y-127349171D03*
X140013090Y-83338656D03*
X126608407Y-111650687D03*
X126608407Y-104334535D03*
X130237885Y-91475435D03*
X129153835Y-112992005D03*
X133658407Y-129939039D03*
X161923502Y-124901123D03*
X127958407Y-102437902D03*
X130958407Y-130589039D03*
X161862410Y-127403611D03*
X163706385Y-76768068D03*
X161923502Y-94421123D03*
X130858407Y-100487902D03*
X125258407Y-101787902D03*
D28*
X118395801Y-125140968D02*
X118620082Y-125160929D01*
X125340687Y-131803762D02*
X128058407Y-131889039D01*
X119492936Y-125627216D02*
X122814853Y-129749600D01*
X122909027Y-129847644D02*
X124986475Y-131664353D01*
X115967941Y-121340949D02*
X117064897Y-123250939D01*
X117227961Y-123768809D02*
X117247922Y-123993089D01*
X117064897Y-123250939D02*
G75*
G02*
X117227935Y-123768811I-1096997J-629961D01*
G01*
X117247922Y-123993089D02*
G75*
G03*
X118395800Y-125140977I1259978J112089D01*
G01*
X124986475Y-131664353D02*
G75*
G03*
X125340687Y-131803747I371925J425353D01*
G01*
X118620082Y-125160929D02*
G75*
G02*
X119492900Y-125627245I-112182J-1259971D01*
G01*
X122814853Y-129749600D02*
G75*
G03*
X122909031Y-129847640I609147J490900D01*
G01*
X115967941Y-95940949D02*
X117877932Y-97037905D01*
X118395801Y-97200968D02*
X118620082Y-97220929D01*
X119179815Y-97409123D02*
X120402839Y-98175775D01*
X125240687Y-101052625D02*
X127958407Y-101137902D01*
X120402839Y-98175775D02*
X124963251Y-100969678D01*
X118620082Y-97220929D02*
G75*
G02*
X119179802Y-97409144I-112182J-1259971D01*
G01*
X117877932Y-97037905D02*
G75*
G03*
X118395802Y-97200958I629968J1096905D01*
G01*
X124963251Y-100969678D02*
G75*
G03*
X125240687Y-101052620I295149J481778D01*
G01*
X133892542Y-101189199D02*
X161589367Y-99449827D01*
X133558407Y-101137902D02*
X133892542Y-101189199D01*
X161589367Y-99449827D02*
X161923502Y-99501123D01*
D29*
X131057608Y-90112491D02*
X114635033Y-85279627D01*
D28*
X161557868Y-112164818D02*
X161923502Y-112201123D01*
X130858407Y-115213471D02*
X131225659Y-115224995D01*
X131225659Y-115224995D02*
X161557868Y-112164818D01*
X115967941Y-93400949D02*
X117877932Y-94497905D01*
X118395801Y-94660968D02*
X118620082Y-94680929D01*
X119356054Y-95002370D02*
X120569767Y-96099097D01*
X120569767Y-96099097D02*
X125258407Y-100487902D01*
X117877932Y-94497905D02*
G75*
G03*
X118395802Y-94660958I629968J1096905D01*
G01*
X118620082Y-94680929D02*
G75*
G02*
X119356030Y-95002397I-112182J-1259971D01*
G01*
X122303358Y-127578426D02*
X123424079Y-129258670D01*
X115967941Y-118800949D02*
X117064897Y-120710939D01*
X123424079Y-129258670D02*
X125358407Y-131239039D01*
X118395801Y-122600968D02*
X118620082Y-122620929D01*
X119568764Y-123191833D02*
X120107501Y-124021163D01*
X120107501Y-124021163D02*
X122258568Y-127508617D01*
X117227961Y-121228809D02*
X117247922Y-121453089D01*
X117064897Y-120710939D02*
G75*
G02*
X117227935Y-121228811I-1096997J-629961D01*
G01*
X118620082Y-122620929D02*
G75*
G02*
X119568720Y-123191862I-112182J-1259971D01*
G01*
X117247922Y-121453089D02*
G75*
G03*
X118395800Y-122600977I1259978J112089D01*
G01*
X122258568Y-127508617D02*
G75*
G03*
X122303358Y-127578426I1988432J1226517D01*
G01*
X119601492Y-113085045D02*
X120332255Y-114341725D01*
X124936846Y-117289788D02*
X125258407Y-117353751D01*
X118395801Y-112440968D02*
X118620082Y-112460929D01*
X120332255Y-114341725D02*
X124803588Y-117220018D01*
X125258407Y-117353751D02*
X127958407Y-117163471D01*
X115967941Y-111180949D02*
X117877932Y-112277905D01*
X117877932Y-112277905D02*
G75*
G03*
X118395802Y-112440958I629968J1096905D01*
G01*
X124803588Y-117220018D02*
G75*
G03*
X124936846Y-117289789I454812J706518D01*
G01*
X118620082Y-112460929D02*
G75*
G02*
X119601443Y-113085073I-112182J-1259971D01*
G01*
D29*
X116059900Y-89854865D02*
X116022647Y-89984175D01*
X114512495Y-88523607D02*
X115179808Y-88589340D01*
X116085033Y-89595932D02*
X116085033Y-89663323D01*
X119957941Y-132500949D02*
X119957941Y-130500949D01*
X113827032Y-124078455D02*
X114524073Y-131634151D01*
X115460252Y-88668990D02*
X115520969Y-88698230D01*
X115663353Y-88787696D02*
X115716041Y-88829713D01*
X116082203Y-89713707D02*
X116074658Y-89780673D01*
X116014981Y-89251030D02*
X116037239Y-89314639D01*
X115260271Y-88604760D02*
X115389580Y-88642013D01*
X116074658Y-89478581D02*
X116082203Y-89545548D01*
X115565136Y-88722640D02*
X115622197Y-88758494D01*
X113385033Y-85279627D02*
X113385033Y-87279627D01*
X115995670Y-90054847D02*
X115966430Y-90115564D01*
X115967941Y-132950949D02*
X119507941Y-132950949D01*
X113819076Y-93331116D02*
X113489250Y-103480397D01*
X115918991Y-89064204D02*
X115984084Y-89181982D01*
X115753669Y-88863339D02*
X115801321Y-88910991D01*
X115834947Y-88948619D02*
X115876964Y-89001307D01*
X115942020Y-90159730D02*
X115906166Y-90216792D01*
X116051209Y-89363130D02*
X116066205Y-89428831D01*
X115819709Y-90328746D02*
X114359809Y-91973920D01*
X113488269Y-103601224D02*
X113818225Y-123915865D01*
X115876964Y-90257948D02*
X115834947Y-90310636D01*
X116082203Y-89545548D02*
G75*
G02*
X116085030Y-89595932I-447003J-50352D01*
G01*
X115984084Y-89181982D02*
G75*
G02*
X116014977Y-89251031I-393784J-217618D01*
G01*
X115716041Y-88829713D02*
G75*
G02*
X115753669Y-88863339I-280441J-351687D01*
G01*
X115966430Y-90115564D02*
G75*
G02*
X115942022Y-90159731I-405330J195164D01*
G01*
X116085033Y-89663323D02*
G75*
G02*
X116082201Y-89713707I-449933J23D01*
G01*
X115834947Y-90310636D02*
G75*
G02*
X115819709Y-90328746I-352247J280936D01*
G01*
X115906166Y-90216792D02*
G75*
G02*
X115876963Y-90257947I-380966J239392D01*
G01*
X115622197Y-88758494D02*
G75*
G02*
X115663353Y-88787697I-239197J-380706D01*
G01*
X114524073Y-131634151D02*
G75*
G03*
X115967941Y-132950863I1443827J133251D01*
G01*
X115801321Y-88910991D02*
G75*
G02*
X115834952Y-88948615I-318021J-318109D01*
G01*
X113818225Y-123915865D02*
G75*
G03*
X113827035Y-124078455I2150075J34965D01*
G01*
X116037239Y-89314639D02*
G75*
G02*
X116051210Y-89363130I-424839J-148661D01*
G01*
X116022647Y-89984175D02*
G75*
G02*
X115995672Y-90054848I-432447J124575D01*
G01*
X115389580Y-88642013D02*
G75*
G02*
X115460251Y-88668992I-124580J-432387D01*
G01*
X116066205Y-89428831D02*
G75*
G02*
X116074658Y-89478581I-438905J-100169D01*
G01*
X113489250Y-103480397D02*
G75*
G03*
X113488270Y-103601224I2476950J-80503D01*
G01*
X116074658Y-89780673D02*
G75*
G02*
X116059898Y-89854865I-447058J50373D01*
G01*
X114359809Y-91973920D02*
G75*
G03*
X113819096Y-93331117I1608091J-1426980D01*
G01*
X115876964Y-89001307D02*
G75*
G02*
X115918986Y-89064207I-351764J-280493D01*
G01*
X115179808Y-88589340D02*
G75*
G02*
X115260272Y-88604758I-44108J-447860D01*
G01*
X119507941Y-132950949D02*
G75*
G03*
X119957949Y-132500949I-41J450049D01*
G01*
X113385033Y-87279627D02*
G75*
G03*
X114512501Y-88523550I1249967J27D01*
G01*
X115520969Y-88698230D02*
G75*
G02*
X115565135Y-88722641I-195169J-405270D01*
G01*
D28*
X161589367Y-114684834D02*
X161923502Y-114741123D01*
X133558407Y-115863471D02*
X133892542Y-115919760D01*
X133892542Y-115919760D02*
X161589367Y-114684834D01*
X161558454Y-101961803D02*
X161923502Y-102041123D01*
X131231790Y-101799619D02*
X161558454Y-101961803D01*
X130858407Y-101787902D02*
X131231790Y-101799619D01*
X115967941Y-108640949D02*
X117877932Y-109737905D01*
X120314352Y-111234228D02*
X125258407Y-116513471D01*
X118395801Y-109900968D02*
X118620082Y-109920929D01*
X119419665Y-110304031D02*
X120314352Y-111234228D01*
X117877932Y-109737905D02*
G75*
G03*
X118395802Y-109900958I629968J1096905D01*
G01*
X118620082Y-109920929D02*
G75*
G02*
X119419658Y-110304038I-112182J-1260071D01*
G01*
X161558558Y-117196349D02*
X161923502Y-117281123D01*
X130858407Y-116513471D02*
X131232884Y-116525222D01*
X131232884Y-116525222D02*
X161558558Y-117196349D01*
X117227961Y-118688809D02*
X117247922Y-118913089D01*
X119628186Y-120753345D02*
X120420385Y-122263643D01*
X123927959Y-128428282D02*
X124858061Y-130201487D01*
X120420385Y-122263643D02*
X122866806Y-126995917D01*
X115967941Y-116260949D02*
X117064897Y-118170939D01*
X123010486Y-127223113D02*
X123927959Y-128428282D01*
X125340687Y-130503762D02*
X128058407Y-130589039D01*
X118395801Y-120060968D02*
X118620082Y-120080929D01*
X122866806Y-126995917D02*
G75*
G03*
X123010492Y-127223109I1377594J712217D01*
G01*
X117247922Y-118913089D02*
G75*
G03*
X118395800Y-120060977I1259978J112089D01*
G01*
X117064897Y-118170939D02*
G75*
G02*
X117227935Y-118688811I-1096997J-629961D01*
G01*
X124858061Y-130201487D02*
G75*
G03*
X125340688Y-130503734I500339J262487D01*
G01*
X118620082Y-120080929D02*
G75*
G02*
X119628134Y-120753373I-112182J-1259971D01*
G01*
X117227961Y-103448809D02*
X117247922Y-103673089D01*
X119484156Y-105296442D02*
X120748351Y-106830457D01*
X115967941Y-106100949D02*
X114870985Y-104190958D01*
X127958407Y-115863471D02*
X120748351Y-106830457D01*
X118395801Y-104820968D02*
X118620082Y-104840929D01*
X114870985Y-104190958D02*
G75*
G02*
X117227958Y-103448809I1096955J630008D01*
G01*
X118620082Y-104840929D02*
G75*
G02*
X119484148Y-105296448I-112182J-1260071D01*
G01*
X117247922Y-103673089D02*
G75*
G03*
X118395800Y-104820977I1259978J112089D01*
G01*
X133558407Y-102437902D02*
X133892542Y-102563261D01*
X133892542Y-102563261D02*
X161589367Y-106995765D01*
X161589367Y-106995765D02*
X161923502Y-107121123D01*
X133558407Y-117163471D02*
X133892542Y-117264057D01*
X161589367Y-119720537D02*
X161923502Y-119821123D01*
X133892542Y-117264057D02*
X161589367Y-119720537D01*
X117064897Y-115630939D02*
X115967941Y-113720949D01*
X123429115Y-126647812D02*
X120360113Y-119775104D01*
X117247922Y-116373089D02*
X117227961Y-116148809D01*
X118620082Y-117540929D02*
X118395801Y-117520968D01*
X125358407Y-129939039D02*
X124293728Y-127662756D01*
X124293728Y-127662756D02*
X123584733Y-126885474D01*
X120360113Y-119775104D02*
X119653797Y-118265001D01*
X123584733Y-126885474D02*
G75*
G02*
X123429102Y-126647818I659667J601774D01*
G01*
X117227961Y-116148809D02*
G75*
G03*
X117064919Y-115630926I-1260061J-112091D01*
G01*
X119653797Y-118265001D02*
G75*
G03*
X118620087Y-117540868I-1145897J-535899D01*
G01*
X118395801Y-117520968D02*
G75*
G02*
X117247931Y-116373088I112099J1259968D01*
G01*
X118620082Y-107380929D02*
X118395801Y-107360968D01*
X125258407Y-115213471D02*
X120470447Y-109043834D01*
X120470447Y-109043834D02*
X119487629Y-107840676D01*
X117064897Y-105470939D02*
X115967941Y-103560949D01*
X117247922Y-106213089D02*
X117227961Y-105988809D01*
X117227961Y-105988809D02*
G75*
G03*
X117064919Y-105470926I-1260061J-112091D01*
G01*
X118395801Y-107360968D02*
G75*
G02*
X117247931Y-106213088I112099J1259968D01*
G01*
X119487629Y-107840676D02*
G75*
G03*
X118620086Y-107380883I-979729J-800224D01*
G01*
X115967941Y-131500949D02*
X118507941Y-131500949D01*
X161923502Y-124901123D02*
X133658407Y-129939039D01*
X120956297Y-102850250D02*
X125258407Y-102677725D01*
X125258407Y-102677725D02*
X127958407Y-102437902D01*
X118804573Y-102331219D02*
X120956297Y-102850250D01*
X118395801Y-102280968D02*
X118620082Y-102300929D01*
X115967941Y-101020949D02*
X117877932Y-102117905D01*
X118620082Y-102300929D02*
G75*
G02*
X118804572Y-102331224I-112182J-1260071D01*
G01*
X117877932Y-102117905D02*
G75*
G03*
X118395802Y-102280958I629968J1096905D01*
G01*
X133676127Y-130503762D02*
X130958407Y-130589039D01*
X161862410Y-127403611D02*
X133720212Y-130500649D01*
X133720212Y-130500649D02*
G75*
G02*
X133676127Y-130503765I-61912J562549D01*
G01*
D29*
X116382229Y-90747078D02*
X116424246Y-90694390D01*
X116498873Y-90589214D02*
X116534727Y-90532153D01*
X116596741Y-88843379D02*
X116531647Y-88725601D01*
X114883387Y-92438534D02*
X116343287Y-90793360D01*
X116424246Y-88564864D02*
X116382229Y-88512176D01*
X116785033Y-89663323D02*
X116785033Y-89595932D01*
X116748654Y-89273066D02*
X116733659Y-89207365D01*
X116777802Y-89467173D02*
X116770256Y-89400206D01*
X114518133Y-123904497D02*
X114188176Y-103589856D01*
X116697957Y-89083443D02*
X116675700Y-89019834D01*
X114188881Y-103503134D02*
X114518706Y-93353852D01*
X116770256Y-89859048D02*
X116777802Y-89792082D01*
X116695289Y-90177960D02*
X116732542Y-90048650D01*
X116597108Y-90419282D02*
X116626348Y-90358565D01*
X116785033Y-89595932D02*
G75*
G03*
X116777798Y-89467173I-1150533J-68D01*
G01*
X116770256Y-89400206D02*
G75*
G03*
X116748657Y-89273065I-1142556J-128694D01*
G01*
X116732542Y-90048650D02*
G75*
G03*
X116770255Y-89859048I-1105042J318350D01*
G01*
X116534727Y-90532153D02*
G75*
G03*
X116597106Y-90419281I-973627J611753D01*
G01*
X116424246Y-90694390D02*
G75*
G03*
X116498874Y-90589215I-899046J716990D01*
G01*
X114188176Y-103589856D02*
G75*
G02*
X114188883Y-103503134I1778924J28856D01*
G01*
X116777802Y-89792082D02*
G75*
G03*
X116785032Y-89663323I-1143302J128782D01*
G01*
X116675700Y-89019834D02*
G75*
G03*
X116596745Y-88843377I-1085400J-379766D01*
G01*
X114518706Y-93353852D02*
G75*
G02*
X114883372Y-92438520I1449194J-47048D01*
G01*
X116531647Y-88725601D02*
G75*
G03*
X116424246Y-88564864I-1006547J-556299D01*
G01*
X116626348Y-90358565D02*
G75*
G03*
X116695286Y-90177959I-1036148J498965D01*
G01*
X114628316Y-124435840D02*
G75*
G02*
X114518119Y-123904497I1339684J554940D01*
G01*
X116733659Y-89207365D02*
G75*
G03*
X116697963Y-89083441I-1121459J-255935D01*
G01*
X116382229Y-88512176D02*
G75*
G03*
X116296296Y-88416017I-899229J-717124D01*
G01*
X116343287Y-90793360D02*
G75*
G03*
X116382228Y-90747077I-860887J763860D01*
G01*
D28*
X161557726Y-94421741D02*
X161923502Y-94421123D01*
X131224183Y-100487285D02*
X161557726Y-94421741D01*
X130858407Y-100487902D02*
X131224183Y-100487285D01*
X120224497Y-100294010D02*
X125258407Y-101787902D01*
X120224497Y-100294010D02*
X118936075Y-99830601D01*
X117877932Y-99577905D02*
X115967941Y-98480949D01*
X118620082Y-99760929D02*
X118395801Y-99740968D01*
X118395801Y-99740968D02*
G75*
G02*
X117877927Y-99577914I112099J1259968D01*
G01*
X118936075Y-99830601D02*
G75*
G03*
X118620083Y-99760921I-428175J-1190399D01*
G01*
G04 #@! TA.AperFunction,Conductor*
G36*
X166864399Y-75885601D02*
G01*
X166868500Y-75895500D01*
X166868500Y-140104500D01*
X166864399Y-140114399D01*
X166854500Y-140118500D01*
X112145500Y-140118500D01*
X112135601Y-140114399D01*
X112131500Y-140104500D01*
X112131500Y-136999994D01*
X112494415Y-136999994D01*
X112494415Y-137000005D01*
X112514737Y-137348923D01*
X112575429Y-137693132D01*
X112675672Y-138027965D01*
X112675674Y-138027971D01*
X112752348Y-138205722D01*
X112814110Y-138348903D01*
X112988864Y-138651587D01*
X112988865Y-138651590D01*
X113061449Y-138749087D01*
X113197588Y-138931953D01*
X113197595Y-138931960D01*
X113197598Y-138931964D01*
X113437435Y-139186177D01*
X113437441Y-139186182D01*
X113437442Y-139186183D01*
X113705189Y-139410849D01*
X113997207Y-139602913D01*
X114309549Y-139759777D01*
X114637989Y-139879319D01*
X114978086Y-139959923D01*
X115041657Y-139967353D01*
X115325226Y-140000499D01*
X115325238Y-140000499D01*
X115325241Y-140000500D01*
X115325243Y-140000500D01*
X115674757Y-140000500D01*
X115674759Y-140000500D01*
X115674761Y-140000499D01*
X115674773Y-140000499D01*
X115914340Y-139972496D01*
X116021914Y-139959923D01*
X116362011Y-139879319D01*
X116690451Y-139759777D01*
X117002793Y-139602913D01*
X117294811Y-139410849D01*
X117562558Y-139186183D01*
X117802412Y-138931953D01*
X118011130Y-138651596D01*
X118011131Y-138651593D01*
X118011134Y-138651590D01*
X118011135Y-138651587D01*
X118185889Y-138348904D01*
X118324326Y-138027971D01*
X118424569Y-137693136D01*
X118485262Y-137348927D01*
X118505585Y-137000000D01*
X118499756Y-136899927D01*
X118492036Y-136767382D01*
X118485262Y-136651073D01*
X118444930Y-136422336D01*
X118432162Y-136349924D01*
X125809744Y-136349924D01*
X125809744Y-136349929D01*
X125829475Y-136562873D01*
X125829477Y-136562883D01*
X125888006Y-136768589D01*
X125888009Y-136768595D01*
X125983328Y-136960022D01*
X125983333Y-136960031D01*
X126067509Y-137071498D01*
X126500319Y-136638688D01*
X126528578Y-136687635D01*
X126630980Y-136790037D01*
X126679924Y-136818294D01*
X126245769Y-137252449D01*
X126270268Y-137274783D01*
X126270269Y-137274784D01*
X126452100Y-137387370D01*
X126452099Y-137387370D01*
X126651531Y-137464629D01*
X126861751Y-137503926D01*
X126861755Y-137503927D01*
X127075621Y-137503927D01*
X127075624Y-137503926D01*
X127285844Y-137464629D01*
X127485275Y-137387370D01*
X127667107Y-137274783D01*
X127667112Y-137274780D01*
X127691606Y-137252449D01*
X127257451Y-136818294D01*
X127306396Y-136790037D01*
X127408798Y-136687635D01*
X127437055Y-136638690D01*
X127869864Y-137071499D01*
X127954042Y-136960031D01*
X127954047Y-136960022D01*
X128049366Y-136768595D01*
X128049369Y-136768589D01*
X128107898Y-136562883D01*
X128107900Y-136562873D01*
X128127632Y-136349929D01*
X128127632Y-136349924D01*
X128403473Y-136349924D01*
X128403473Y-136349929D01*
X128422289Y-136553001D01*
X128422291Y-136553011D01*
X128478107Y-136749180D01*
X128478110Y-136749186D01*
X128569009Y-136931738D01*
X128569014Y-136931747D01*
X128590373Y-136960031D01*
X128691924Y-137094506D01*
X128842647Y-137231908D01*
X129016049Y-137339274D01*
X129016048Y-137339274D01*
X129016051Y-137339275D01*
X129206232Y-137412951D01*
X129406712Y-137450427D01*
X129406713Y-137450427D01*
X129610663Y-137450427D01*
X129610664Y-137450427D01*
X129811144Y-137412951D01*
X130001325Y-137339275D01*
X130174729Y-137231908D01*
X130325452Y-137094506D01*
X130448361Y-136931748D01*
X130539270Y-136749177D01*
X130595085Y-136553010D01*
X130597261Y-136529532D01*
X130613903Y-136349929D01*
X130613903Y-136349924D01*
X130595086Y-136146852D01*
X130595085Y-136146849D01*
X130595085Y-136146844D01*
X130539270Y-135950677D01*
X130464206Y-135799927D01*
X130448366Y-135768115D01*
X130448361Y-135768106D01*
X130359999Y-135651096D01*
X130325452Y-135605348D01*
X130174729Y-135467946D01*
X130113733Y-135430179D01*
X130948188Y-135430179D01*
X130948188Y-137269675D01*
X130949204Y-137274783D01*
X130959821Y-137328158D01*
X130959822Y-137328161D01*
X131004135Y-137394479D01*
X131070453Y-137438792D01*
X131070455Y-137438792D01*
X131070457Y-137438794D01*
X131128940Y-137450427D01*
X132968436Y-137450427D01*
X133026919Y-137438794D01*
X133093240Y-137394479D01*
X133137555Y-137328158D01*
X133149188Y-137269675D01*
X133149188Y-136999994D01*
X160494415Y-136999994D01*
X160494415Y-137000005D01*
X160514737Y-137348923D01*
X160575429Y-137693132D01*
X160675672Y-138027965D01*
X160675674Y-138027971D01*
X160752348Y-138205722D01*
X160814110Y-138348903D01*
X160988864Y-138651587D01*
X160988865Y-138651590D01*
X161061449Y-138749087D01*
X161197588Y-138931953D01*
X161197595Y-138931960D01*
X161197598Y-138931964D01*
X161437435Y-139186177D01*
X161437441Y-139186182D01*
X161437442Y-139186183D01*
X161705189Y-139410849D01*
X161997207Y-139602913D01*
X162309549Y-139759777D01*
X162637989Y-139879319D01*
X162978086Y-139959923D01*
X163041657Y-139967353D01*
X163325226Y-140000499D01*
X163325238Y-140000499D01*
X163325241Y-140000500D01*
X163325243Y-140000500D01*
X163674757Y-140000500D01*
X163674759Y-140000500D01*
X163674761Y-140000499D01*
X163674773Y-140000499D01*
X163914340Y-139972496D01*
X164021914Y-139959923D01*
X164362011Y-139879319D01*
X164690451Y-139759777D01*
X165002793Y-139602913D01*
X165294811Y-139410849D01*
X165562558Y-139186183D01*
X165802412Y-138931953D01*
X166011130Y-138651596D01*
X166011131Y-138651593D01*
X166011134Y-138651590D01*
X166011135Y-138651587D01*
X166185889Y-138348904D01*
X166324326Y-138027971D01*
X166424569Y-137693136D01*
X166485262Y-137348927D01*
X166505585Y-137000000D01*
X166499756Y-136899927D01*
X166492036Y-136767382D01*
X166485262Y-136651073D01*
X166444930Y-136422336D01*
X166424570Y-136306867D01*
X166383691Y-136170322D01*
X166324326Y-135972029D01*
X166185889Y-135651096D01*
X166159476Y-135605347D01*
X166011135Y-135348412D01*
X166011134Y-135348409D01*
X165965343Y-135286902D01*
X165802412Y-135068047D01*
X165802401Y-135068035D01*
X165562564Y-134813822D01*
X165545782Y-134799740D01*
X165294811Y-134589151D01*
X165002793Y-134397087D01*
X164849385Y-134320043D01*
X164690456Y-134240225D01*
X164690451Y-134240223D01*
X164362011Y-134120681D01*
X164266528Y-134098051D01*
X164021916Y-134040077D01*
X164021903Y-134040075D01*
X163674773Y-133999500D01*
X163674759Y-133999500D01*
X163325241Y-133999500D01*
X163325226Y-133999500D01*
X162978096Y-134040075D01*
X162978083Y-134040077D01*
X162637993Y-134120680D01*
X162637989Y-134120681D01*
X162309543Y-134240225D01*
X161997203Y-134397089D01*
X161705191Y-134589149D01*
X161437435Y-134813822D01*
X161197598Y-135068035D01*
X161197589Y-135068046D01*
X160988865Y-135348409D01*
X160988864Y-135348412D01*
X160814110Y-135651096D01*
X160733743Y-135837409D01*
X160684885Y-135950677D01*
X160675676Y-135972025D01*
X160675672Y-135972034D01*
X160575429Y-136306867D01*
X160514737Y-136651076D01*
X160494415Y-136999994D01*
X133149188Y-136999994D01*
X133149188Y-135430179D01*
X133137555Y-135371696D01*
X133137553Y-135371694D01*
X133137553Y-135371692D01*
X133093240Y-135305374D01*
X133026922Y-135261061D01*
X133026919Y-135261060D01*
X132968436Y-135249427D01*
X131128940Y-135249427D01*
X131070456Y-135261060D01*
X131070453Y-135261061D01*
X131004135Y-135305374D01*
X130959822Y-135371692D01*
X130959821Y-135371695D01*
X130959821Y-135371696D01*
X130948188Y-135430179D01*
X130113733Y-135430179D01*
X130019280Y-135371696D01*
X130001326Y-135360579D01*
X130001327Y-135360579D01*
X129877174Y-135312483D01*
X129811144Y-135286903D01*
X129811141Y-135286902D01*
X129811140Y-135286902D01*
X129610666Y-135249427D01*
X129610664Y-135249427D01*
X129406712Y-135249427D01*
X129406709Y-135249427D01*
X129206235Y-135286902D01*
X129016048Y-135360579D01*
X128842648Y-135467945D01*
X128842647Y-135467946D01*
X128691924Y-135605347D01*
X128569014Y-135768106D01*
X128569009Y-135768115D01*
X128478110Y-135950667D01*
X128478107Y-135950673D01*
X128422291Y-136146842D01*
X128422289Y-136146852D01*
X128403473Y-136349924D01*
X128127632Y-136349924D01*
X128107900Y-136136980D01*
X128107898Y-136136970D01*
X128049369Y-135931264D01*
X128049366Y-135931258D01*
X127954047Y-135739831D01*
X127954042Y-135739822D01*
X127869864Y-135628353D01*
X127437055Y-136061162D01*
X127408798Y-136012219D01*
X127306396Y-135909817D01*
X127257450Y-135881558D01*
X127691605Y-135447403D01*
X127667107Y-135425070D01*
X127667106Y-135425069D01*
X127485275Y-135312483D01*
X127485276Y-135312483D01*
X127285844Y-135235224D01*
X127075624Y-135195927D01*
X126861751Y-135195927D01*
X126651531Y-135235224D01*
X126452100Y-135312483D01*
X126270269Y-135425069D01*
X126270262Y-135425074D01*
X126245768Y-135447402D01*
X126245768Y-135447403D01*
X126679924Y-135881559D01*
X126630980Y-135909817D01*
X126528578Y-136012219D01*
X126500320Y-136061163D01*
X126067510Y-135628353D01*
X125983334Y-135739822D01*
X125983328Y-135739831D01*
X125888009Y-135931258D01*
X125888006Y-135931264D01*
X125829477Y-136136970D01*
X125829475Y-136136980D01*
X125809744Y-136349924D01*
X118432162Y-136349924D01*
X118424570Y-136306867D01*
X118383691Y-136170322D01*
X118324326Y-135972029D01*
X118185889Y-135651096D01*
X118159476Y-135605347D01*
X118011135Y-135348412D01*
X118011134Y-135348409D01*
X117965343Y-135286902D01*
X117802412Y-135068047D01*
X117802401Y-135068035D01*
X117562564Y-134813822D01*
X117545782Y-134799740D01*
X117294811Y-134589151D01*
X117002793Y-134397087D01*
X116849385Y-134320043D01*
X116690456Y-134240225D01*
X116690451Y-134240223D01*
X116362011Y-134120681D01*
X116266528Y-134098051D01*
X116021916Y-134040077D01*
X116021903Y-134040075D01*
X115674773Y-133999500D01*
X115674759Y-133999500D01*
X115325241Y-133999500D01*
X115325226Y-133999500D01*
X114978096Y-134040075D01*
X114978083Y-134040077D01*
X114637993Y-134120680D01*
X114637989Y-134120681D01*
X114309543Y-134240225D01*
X113997203Y-134397089D01*
X113705191Y-134589149D01*
X113437435Y-134813822D01*
X113197598Y-135068035D01*
X113197589Y-135068046D01*
X112988865Y-135348409D01*
X112988864Y-135348412D01*
X112814110Y-135651096D01*
X112733743Y-135837409D01*
X112684885Y-135950677D01*
X112675676Y-135972025D01*
X112675672Y-135972034D01*
X112575429Y-136306867D01*
X112514737Y-136651076D01*
X112494415Y-136999994D01*
X112131500Y-136999994D01*
X112131500Y-83279615D01*
X112929533Y-83279615D01*
X112929533Y-85279627D01*
X112934445Y-85323223D01*
X112934533Y-85324790D01*
X112934533Y-87219460D01*
X112934532Y-87219469D01*
X112934532Y-87273781D01*
X112934475Y-87273920D01*
X112934488Y-87393629D01*
X112964926Y-87619591D01*
X113025247Y-87839454D01*
X113025249Y-87839459D01*
X113114380Y-88049311D01*
X113114381Y-88049312D01*
X113230721Y-88245386D01*
X113230727Y-88245394D01*
X113372192Y-88424176D01*
X113372196Y-88424181D01*
X113522397Y-88569108D01*
X113536271Y-88582495D01*
X113719995Y-88717483D01*
X113719997Y-88717484D01*
X113720000Y-88717485D01*
X113720002Y-88717487D01*
X113920110Y-88826750D01*
X113971173Y-88846315D01*
X113978950Y-88853686D01*
X113979237Y-88864397D01*
X113971866Y-88872174D01*
X113971522Y-88872322D01*
X113855854Y-88920232D01*
X113724738Y-89007842D01*
X113613248Y-89119332D01*
X113525638Y-89250448D01*
X113465297Y-89396125D01*
X113465295Y-89396131D01*
X113438297Y-89531864D01*
X113434533Y-89550785D01*
X113434533Y-89708469D01*
X113437350Y-89722632D01*
X113465295Y-89863122D01*
X113465297Y-89863128D01*
X113525638Y-90008805D01*
X113548256Y-90042655D01*
X113613244Y-90139916D01*
X113613245Y-90139917D01*
X113613248Y-90139921D01*
X113724738Y-90251411D01*
X113724741Y-90251413D01*
X113724744Y-90251416D01*
X113855854Y-90339021D01*
X114001536Y-90399364D01*
X114156191Y-90430127D01*
X115096305Y-90430127D01*
X115106204Y-90434228D01*
X115110305Y-90444127D01*
X115106777Y-90453419D01*
X114026772Y-91670486D01*
X114026732Y-91670505D01*
X113937250Y-91771274D01*
X113786062Y-91980054D01*
X113656247Y-92202786D01*
X113549108Y-92437228D01*
X113549097Y-92437257D01*
X113465672Y-92681127D01*
X113465668Y-92681141D01*
X113406756Y-92932111D01*
X113406755Y-92932120D01*
X113372952Y-93187665D01*
X113368878Y-93314512D01*
X113368878Y-93314517D01*
X113038987Y-103465763D01*
X113038213Y-103489553D01*
X113038212Y-103489605D01*
X113038211Y-103489632D01*
X113038210Y-103489632D01*
X113038211Y-103489633D01*
X113037061Y-103525045D01*
X113037208Y-103525675D01*
X113037570Y-103529074D01*
X113037440Y-103537138D01*
X113037440Y-103545216D01*
X113037021Y-103548614D01*
X113036865Y-103549234D01*
X113036864Y-103549241D01*
X113037440Y-103584717D01*
X113037441Y-103584744D01*
X113037442Y-103584814D01*
X113037441Y-103584815D01*
X113037590Y-103593893D01*
X113037590Y-103593895D01*
X113142877Y-110076155D01*
X113356789Y-123246269D01*
X113366819Y-123863762D01*
X113366819Y-123863776D01*
X113367689Y-123917323D01*
X113367687Y-123917329D01*
X113368315Y-123955952D01*
X113368317Y-123956036D01*
X113368319Y-123956141D01*
X113368748Y-123982480D01*
X113368749Y-123982487D01*
X113369073Y-123983624D01*
X113369597Y-123986879D01*
X113371041Y-124021624D01*
X113373360Y-124056308D01*
X113373190Y-124059605D01*
X113372989Y-124060774D01*
X113372989Y-124060782D01*
X113377870Y-124113687D01*
X113377869Y-124113691D01*
X113383546Y-124175219D01*
X114069954Y-131615665D01*
X114069955Y-131615688D01*
X114074939Y-131669701D01*
X114074871Y-131669921D01*
X114087197Y-131802943D01*
X114087199Y-131802955D01*
X114144652Y-132052300D01*
X114235008Y-132291697D01*
X114356631Y-132516816D01*
X114356638Y-132516826D01*
X114507338Y-132723616D01*
X114507339Y-132723617D01*
X114507341Y-132723619D01*
X114684402Y-132908347D01*
X114684407Y-132908351D01*
X114684409Y-132908353D01*
X114684408Y-132908353D01*
X114884622Y-133067675D01*
X114884631Y-133067681D01*
X115095233Y-133193269D01*
X115104396Y-133198733D01*
X115339750Y-133299150D01*
X115586440Y-133367116D01*
X115840013Y-133401405D01*
X115907553Y-133401427D01*
X115907866Y-133401449D01*
X115908632Y-133401449D01*
X115967954Y-133401449D01*
X119447733Y-133401449D01*
X119447811Y-133401453D01*
X119448668Y-133401452D01*
X119448673Y-133401454D01*
X119507982Y-133401449D01*
X119567250Y-133401449D01*
X119568100Y-133401449D01*
X119568279Y-133401435D01*
X119596666Y-133401434D01*
X119770624Y-133366819D01*
X119934489Y-133298937D01*
X119934489Y-133298936D01*
X119934491Y-133298936D01*
X119934492Y-133298935D01*
X119934998Y-133298596D01*
X120081964Y-133200394D01*
X120207383Y-133074976D01*
X120305929Y-132927503D01*
X120373815Y-132763640D01*
X120408432Y-132589682D01*
X120408433Y-132561372D01*
X120408441Y-132561292D01*
X120408441Y-132500448D01*
X120408442Y-132486449D01*
X120408447Y-132441689D01*
X120408445Y-132441684D01*
X120408446Y-132440843D01*
X120408441Y-132440749D01*
X120408441Y-130498496D01*
X120408447Y-130498103D01*
X120409492Y-130460867D01*
X120409491Y-130460865D01*
X120409492Y-130460858D01*
X120408710Y-130456925D01*
X120408441Y-130454195D01*
X120408441Y-130441643D01*
X120408441Y-130441640D01*
X120397795Y-130401913D01*
X120397596Y-130401059D01*
X120356208Y-130192980D01*
X120342975Y-130150812D01*
X119620139Y-128496007D01*
X119602688Y-128464096D01*
X119599038Y-128458634D01*
X119598155Y-128457111D01*
X119536321Y-128332931D01*
X119533004Y-128326269D01*
X119532999Y-128326260D01*
X119470566Y-128243585D01*
X119398922Y-128148713D01*
X119354272Y-128108009D01*
X119353816Y-128107573D01*
X119329218Y-128082975D01*
X119321077Y-128077535D01*
X119319424Y-128076241D01*
X119234503Y-127998825D01*
X119181925Y-127966270D01*
X119045343Y-127881702D01*
X119045344Y-127881702D01*
X118997139Y-127863028D01*
X118996839Y-127862907D01*
X118930715Y-127835518D01*
X118930712Y-127835517D01*
X118922478Y-127833879D01*
X118920153Y-127833203D01*
X118893640Y-127822932D01*
X118837881Y-127801331D01*
X118837880Y-127801330D01*
X118837878Y-127801330D01*
X118619184Y-127760449D01*
X118554695Y-127760449D01*
X118551964Y-127760180D01*
X118548032Y-127759398D01*
X118467850Y-127759398D01*
X118463918Y-127760180D01*
X118461187Y-127760449D01*
X118396697Y-127760449D01*
X118178003Y-127801330D01*
X118095727Y-127833203D01*
X118093403Y-127833879D01*
X118085167Y-127835517D01*
X118085165Y-127835518D01*
X118019055Y-127862901D01*
X118018756Y-127863021D01*
X117970543Y-127881700D01*
X117970538Y-127881702D01*
X117781380Y-127998824D01*
X117781379Y-127998825D01*
X117696455Y-128076242D01*
X117694803Y-128077535D01*
X117686663Y-128082975D01*
X117662064Y-128107573D01*
X117661597Y-128108019D01*
X117616960Y-128148712D01*
X117482882Y-128326260D01*
X117482877Y-128326269D01*
X117417729Y-128457103D01*
X117416839Y-128458639D01*
X117413194Y-128464095D01*
X117408162Y-128476242D01*
X117407760Y-128477124D01*
X117383716Y-128525411D01*
X117383713Y-128525417D01*
X117322826Y-128739411D01*
X117322824Y-128739421D01*
X117302298Y-128960946D01*
X117302298Y-128960951D01*
X117322824Y-129182476D01*
X117322826Y-129182486D01*
X117383713Y-129396480D01*
X117383716Y-129396486D01*
X117407760Y-129444772D01*
X117408162Y-129445654D01*
X117413194Y-129457803D01*
X117416840Y-129463260D01*
X117417731Y-129464797D01*
X117482877Y-129595628D01*
X117482882Y-129595637D01*
X117616960Y-129773185D01*
X117661608Y-129813887D01*
X117662053Y-129814312D01*
X117686664Y-129838923D01*
X117686667Y-129838926D01*
X117694802Y-129844362D01*
X117696456Y-129845656D01*
X117733196Y-129879148D01*
X117781379Y-129923073D01*
X117881253Y-129984912D01*
X117949986Y-130027470D01*
X117970538Y-130040195D01*
X117970537Y-130040195D01*
X118013207Y-130056725D01*
X118014091Y-130057103D01*
X118067004Y-130081899D01*
X118113646Y-130095686D01*
X118114733Y-130096056D01*
X118178001Y-130120567D01*
X118231203Y-130130512D01*
X118232585Y-130130844D01*
X118508522Y-130212411D01*
X118532582Y-130219523D01*
X118540913Y-130226262D01*
X118542039Y-130236918D01*
X118535300Y-130245249D01*
X118528613Y-130246949D01*
X117482925Y-130246949D01*
X117408835Y-130261685D01*
X117324817Y-130317825D01*
X117268677Y-130401844D01*
X117253941Y-130475932D01*
X117253941Y-131491314D01*
X117249860Y-131501164D01*
X117250666Y-131501584D01*
X117253941Y-131510583D01*
X117253942Y-132486449D01*
X117249842Y-132496348D01*
X117239942Y-132500449D01*
X116771189Y-132500449D01*
X116761290Y-132496348D01*
X116757189Y-132486449D01*
X116761290Y-132476550D01*
X116762687Y-132475376D01*
X116762693Y-132475307D01*
X116293305Y-132005919D01*
X116336349Y-131981068D01*
X116448060Y-131869357D01*
X116472910Y-131826314D01*
X116942298Y-132295702D01*
X116942299Y-132295701D01*
X117058083Y-132130346D01*
X117058087Y-132130340D01*
X117150816Y-131931482D01*
X117207605Y-131719540D01*
X117207606Y-131719538D01*
X117225994Y-131509363D01*
X117230202Y-131501279D01*
X117230042Y-131501213D01*
X117225994Y-131492534D01*
X117207606Y-131282359D01*
X117207605Y-131282357D01*
X117150816Y-131070415D01*
X117058087Y-130871557D01*
X117058083Y-130871551D01*
X116942299Y-130706195D01*
X116942299Y-130706194D01*
X116472910Y-131175583D01*
X116448060Y-131132541D01*
X116336349Y-131020830D01*
X116293305Y-130995978D01*
X116762694Y-130526589D01*
X116597338Y-130410806D01*
X116597332Y-130410802D01*
X116398474Y-130318073D01*
X116186532Y-130261284D01*
X116186530Y-130261283D01*
X115967941Y-130242159D01*
X115749351Y-130261283D01*
X115749349Y-130261284D01*
X115537407Y-130318073D01*
X115338549Y-130410802D01*
X115338543Y-130410806D01*
X115173187Y-130526589D01*
X115173186Y-130526590D01*
X115642575Y-130995979D01*
X115599533Y-131020830D01*
X115487822Y-131132541D01*
X115462971Y-131175583D01*
X114993582Y-130706194D01*
X114993581Y-130706195D01*
X114924735Y-130804518D01*
X114915698Y-130810275D01*
X114905237Y-130807956D01*
X114899480Y-130798919D01*
X114899326Y-130797774D01*
X114897530Y-130778308D01*
X114729872Y-128960946D01*
X114762298Y-128960946D01*
X114762298Y-128960951D01*
X114782824Y-129182476D01*
X114782826Y-129182486D01*
X114843713Y-129396480D01*
X114843716Y-129396486D01*
X114942877Y-129595628D01*
X114942882Y-129595637D01*
X115019929Y-129697664D01*
X115076960Y-129773185D01*
X115241379Y-129923073D01*
X115341253Y-129984912D01*
X115409986Y-130027470D01*
X115430538Y-130040195D01*
X115430537Y-130040195D01*
X115466451Y-130054108D01*
X115638001Y-130120567D01*
X115856698Y-130161449D01*
X115856699Y-130161449D01*
X116079183Y-130161449D01*
X116079184Y-130161449D01*
X116297881Y-130120567D01*
X116505342Y-130040196D01*
X116694503Y-129923073D01*
X116858922Y-129773185D01*
X116992999Y-129595638D01*
X117092170Y-129396477D01*
X117153056Y-129182485D01*
X117153057Y-129182476D01*
X117173584Y-128960951D01*
X117173584Y-128960946D01*
X117153057Y-128739421D01*
X117153056Y-128739418D01*
X117153056Y-128739413D01*
X117092170Y-128525421D01*
X117088382Y-128517815D01*
X116993004Y-128326269D01*
X116992999Y-128326260D01*
X116930566Y-128243585D01*
X116858922Y-128148713D01*
X116694503Y-127998825D01*
X116641925Y-127966270D01*
X116505343Y-127881702D01*
X116505344Y-127881702D01*
X116297878Y-127801330D01*
X116079184Y-127760449D01*
X115856698Y-127760449D01*
X115856697Y-127760449D01*
X115638003Y-127801330D01*
X115430537Y-127881702D01*
X115241380Y-127998824D01*
X115241379Y-127998825D01*
X115076960Y-128148712D01*
X114942882Y-128326260D01*
X114942877Y-128326269D01*
X114843716Y-128525411D01*
X114843713Y-128525417D01*
X114782826Y-128739411D01*
X114782824Y-128739421D01*
X114762298Y-128960946D01*
X114729872Y-128960946D01*
X114401047Y-125396584D01*
X114404221Y-125386351D01*
X114413702Y-125381358D01*
X114423936Y-125384532D01*
X114428453Y-125391466D01*
X114781646Y-126632349D01*
X114782121Y-126634888D01*
X114782826Y-126642486D01*
X114843713Y-126856480D01*
X114843716Y-126856486D01*
X114859361Y-126887906D01*
X114859536Y-126888269D01*
X114873104Y-126917607D01*
X114873175Y-126917768D01*
X114873196Y-126917806D01*
X114876840Y-126923260D01*
X114877731Y-126924797D01*
X114942877Y-127055628D01*
X114942882Y-127055637D01*
X115076960Y-127233185D01*
X115121608Y-127273887D01*
X115122053Y-127274312D01*
X115146663Y-127298922D01*
X115146667Y-127298926D01*
X115154802Y-127304362D01*
X115156456Y-127305656D01*
X115195205Y-127340980D01*
X115241379Y-127383073D01*
X115430538Y-127500195D01*
X115430537Y-127500195D01*
X115430540Y-127500196D01*
X115478761Y-127518876D01*
X115478983Y-127518966D01*
X115545167Y-127546380D01*
X115553403Y-127548018D01*
X115555721Y-127548691D01*
X115638001Y-127580567D01*
X115856698Y-127621449D01*
X115921187Y-127621449D01*
X115923918Y-127621718D01*
X115927850Y-127622500D01*
X115967941Y-127626449D01*
X115967948Y-127626449D01*
X118507934Y-127626449D01*
X118507941Y-127626449D01*
X118548032Y-127622500D01*
X118551964Y-127621718D01*
X118554695Y-127621449D01*
X118619183Y-127621449D01*
X118619184Y-127621449D01*
X118837881Y-127580567D01*
X118920165Y-127548689D01*
X118922476Y-127548018D01*
X118930715Y-127546380D01*
X118930717Y-127546378D01*
X118930721Y-127546378D01*
X118953366Y-127536997D01*
X118996930Y-127518952D01*
X118997091Y-127518887D01*
X119045342Y-127500196D01*
X119234503Y-127383073D01*
X119319435Y-127305645D01*
X119321069Y-127304366D01*
X119329218Y-127298923D01*
X119353837Y-127274302D01*
X119354273Y-127273887D01*
X119398922Y-127233185D01*
X119532999Y-127055638D01*
X119598151Y-126924794D01*
X119599042Y-126923257D01*
X119602688Y-126917802D01*
X119603772Y-126915183D01*
X119607720Y-126905654D01*
X119608122Y-126904770D01*
X119608948Y-126903111D01*
X119632170Y-126856477D01*
X119693056Y-126642485D01*
X119697691Y-126592463D01*
X119713584Y-126420951D01*
X119713584Y-126420946D01*
X119711680Y-126400404D01*
X119707733Y-126357810D01*
X119710902Y-126347576D01*
X119720381Y-126342580D01*
X119730617Y-126345749D01*
X119732574Y-126347736D01*
X122578271Y-129879148D01*
X122578279Y-129879159D01*
X122598964Y-129904827D01*
X122604757Y-129912016D01*
X122604760Y-129912026D01*
X122608123Y-129916199D01*
X122608123Y-129916200D01*
X122613660Y-129923072D01*
X122627224Y-129939905D01*
X122627437Y-129940162D01*
X122641257Y-129957311D01*
X122642639Y-129958065D01*
X122646301Y-129960950D01*
X122668019Y-129984912D01*
X122691059Y-130007545D01*
X122693795Y-130011322D01*
X122694494Y-130012735D01*
X122694496Y-130012738D01*
X122711128Y-130027282D01*
X122711278Y-130027417D01*
X122711373Y-130027500D01*
X122711380Y-130027507D01*
X122725893Y-130040195D01*
X122729281Y-130043157D01*
X122729282Y-130043158D01*
X123190607Y-130446582D01*
X124646261Y-131719538D01*
X124775545Y-131832595D01*
X124775576Y-131832627D01*
X124807437Y-131860485D01*
X124807461Y-131860532D01*
X124811702Y-131864232D01*
X124811702Y-131864233D01*
X124821989Y-131873210D01*
X124821995Y-131873223D01*
X124821999Y-131873219D01*
X124851454Y-131898977D01*
X124851455Y-131898977D01*
X124852340Y-131899751D01*
X124852682Y-131899994D01*
X124865578Y-131911249D01*
X124987745Y-131985597D01*
X125120823Y-132037968D01*
X125120826Y-132037968D01*
X125120827Y-132037969D01*
X125154418Y-132044887D01*
X125260895Y-132066819D01*
X125277945Y-132067370D01*
X125278484Y-132067441D01*
X125308935Y-132068396D01*
X125326694Y-132068953D01*
X125326698Y-132068955D01*
X125336219Y-132069252D01*
X125353748Y-132069802D01*
X127614571Y-132140742D01*
X127624337Y-132145151D01*
X127626867Y-132148919D01*
X127633028Y-132162409D01*
X127633029Y-132162410D01*
X127633030Y-132162412D01*
X127727279Y-132271182D01*
X127848354Y-132348992D01*
X127986446Y-132389539D01*
X127986447Y-132389539D01*
X128130367Y-132389539D01*
X128130368Y-132389539D01*
X128268460Y-132348992D01*
X128389535Y-132271182D01*
X128483784Y-132162412D01*
X128543572Y-132031496D01*
X128564054Y-131889039D01*
X128543572Y-131746582D01*
X128484162Y-131616493D01*
X128483785Y-131615668D01*
X128483784Y-131615667D01*
X128483784Y-131615666D01*
X128389535Y-131506896D01*
X128311724Y-131456890D01*
X128268459Y-131429085D01*
X128170914Y-131400444D01*
X128130368Y-131388539D01*
X127986446Y-131388539D01*
X127955103Y-131397742D01*
X127848354Y-131429085D01*
X127727279Y-131506896D01*
X127727272Y-131506902D01*
X127642118Y-131605175D01*
X127632537Y-131609971D01*
X127631099Y-131610000D01*
X125779770Y-131551907D01*
X125770004Y-131547498D01*
X125766216Y-131537475D01*
X125769627Y-131528748D01*
X125783784Y-131512412D01*
X125843572Y-131381496D01*
X125864054Y-131239039D01*
X125843572Y-131096582D01*
X125783784Y-130965666D01*
X125689535Y-130856896D01*
X125689532Y-130856894D01*
X125689530Y-130856892D01*
X125606863Y-130803765D01*
X125600752Y-130794964D01*
X125602655Y-130784419D01*
X125611456Y-130778308D01*
X125614863Y-130777995D01*
X127614571Y-130840742D01*
X127624337Y-130845151D01*
X127626867Y-130848919D01*
X127633028Y-130862409D01*
X127633029Y-130862410D01*
X127633030Y-130862412D01*
X127727279Y-130971182D01*
X127848354Y-131048992D01*
X127986446Y-131089539D01*
X127986447Y-131089539D01*
X128130367Y-131089539D01*
X128130368Y-131089539D01*
X128268460Y-131048992D01*
X128389535Y-130971182D01*
X128483784Y-130862412D01*
X128543572Y-130731496D01*
X128564054Y-130589039D01*
X130452760Y-130589039D01*
X130473242Y-130731497D01*
X130533028Y-130862409D01*
X130533029Y-130862410D01*
X130533030Y-130862412D01*
X130627279Y-130971182D01*
X130748354Y-131048992D01*
X130886446Y-131089539D01*
X130886447Y-131089539D01*
X131030367Y-131089539D01*
X131030368Y-131089539D01*
X131168460Y-131048992D01*
X131289535Y-130971182D01*
X131383784Y-130862412D01*
X131389946Y-130848918D01*
X131397785Y-130841618D01*
X131402237Y-130840742D01*
X133636309Y-130770641D01*
X133636394Y-130770646D01*
X133637698Y-130770604D01*
X133637699Y-130770605D01*
X133678562Y-130769316D01*
X133678566Y-130769317D01*
X133684490Y-130769130D01*
X133684490Y-130769132D01*
X133689622Y-130768970D01*
X133693969Y-130769520D01*
X133696761Y-130770333D01*
X133716422Y-130768168D01*
X133717476Y-130768094D01*
X133737239Y-130767475D01*
X133739891Y-130766276D01*
X133744117Y-130765121D01*
X133744986Y-130765024D01*
X133746082Y-130764904D01*
X133746089Y-130764905D01*
X133749257Y-130764556D01*
X133749267Y-130764555D01*
X133750210Y-130764451D01*
X133756478Y-130763761D01*
X161461804Y-127714800D01*
X161472091Y-127717793D01*
X161473908Y-127719542D01*
X161531282Y-127785754D01*
X161652357Y-127863564D01*
X161790449Y-127904111D01*
X161790450Y-127904111D01*
X161934370Y-127904111D01*
X161934371Y-127904111D01*
X162072463Y-127863564D01*
X162193538Y-127785754D01*
X162287787Y-127676984D01*
X162347575Y-127546068D01*
X162368057Y-127403611D01*
X162347575Y-127261154D01*
X162287787Y-127130238D01*
X162193538Y-127021468D01*
X162115727Y-126971462D01*
X162072462Y-126943657D01*
X161974917Y-126915016D01*
X161934371Y-126903111D01*
X161790449Y-126903111D01*
X161759106Y-126912314D01*
X161652357Y-126943657D01*
X161531282Y-127021468D01*
X161531279Y-127021471D01*
X161437031Y-127130240D01*
X161414809Y-127178898D01*
X161406966Y-127186199D01*
X161403605Y-127186998D01*
X134117370Y-130189837D01*
X134107082Y-130186844D01*
X134101923Y-130177452D01*
X134103104Y-130170105D01*
X134120262Y-130132534D01*
X134128102Y-130125236D01*
X134130528Y-130124572D01*
X161544435Y-125238371D01*
X161554900Y-125240671D01*
X161557470Y-125242984D01*
X161592374Y-125283266D01*
X161713449Y-125361076D01*
X161851541Y-125401623D01*
X161851542Y-125401623D01*
X161995462Y-125401623D01*
X161995463Y-125401623D01*
X162133555Y-125361076D01*
X162254630Y-125283266D01*
X162348879Y-125174496D01*
X162408667Y-125043580D01*
X162429149Y-124901123D01*
X162408667Y-124758666D01*
X162348879Y-124627750D01*
X162254630Y-124518980D01*
X162176819Y-124468974D01*
X162133554Y-124441169D01*
X162028175Y-124410228D01*
X161995463Y-124400623D01*
X161851541Y-124400623D01*
X161822953Y-124409017D01*
X161713449Y-124441169D01*
X161592374Y-124518980D01*
X161592371Y-124518983D01*
X161498123Y-124627752D01*
X161461647Y-124707623D01*
X161453804Y-124714924D01*
X161451369Y-124715590D01*
X134037473Y-129601789D01*
X134027007Y-129599489D01*
X134024437Y-129597176D01*
X133989535Y-129556896D01*
X133911724Y-129506890D01*
X133868459Y-129479085D01*
X133769149Y-129449926D01*
X133730368Y-129438539D01*
X133586446Y-129438539D01*
X133562214Y-129445654D01*
X133448354Y-129479085D01*
X133327279Y-129556896D01*
X133327276Y-129556899D01*
X133233028Y-129665668D01*
X133173242Y-129796580D01*
X133152760Y-129939039D01*
X133173242Y-130081497D01*
X133233029Y-130212411D01*
X133233030Y-130212412D01*
X133245031Y-130226262D01*
X133247184Y-130228746D01*
X133250568Y-130238912D01*
X133245772Y-130248494D01*
X133237043Y-130251907D01*
X131385713Y-130310000D01*
X131375690Y-130306212D01*
X131374693Y-130305175D01*
X131336661Y-130261283D01*
X131289535Y-130206896D01*
X131202268Y-130150813D01*
X131168459Y-130129085D01*
X131055972Y-130096057D01*
X131030368Y-130088539D01*
X130886446Y-130088539D01*
X130862105Y-130095686D01*
X130748354Y-130129085D01*
X130627279Y-130206896D01*
X130627276Y-130206899D01*
X130533028Y-130315668D01*
X130473242Y-130446580D01*
X130452760Y-130589039D01*
X128564054Y-130589039D01*
X128543572Y-130446582D01*
X128483784Y-130315666D01*
X128389535Y-130206896D01*
X128302268Y-130150813D01*
X128268459Y-130129085D01*
X128155972Y-130096057D01*
X128130368Y-130088539D01*
X127986446Y-130088539D01*
X127962105Y-130095686D01*
X127848354Y-130129085D01*
X127727279Y-130206896D01*
X127727272Y-130206902D01*
X127642118Y-130305175D01*
X127632537Y-130309971D01*
X127631099Y-130310000D01*
X125779770Y-130251907D01*
X125770004Y-130247498D01*
X125766216Y-130237475D01*
X125769627Y-130228748D01*
X125783784Y-130212412D01*
X125843572Y-130081496D01*
X125864054Y-129939039D01*
X125843572Y-129796582D01*
X125783784Y-129665666D01*
X125689535Y-129556896D01*
X125611724Y-129506890D01*
X125568459Y-129479085D01*
X125469149Y-129449926D01*
X125430368Y-129438539D01*
X125430367Y-129438539D01*
X125426323Y-129438539D01*
X125416424Y-129434438D01*
X125413642Y-129430470D01*
X124539599Y-127561767D01*
X124539113Y-127560594D01*
X124525472Y-127522849D01*
X124518540Y-127515250D01*
X124516205Y-127511752D01*
X124511847Y-127502434D01*
X124482230Y-127475358D01*
X124481335Y-127474462D01*
X124404306Y-127390014D01*
X123813423Y-126742220D01*
X123813410Y-126742201D01*
X123787075Y-126713334D01*
X123787074Y-126713332D01*
X123781131Y-126706817D01*
X123780644Y-126706253D01*
X123739030Y-126655449D01*
X123738148Y-126654248D01*
X123702378Y-126599624D01*
X123701629Y-126598336D01*
X123671803Y-126540096D01*
X123671481Y-126539422D01*
X123557305Y-126283736D01*
X123738783Y-126283736D01*
X123742736Y-126311226D01*
X123742879Y-126313219D01*
X123742879Y-126323824D01*
X123748825Y-126353722D01*
X123748951Y-126354461D01*
X123759263Y-126426184D01*
X123759266Y-126426193D01*
X123773114Y-126456517D01*
X123773313Y-126456975D01*
X123796398Y-126512708D01*
X123803285Y-126523015D01*
X123804379Y-126524977D01*
X123819051Y-126557104D01*
X123819052Y-126557105D01*
X123819053Y-126557107D01*
X123837517Y-126578416D01*
X123849115Y-126591801D01*
X123850174Y-126593190D01*
X123854474Y-126599624D01*
X123861431Y-126610036D01*
X123887183Y-126635788D01*
X123887852Y-126636506D01*
X123913302Y-126665877D01*
X123987147Y-126713334D01*
X124006009Y-126725456D01*
X124006218Y-126725593D01*
X124015458Y-126731767D01*
X124016059Y-126732088D01*
X124016056Y-126732092D01*
X124017548Y-126732872D01*
X124030403Y-126741133D01*
X124034377Y-126743687D01*
X124067538Y-126753423D01*
X124068934Y-126753916D01*
X124089534Y-126762449D01*
X124116032Y-126767719D01*
X124117218Y-126768010D01*
X124159847Y-126780527D01*
X124172465Y-126784233D01*
X124172466Y-126784233D01*
X124172469Y-126784234D01*
X124197676Y-126784234D01*
X124200407Y-126784503D01*
X124204339Y-126785285D01*
X124284521Y-126785285D01*
X124288453Y-126784503D01*
X124291184Y-126784234D01*
X124316388Y-126784234D01*
X124316391Y-126784234D01*
X124371655Y-126768006D01*
X124372821Y-126767720D01*
X124390998Y-126764105D01*
X124399323Y-126762450D01*
X124399331Y-126762447D01*
X124428818Y-126751263D01*
X124429822Y-126750926D01*
X124454483Y-126743687D01*
X124461802Y-126738982D01*
X124462375Y-126738665D01*
X124462365Y-126738648D01*
X127306385Y-125077717D01*
X130503299Y-123210694D01*
X130505520Y-123209738D01*
X130506269Y-123209395D01*
X130506278Y-123209393D01*
X130513513Y-123204742D01*
X130513974Y-123204460D01*
X130514664Y-123204058D01*
X130525199Y-123197471D01*
X130534450Y-123191289D01*
X130534580Y-123191204D01*
X130535596Y-123190551D01*
X130627353Y-123131583D01*
X130652814Y-123102197D01*
X130653469Y-123101494D01*
X130679223Y-123075742D01*
X130690479Y-123058895D01*
X130691530Y-123057516D01*
X130721602Y-123022813D01*
X130736277Y-122990678D01*
X130737369Y-122988718D01*
X130744255Y-122978415D01*
X130767344Y-122922670D01*
X130767506Y-122922295D01*
X130781390Y-122891897D01*
X130791712Y-122820095D01*
X130791826Y-122819433D01*
X130797775Y-122789531D01*
X130797775Y-122778932D01*
X130797918Y-122776939D01*
X130798222Y-122774823D01*
X130801872Y-122749440D01*
X130797917Y-122721931D01*
X130797775Y-122719939D01*
X130797775Y-122709350D01*
X130797775Y-122709349D01*
X130791827Y-122679451D01*
X130791711Y-122678777D01*
X130781390Y-122606983D01*
X130767515Y-122576602D01*
X130767325Y-122576163D01*
X130744256Y-122520466D01*
X130742210Y-122517405D01*
X130737369Y-122510159D01*
X130736278Y-122508204D01*
X130732790Y-122500567D01*
X130721602Y-122476067D01*
X130691534Y-122441366D01*
X130690475Y-122439976D01*
X130679224Y-122423139D01*
X130679223Y-122423138D01*
X130676279Y-122420194D01*
X130653475Y-122397390D01*
X130652807Y-122396673D01*
X130643767Y-122386240D01*
X130627353Y-122367297D01*
X130627350Y-122367295D01*
X130627348Y-122367293D01*
X130534592Y-122307681D01*
X130534383Y-122307545D01*
X130525200Y-122301409D01*
X130524600Y-122301089D01*
X130524602Y-122301084D01*
X130523110Y-122300303D01*
X130506278Y-122289487D01*
X130506276Y-122289486D01*
X130473117Y-122279750D01*
X130471711Y-122279254D01*
X130457621Y-122273418D01*
X130451123Y-122270726D01*
X130451118Y-122270724D01*
X130424637Y-122265457D01*
X130423424Y-122265159D01*
X130407386Y-122260450D01*
X130368186Y-122248940D01*
X130368185Y-122248940D01*
X130342978Y-122248940D01*
X130340247Y-122248671D01*
X130336315Y-122247889D01*
X130256133Y-122247889D01*
X130252201Y-122248671D01*
X130249470Y-122248940D01*
X130224264Y-122248940D01*
X130185185Y-122260414D01*
X130169029Y-122265158D01*
X130167816Y-122265456D01*
X130141327Y-122270724D01*
X130111849Y-122281903D01*
X130110830Y-122282246D01*
X130086172Y-122289486D01*
X130078850Y-122294191D01*
X130078265Y-122294521D01*
X130078274Y-122294535D01*
X124037357Y-125822476D01*
X124035057Y-125823469D01*
X124034375Y-125823781D01*
X124027178Y-125828406D01*
X124026688Y-125828707D01*
X124026001Y-125829109D01*
X124015450Y-125835705D01*
X124006203Y-125841883D01*
X124005996Y-125842018D01*
X123913306Y-125901587D01*
X123913295Y-125901597D01*
X123887864Y-125930946D01*
X123887184Y-125931677D01*
X123861432Y-125957430D01*
X123850178Y-125974271D01*
X123849119Y-125975659D01*
X123819053Y-126010360D01*
X123819052Y-126010361D01*
X123804378Y-126042492D01*
X123803284Y-126044453D01*
X123796399Y-126054757D01*
X123773313Y-126110491D01*
X123773114Y-126110948D01*
X123759266Y-126141271D01*
X123759263Y-126141282D01*
X123748951Y-126213006D01*
X123748825Y-126213744D01*
X123742879Y-126243643D01*
X123742879Y-126254240D01*
X123742737Y-126256232D01*
X123738783Y-126283736D01*
X123557305Y-126283736D01*
X123154072Y-125380738D01*
X120624171Y-119715288D01*
X120623342Y-119711783D01*
X120623309Y-119711792D01*
X120622981Y-119710460D01*
X120622981Y-119710455D01*
X120601619Y-119664785D01*
X120601562Y-119664659D01*
X120581007Y-119618627D01*
X120581003Y-119618623D01*
X120580210Y-119617503D01*
X120580236Y-119617483D01*
X120578128Y-119614559D01*
X119871434Y-118103648D01*
X119871175Y-118103213D01*
X119845795Y-118048915D01*
X119845790Y-118048908D01*
X119845789Y-118048905D01*
X119719135Y-117858374D01*
X119719125Y-117858362D01*
X119565559Y-117688784D01*
X119565549Y-117688774D01*
X119561021Y-117685070D01*
X119388457Y-117543894D01*
X119388456Y-117543893D01*
X119388452Y-117543890D01*
X119191797Y-117426953D01*
X119191787Y-117426948D01*
X119043961Y-117366659D01*
X119036343Y-117359124D01*
X119036285Y-117348409D01*
X119043820Y-117340791D01*
X119044139Y-117340661D01*
X119045342Y-117340196D01*
X119234503Y-117223073D01*
X119398922Y-117073185D01*
X119532999Y-116895638D01*
X119632170Y-116696477D01*
X119693056Y-116482485D01*
X119703385Y-116371014D01*
X119713584Y-116260951D01*
X119713584Y-116260946D01*
X119693057Y-116039421D01*
X119693056Y-116039418D01*
X119693056Y-116039413D01*
X119632170Y-115825421D01*
X119544190Y-115648734D01*
X119533004Y-115626269D01*
X119532999Y-115626260D01*
X119509856Y-115595614D01*
X119398922Y-115448713D01*
X119234503Y-115298825D01*
X119142118Y-115241623D01*
X119045343Y-115181702D01*
X119045344Y-115181702D01*
X118837878Y-115101330D01*
X118619184Y-115060449D01*
X118396698Y-115060449D01*
X118396697Y-115060449D01*
X118178003Y-115101330D01*
X117970537Y-115181702D01*
X117781380Y-115298824D01*
X117781379Y-115298825D01*
X117616960Y-115448712D01*
X117482882Y-115626260D01*
X117482877Y-115626269D01*
X117430830Y-115730794D01*
X117422747Y-115737828D01*
X117412058Y-115737086D01*
X117405024Y-115729003D01*
X117404944Y-115728758D01*
X117402906Y-115722284D01*
X117402903Y-115722277D01*
X117336392Y-115570552D01*
X117295134Y-115498723D01*
X117271821Y-115458126D01*
X117271820Y-115458125D01*
X117271231Y-115457099D01*
X117271212Y-115457072D01*
X117240454Y-115403517D01*
X116786857Y-114613727D01*
X116785483Y-114603102D01*
X116789564Y-114596412D01*
X116858922Y-114533185D01*
X116992999Y-114355638D01*
X117092170Y-114156477D01*
X117153056Y-113942485D01*
X117173584Y-113720949D01*
X117153056Y-113499413D01*
X117092170Y-113285421D01*
X117088382Y-113277815D01*
X116993004Y-113086269D01*
X116992999Y-113086260D01*
X116858921Y-112908712D01*
X116806795Y-112861193D01*
X116694503Y-112758825D01*
X116593573Y-112696332D01*
X116505343Y-112641702D01*
X116505344Y-112641702D01*
X116297878Y-112561330D01*
X116079184Y-112520449D01*
X115856698Y-112520449D01*
X115856697Y-112520449D01*
X115638003Y-112561330D01*
X115430537Y-112641702D01*
X115241380Y-112758824D01*
X115241379Y-112758825D01*
X115076960Y-112908712D01*
X114942882Y-113086260D01*
X114942877Y-113086269D01*
X114843716Y-113285411D01*
X114843711Y-113285424D01*
X114824702Y-113352229D01*
X114818049Y-113360628D01*
X114807405Y-113361862D01*
X114799006Y-113355209D01*
X114797239Y-113348626D01*
X114766321Y-111445059D01*
X114770260Y-111435096D01*
X114780092Y-111430835D01*
X114790056Y-111434774D01*
X114793785Y-111441002D01*
X114843713Y-111616480D01*
X114843716Y-111616486D01*
X114942877Y-111815628D01*
X114942882Y-111815637D01*
X115009140Y-111903377D01*
X115076960Y-111993185D01*
X115241379Y-112143073D01*
X115430538Y-112260195D01*
X115430537Y-112260195D01*
X115453529Y-112269102D01*
X115638001Y-112340567D01*
X115856698Y-112381449D01*
X115856699Y-112381449D01*
X116079183Y-112381449D01*
X116079184Y-112381449D01*
X116297881Y-112340567D01*
X116505342Y-112260196D01*
X116694503Y-112143073D01*
X116847573Y-112003529D01*
X116857650Y-111999891D01*
X116863975Y-112001735D01*
X117704306Y-112484359D01*
X117704313Y-112484364D01*
X117740535Y-112505167D01*
X117740549Y-112505185D01*
X117745702Y-112508145D01*
X117817531Y-112549406D01*
X117969263Y-112615927D01*
X117969278Y-112615931D01*
X117969377Y-112615969D01*
X117969392Y-112615983D01*
X117969610Y-112616079D01*
X117969576Y-112616155D01*
X117977213Y-112623277D01*
X117977586Y-112633986D01*
X117971032Y-112641267D01*
X117971090Y-112641361D01*
X117970770Y-112641559D01*
X117970727Y-112641607D01*
X117970549Y-112641695D01*
X117781380Y-112758824D01*
X117781379Y-112758825D01*
X117616960Y-112908712D01*
X117482882Y-113086260D01*
X117482877Y-113086269D01*
X117383716Y-113285411D01*
X117383713Y-113285417D01*
X117322826Y-113499411D01*
X117322824Y-113499421D01*
X117302298Y-113720946D01*
X117302298Y-113720951D01*
X117322824Y-113942476D01*
X117322826Y-113942485D01*
X117381908Y-114150138D01*
X117383713Y-114156480D01*
X117383716Y-114156486D01*
X117482877Y-114355628D01*
X117482882Y-114355637D01*
X117607639Y-114520842D01*
X117616960Y-114533185D01*
X117781379Y-114683073D01*
X117970538Y-114800195D01*
X117970537Y-114800195D01*
X117970540Y-114800196D01*
X118178001Y-114880567D01*
X118396698Y-114921449D01*
X118396699Y-114921449D01*
X118619183Y-114921449D01*
X118619184Y-114921449D01*
X118837881Y-114880567D01*
X119045342Y-114800196D01*
X119234503Y-114683073D01*
X119398922Y-114533185D01*
X119532999Y-114355638D01*
X119632170Y-114156477D01*
X119693056Y-113942485D01*
X119702749Y-113837866D01*
X119707745Y-113828387D01*
X119717980Y-113825218D01*
X119727460Y-113830214D01*
X119728792Y-113832120D01*
X120080553Y-114437036D01*
X120082132Y-114441109D01*
X120083967Y-114449578D01*
X120083969Y-114449583D01*
X120107727Y-114483855D01*
X120108323Y-114484793D01*
X120129284Y-114520840D01*
X120129285Y-114520841D01*
X120129286Y-114520842D01*
X120136184Y-114526101D01*
X120139197Y-114529254D01*
X120143493Y-114535451D01*
X120144141Y-114536385D01*
X120179229Y-114558972D01*
X120180119Y-114559597D01*
X120213282Y-114584880D01*
X120221664Y-114587097D01*
X120225657Y-114588858D01*
X124704286Y-117471848D01*
X124705521Y-117472071D01*
X124709891Y-117473645D01*
X124745277Y-117493542D01*
X124745286Y-117493546D01*
X124804690Y-117522422D01*
X124804702Y-117522427D01*
X124804712Y-117522432D01*
X124809812Y-117524544D01*
X124812230Y-117525836D01*
X124828687Y-117536832D01*
X124833253Y-117539883D01*
X124858046Y-117544814D01*
X124860673Y-117545611D01*
X124864748Y-117547299D01*
X124878493Y-117552993D01*
X124903910Y-117554102D01*
X124906022Y-117554357D01*
X125189317Y-117610708D01*
X125191012Y-117611158D01*
X125224391Y-117622307D01*
X125239669Y-117621230D01*
X125243384Y-117621464D01*
X125258406Y-117624452D01*
X125292924Y-117617585D01*
X125294643Y-117617355D01*
X127544636Y-117458789D01*
X127554799Y-117462183D01*
X127556200Y-117463586D01*
X127627272Y-117545607D01*
X127627275Y-117545610D01*
X127627279Y-117545614D01*
X127748354Y-117623424D01*
X127886446Y-117663971D01*
X127886447Y-117663971D01*
X128030367Y-117663971D01*
X128030368Y-117663971D01*
X128168460Y-117623424D01*
X128289535Y-117545614D01*
X128383784Y-117436844D01*
X128443572Y-117305928D01*
X128464054Y-117163471D01*
X128443572Y-117021014D01*
X128386314Y-116895637D01*
X128383785Y-116890100D01*
X128383784Y-116890099D01*
X128383784Y-116890098D01*
X128289535Y-116781328D01*
X128183040Y-116712888D01*
X128168459Y-116703517D01*
X128070914Y-116674876D01*
X128030368Y-116662971D01*
X127886446Y-116662971D01*
X127855103Y-116672174D01*
X127748354Y-116703517D01*
X127627279Y-116781328D01*
X127627276Y-116781331D01*
X127533028Y-116890100D01*
X127518933Y-116920962D01*
X127511090Y-116928264D01*
X127507182Y-116929111D01*
X125277142Y-117086270D01*
X125273427Y-117086036D01*
X125019270Y-117035482D01*
X125016261Y-117034520D01*
X125007520Y-117030589D01*
X125006769Y-117030224D01*
X124977083Y-117014681D01*
X124976354Y-117014271D01*
X124947442Y-116996859D01*
X124947087Y-116996638D01*
X124926836Y-116983602D01*
X124911025Y-116973424D01*
X124907934Y-116971434D01*
X124907932Y-116971433D01*
X120532496Y-114154872D01*
X120527971Y-114150138D01*
X119804460Y-112905927D01*
X119804458Y-112905925D01*
X119803899Y-112904964D01*
X119803598Y-112904547D01*
X119778394Y-112861193D01*
X119649614Y-112696332D01*
X119499602Y-112550525D01*
X119499598Y-112550522D01*
X119499596Y-112550520D01*
X119331153Y-112426486D01*
X119331142Y-112426479D01*
X119178754Y-112343580D01*
X119147383Y-112326514D01*
X119147381Y-112326513D01*
X119147379Y-112326512D01*
X119043361Y-112287151D01*
X119035554Y-112279812D01*
X119035222Y-112269102D01*
X119042561Y-112261295D01*
X119043250Y-112261006D01*
X119045342Y-112260196D01*
X119234503Y-112143073D01*
X119398922Y-111993185D01*
X119532999Y-111815638D01*
X119632170Y-111616477D01*
X119693056Y-111402485D01*
X119713584Y-111180949D01*
X119697960Y-111012347D01*
X119701129Y-111002113D01*
X119710608Y-110997117D01*
X119720844Y-111000286D01*
X119721988Y-111001350D01*
X120107810Y-111402485D01*
X120121674Y-111416899D01*
X120121798Y-111417029D01*
X124761243Y-116371012D01*
X124767049Y-116377211D01*
X124770822Y-116387240D01*
X124770688Y-116388773D01*
X124752760Y-116513470D01*
X124773242Y-116655929D01*
X124833028Y-116786841D01*
X124833029Y-116786842D01*
X124833030Y-116786844D01*
X124927279Y-116895614D01*
X125048354Y-116973424D01*
X125186446Y-117013971D01*
X125186447Y-117013971D01*
X125330367Y-117013971D01*
X125330368Y-117013971D01*
X125468460Y-116973424D01*
X125589535Y-116895614D01*
X125683784Y-116786844D01*
X125743572Y-116655928D01*
X125764054Y-116513471D01*
X130352760Y-116513471D01*
X130373242Y-116655929D01*
X130433028Y-116786841D01*
X130433029Y-116786842D01*
X130433030Y-116786844D01*
X130527279Y-116895614D01*
X130648354Y-116973424D01*
X130786446Y-117013971D01*
X130786447Y-117013971D01*
X130930367Y-117013971D01*
X130930368Y-117013971D01*
X131068460Y-116973424D01*
X131189535Y-116895614D01*
X131275163Y-116796791D01*
X131284744Y-116791996D01*
X131286039Y-116791963D01*
X133151939Y-116833257D01*
X133161745Y-116837576D01*
X133165626Y-116847564D01*
X133162210Y-116856422D01*
X133133028Y-116890100D01*
X133073242Y-117021012D01*
X133052760Y-117163471D01*
X133073242Y-117305929D01*
X133133028Y-117436841D01*
X133133029Y-117436842D01*
X133133030Y-117436844D01*
X133227279Y-117545614D01*
X133348354Y-117623424D01*
X133486446Y-117663971D01*
X133486447Y-117663971D01*
X133630367Y-117663971D01*
X133630368Y-117663971D01*
X133768460Y-117623424D01*
X133889535Y-117545614D01*
X133897144Y-117536831D01*
X133906724Y-117532035D01*
X133908956Y-117532053D01*
X161435031Y-119973390D01*
X161444529Y-119978349D01*
X161446529Y-119981519D01*
X161498123Y-120094493D01*
X161498124Y-120094494D01*
X161498125Y-120094496D01*
X161592374Y-120203266D01*
X161713449Y-120281076D01*
X161851541Y-120321623D01*
X161851542Y-120321623D01*
X161995462Y-120321623D01*
X161995463Y-120321623D01*
X162133555Y-120281076D01*
X162254630Y-120203266D01*
X162348879Y-120094496D01*
X162408667Y-119963580D01*
X162429149Y-119821123D01*
X162408667Y-119678666D01*
X162348879Y-119547750D01*
X162254630Y-119438980D01*
X162172299Y-119386069D01*
X162133554Y-119361169D01*
X162028175Y-119330228D01*
X161995463Y-119320623D01*
X161851541Y-119320623D01*
X161822953Y-119329017D01*
X161713449Y-119361169D01*
X161592374Y-119438980D01*
X161592366Y-119438986D01*
X161584764Y-119447761D01*
X161575183Y-119452557D01*
X161572947Y-119452538D01*
X134046876Y-117011202D01*
X134037378Y-117006243D01*
X134035378Y-117003073D01*
X133983785Y-116890100D01*
X133983784Y-116890099D01*
X133983784Y-116890098D01*
X133970508Y-116874777D01*
X133967126Y-116864611D01*
X133971922Y-116855029D01*
X133981398Y-116851613D01*
X161446017Y-117459422D01*
X161455822Y-117463741D01*
X161458441Y-117467603D01*
X161498123Y-117554493D01*
X161498124Y-117554494D01*
X161498125Y-117554496D01*
X161592374Y-117663266D01*
X161713449Y-117741076D01*
X161851541Y-117781623D01*
X161851542Y-117781623D01*
X161995462Y-117781623D01*
X161995463Y-117781623D01*
X162133555Y-117741076D01*
X162254630Y-117663266D01*
X162348879Y-117554496D01*
X162408667Y-117423580D01*
X162429149Y-117281123D01*
X162408667Y-117138666D01*
X162351720Y-117013971D01*
X162348880Y-117007752D01*
X162348879Y-117007751D01*
X162348879Y-117007750D01*
X162254630Y-116898980D01*
X162174625Y-116847564D01*
X162133554Y-116821169D01*
X162028175Y-116790228D01*
X161995463Y-116780623D01*
X161851541Y-116780623D01*
X161830354Y-116786844D01*
X161713449Y-116821169D01*
X161592374Y-116898980D01*
X161592367Y-116898986D01*
X161572782Y-116921589D01*
X161564494Y-116926232D01*
X161540894Y-116930148D01*
X161538292Y-116930334D01*
X133825759Y-116317039D01*
X133815953Y-116312720D01*
X133812072Y-116302732D01*
X133816391Y-116292926D01*
X133818492Y-116291269D01*
X133889535Y-116245614D01*
X133939633Y-116187795D01*
X133949213Y-116183001D01*
X133949527Y-116182982D01*
X161461911Y-114956279D01*
X161471983Y-114959934D01*
X161475269Y-114964449D01*
X161498123Y-115014493D01*
X161498124Y-115014494D01*
X161498125Y-115014496D01*
X161592374Y-115123266D01*
X161713449Y-115201076D01*
X161851541Y-115241623D01*
X161851542Y-115241623D01*
X161995462Y-115241623D01*
X161995463Y-115241623D01*
X162133555Y-115201076D01*
X162254630Y-115123266D01*
X162348879Y-115014496D01*
X162408667Y-114883580D01*
X162429149Y-114741123D01*
X162408667Y-114598666D01*
X162348879Y-114467750D01*
X162254630Y-114358980D01*
X162176819Y-114308974D01*
X162133554Y-114281169D01*
X162036009Y-114252528D01*
X161995463Y-114240623D01*
X161851541Y-114240623D01*
X161820198Y-114249826D01*
X161713449Y-114281169D01*
X161592374Y-114358980D01*
X161592367Y-114358986D01*
X161542276Y-114416795D01*
X161532695Y-114421591D01*
X161532320Y-114421613D01*
X134019997Y-115648313D01*
X134009924Y-115644658D01*
X134006639Y-115640145D01*
X133983784Y-115590098D01*
X133889535Y-115481328D01*
X133811724Y-115431322D01*
X133768459Y-115403517D01*
X133670914Y-115374876D01*
X133630368Y-115362971D01*
X133486446Y-115362971D01*
X133455103Y-115372174D01*
X133348354Y-115403517D01*
X133227279Y-115481328D01*
X133227276Y-115481331D01*
X133133028Y-115590100D01*
X133073242Y-115721012D01*
X133052760Y-115863471D01*
X133073242Y-116005929D01*
X133133028Y-116136841D01*
X133133029Y-116136842D01*
X133133030Y-116136844D01*
X133227279Y-116245614D01*
X133279220Y-116278994D01*
X133285331Y-116287796D01*
X133283429Y-116298341D01*
X133274627Y-116304452D01*
X133271341Y-116304769D01*
X131302104Y-116261189D01*
X131292298Y-116256870D01*
X131289680Y-116253010D01*
X131283784Y-116240098D01*
X131189535Y-116131328D01*
X131111724Y-116081322D01*
X131068459Y-116053517D01*
X130956258Y-116020573D01*
X130930368Y-116012971D01*
X130786446Y-116012971D01*
X130760556Y-116020573D01*
X130648354Y-116053517D01*
X130527279Y-116131328D01*
X130527276Y-116131331D01*
X130433028Y-116240100D01*
X130373242Y-116371012D01*
X130352760Y-116513471D01*
X125764054Y-116513471D01*
X125743572Y-116371014D01*
X125693416Y-116261189D01*
X125683785Y-116240100D01*
X125683784Y-116240099D01*
X125683784Y-116240098D01*
X125589535Y-116131328D01*
X125511724Y-116081322D01*
X125468459Y-116053517D01*
X125356258Y-116020573D01*
X125330368Y-116012971D01*
X125186446Y-116012971D01*
X125186445Y-116012971D01*
X125168823Y-116018144D01*
X125158170Y-116016998D01*
X125154661Y-116014281D01*
X122105899Y-112758824D01*
X120544818Y-111091908D01*
X120543187Y-111089321D01*
X120543060Y-111089403D01*
X120542316Y-111088242D01*
X120507036Y-111051562D01*
X120506908Y-111051427D01*
X120472042Y-111014197D01*
X120470919Y-111013393D01*
X120471007Y-111013269D01*
X120468504Y-111011501D01*
X119644556Y-110154851D01*
X119644548Y-110154841D01*
X119609041Y-110117925D01*
X119609036Y-110117921D01*
X119573546Y-110081022D01*
X119573371Y-110080872D01*
X119534892Y-110040883D01*
X119534893Y-110040883D01*
X119441487Y-109968145D01*
X119361657Y-109905979D01*
X119361653Y-109905977D01*
X119361651Y-109905975D01*
X119170952Y-109797185D01*
X119170950Y-109797184D01*
X119043470Y-109746973D01*
X119035762Y-109739530D01*
X119035575Y-109728816D01*
X119043018Y-109721108D01*
X119043513Y-109720904D01*
X119045342Y-109720196D01*
X119234503Y-109603073D01*
X119398922Y-109453185D01*
X119532999Y-109275638D01*
X119632170Y-109076477D01*
X119693056Y-108862485D01*
X119713584Y-108640949D01*
X119706947Y-108569327D01*
X119710116Y-108559093D01*
X119719595Y-108554097D01*
X119729831Y-108557266D01*
X119731729Y-108559180D01*
X120262635Y-109209111D01*
X120262853Y-109209385D01*
X124782324Y-115033057D01*
X124785154Y-115043391D01*
X124783999Y-115047455D01*
X124773244Y-115071008D01*
X124773242Y-115071013D01*
X124752760Y-115213471D01*
X124773242Y-115355929D01*
X124833028Y-115486841D01*
X124833029Y-115486842D01*
X124833030Y-115486844D01*
X124927279Y-115595614D01*
X125048354Y-115673424D01*
X125186446Y-115713971D01*
X125186447Y-115713971D01*
X125330367Y-115713971D01*
X125330368Y-115713971D01*
X125468460Y-115673424D01*
X125589535Y-115595614D01*
X125683784Y-115486844D01*
X125743572Y-115355928D01*
X125764054Y-115213471D01*
X125743572Y-115071014D01*
X125683784Y-114940098D01*
X125589535Y-114831328D01*
X125511724Y-114781322D01*
X125468459Y-114753517D01*
X125370914Y-114724876D01*
X125330368Y-114712971D01*
X125330367Y-114712971D01*
X125212919Y-114712971D01*
X125203020Y-114708870D01*
X125201859Y-114707554D01*
X125182860Y-114683073D01*
X120712061Y-108922121D01*
X120709715Y-108917570D01*
X120709475Y-108916771D01*
X120678254Y-108878551D01*
X120678037Y-108878278D01*
X120647818Y-108839338D01*
X120647817Y-108839336D01*
X120647093Y-108838924D01*
X120643183Y-108835618D01*
X119659838Y-107631814D01*
X119659836Y-107631813D01*
X119659035Y-107630832D01*
X119658885Y-107630681D01*
X119628843Y-107593868D01*
X119480293Y-107454629D01*
X119480286Y-107454623D01*
X119480283Y-107454621D01*
X119480280Y-107454618D01*
X119314576Y-107336269D01*
X119314575Y-107336268D01*
X119314573Y-107336267D01*
X119134654Y-107240911D01*
X119043498Y-107207170D01*
X119035638Y-107199889D01*
X119035229Y-107189181D01*
X119042510Y-107181321D01*
X119043290Y-107180990D01*
X119045342Y-107180196D01*
X119234503Y-107063073D01*
X119398922Y-106913185D01*
X119532999Y-106735638D01*
X119632170Y-106536477D01*
X119693056Y-106322485D01*
X119713584Y-106100949D01*
X119706440Y-106023859D01*
X119709609Y-106013624D01*
X119719088Y-106008628D01*
X119729324Y-106011797D01*
X119731182Y-106013662D01*
X120526449Y-106978664D01*
X120542089Y-106997642D01*
X120542218Y-106997801D01*
X127327563Y-115498723D01*
X127479430Y-115688987D01*
X127482401Y-115699282D01*
X127481223Y-115703537D01*
X127473243Y-115721011D01*
X127473242Y-115721013D01*
X127452760Y-115863471D01*
X127473242Y-116005929D01*
X127533028Y-116136841D01*
X127533029Y-116136842D01*
X127533030Y-116136844D01*
X127627279Y-116245614D01*
X127748354Y-116323424D01*
X127886446Y-116363971D01*
X127886447Y-116363971D01*
X128030367Y-116363971D01*
X128030368Y-116363971D01*
X128168460Y-116323424D01*
X128289535Y-116245614D01*
X128383784Y-116136844D01*
X128443572Y-116005928D01*
X128464054Y-115863471D01*
X128443572Y-115721014D01*
X128383784Y-115590098D01*
X128289535Y-115481328D01*
X128211724Y-115431322D01*
X128168459Y-115403517D01*
X128070914Y-115374876D01*
X128030368Y-115362971D01*
X128030367Y-115362971D01*
X127905358Y-115362971D01*
X127895459Y-115358870D01*
X127894416Y-115357705D01*
X127779290Y-115213471D01*
X130352760Y-115213471D01*
X130373242Y-115355929D01*
X130433028Y-115486841D01*
X130433029Y-115486842D01*
X130433030Y-115486844D01*
X130527279Y-115595614D01*
X130648354Y-115673424D01*
X130786446Y-115713971D01*
X130786447Y-115713971D01*
X130930367Y-115713971D01*
X130930368Y-115713971D01*
X131068460Y-115673424D01*
X131189535Y-115595614D01*
X131280964Y-115490096D01*
X131290138Y-115485336D01*
X161472082Y-112440320D01*
X161482342Y-112443406D01*
X161486221Y-112448433D01*
X161498123Y-112474493D01*
X161498124Y-112474494D01*
X161498125Y-112474496D01*
X161592374Y-112583266D01*
X161713449Y-112661076D01*
X161851541Y-112701623D01*
X161851542Y-112701623D01*
X161995462Y-112701623D01*
X161995463Y-112701623D01*
X162133555Y-112661076D01*
X162254630Y-112583266D01*
X162348879Y-112474496D01*
X162408667Y-112343580D01*
X162429149Y-112201123D01*
X162408667Y-112058666D01*
X162348879Y-111927750D01*
X162254630Y-111818980D01*
X162176819Y-111768974D01*
X162133554Y-111741169D01*
X162036009Y-111712528D01*
X161995463Y-111700623D01*
X161851541Y-111700623D01*
X161820198Y-111709826D01*
X161713449Y-111741169D01*
X161592374Y-111818980D01*
X161592367Y-111818986D01*
X161526892Y-111894549D01*
X161520365Y-111898781D01*
X161506919Y-111902848D01*
X161504271Y-111903377D01*
X131299078Y-114950739D01*
X131288817Y-114947653D01*
X131284938Y-114942626D01*
X131283784Y-114940098D01*
X131189535Y-114831328D01*
X131111724Y-114781322D01*
X131068459Y-114753517D01*
X130970914Y-114724876D01*
X130930368Y-114712971D01*
X130786446Y-114712971D01*
X130755103Y-114722174D01*
X130648354Y-114753517D01*
X130527279Y-114831328D01*
X130527276Y-114831331D01*
X130433028Y-114940100D01*
X130373242Y-115071012D01*
X130352760Y-115213471D01*
X127779290Y-115213471D01*
X120989123Y-106706509D01*
X120987557Y-106703538D01*
X120987481Y-106703579D01*
X120986827Y-106702362D01*
X120986827Y-106702361D01*
X120954608Y-106663265D01*
X120954493Y-106663124D01*
X120922910Y-106623555D01*
X120922906Y-106623553D01*
X120922905Y-106623551D01*
X120921855Y-106622664D01*
X120921909Y-106622599D01*
X120919327Y-106620454D01*
X120427668Y-106023860D01*
X119720367Y-105165597D01*
X119707716Y-105150246D01*
X119698303Y-105138824D01*
X119655459Y-105086836D01*
X119655457Y-105086835D01*
X119654724Y-105085945D01*
X119654404Y-105085626D01*
X119624596Y-105049502D01*
X119624593Y-105049498D01*
X119624588Y-105049493D01*
X119624584Y-105049489D01*
X119476338Y-104911550D01*
X119476334Y-104911548D01*
X119311212Y-104794345D01*
X119311196Y-104794335D01*
X119132073Y-104699905D01*
X119132072Y-104699904D01*
X119132071Y-104699904D01*
X119043390Y-104667227D01*
X119035519Y-104659956D01*
X119035094Y-104649249D01*
X119042365Y-104641378D01*
X119043158Y-104641041D01*
X119045342Y-104640196D01*
X119234503Y-104523073D01*
X119398922Y-104373185D01*
X119532999Y-104195638D01*
X119632170Y-103996477D01*
X119693056Y-103782485D01*
X119710531Y-103593894D01*
X119713584Y-103560951D01*
X119713584Y-103560946D01*
X119693057Y-103339421D01*
X119693056Y-103339418D01*
X119693056Y-103339413D01*
X119632170Y-103125421D01*
X119543255Y-102946856D01*
X119533004Y-102926269D01*
X119532999Y-102926260D01*
X119421564Y-102778695D01*
X119418870Y-102768324D01*
X119424299Y-102759086D01*
X119434670Y-102756392D01*
X119436006Y-102756645D01*
X120878279Y-103104545D01*
X120879817Y-103105012D01*
X120914167Y-103117653D01*
X120928039Y-103117096D01*
X120931880Y-103117474D01*
X120945378Y-103120731D01*
X120981530Y-103115043D01*
X120983126Y-103114886D01*
X125220509Y-102944958D01*
X125225258Y-102945589D01*
X125229293Y-102946856D01*
X125275151Y-102942781D01*
X125275771Y-102942741D01*
X125321814Y-102940896D01*
X125325656Y-102939120D01*
X125330282Y-102937885D01*
X127550804Y-102740651D01*
X127561028Y-102743859D01*
X127562615Y-102745420D01*
X127627279Y-102820045D01*
X127748354Y-102897855D01*
X127886446Y-102938402D01*
X127886447Y-102938402D01*
X128030367Y-102938402D01*
X128030368Y-102938402D01*
X128168460Y-102897855D01*
X128289535Y-102820045D01*
X128383784Y-102711275D01*
X128443572Y-102580359D01*
X128464054Y-102437902D01*
X128443572Y-102295445D01*
X128401635Y-102203617D01*
X128383785Y-102164531D01*
X128383784Y-102164530D01*
X128383784Y-102164529D01*
X128289535Y-102055759D01*
X128211724Y-102005753D01*
X128168459Y-101977948D01*
X128070914Y-101949307D01*
X128030368Y-101937402D01*
X127886446Y-101937402D01*
X127855103Y-101946605D01*
X127748354Y-101977948D01*
X127627279Y-102055759D01*
X127627276Y-102055762D01*
X127533028Y-102164531D01*
X127515178Y-102203617D01*
X127507335Y-102210918D01*
X127503682Y-102211746D01*
X125241686Y-102412664D01*
X125241008Y-102412708D01*
X120984554Y-102583402D01*
X120980710Y-102583023D01*
X119059357Y-102119561D01*
X119050695Y-102113253D01*
X119049030Y-102102668D01*
X119055268Y-102094049D01*
X119234503Y-101983073D01*
X119398922Y-101833185D01*
X119532999Y-101655638D01*
X119632170Y-101456477D01*
X119693056Y-101242485D01*
X119693870Y-101233700D01*
X119713584Y-101020951D01*
X119713584Y-101020946D01*
X119693057Y-100799421D01*
X119693056Y-100799418D01*
X119693056Y-100799413D01*
X119632170Y-100585421D01*
X119612736Y-100546392D01*
X119533004Y-100386269D01*
X119532999Y-100386260D01*
X119500363Y-100343043D01*
X119497669Y-100332672D01*
X119503098Y-100323434D01*
X119513469Y-100320740D01*
X119516266Y-100321430D01*
X120090043Y-100527801D01*
X120094120Y-100530099D01*
X120098330Y-100533511D01*
X120098331Y-100533511D01*
X120098333Y-100533513D01*
X120141371Y-100546285D01*
X120142098Y-100546523D01*
X120184334Y-100561715D01*
X120189749Y-100561457D01*
X120194390Y-100562019D01*
X124763218Y-101917891D01*
X124771542Y-101924638D01*
X124773093Y-101929320D01*
X124773242Y-101930360D01*
X124833028Y-102061272D01*
X124833029Y-102061273D01*
X124833030Y-102061275D01*
X124927279Y-102170045D01*
X125048354Y-102247855D01*
X125186446Y-102288402D01*
X125186447Y-102288402D01*
X125330367Y-102288402D01*
X125330368Y-102288402D01*
X125468460Y-102247855D01*
X125589535Y-102170045D01*
X125683784Y-102061275D01*
X125743572Y-101930359D01*
X125764054Y-101787902D01*
X130352760Y-101787902D01*
X130373242Y-101930360D01*
X130433028Y-102061272D01*
X130433029Y-102061273D01*
X130433030Y-102061275D01*
X130527279Y-102170045D01*
X130648354Y-102247855D01*
X130786446Y-102288402D01*
X130786447Y-102288402D01*
X130930367Y-102288402D01*
X130930368Y-102288402D01*
X131068460Y-102247855D01*
X131189535Y-102170045D01*
X131276009Y-102070247D01*
X131285590Y-102065452D01*
X131286652Y-102065416D01*
X133179558Y-102075539D01*
X133189435Y-102079693D01*
X133193483Y-102089614D01*
X133190064Y-102098707D01*
X133133028Y-102164531D01*
X133073242Y-102295443D01*
X133052760Y-102437902D01*
X133073242Y-102580360D01*
X133133028Y-102711272D01*
X133133029Y-102711273D01*
X133133030Y-102711275D01*
X133227279Y-102820045D01*
X133348354Y-102897855D01*
X133486446Y-102938402D01*
X133486447Y-102938402D01*
X133630367Y-102938402D01*
X133630368Y-102938402D01*
X133768460Y-102897855D01*
X133870568Y-102832232D01*
X133880346Y-102830186D01*
X160329845Y-107063073D01*
X161424757Y-107238299D01*
X161433884Y-107243912D01*
X161436402Y-107250130D01*
X161438336Y-107263577D01*
X161438336Y-107263578D01*
X161498123Y-107394493D01*
X161498124Y-107394494D01*
X161498125Y-107394496D01*
X161592374Y-107503266D01*
X161713449Y-107581076D01*
X161851541Y-107621623D01*
X161851542Y-107621623D01*
X161995462Y-107621623D01*
X161995463Y-107621623D01*
X162133555Y-107581076D01*
X162254630Y-107503266D01*
X162348879Y-107394496D01*
X162408667Y-107263580D01*
X162429149Y-107121123D01*
X162408667Y-106978666D01*
X162348879Y-106847750D01*
X162254630Y-106738980D01*
X162176819Y-106688974D01*
X162133554Y-106661169D01*
X162028175Y-106630228D01*
X161995463Y-106620623D01*
X161851541Y-106620623D01*
X161822953Y-106629017D01*
X161713449Y-106661169D01*
X161611338Y-106726791D01*
X161601557Y-106728837D01*
X134057151Y-102320726D01*
X134048024Y-102315113D01*
X134045505Y-102308894D01*
X134045342Y-102307760D01*
X134043572Y-102295445D01*
X133983784Y-102164529D01*
X133930276Y-102102778D01*
X133926893Y-102092612D01*
X133931689Y-102083031D01*
X133940931Y-102079611D01*
X161449116Y-102226722D01*
X161458993Y-102230876D01*
X161461776Y-102234906D01*
X161498123Y-102314493D01*
X161498124Y-102314494D01*
X161498125Y-102314496D01*
X161592374Y-102423266D01*
X161713449Y-102501076D01*
X161851541Y-102541623D01*
X161851542Y-102541623D01*
X161995462Y-102541623D01*
X161995463Y-102541623D01*
X162133555Y-102501076D01*
X162254630Y-102423266D01*
X162348879Y-102314496D01*
X162408667Y-102183580D01*
X162429149Y-102041123D01*
X162408667Y-101898666D01*
X162348879Y-101767750D01*
X162254630Y-101658980D01*
X162176819Y-101608974D01*
X162133554Y-101581169D01*
X162009474Y-101544737D01*
X161995463Y-101540623D01*
X161851541Y-101540623D01*
X161837530Y-101544737D01*
X161713449Y-101581169D01*
X161592374Y-101658980D01*
X161592366Y-101658986D01*
X161567974Y-101687137D01*
X161559883Y-101691746D01*
X161536642Y-101695945D01*
X161534078Y-101696168D01*
X133893100Y-101548346D01*
X133883223Y-101544192D01*
X133879175Y-101534271D01*
X133883329Y-101524394D01*
X133885597Y-101522575D01*
X133889535Y-101520045D01*
X133944920Y-101456125D01*
X133954499Y-101451330D01*
X161465021Y-99723658D01*
X161475157Y-99727129D01*
X161478632Y-99731814D01*
X161498123Y-99774493D01*
X161498124Y-99774494D01*
X161498125Y-99774496D01*
X161592374Y-99883266D01*
X161713449Y-99961076D01*
X161851541Y-100001623D01*
X161851542Y-100001623D01*
X161995462Y-100001623D01*
X161995463Y-100001623D01*
X162133555Y-99961076D01*
X162254630Y-99883266D01*
X162348879Y-99774496D01*
X162408667Y-99643580D01*
X162429149Y-99501123D01*
X162408667Y-99358666D01*
X162348879Y-99227750D01*
X162254630Y-99118980D01*
X162176819Y-99068974D01*
X162133554Y-99041169D01*
X162036009Y-99012528D01*
X161995463Y-99000623D01*
X161851541Y-99000623D01*
X161820198Y-99009826D01*
X161713449Y-99041169D01*
X161592374Y-99118980D01*
X161592367Y-99118986D01*
X161536987Y-99182897D01*
X161527406Y-99187693D01*
X161527284Y-99187701D01*
X134016887Y-100915366D01*
X134006750Y-100911895D01*
X134003275Y-100907210D01*
X133983785Y-100864531D01*
X133983784Y-100864530D01*
X133983784Y-100864529D01*
X133889535Y-100755759D01*
X133811724Y-100705753D01*
X133768459Y-100677948D01*
X133670914Y-100649307D01*
X133630368Y-100637402D01*
X133486446Y-100637402D01*
X133455103Y-100646605D01*
X133348354Y-100677948D01*
X133227279Y-100755759D01*
X133227276Y-100755762D01*
X133133028Y-100864531D01*
X133073242Y-100995443D01*
X133052760Y-101137902D01*
X133073242Y-101280360D01*
X133133028Y-101411272D01*
X133133029Y-101411273D01*
X133133030Y-101411275D01*
X133227279Y-101520045D01*
X133227283Y-101520048D01*
X133227403Y-101520152D01*
X133227445Y-101520237D01*
X133227935Y-101520802D01*
X133227791Y-101520926D01*
X133232204Y-101529732D01*
X133228825Y-101539900D01*
X133219245Y-101544701D01*
X133218165Y-101544737D01*
X131301821Y-101534488D01*
X131291944Y-101530334D01*
X131289161Y-101526304D01*
X131283784Y-101514529D01*
X131189535Y-101405759D01*
X131093167Y-101343827D01*
X131068459Y-101327948D01*
X130970914Y-101299307D01*
X130930368Y-101287402D01*
X130786446Y-101287402D01*
X130757657Y-101295855D01*
X130648354Y-101327948D01*
X130527279Y-101405759D01*
X130527276Y-101405762D01*
X130433028Y-101514531D01*
X130373242Y-101645443D01*
X130352760Y-101787902D01*
X125764054Y-101787902D01*
X125743572Y-101645445D01*
X125687455Y-101522567D01*
X125683785Y-101514531D01*
X125683784Y-101514530D01*
X125683784Y-101514529D01*
X125589535Y-101405759D01*
X125589532Y-101405757D01*
X125589530Y-101405755D01*
X125506863Y-101352628D01*
X125500752Y-101343827D01*
X125502655Y-101333282D01*
X125511456Y-101327171D01*
X125514863Y-101326858D01*
X127514571Y-101389605D01*
X127524337Y-101394014D01*
X127526867Y-101397782D01*
X127533028Y-101411272D01*
X127533029Y-101411273D01*
X127533030Y-101411275D01*
X127627279Y-101520045D01*
X127748354Y-101597855D01*
X127886446Y-101638402D01*
X127886447Y-101638402D01*
X128030367Y-101638402D01*
X128030368Y-101638402D01*
X128168460Y-101597855D01*
X128289535Y-101520045D01*
X128383784Y-101411275D01*
X128443572Y-101280359D01*
X128464054Y-101137902D01*
X128443572Y-100995445D01*
X128383784Y-100864529D01*
X128289535Y-100755759D01*
X128211724Y-100705753D01*
X128168459Y-100677948D01*
X128070914Y-100649307D01*
X128030368Y-100637402D01*
X127886446Y-100637402D01*
X127855103Y-100646605D01*
X127748354Y-100677948D01*
X127627279Y-100755759D01*
X127627272Y-100755765D01*
X127542118Y-100854038D01*
X127532537Y-100858834D01*
X127531099Y-100858863D01*
X125679770Y-100800770D01*
X125670004Y-100796361D01*
X125666216Y-100786338D01*
X125669627Y-100777611D01*
X125683784Y-100761275D01*
X125743572Y-100630359D01*
X125764054Y-100487902D01*
X130352760Y-100487902D01*
X130373242Y-100630360D01*
X130433028Y-100761272D01*
X130433029Y-100761273D01*
X130433030Y-100761275D01*
X130527279Y-100870045D01*
X130648354Y-100947855D01*
X130786446Y-100988402D01*
X130786447Y-100988402D01*
X130930367Y-100988402D01*
X130930368Y-100988402D01*
X131068460Y-100947855D01*
X131189535Y-100870045D01*
X131283784Y-100761275D01*
X131287827Y-100752419D01*
X131295179Y-100745312D01*
X131300708Y-100743011D01*
X131303323Y-100742214D01*
X161497461Y-94704547D01*
X161507970Y-94706627D01*
X161510785Y-94709107D01*
X161592374Y-94803266D01*
X161713449Y-94881076D01*
X161851541Y-94921623D01*
X161851542Y-94921623D01*
X161995462Y-94921623D01*
X161995463Y-94921623D01*
X162133555Y-94881076D01*
X162254630Y-94803266D01*
X162348879Y-94694496D01*
X162408667Y-94563580D01*
X162429149Y-94421123D01*
X162408667Y-94278666D01*
X162355206Y-94161603D01*
X162348880Y-94147752D01*
X162348879Y-94147751D01*
X162348879Y-94147750D01*
X162254630Y-94038980D01*
X162176819Y-93988974D01*
X162133554Y-93961169D01*
X162036009Y-93932528D01*
X161995463Y-93920623D01*
X161851541Y-93920623D01*
X161820198Y-93929826D01*
X161713449Y-93961169D01*
X161592374Y-94038980D01*
X161592371Y-94038983D01*
X161498122Y-94147753D01*
X161498122Y-94147754D01*
X161494079Y-94156606D01*
X161486724Y-94163714D01*
X161481212Y-94166008D01*
X161478578Y-94166811D01*
X131284449Y-100204477D01*
X131273938Y-100202397D01*
X131271123Y-100199917D01*
X131189535Y-100105759D01*
X131089742Y-100041626D01*
X131068459Y-100027948D01*
X130968253Y-99998526D01*
X130930368Y-99987402D01*
X130786446Y-99987402D01*
X130755103Y-99996605D01*
X130648354Y-100027948D01*
X130527279Y-100105759D01*
X130527276Y-100105762D01*
X130433028Y-100214531D01*
X130373242Y-100345443D01*
X130352760Y-100487902D01*
X125764054Y-100487902D01*
X125743572Y-100345445D01*
X125683784Y-100214529D01*
X125589535Y-100105759D01*
X125489742Y-100041626D01*
X125468459Y-100027948D01*
X125368253Y-99998526D01*
X125330368Y-99987402D01*
X125186446Y-99987402D01*
X125165146Y-99993655D01*
X125137619Y-100001738D01*
X125126965Y-100000592D01*
X125124110Y-99998528D01*
X120789931Y-95941516D01*
X120787801Y-95938598D01*
X120787775Y-95938618D01*
X120786954Y-95937513D01*
X120769341Y-95921599D01*
X120749538Y-95903704D01*
X120749416Y-95903592D01*
X120712648Y-95869174D01*
X120711477Y-95868447D01*
X120711493Y-95868420D01*
X120708409Y-95866540D01*
X119494096Y-94769269D01*
X119493592Y-94768897D01*
X119460549Y-94739065D01*
X119383967Y-94686035D01*
X119297751Y-94626334D01*
X119121782Y-94535519D01*
X119121778Y-94535517D01*
X119121777Y-94535517D01*
X119121769Y-94535513D01*
X119043570Y-94507214D01*
X119035657Y-94499990D01*
X119035170Y-94489286D01*
X119042394Y-94481373D01*
X119043270Y-94480998D01*
X119045342Y-94480196D01*
X119234503Y-94363073D01*
X119398922Y-94213185D01*
X119532999Y-94035638D01*
X119632170Y-93836477D01*
X119693056Y-93622485D01*
X119713584Y-93400949D01*
X119693056Y-93179413D01*
X119632170Y-92965421D01*
X119615588Y-92932120D01*
X119533004Y-92766269D01*
X119532999Y-92766260D01*
X119398922Y-92588713D01*
X119234503Y-92438825D01*
X119181925Y-92406270D01*
X119045343Y-92321702D01*
X119045344Y-92321702D01*
X118837878Y-92241330D01*
X118619184Y-92200449D01*
X118396698Y-92200449D01*
X118396697Y-92200449D01*
X118178003Y-92241330D01*
X117970537Y-92321702D01*
X117781380Y-92438824D01*
X117781379Y-92438825D01*
X117616960Y-92588712D01*
X117482882Y-92766260D01*
X117482877Y-92766269D01*
X117383716Y-92965411D01*
X117383713Y-92965417D01*
X117322826Y-93179411D01*
X117322824Y-93179421D01*
X117302298Y-93400946D01*
X117302298Y-93400951D01*
X117322824Y-93622476D01*
X117322826Y-93622486D01*
X117383713Y-93836480D01*
X117383716Y-93836486D01*
X117412884Y-93895062D01*
X117413626Y-93905751D01*
X117406592Y-93913834D01*
X117395903Y-93914576D01*
X117393380Y-93913442D01*
X117199390Y-93802029D01*
X117125140Y-93759385D01*
X117118598Y-93750900D01*
X117118646Y-93743417D01*
X117153056Y-93622485D01*
X117173584Y-93400949D01*
X117153056Y-93179413D01*
X117092170Y-92965421D01*
X117075588Y-92932120D01*
X116993004Y-92766269D01*
X116992999Y-92766260D01*
X116858922Y-92588713D01*
X116694503Y-92438825D01*
X116641925Y-92406270D01*
X116505343Y-92321702D01*
X116505344Y-92321702D01*
X116297878Y-92241330D01*
X116079184Y-92200449D01*
X115856698Y-92200449D01*
X115856695Y-92200449D01*
X115705354Y-92228739D01*
X115694870Y-92226527D01*
X115689020Y-92217549D01*
X115691232Y-92207065D01*
X115692302Y-92205695D01*
X116640177Y-91137525D01*
X116640204Y-91137500D01*
X116640895Y-91136720D01*
X116640898Y-91136719D01*
X116680262Y-91092356D01*
X116689573Y-91081862D01*
X116692989Y-91078010D01*
X116695143Y-91076043D01*
X116697467Y-91074329D01*
X116707973Y-91061153D01*
X116708413Y-91060630D01*
X116719612Y-91048011D01*
X116720906Y-91045423D01*
X116722477Y-91042966D01*
X116813440Y-90928901D01*
X116814783Y-90925820D01*
X116816343Y-90923115D01*
X116830669Y-90903707D01*
X116844261Y-90883770D01*
X116846299Y-90881403D01*
X116848767Y-90879114D01*
X116866495Y-90850901D01*
X116874716Y-90837816D01*
X116874718Y-90837815D01*
X116880320Y-90828899D01*
X116911874Y-90778680D01*
X116914257Y-90774887D01*
X116914260Y-90774884D01*
X116916180Y-90771829D01*
X116932106Y-90746483D01*
X116932109Y-90746475D01*
X116932224Y-90746294D01*
X116932245Y-90746256D01*
X116947730Y-90721616D01*
X116948719Y-90718406D01*
X116949970Y-90715539D01*
X116962039Y-90694636D01*
X116973307Y-90673313D01*
X116975074Y-90670722D01*
X116977260Y-90668183D01*
X116989906Y-90641920D01*
X116989941Y-90641852D01*
X116990007Y-90641714D01*
X116990012Y-90641706D01*
X117002999Y-90614736D01*
X117003000Y-90614736D01*
X117006504Y-90607460D01*
X117029694Y-90559303D01*
X117029698Y-90559300D01*
X117032238Y-90554024D01*
X117032239Y-90554025D01*
X117051722Y-90513566D01*
X117051728Y-90513547D01*
X117051839Y-90513319D01*
X117051854Y-90513286D01*
X117057967Y-90500595D01*
X117058431Y-90498136D01*
X117059250Y-90495386D01*
X117086090Y-90430592D01*
X117109246Y-90364412D01*
X117110466Y-90361816D01*
X117111764Y-90359664D01*
X117163995Y-90178364D01*
X117165436Y-90173362D01*
X117177868Y-90130211D01*
X117177871Y-90130196D01*
X117181854Y-90116372D01*
X117181900Y-90113864D01*
X117182248Y-90111014D01*
X117197852Y-90042651D01*
X117209596Y-89973525D01*
X117210362Y-89970770D01*
X117211282Y-89968429D01*
X117212924Y-89953862D01*
X117215078Y-89934740D01*
X117218713Y-89902471D01*
X117218718Y-89902450D01*
X117218831Y-89901446D01*
X117218832Y-89901444D01*
X117224872Y-89847817D01*
X117224874Y-89847815D01*
X117225854Y-89839120D01*
X117228822Y-89812767D01*
X117232110Y-89783591D01*
X117231607Y-89780261D01*
X117231490Y-89777140D01*
X117233294Y-89753077D01*
X117234196Y-89728969D01*
X117234661Y-89725883D01*
X117235533Y-89722632D01*
X117235533Y-89656170D01*
X117235535Y-89656125D01*
X117235534Y-89655218D01*
X117235536Y-89655215D01*
X117235534Y-89610039D01*
X117235534Y-89604023D01*
X117235534Y-89602901D01*
X117235533Y-89602887D01*
X117235533Y-89601708D01*
X117235536Y-89601698D01*
X117235536Y-89595905D01*
X117235537Y-89595905D01*
X117235536Y-89565977D01*
X117235536Y-89565798D01*
X117235533Y-89565639D01*
X117235533Y-89536623D01*
X117235532Y-89536621D01*
X117234665Y-89533386D01*
X117234198Y-89530294D01*
X117233295Y-89506161D01*
X117231491Y-89482107D01*
X117231608Y-89478989D01*
X117232110Y-89475665D01*
X117211282Y-89290826D01*
X117210049Y-89287687D01*
X117209239Y-89284666D01*
X117205649Y-89260836D01*
X117201164Y-89237133D01*
X117200931Y-89234007D01*
X117201057Y-89230649D01*
X117174680Y-89115078D01*
X117174680Y-89115077D01*
X117172867Y-89107131D01*
X117159669Y-89049306D01*
X117159668Y-89049305D01*
X117159668Y-89049302D01*
X117158085Y-89046308D01*
X117156941Y-89043391D01*
X117150711Y-89020133D01*
X117143600Y-88997079D01*
X117143017Y-88993995D01*
X117142766Y-88990639D01*
X117142765Y-88990634D01*
X117119998Y-88925571D01*
X117119998Y-88925570D01*
X117118131Y-88920232D01*
X117103599Y-88878693D01*
X117103597Y-88878691D01*
X117103314Y-88877880D01*
X117103299Y-88877846D01*
X117081333Y-88815067D01*
X117081332Y-88815065D01*
X117081331Y-88815063D01*
X117079906Y-88812974D01*
X117078543Y-88810454D01*
X117051720Y-88745692D01*
X117041801Y-88725094D01*
X117041201Y-88714396D01*
X117048341Y-88706406D01*
X117056984Y-88705258D01*
X131019860Y-91314493D01*
X131019862Y-91314492D01*
X131019863Y-91314493D01*
X131021195Y-91314485D01*
X131097699Y-91314041D01*
X131480383Y-91237921D01*
X131521801Y-91225014D01*
X163902699Y-77233875D01*
X163908652Y-77230634D01*
X163911386Y-77229503D01*
X163916438Y-77228021D01*
X163932537Y-77217674D01*
X163933364Y-77217184D01*
X163935359Y-77216099D01*
X163944614Y-77209914D01*
X163944744Y-77209829D01*
X164037513Y-77150211D01*
X164062968Y-77120832D01*
X164063623Y-77120129D01*
X164089384Y-77094370D01*
X164100643Y-77077518D01*
X164101694Y-77076139D01*
X164131762Y-77041441D01*
X164146437Y-77009305D01*
X164147523Y-77007357D01*
X164154416Y-76997043D01*
X164177515Y-76941274D01*
X164177678Y-76940899D01*
X164191550Y-76910525D01*
X164201866Y-76838767D01*
X164201991Y-76838041D01*
X164207936Y-76808157D01*
X164207936Y-76797553D01*
X164208079Y-76795560D01*
X164212032Y-76768068D01*
X164208078Y-76740566D01*
X164207936Y-76738574D01*
X164207936Y-76727978D01*
X164207936Y-76727977D01*
X164201984Y-76698060D01*
X164201869Y-76697386D01*
X164191550Y-76625611D01*
X164177686Y-76595254D01*
X164177496Y-76594815D01*
X164154416Y-76539093D01*
X164154414Y-76539089D01*
X164147529Y-76528785D01*
X164146434Y-76526823D01*
X164131762Y-76494695D01*
X164131761Y-76494694D01*
X164101702Y-76460004D01*
X164100641Y-76458614D01*
X164089384Y-76441766D01*
X164063629Y-76416011D01*
X164062961Y-76415294D01*
X164037513Y-76385925D01*
X164037510Y-76385923D01*
X164037508Y-76385921D01*
X163944804Y-76326343D01*
X163944596Y-76326207D01*
X163935361Y-76320037D01*
X163934756Y-76319714D01*
X163934758Y-76319709D01*
X163933267Y-76318929D01*
X163916438Y-76308115D01*
X163916436Y-76308114D01*
X163883281Y-76298379D01*
X163881875Y-76297882D01*
X163867851Y-76292074D01*
X163861284Y-76289354D01*
X163861279Y-76289352D01*
X163834795Y-76284084D01*
X163833582Y-76283786D01*
X163817130Y-76278955D01*
X163778346Y-76267568D01*
X163778345Y-76267568D01*
X163753139Y-76267568D01*
X163750408Y-76267299D01*
X163746476Y-76266517D01*
X163666294Y-76266517D01*
X163662362Y-76267299D01*
X163659631Y-76267568D01*
X163634424Y-76267568D01*
X163579188Y-76283785D01*
X163577976Y-76284083D01*
X163551490Y-76289352D01*
X163509543Y-76302489D01*
X163509535Y-76302492D01*
X163498023Y-76307504D01*
X163496405Y-76308092D01*
X163496339Y-76308111D01*
X163495884Y-76308318D01*
X163494695Y-76308952D01*
X131570792Y-90210145D01*
X131560079Y-90210338D01*
X131552367Y-90202898D01*
X131551346Y-90195316D01*
X131563255Y-90112491D01*
X131542773Y-89970034D01*
X131482985Y-89839118D01*
X131388736Y-89730348D01*
X131273313Y-89656170D01*
X131267660Y-89652537D01*
X131170115Y-89623896D01*
X131129569Y-89611991D01*
X130985647Y-89611991D01*
X130985646Y-89611991D01*
X130973059Y-89615686D01*
X130965164Y-89615684D01*
X115670676Y-85114794D01*
X125759530Y-85114794D01*
X125759530Y-85114799D01*
X125780116Y-85336970D01*
X125780118Y-85336980D01*
X125841183Y-85551598D01*
X125841186Y-85551604D01*
X125940635Y-85751327D01*
X125940640Y-85751336D01*
X126031811Y-85872066D01*
X126500319Y-85403558D01*
X126528578Y-85452505D01*
X126630980Y-85554907D01*
X126679924Y-85583164D01*
X126210376Y-86052712D01*
X126240008Y-86079725D01*
X126240009Y-86079726D01*
X126429718Y-86197190D01*
X126429717Y-86197190D01*
X126637788Y-86277796D01*
X126857120Y-86318796D01*
X126857122Y-86318797D01*
X127080254Y-86318797D01*
X127080255Y-86318796D01*
X127299587Y-86277796D01*
X127507657Y-86197190D01*
X127697367Y-86079725D01*
X127697372Y-86079722D01*
X127726999Y-86052712D01*
X127257451Y-85583164D01*
X127306396Y-85554907D01*
X127408798Y-85452505D01*
X127437055Y-85403560D01*
X127905562Y-85872067D01*
X127996735Y-85751336D01*
X127996740Y-85751327D01*
X128096189Y-85551604D01*
X128096192Y-85551598D01*
X128157257Y-85336980D01*
X128157259Y-85336970D01*
X128177846Y-85114799D01*
X128177846Y-85114794D01*
X128353259Y-85114794D01*
X128353259Y-85114799D01*
X128372930Y-85327098D01*
X128372932Y-85327108D01*
X128431284Y-85532189D01*
X128431287Y-85532195D01*
X128526316Y-85723042D01*
X128526321Y-85723051D01*
X128526322Y-85723052D01*
X128654816Y-85893204D01*
X128812386Y-86036849D01*
X128993667Y-86149094D01*
X128993666Y-86149094D01*
X128993669Y-86149095D01*
X129192490Y-86226118D01*
X129402078Y-86265297D01*
X129402079Y-86265297D01*
X129615297Y-86265297D01*
X129615298Y-86265297D01*
X129824886Y-86226118D01*
X130023707Y-86149095D01*
X130204990Y-86036849D01*
X130362560Y-85893204D01*
X130491054Y-85723052D01*
X130586093Y-85532186D01*
X130644444Y-85327107D01*
X130644659Y-85324790D01*
X130664117Y-85114799D01*
X130664117Y-85114794D01*
X130893259Y-85114794D01*
X130893259Y-85114799D01*
X130912930Y-85327098D01*
X130912932Y-85327108D01*
X130971284Y-85532189D01*
X130971287Y-85532195D01*
X131066316Y-85723042D01*
X131066321Y-85723051D01*
X131066322Y-85723052D01*
X131194816Y-85893204D01*
X131352386Y-86036849D01*
X131533667Y-86149094D01*
X131533666Y-86149094D01*
X131533669Y-86149095D01*
X131732490Y-86226118D01*
X131942078Y-86265297D01*
X131942079Y-86265297D01*
X132155297Y-86265297D01*
X132155298Y-86265297D01*
X132364886Y-86226118D01*
X132563707Y-86149095D01*
X132744990Y-86036849D01*
X132902560Y-85893204D01*
X133031054Y-85723052D01*
X133126093Y-85532186D01*
X133184444Y-85327107D01*
X133184659Y-85324790D01*
X133204117Y-85114799D01*
X133204117Y-85114794D01*
X133184445Y-84902495D01*
X133184444Y-84902492D01*
X133184444Y-84902487D01*
X133126093Y-84697408D01*
X133062027Y-84568744D01*
X133031059Y-84506551D01*
X133031054Y-84506542D01*
X132983610Y-84443717D01*
X132902560Y-84336390D01*
X132744990Y-84192745D01*
X132675748Y-84149872D01*
X132563708Y-84080499D01*
X132563709Y-84080499D01*
X132364883Y-84003475D01*
X132155298Y-83964297D01*
X131942078Y-83964297D01*
X131942077Y-83964297D01*
X131732492Y-84003475D01*
X131533666Y-84080499D01*
X131352387Y-84192744D01*
X131352386Y-84192745D01*
X131194816Y-84336389D01*
X131066321Y-84506542D01*
X131066316Y-84506551D01*
X130971287Y-84697398D01*
X130971284Y-84697404D01*
X130912932Y-84902485D01*
X130912930Y-84902495D01*
X130893259Y-85114794D01*
X130664117Y-85114794D01*
X130644445Y-84902495D01*
X130644444Y-84902492D01*
X130644444Y-84902487D01*
X130586093Y-84697408D01*
X130522027Y-84568744D01*
X130491059Y-84506551D01*
X130491054Y-84506542D01*
X130443610Y-84443717D01*
X130362560Y-84336390D01*
X130204990Y-84192745D01*
X130135748Y-84149872D01*
X130023708Y-84080499D01*
X130023709Y-84080499D01*
X129824883Y-84003475D01*
X129615298Y-83964297D01*
X129402078Y-83964297D01*
X129402077Y-83964297D01*
X129192492Y-84003475D01*
X128993666Y-84080499D01*
X128812387Y-84192744D01*
X128812386Y-84192745D01*
X128654816Y-84336389D01*
X128526321Y-84506542D01*
X128526316Y-84506551D01*
X128431287Y-84697398D01*
X128431284Y-84697404D01*
X128372932Y-84902485D01*
X128372930Y-84902495D01*
X128353259Y-85114794D01*
X128177846Y-85114794D01*
X128157259Y-84892623D01*
X128157257Y-84892613D01*
X128096192Y-84677995D01*
X128096189Y-84677989D01*
X127996740Y-84478266D01*
X127996735Y-84478257D01*
X127905562Y-84357525D01*
X127437055Y-84826032D01*
X127408798Y-84777089D01*
X127306396Y-84674687D01*
X127257450Y-84646428D01*
X127726998Y-84176880D01*
X127697367Y-84149868D01*
X127697366Y-84149867D01*
X127507657Y-84032403D01*
X127507658Y-84032403D01*
X127299587Y-83951797D01*
X127080255Y-83910797D01*
X126857120Y-83910797D01*
X126637788Y-83951797D01*
X126429718Y-84032403D01*
X126240009Y-84149867D01*
X126240002Y-84149872D01*
X126210375Y-84176879D01*
X126210375Y-84176880D01*
X126679924Y-84646429D01*
X126630980Y-84674687D01*
X126528578Y-84777089D01*
X126500320Y-84826033D01*
X126031812Y-84357525D01*
X125940641Y-84478257D01*
X125940635Y-84478266D01*
X125841186Y-84677989D01*
X125841183Y-84677995D01*
X125780118Y-84892613D01*
X125780116Y-84892623D01*
X125759530Y-85114794D01*
X115670676Y-85114794D01*
X115631805Y-85103355D01*
X115623465Y-85096626D01*
X115621825Y-85091299D01*
X115621057Y-85083495D01*
X115563847Y-84894900D01*
X115470943Y-84721089D01*
X115345916Y-84568744D01*
X115193571Y-84443717D01*
X115019760Y-84350813D01*
X115019757Y-84350812D01*
X115019755Y-84350811D01*
X114831171Y-84293604D01*
X114831167Y-84293603D01*
X114831047Y-84293591D01*
X114830721Y-84293559D01*
X114830590Y-84293489D01*
X114830494Y-84293470D01*
X114830499Y-84293440D01*
X114821273Y-84288509D01*
X114818162Y-84278255D01*
X114823213Y-84268805D01*
X114830494Y-84265788D01*
X114830494Y-84265784D01*
X114830516Y-84265779D01*
X114830721Y-84265694D01*
X114831165Y-84265651D01*
X115019760Y-84208441D01*
X115193571Y-84115537D01*
X115345916Y-83990510D01*
X115470943Y-83838165D01*
X115502704Y-83778744D01*
X138710121Y-83778744D01*
X138710121Y-83778751D01*
X138725434Y-83868907D01*
X138725435Y-83868911D01*
X138725436Y-83868912D01*
X138727021Y-83872739D01*
X138763659Y-83931047D01*
X138838249Y-83983967D01*
X138842076Y-83985552D01*
X138909178Y-84000867D01*
X138978143Y-83989152D01*
X138999337Y-83985553D01*
X138999337Y-83985552D01*
X138999342Y-83985552D01*
X139003169Y-83983967D01*
X139061477Y-83947329D01*
X139114397Y-83872739D01*
X139115982Y-83868912D01*
X139131297Y-83801810D01*
X139115982Y-83711646D01*
X139114397Y-83707819D01*
X139077759Y-83649511D01*
X139077757Y-83649510D01*
X139077757Y-83649509D01*
X139003170Y-83596592D01*
X139003169Y-83596591D01*
X138999342Y-83595006D01*
X138999340Y-83595005D01*
X138999337Y-83595004D01*
X138932243Y-83579691D01*
X138932236Y-83579691D01*
X138842080Y-83595004D01*
X138838252Y-83596589D01*
X138838248Y-83596591D01*
X138779939Y-83633230D01*
X138727022Y-83707817D01*
X138725435Y-83711647D01*
X138725434Y-83711650D01*
X138710121Y-83778744D01*
X115502704Y-83778744D01*
X115563847Y-83664354D01*
X115621057Y-83475759D01*
X115640374Y-83279627D01*
X115621057Y-83083495D01*
X115563847Y-82894900D01*
X115470943Y-82721089D01*
X115345916Y-82568744D01*
X115193571Y-82443717D01*
X115019760Y-82350813D01*
X115019757Y-82350812D01*
X115019755Y-82350811D01*
X114831171Y-82293604D01*
X114831167Y-82293603D01*
X114635033Y-82274286D01*
X114438898Y-82293603D01*
X114438894Y-82293604D01*
X114250308Y-82350811D01*
X114241502Y-82355518D01*
X114230838Y-82356568D01*
X114222556Y-82349770D01*
X114221506Y-82339106D01*
X114222389Y-82336894D01*
X114349889Y-82083029D01*
X114357995Y-82076026D01*
X114360048Y-82075514D01*
X114363666Y-82074900D01*
X114367493Y-82073315D01*
X114425801Y-82036677D01*
X114478721Y-81962087D01*
X114480306Y-81958260D01*
X114495621Y-81891158D01*
X114483912Y-81822229D01*
X114485202Y-81813607D01*
X115557777Y-79678005D01*
X115559618Y-79672645D01*
X115560513Y-79670591D01*
X115563845Y-79664357D01*
X115563847Y-79664354D01*
X115574208Y-79630195D01*
X115574338Y-79629792D01*
X115575688Y-79625865D01*
X115575871Y-79624941D01*
X115576196Y-79623643D01*
X115613705Y-79499994D01*
X117994415Y-79499994D01*
X117994415Y-79500005D01*
X118014737Y-79848923D01*
X118075429Y-80193132D01*
X118175672Y-80527965D01*
X118175674Y-80527971D01*
X118252348Y-80705722D01*
X118314110Y-80848903D01*
X118488864Y-81151587D01*
X118488865Y-81151590D01*
X118561449Y-81249087D01*
X118697588Y-81431953D01*
X118697595Y-81431960D01*
X118697598Y-81431964D01*
X118937435Y-81686177D01*
X118937441Y-81686182D01*
X118937442Y-81686183D01*
X119205189Y-81910849D01*
X119497207Y-82102913D01*
X119809549Y-82259777D01*
X120137989Y-82379319D01*
X120478086Y-82459923D01*
X120541657Y-82467353D01*
X120825226Y-82500499D01*
X120825238Y-82500499D01*
X120825241Y-82500500D01*
X120825243Y-82500500D01*
X121174757Y-82500500D01*
X121174759Y-82500500D01*
X121174761Y-82500499D01*
X121174773Y-82500499D01*
X121414340Y-82472496D01*
X121521914Y-82459923D01*
X121862011Y-82379319D01*
X122190451Y-82259777D01*
X122502793Y-82102913D01*
X122794811Y-81910849D01*
X123062558Y-81686183D01*
X123302412Y-81431953D01*
X123511130Y-81151596D01*
X123511131Y-81151593D01*
X123511134Y-81151590D01*
X123511135Y-81151587D01*
X123685889Y-80848904D01*
X123824326Y-80527971D01*
X123924569Y-80193136D01*
X123985262Y-79848927D01*
X124005585Y-79500000D01*
X124004173Y-79475765D01*
X123985262Y-79151076D01*
X123985262Y-79151073D01*
X123946879Y-78933389D01*
X123924570Y-78806867D01*
X123862805Y-78600558D01*
X123824326Y-78472029D01*
X123685889Y-78151096D01*
X123511135Y-77848412D01*
X123511134Y-77848409D01*
X123423076Y-77730127D01*
X123302412Y-77568047D01*
X123302401Y-77568035D01*
X123062564Y-77313822D01*
X123045782Y-77299740D01*
X122794811Y-77089151D01*
X122502793Y-76897087D01*
X122325719Y-76808157D01*
X122190456Y-76740225D01*
X122190451Y-76740223D01*
X121862011Y-76620681D01*
X121752873Y-76594815D01*
X121521916Y-76540077D01*
X121521903Y-76540075D01*
X121174773Y-76499500D01*
X121174759Y-76499500D01*
X120825241Y-76499500D01*
X120825226Y-76499500D01*
X120478096Y-76540075D01*
X120478083Y-76540077D01*
X120137993Y-76620680D01*
X120137989Y-76620681D01*
X119809543Y-76740225D01*
X119497203Y-76897089D01*
X119205191Y-77089149D01*
X118937435Y-77313822D01*
X118697598Y-77568035D01*
X118697589Y-77568046D01*
X118488865Y-77848409D01*
X118488864Y-77848412D01*
X118314110Y-78151096D01*
X118175676Y-78472025D01*
X118175672Y-78472034D01*
X118075429Y-78806867D01*
X118014737Y-79151076D01*
X117994415Y-79499994D01*
X115613705Y-79499994D01*
X115621057Y-79475759D01*
X115636202Y-79321967D01*
X115636403Y-79320620D01*
X115636584Y-79319718D01*
X115636584Y-79318799D01*
X115636651Y-79317427D01*
X115640374Y-79279627D01*
X115636651Y-79241825D01*
X115636584Y-79240453D01*
X115636584Y-79239540D01*
X115636584Y-79239536D01*
X115636401Y-79238622D01*
X115636203Y-79237294D01*
X115621057Y-79083495D01*
X115576197Y-78935613D01*
X115575871Y-78934308D01*
X115575688Y-78933389D01*
X115575331Y-78932527D01*
X115574867Y-78931230D01*
X115563849Y-78894905D01*
X115563847Y-78894902D01*
X115563847Y-78894900D01*
X115545948Y-78861414D01*
X115545360Y-78860170D01*
X115545004Y-78859310D01*
X115545002Y-78859307D01*
X115544489Y-78858540D01*
X115543777Y-78857353D01*
X115470945Y-78721093D01*
X115470944Y-78721091D01*
X115470943Y-78721089D01*
X115372912Y-78601639D01*
X115372104Y-78600549D01*
X115371585Y-78599772D01*
X115370927Y-78599114D01*
X115370010Y-78598102D01*
X115345918Y-78568746D01*
X115316557Y-78544650D01*
X115316553Y-78544646D01*
X115315543Y-78543730D01*
X115314888Y-78543075D01*
X115314887Y-78543074D01*
X115314884Y-78543071D01*
X115314110Y-78542554D01*
X115313011Y-78541738D01*
X115193573Y-78443718D01*
X115193570Y-78443716D01*
X115057302Y-78370880D01*
X115056127Y-78370175D01*
X115055350Y-78369656D01*
X115054485Y-78369297D01*
X115053248Y-78368712D01*
X115019757Y-78350811D01*
X114983422Y-78339789D01*
X114982133Y-78339328D01*
X114981275Y-78338973D01*
X114981277Y-78338973D01*
X114981032Y-78338924D01*
X114980350Y-78338788D01*
X114979034Y-78338458D01*
X114831171Y-78293604D01*
X114831167Y-78293603D01*
X114677383Y-78278457D01*
X114676024Y-78278255D01*
X114675124Y-78278076D01*
X114674206Y-78278076D01*
X114672834Y-78278009D01*
X114635033Y-78274286D01*
X114597232Y-78278009D01*
X114595860Y-78278076D01*
X114594940Y-78278076D01*
X114594031Y-78278256D01*
X114592683Y-78278456D01*
X114438898Y-78293603D01*
X114438894Y-78293604D01*
X114291032Y-78338457D01*
X114289714Y-78338788D01*
X114288796Y-78338971D01*
X114288794Y-78338972D01*
X114287923Y-78339332D01*
X114286644Y-78339789D01*
X114250304Y-78350813D01*
X114250300Y-78350815D01*
X114216820Y-78368710D01*
X114215591Y-78369292D01*
X114214721Y-78369653D01*
X114214715Y-78369656D01*
X114213930Y-78370180D01*
X114212764Y-78370878D01*
X114076495Y-78443716D01*
X114076492Y-78443718D01*
X113957053Y-78541739D01*
X113955964Y-78542548D01*
X113955183Y-78543070D01*
X113955171Y-78543081D01*
X113954515Y-78543736D01*
X113953506Y-78544650D01*
X113924150Y-78568744D01*
X113900056Y-78598100D01*
X113899142Y-78599109D01*
X113898487Y-78599765D01*
X113898476Y-78599777D01*
X113897954Y-78600558D01*
X113897145Y-78601647D01*
X113799124Y-78721086D01*
X113799122Y-78721089D01*
X113726284Y-78857358D01*
X113725586Y-78858524D01*
X113725062Y-78859309D01*
X113725059Y-78859315D01*
X113724698Y-78860185D01*
X113724116Y-78861414D01*
X113706221Y-78894894D01*
X113706219Y-78894898D01*
X113695195Y-78931238D01*
X113694738Y-78932517D01*
X113694378Y-78933388D01*
X113694377Y-78933390D01*
X113694194Y-78934308D01*
X113693863Y-78935626D01*
X113649010Y-79083488D01*
X113649009Y-79083492D01*
X113633863Y-79237275D01*
X113633661Y-79238632D01*
X113633497Y-79239457D01*
X113633485Y-79239516D01*
X113633482Y-79239536D01*
X113632609Y-79244203D01*
X113632597Y-79244267D01*
X113632595Y-79244282D01*
X112932611Y-83244183D01*
X112932608Y-83244209D01*
X112929533Y-83279615D01*
X112131500Y-83279615D01*
X112131500Y-76850785D01*
X113434533Y-76850785D01*
X113434533Y-77008468D01*
X113465295Y-77163122D01*
X113465297Y-77163128D01*
X113525638Y-77308805D01*
X113554975Y-77352710D01*
X113613244Y-77439916D01*
X113613245Y-77439917D01*
X113613248Y-77439921D01*
X113724738Y-77551411D01*
X113724741Y-77551413D01*
X113724744Y-77551416D01*
X113855854Y-77639021D01*
X114001536Y-77699364D01*
X114156191Y-77730127D01*
X115113875Y-77730127D01*
X115268530Y-77699364D01*
X115414212Y-77639021D01*
X115545322Y-77551416D01*
X115656822Y-77439916D01*
X115744427Y-77308806D01*
X115804770Y-77163124D01*
X115835533Y-77008469D01*
X115835533Y-76850785D01*
X115804770Y-76696130D01*
X115744427Y-76550448D01*
X115656822Y-76419338D01*
X115656819Y-76419335D01*
X115656817Y-76419332D01*
X115545327Y-76307842D01*
X115545323Y-76307839D01*
X115545322Y-76307838D01*
X115414212Y-76220233D01*
X115414213Y-76220233D01*
X115414211Y-76220232D01*
X115268534Y-76159891D01*
X115268528Y-76159889D01*
X115113875Y-76129127D01*
X114156191Y-76129127D01*
X114001537Y-76159889D01*
X114001531Y-76159891D01*
X113855854Y-76220232D01*
X113724738Y-76307842D01*
X113613248Y-76419332D01*
X113525638Y-76550448D01*
X113465297Y-76696125D01*
X113465295Y-76696131D01*
X113434533Y-76850785D01*
X112131500Y-76850785D01*
X112131500Y-75895500D01*
X112135601Y-75885601D01*
X112145500Y-75881500D01*
X166854500Y-75881500D01*
X166864399Y-75885601D01*
G37*
G04 #@! TD.AperFunction*
M02*
